<svg width="25" height="24" viewBox="0 0 25 24" fill="none" xmlns="http://www.w3.org/2000/svg">
<path d="M3.10584 18.8463H0.705987C0.626427 18.8463 0.550126 18.8153 0.493868 18.76C0.437611 18.7047 0.406006 18.6297 0.406006 18.5515C0.406006 18.4733 0.437611 18.3983 0.493868 18.3431C0.550126 18.2878 0.626427 18.2567 0.705987 18.2567H3.10584C3.1854 18.2567 3.2617 18.2878 3.31796 18.3431C3.37421 18.3983 3.40582 18.4733 3.40582 18.5515C3.40582 18.6297 3.37421 18.7047 3.31796 18.76C3.2617 18.8153 3.1854 18.8463 3.10584 18.8463Z" fill="currentColor"/>
<path d="M3.10584 12.3607H0.705987C0.626427 12.3607 0.550126 12.3297 0.493868 12.2744C0.437611 12.2191 0.406006 12.1441 0.406006 12.0659C0.406006 11.9877 0.437611 11.9127 0.493868 11.8575C0.550126 11.8022 0.626427 11.7711 0.705987 11.7711H3.10584C3.1854 11.7711 3.2617 11.8022 3.31796 11.8575C3.37421 11.9127 3.40582 11.9877 3.40582 12.0659C3.40582 12.1441 3.37421 12.2191 3.31796 12.2744C3.2617 12.3297 3.1854 12.3607 3.10584 12.3607Z" fill="currentColor"/>
<path d="M3.10584 5.87512H0.705987C0.626427 5.87512 0.550126 5.84406 0.493868 5.78878C0.437611 5.73349 0.406006 5.65851 0.406006 5.58032C0.406006 5.50214 0.437611 5.42715 0.493868 5.37187C0.550126 5.31658 0.626427 5.28552 0.705987 5.28552H3.10584C3.1854 5.28552 3.2617 5.31658 3.31796 5.37187C3.37421 5.42715 3.40582 5.50214 3.40582 5.58032C3.40582 5.65851 3.37421 5.73349 3.31796 5.78878C3.2617 5.84406 3.1854 5.87512 3.10584 5.87512Z" fill="currentColor"/>
<path d="M1.60595 10.5919C1.52639 10.5919 1.45009 10.5609 1.39383 10.5056C1.33757 10.4503 1.30597 10.3753 1.30597 10.2971V7.34912C1.30597 7.27094 1.33757 7.19595 1.39383 7.14067C1.45009 7.08538 1.52639 7.05432 1.60595 7.05432C1.68551 7.05432 1.76181 7.08538 1.81807 7.14067C1.87433 7.19595 1.90593 7.27094 1.90593 7.34912V10.2971C1.90593 10.3753 1.87433 10.4503 1.81807 10.5056C1.76181 10.5609 1.68551 10.5919 1.60595 10.5919Z" fill="currentColor"/>
<path d="M1.60595 17.0775C1.52639 17.0775 1.45009 17.0465 1.39383 16.9912C1.33757 16.9359 1.30597 16.8609 1.30597 16.7827V13.5399C1.30597 13.4617 1.33757 13.3867 1.39383 13.3315C1.45009 13.2762 1.52639 13.2451 1.60595 13.2451C1.68551 13.2451 1.76181 13.2762 1.81807 13.3315C1.87433 13.3867 1.90593 13.4617 1.90593 13.5399V16.7827C1.90593 16.8609 1.87433 16.9359 1.81807 16.9912C1.76181 17.0465 1.68551 17.0775 1.60595 17.0775Z" fill="currentColor"/>
<path d="M23.3375 11.7856C23.2579 11.7856 23.1816 11.7545 23.1253 11.6992C23.0691 11.644 23.0375 11.569 23.0375 11.4908C23.0375 11.4126 23.0691 11.3376 23.1253 11.2823C23.1816 11.227 23.2579 11.196 23.3375 11.196C23.4617 11.1959 23.5808 11.1474 23.6687 11.061C23.7566 10.9747 23.8059 10.8576 23.806 10.7355V8.6834C23.8058 8.5614 23.7563 8.44447 23.6685 8.35826C23.5806 8.27205 23.4616 8.22359 23.3375 8.22351C23.2579 8.22351 23.1816 8.19245 23.1253 8.13717C23.0691 8.08188 23.0375 8.0069 23.0375 7.92871C23.0375 7.85053 23.0691 7.77554 23.1253 7.72026C23.1816 7.66497 23.2579 7.63391 23.3375 7.63391C23.6208 7.63422 23.8924 7.74495 24.0927 7.94182C24.293 8.13868 24.4057 8.40559 24.406 8.68399V10.7361C24.4055 11.0144 24.2928 11.2812 24.0925 11.4779C23.8922 11.6746 23.6206 11.7853 23.3375 11.7856Z" fill="currentColor"/>
<path d="M23.3375 6.18791C23.2579 6.18791 23.1816 6.15685 23.1253 6.10156C23.0691 6.04628 23.0375 5.97129 23.0375 5.89311C23.0375 5.81492 23.0691 5.73994 23.1253 5.68465C23.1816 5.62937 23.2579 5.59831 23.3375 5.59831C23.4617 5.59823 23.5808 5.54969 23.6687 5.46335C23.7566 5.37701 23.8059 5.25993 23.806 5.13783V3.08573C23.8059 2.96362 23.7566 2.84654 23.6687 2.7602C23.5808 2.67386 23.4617 2.62532 23.3375 2.62525C23.2579 2.62525 23.1816 2.59419 23.1253 2.5389C23.0691 2.48361 23.0375 2.40863 23.0375 2.33045C23.0375 2.25226 23.0691 2.17728 23.1253 2.12199C23.1816 2.0667 23.2579 2.03564 23.3375 2.03564C23.6208 2.03596 23.8924 2.14669 24.0927 2.34355C24.293 2.54041 24.4057 2.80732 24.406 3.08573V5.13783C24.4057 5.41623 24.293 5.68314 24.0927 5.88C23.8924 6.07686 23.6208 6.1876 23.3375 6.18791Z" fill="currentColor"/>
<path d="M4.90569 20.3202C4.82613 20.3202 4.74983 20.2892 4.69358 20.2339C4.63732 20.1786 4.60571 20.1036 4.60571 20.0254V3.8114C4.60571 3.73322 4.63732 3.65823 4.69358 3.60295C4.74983 3.54766 4.82613 3.5166 4.90569 3.5166C4.98525 3.5166 5.06156 3.54766 5.11781 3.60295C5.17407 3.65823 5.20568 3.73322 5.20568 3.8114V20.0254C5.20568 20.1036 5.17407 20.1786 5.11781 20.2339C5.06156 20.2892 4.98525 20.3202 4.90569 20.3202Z" fill="currentColor"/>
<path d="M20.2636 24H3.35784C2.87087 23.9995 2.404 23.8091 2.05965 23.4707C1.71531 23.1323 1.52161 22.6735 1.52106 22.1949V19.9285C1.52106 19.8503 1.55266 19.7753 1.60892 19.7201C1.66518 19.6648 1.74148 19.6337 1.82104 19.6337C1.9006 19.6337 1.9769 19.6648 2.03316 19.7201C2.08941 19.7753 2.12102 19.8503 2.12102 19.9285V22.1941C2.12142 22.5163 2.25185 22.8252 2.48372 23.0531C2.71558 23.2809 3.02994 23.4091 3.35784 23.4095H20.2636C20.5915 23.4091 20.9059 23.2809 21.1377 23.0531C21.3696 22.8252 21.5 22.5163 21.5004 22.1941V1.80506C21.5 1.48282 21.3696 1.17389 21.1377 0.946033C20.9059 0.718174 20.5915 0.589991 20.2636 0.589601H3.35784C3.02994 0.589991 2.71558 0.718174 2.48372 0.946033C2.25185 1.17389 2.12142 1.48282 2.12102 1.80506V4.0706C2.12102 4.14879 2.08941 4.22377 2.03316 4.27906C1.9769 4.33435 1.9006 4.3654 1.82104 4.3654C1.74148 4.3654 1.66518 4.33435 1.60892 4.27906C1.55266 4.22377 1.52106 4.14879 1.52106 4.0706V1.80506C1.52161 1.3265 1.71531 0.867691 2.05965 0.529294C2.404 0.190898 2.87087 0.000546174 3.35784 0H20.2636C20.7506 0.000546174 21.2174 0.190898 21.5618 0.529294C21.9061 0.867691 22.0998 1.3265 22.1004 1.80506V22.1946C22.0999 22.6733 21.9062 23.1321 21.5619 23.4706C21.2175 23.8091 20.7506 23.9995 20.2636 24Z" fill="currentColor"/>
<path d="M18.3428 17.5814C18.3203 17.5814 18.2979 17.5789 18.2759 17.574C18.2537 17.569 17.7228 17.4493 17.1135 17.2456C16.2628 16.9614 15.6946 16.6581 15.424 16.3441C15.307 16.2082 15.1606 15.9264 15.2392 15.0502C15.2785 14.6121 15.3553 14.2248 15.3592 14.2089C15.3717 14.1467 15.4042 14.0902 15.4519 14.0476C15.8695 13.6747 15.9646 13.3946 16.1296 12.6895C16.2664 12.1093 16.5651 10.6996 16.6368 10.0678C16.7013 9.59311 16.6936 9.11166 16.614 8.63919L16.6053 8.57168C16.5592 8.23886 16.443 7.91913 16.2643 7.63282C16.0856 7.34652 15.8481 7.09992 15.5671 6.90871C14.915 6.46762 14.1387 6.23853 13.3472 6.25367C12.5385 6.24164 11.7452 6.4712 11.0722 6.91196C10.7814 7.09705 10.5342 7.34097 10.3471 7.62744C10.1599 7.91391 10.0371 8.23632 9.98684 8.57316L9.97934 8.62917C9.89873 9.10476 9.89024 9.58946 9.95415 10.0675C10.0642 10.7088 10.2079 11.344 10.3846 11.9707C10.4584 12.2561 10.5223 12.5014 10.5646 12.6895C10.7293 13.3934 10.8241 13.6732 11.2426 14.0476C11.2902 14.0903 11.3226 14.1469 11.335 14.2091C11.3383 14.2254 11.4145 14.6118 11.4535 15.0493C11.5311 15.9234 11.3869 16.2058 11.2714 16.342C11.0038 16.6581 10.3867 16.9529 9.38508 17.2429C8.67953 17.4475 8.05136 17.5702 8.02497 17.5755C7.94698 17.5905 7.86612 17.5745 7.80013 17.531C7.73414 17.4875 7.68841 17.42 7.673 17.3434C7.65758 17.2668 7.67373 17.1873 7.7179 17.1223C7.76206 17.0574 7.83064 17.0124 7.90857 16.9971C7.91487 16.9971 8.53853 16.8736 9.21919 16.6763C10.4017 16.3332 10.7254 16.0646 10.8091 15.965C10.8091 15.965 10.9195 15.812 10.8538 15.0891C10.8283 14.8079 10.7857 14.547 10.7623 14.414C10.5516 14.2201 10.3809 13.9881 10.2595 13.7307C10.135 13.4376 10.0411 13.1329 9.97904 12.8212C9.93705 12.6408 9.87405 12.3976 9.80116 12.1158C9.61695 11.4631 9.46835 10.8012 9.35598 10.1329C9.28623 9.60778 9.29523 9.07541 9.38268 8.55282L9.39018 8.4968C9.45273 8.07918 9.60406 7.67917 9.83431 7.32282C10.0646 6.96646 10.3686 6.66174 10.7266 6.42848C11.5012 5.9184 12.4152 5.6518 13.3475 5.66407C14.2654 5.64885 15.1649 5.91693 15.9196 6.43055C16.2613 6.67188 16.5521 6.97615 16.7757 7.32645C17.0005 7.68133 17.1451 8.07956 17.1996 8.49415L17.2086 8.56195C17.294 9.08142 17.3021 9.61032 17.2326 10.1321C17.1576 10.7951 16.8576 12.2104 16.7139 12.8203C16.5525 13.5096 16.4328 13.9362 15.9307 14.4123C15.907 14.5461 15.8638 14.8094 15.838 15.0903C15.7726 15.8082 15.8818 15.9597 15.8827 15.9612C16.2475 16.3845 17.6262 16.8208 18.4094 16.9962C18.4813 17.0123 18.5446 17.0538 18.5873 17.1129C18.63 17.172 18.6491 17.2444 18.6409 17.3164C18.6327 17.3884 18.5978 17.4549 18.5429 17.5032C18.488 17.5516 18.4168 17.5783 18.3431 17.5784L18.3428 17.5814Z" fill="currentColor"/>
</svg>
