<svg width="24" height="24" viewBox="0 0 24 24" fill="none" xmlns="http://www.w3.org/2000/svg">
<path d="M10.4659 1.84078e-05C12.889 0.00149052 15.2371 0.839402 17.1124 2.37181C18.9878 3.90422 20.275 6.03691 20.7562 8.40861C21.2373 10.7803 20.8828 13.2452 19.7526 15.3857C18.6224 17.5263 16.786 19.2108 14.5546 20.1541C11.9904 21.2236 9.10637 21.235 6.53379 20.1857C3.96121 19.1365 1.90966 17.1121 0.828219 14.5557C-0.253224 11.9993 -0.276466 9.11915 0.763582 6.54568C1.80363 3.97221 3.82224 1.91507 6.37755 0.824557C7.67092 0.277827 9.06147 -0.00261734 10.4659 1.84078e-05ZM10.4659 20.3865C12.7525 20.3856 14.9685 19.5953 16.7383 18.1494C18.5082 16.7036 19.7231 14.6911 20.1772 12.453C20.6312 10.215 20.2966 7.88892 19.2298 5.86909C18.1631 3.84926 16.4299 2.25985 14.324 1.3702C11.9022 0.348442 9.17314 0.329327 6.7372 1.31706C4.30127 2.30479 2.358 4.21846 1.33489 6.63708C0.311782 9.0557 0.292642 11.7812 1.28168 14.2139C2.27072 16.6466 4.18692 18.5873 6.60874 19.609C7.82901 20.1247 9.14092 20.3891 10.4659 20.3865Z" fill="currentColor"/>
<path d="M20.2206 24C19.7247 24.002 19.2332 23.9057 18.7747 23.7168C18.3163 23.5278 17.8999 23.25 17.5497 22.8992L14.7692 20.1221L15.1888 19.703L17.9693 22.4802C18.5664 23.0765 19.3762 23.4115 20.2207 23.4116C21.0651 23.4116 21.875 23.0766 22.4721 22.4803C23.0692 21.884 23.4047 21.0752 23.4048 20.2319C23.4048 19.3886 23.0694 18.5798 22.4723 17.9834L19.6915 15.2063L20.1111 14.7872L22.8919 17.5643C23.4208 18.0914 23.7811 18.7633 23.9272 19.4951C24.0732 20.2268 23.9985 20.9854 23.7124 21.6746C23.4264 22.3639 22.9418 22.9528 22.3203 23.3668C21.6987 23.7808 20.968 24.0012 20.2209 24H20.2206Z" fill="currentColor"/>
<path d="M14.6258 6.41785C14.9839 6.41785 15.3339 6.52388 15.6316 6.72254C15.9293 6.9212 16.1613 7.20356 16.2983 7.53392C16.4354 7.86427 16.4712 8.22779 16.4014 8.5785C16.3315 8.9292 16.1591 9.25135 15.9059 9.50419C15.6527 9.75704 15.3302 9.92923 14.979 9.99899C14.6278 10.0687 14.2638 10.0329 13.933 9.8961C13.6022 9.75926 13.3195 9.52754 13.1206 9.23022C12.9217 8.93291 12.8155 8.58336 12.8155 8.22579C12.8155 7.74629 13.0062 7.28643 13.3457 6.94738C13.6852 6.60833 14.1457 6.41785 14.6258 6.41785ZM14.6258 9.43799C14.8666 9.43799 15.102 9.36665 15.3021 9.23299C15.5023 9.09934 15.6583 8.90938 15.7503 8.68716C15.8423 8.46494 15.8662 8.22046 15.819 7.98466C15.7718 7.74886 15.6556 7.53234 15.4852 7.36252C15.3147 7.19269 15.0976 7.07719 14.8614 7.03064C14.6252 6.98409 14.3804 7.00857 14.1581 7.101C13.9358 7.19343 13.746 7.34964 13.6127 7.54987C13.4793 7.75009 13.4085 7.98532 13.409 8.22579C13.4098 8.54756 13.5384 8.85588 13.7665 9.08313C13.9946 9.31037 14.3036 9.43799 14.6258 9.43799Z" fill="currentColor"/>
<path d="M10.4674 12.4585C10.8255 12.4585 11.1755 12.5645 11.4732 12.7632C11.7709 12.9618 12.0029 13.2442 12.14 13.5746C12.277 13.9049 12.3128 14.2684 12.243 14.6191C12.1731 14.9699 12.0007 15.292 11.7475 15.5448C11.4944 15.7977 11.1718 15.9699 10.8206 16.0396C10.4694 16.1094 10.1054 16.0736 9.77465 15.9368C9.44386 15.7999 9.16112 15.5682 8.9622 15.2709C8.76328 14.9736 8.6571 14.624 8.6571 14.2664C8.6571 13.7869 8.84784 13.3271 9.18734 12.988C9.52684 12.649 9.98731 12.4585 10.4674 12.4585ZM10.4674 15.4786C10.7082 15.4786 10.9436 15.4073 11.1437 15.2736C11.3439 15.14 11.4999 14.95 11.5919 14.7278C11.6839 14.5056 11.7078 14.2611 11.6606 14.0253C11.6134 13.7895 11.4972 13.573 11.3268 13.4032C11.1563 13.2333 10.9392 13.1178 10.703 13.0713C10.4668 13.0247 10.222 13.0492 9.99973 13.1417C9.77745 13.2341 9.58762 13.3903 9.45428 13.5905C9.32093 13.7907 9.25007 14.026 9.25066 14.2664C9.25144 14.5882 9.37998 14.8965 9.60809 15.1238C9.8362 15.351 10.1452 15.4786 10.4674 15.4786Z" fill="currentColor"/>
<path d="M5.55313 7.92822C5.91118 7.92822 6.26119 8.03426 6.55889 8.23292C6.8566 8.43157 7.08864 8.71394 7.22566 9.04429C7.36268 9.37465 7.39853 9.73817 7.32867 10.0889C7.25882 10.4396 7.08641 10.7617 6.83323 11.0146C6.58005 11.2674 6.25748 11.4396 5.90631 11.5094C5.55514 11.5791 5.19114 11.5433 4.86035 11.4065C4.52955 11.2696 4.24682 11.0379 4.04789 10.7406C3.84897 10.4433 3.7428 10.0937 3.7428 9.73616C3.7428 9.25667 3.93353 8.79681 4.27303 8.45776C4.61253 8.1187 5.073 7.92822 5.55313 7.92822ZM5.55313 10.9484C5.79391 10.9484 6.02928 10.877 6.22944 10.7434C6.42961 10.6097 6.58556 10.4198 6.67757 10.1975C6.76958 9.97532 6.7935 9.73084 6.74631 9.49504C6.69912 9.25924 6.58293 9.04272 6.41247 8.87289C6.242 8.70307 6.02491 8.58757 5.78869 8.54101C5.55246 8.49446 5.30771 8.51895 5.08543 8.61138C4.86314 8.70381 4.67331 8.86002 4.53997 9.06024C4.40663 9.26047 4.33576 9.4957 4.33635 9.73616C4.33713 10.0579 4.46568 10.3663 4.69378 10.5935C4.92189 10.8208 5.23093 10.9484 5.55313 10.9484Z" fill="currentColor"/>
<path d="M18.4046 8.52099H16.1364C16.0577 8.52099 15.9822 8.48976 15.9265 8.43418C15.8709 8.3786 15.8396 8.30321 15.8396 8.22461C15.8396 8.146 15.8709 8.07061 15.9265 8.01503C15.9822 7.95945 16.0577 7.92822 16.1364 7.92822H18.4046C18.4436 7.92822 18.4822 7.93589 18.5182 7.95078C18.5542 7.96568 18.5869 7.98751 18.6145 8.01503C18.642 8.04255 18.6639 8.07523 18.6788 8.11119C18.6937 8.14714 18.7014 8.18568 18.7014 8.22461C18.7014 8.26353 18.6937 8.30207 18.6788 8.33803C18.6639 8.37399 18.642 8.40666 18.6145 8.43418C18.5869 8.4617 18.5542 8.48353 18.5182 8.49843C18.4822 8.51332 18.4436 8.52099 18.4046 8.52099Z" fill="currentColor"/>
<path d="M2.90554 12.6752C2.86642 12.6749 2.82775 12.6669 2.79174 12.6516C2.75573 12.6364 2.7231 12.6142 2.69572 12.5863C2.64008 12.5307 2.60883 12.4553 2.60883 12.3767C2.60883 12.2981 2.64008 12.2228 2.69572 12.1672L4.20927 10.6556C4.26493 10.6001 4.3404 10.5688 4.41909 10.5688C4.49779 10.5688 4.57326 10.6001 4.62891 10.6556C4.65664 10.6833 4.67859 10.7162 4.69351 10.7524C4.70842 10.7887 4.716 10.8275 4.71581 10.8666C4.71562 10.9058 4.70766 10.9445 4.69238 10.9806C4.67711 11.0167 4.65483 11.0494 4.62684 11.0768L3.11536 12.5863C3.08798 12.6142 3.05534 12.6364 3.01934 12.6516C2.98333 12.6669 2.94465 12.6749 2.90554 12.6752Z" fill="currentColor"/>
<path d="M11.6002 13.4288C11.5417 13.4292 11.4844 13.4123 11.4355 13.3802C11.4031 13.3586 11.3752 13.3308 11.3536 13.2985C11.3319 13.2661 11.3168 13.2299 11.3092 13.1917C11.3015 13.1535 11.3015 13.1142 11.3091 13.076C11.3166 13.0378 11.3317 13.0015 11.3533 12.9691L13.6216 9.5702C13.6432 9.53774 13.671 9.50985 13.7035 9.48814C13.7359 9.46644 13.7723 9.45134 13.8106 9.44371C13.8489 9.43608 13.8883 9.43608 13.9266 9.4437C13.9649 9.45132 14.0013 9.46641 14.0338 9.48811C14.0992 9.53182 14.1445 9.59968 14.1598 9.67677C14.1751 9.75386 14.1592 9.83386 14.1154 9.89919L11.8471 13.2969C11.82 13.3375 11.7833 13.3708 11.7402 13.3938C11.6972 13.4168 11.6491 13.4288 11.6002 13.4288Z" fill="currentColor"/>
<path d="M9.33166 13.4288C9.26089 13.4287 9.19247 13.4034 9.13875 13.3574L6.49241 11.0921C6.43267 11.0409 6.39573 10.9682 6.38972 10.8898C6.38371 10.8114 6.40912 10.7339 6.46035 10.6742C6.5116 10.6146 6.58447 10.5777 6.66294 10.5717C6.74142 10.5657 6.81906 10.591 6.87881 10.6422L9.52486 12.9072C9.57087 12.9466 9.6037 12.9991 9.61891 13.0577C9.63412 13.1164 9.631 13.1782 9.60996 13.235C9.58891 13.2918 9.55096 13.3408 9.50121 13.3754C9.45145 13.41 9.39228 13.4288 9.33166 13.4288Z" fill="currentColor"/>
</svg>
