<svg width="24" height="24" viewBox="0 0 24 24" fill="none" xmlns="http://www.w3.org/2000/svg">
<path d="M13.1112 10.6157H8.68921C8.61102 10.6157 8.53604 10.5847 8.48075 10.5294C8.42547 10.4741 8.39441 10.3991 8.39441 10.3209C8.39441 10.2427 8.42547 10.1678 8.48075 10.1125C8.53604 10.0572 8.61102 10.0261 8.68921 10.0261H13.1112C13.1894 10.0261 13.2644 10.0572 13.3197 10.1125C13.375 10.1678 13.406 10.2427 13.406 10.3209C13.406 10.3991 13.375 10.4741 13.3197 10.5294C13.2644 10.5847 13.1894 10.6157 13.1112 10.6157Z" fill="currentColor"/>
<path d="M13.1112 13.8585H8.68921C8.61102 13.8585 8.53604 13.8275 8.48075 13.7722C8.42547 13.7169 8.39441 13.6419 8.39441 13.5637C8.39441 13.4855 8.42547 13.4106 8.48075 13.3553C8.53604 13.3 8.61102 13.2689 8.68921 13.2689H13.1112C13.1894 13.2689 13.2644 13.3 13.3197 13.3553C13.375 13.4106 13.406 13.4855 13.406 13.5637C13.406 13.6419 13.375 13.7169 13.3197 13.7722C13.2644 13.8275 13.1894 13.8585 13.1112 13.8585Z" fill="currentColor"/>
<path d="M19.5968 16.8065H8.68921C8.61102 16.8065 8.53604 16.7755 8.48075 16.7202C8.42547 16.6649 8.39441 16.5899 8.39441 16.5117C8.39441 16.4335 8.42547 16.3585 8.48075 16.3033C8.53604 16.248 8.61102 16.2169 8.68921 16.2169H19.5968C19.675 16.2169 19.75 16.248 19.8053 16.3033C19.8606 16.3585 19.8916 16.4335 19.8916 16.5117C19.8916 16.5899 19.8606 16.6649 19.8053 16.7202C19.75 16.7755 19.675 16.8065 19.5968 16.8065Z" fill="currentColor"/>
<path d="M19.5968 19.7546H8.68921C8.61102 19.7546 8.53604 19.7236 8.48075 19.6683C8.42547 19.613 8.39441 19.538 8.39441 19.4598C8.39441 19.3817 8.42547 19.3067 8.48075 19.2514C8.53604 19.1961 8.61102 19.165 8.68921 19.165H19.5968C19.675 19.165 19.75 19.1961 19.8053 19.2514C19.8606 19.3067 19.8916 19.3817 19.8916 19.4598C19.8916 19.538 19.8606 19.613 19.8053 19.6683C19.75 19.7236 19.675 19.7546 19.5968 19.7546Z" fill="currentColor"/>
<path d="M15.1749 10.0261H19.5969C19.6751 10.0261 19.75 10.0572 19.8053 10.1125C19.8606 10.1678 19.8917 10.2427 19.8917 10.3209V13.5637C19.8917 13.6419 19.8606 13.7169 19.8053 13.7722C19.75 13.8275 19.6751 13.8585 19.5969 13.8585H15.1749C15.0967 13.8585 15.0217 13.8275 14.9664 13.7722C14.9111 13.7169 14.8801 13.6419 14.8801 13.5637V10.3209C14.8801 10.2427 14.9111 10.1678 14.9664 10.1125C15.0217 10.0572 15.0967 10.0261 15.1749 10.0261ZM19.3021 10.6157H15.4697V13.2689H19.3021V10.6157Z" fill="currentColor"/>
<path d="M8.68921 4.13013H19.5968C19.675 4.13013 19.75 4.16119 19.8053 4.21647C19.8606 4.27176 19.8916 4.34674 19.8916 4.42493V7.37293C19.8916 7.45112 19.8606 7.5261 19.8053 7.58139C19.75 7.63667 19.675 7.66773 19.5968 7.66773H8.68921C8.61102 7.66773 8.53604 7.63667 8.48075 7.58139C8.42547 7.5261 8.39441 7.45112 8.39441 7.37293V4.42493C8.39441 4.34674 8.42547 4.27176 8.48075 4.21647C8.53604 4.16119 8.61102 4.13013 8.68921 4.13013ZM19.302 4.71973H8.98401V7.07813H19.302V4.71973Z" fill="currentColor"/>
<path d="M20.6844 24H2.26554V23.9832C1.64242 23.9091 1.06797 23.6095 0.650598 23.1409C0.233227 22.6723 0.00180288 22.0672 0 21.4397V7.44224C0 7.36405 0.0310635 7.28907 0.0863493 7.23378C0.141635 7.1785 0.216614 7.14744 0.2948 7.14744H2.47632V7.73704H0.589601V21.4397C0.589601 21.9623 0.797228 22.4636 1.16681 22.8332C1.5364 23.2028 2.03767 23.4104 2.56034 23.4104C3.08301 23.4104 3.58428 23.2028 3.95387 22.8332C4.32345 22.4636 4.53108 21.9623 4.53108 21.4397V1.05008C4.53139 0.771728 4.64208 0.504862 4.83888 0.30801C5.03568 0.111158 5.30252 0.000390111 5.58087 0L22.9499 0C23.2283 0.000312111 23.4952 0.111045 23.6921 0.307906C23.8889 0.504766 23.9997 0.771677 24 1.05008V20.6838C24 21.5631 23.6507 22.4065 23.0289 23.0283C22.4071 23.6501 21.5637 23.9994 20.6844 23.9994V24ZM4.19088 23.4104H20.6844C21.4071 23.4096 22.1 23.1222 22.6111 22.6111C23.1222 22.1 23.4096 21.4071 23.4104 20.6844V1.05008C23.4103 0.927977 23.3618 0.810898 23.2754 0.724558C23.1891 0.638219 23.072 0.589679 22.9499 0.589601H5.58087C5.45876 0.589679 5.34168 0.638219 5.25534 0.724558C5.169 0.810898 5.12046 0.927977 5.12039 1.05008V21.4397C5.1209 21.7759 5.05474 22.1088 4.9257 22.4193C4.79666 22.7297 4.60732 23.0115 4.36865 23.2483C4.31165 23.3053 4.2524 23.3593 4.19088 23.4104Z" fill="currentColor"/>
</svg>
