<svg width="25" height="24" viewBox="0 0 25 24" fill="none" xmlns="http://www.w3.org/2000/svg">
<path d="M12.0008 16.0707C11.9226 16.0707 11.8476 16.0397 11.7923 15.9844C11.737 15.9291 11.706 15.8541 11.706 15.7759V13.3217C11.706 13.2435 11.737 13.1685 11.7923 13.1132C11.8476 13.058 11.9226 13.0269 12.0008 13.0269C12.4157 13.0269 12.8265 12.9437 13.2087 12.7822C13.591 12.6207 13.9369 12.3841 14.2262 12.0866C14.5154 11.789 14.742 11.4365 14.8926 11.0498C15.0432 10.6631 15.1147 10.2502 15.1029 9.83539C15.0722 9.04569 14.7449 8.29661 14.1862 7.73765C13.6275 7.17869 12.8786 6.85096 12.0889 6.81988C11.674 6.80817 11.261 6.87979 10.8742 7.03051C10.4875 7.18123 10.1349 7.40799 9.83737 7.69736C9.5398 7.98673 9.3033 8.33284 9.14185 8.71522C8.9804 9.09759 8.89728 9.50847 8.8974 9.92354C8.8974 10.0017 8.86634 10.0767 8.81105 10.132C8.75577 10.1873 8.68079 10.2183 8.6026 10.2183C8.52441 10.2183 8.44944 10.1873 8.39415 10.132C8.33886 10.0767 8.3078 10.0017 8.3078 9.92354C8.30755 9.20529 8.51666 8.50254 8.90956 7.90129C9.30245 7.30003 9.86209 6.82633 10.52 6.53817C11.1779 6.25 11.9055 6.15986 12.6139 6.27877C13.3222 6.39768 13.9805 6.72049 14.5083 7.20769C15.036 7.6949 15.4103 8.32538 15.5853 9.02197C15.7603 9.71857 15.7285 10.4511 15.4937 11.1299C15.2589 11.8087 14.8314 12.4043 14.2634 12.8439C13.6954 13.2835 13.0115 13.548 12.2956 13.605V15.7759C12.2956 15.8541 12.2645 15.9291 12.2092 15.9844C12.1539 16.0397 12.079 16.0707 12.0008 16.0707Z" fill="currentColor"/>
<path d="M12.0011 17.8116C11.8972 17.8116 11.7957 17.7808 11.7094 17.7231C11.623 17.6654 11.5557 17.5834 11.516 17.4874C11.4762 17.3915 11.4658 17.2859 11.4861 17.1841C11.5064 17.0822 11.5564 16.9887 11.6298 16.9153C11.7032 16.8418 11.7968 16.7918 11.8986 16.7716C12.0005 16.7513 12.106 16.7617 12.202 16.8014C12.2979 16.8412 12.3799 16.9085 12.4376 16.9948C12.4953 17.0812 12.5261 17.1827 12.5261 17.2865C12.5259 17.4257 12.4706 17.5592 12.3721 17.6576C12.2737 17.756 12.1403 17.8114 12.0011 17.8116ZM12.0011 17.0563C11.9555 17.0563 11.911 17.0698 11.8731 17.0951C11.8353 17.1204 11.8058 17.1563 11.7883 17.1984C11.7709 17.2405 11.7664 17.2868 11.7752 17.3314C11.7841 17.3761 11.8061 17.4171 11.8383 17.4493C11.8705 17.4815 11.9115 17.5035 11.9561 17.5123C12.0008 17.5212 12.0471 17.5167 12.0892 17.4992C12.1312 17.4818 12.1672 17.4523 12.1925 17.4144C12.2178 17.3766 12.2313 17.3321 12.2313 17.2865C12.2312 17.2255 12.2069 17.167 12.1638 17.1238C12.1206 17.0806 12.0621 17.0564 12.0011 17.0563Z" fill="currentColor"/>
<path d="M12.0017 24C11.4675 23.9996 10.934 23.9645 10.4044 23.8947C9.05867 23.718 7.7536 23.3097 6.54697 22.6881C4.16834 21.462 2.26142 19.4844 1.12264 17.0628C0.545145 15.8344 0.18469 14.5153 0.0572404 13.164C-0.10613 11.4978 0.0811475 9.81585 0.607022 8.22639C1.1329 6.63692 1.98572 5.17516 3.1106 3.93517C4.23549 2.69519 5.60752 1.70444 7.13841 1.02669C8.66929 0.348946 10.3251 -0.000787242 11.9993 1.33057e-06C12.3858 1.33057e-06 12.7785 0.0185772 13.1664 0.0551325C14.5176 0.182841 15.8364 0.543499 17.0646 1.12113C19.486 2.26069 21.4631 4.16834 22.6885 6.54752C23.3099 7.75419 23.7179 9.05925 23.8945 10.405C24.2425 12.9872 23.7346 15.6124 22.4485 17.8785L23.7085 22.5799C23.7456 22.7162 23.7507 22.8592 23.7232 22.9977C23.6958 23.1362 23.6367 23.2664 23.5505 23.3783C23.4646 23.4903 23.3542 23.5812 23.2278 23.644C23.1014 23.7069 22.9623 23.74 22.8211 23.7409C22.7396 23.7408 22.6584 23.73 22.5797 23.7087L17.8782 22.4488C17.0187 22.935 16.1025 23.3135 15.1504 23.5758C14.1245 23.8574 13.0655 24.0001 12.0017 24ZM12.0017 0.589602C9.58966 0.585804 7.23904 1.34986 5.29024 2.77112C4.66304 3.22832 4.08375 3.74786 3.56123 4.32178C2.48645 5.50034 1.67126 6.89156 1.16849 8.40529C0.665724 9.91903 0.486598 11.5215 0.642712 13.1089C0.899984 15.6665 2.01017 18.0632 3.79466 19.9133C5.57915 21.7635 7.93417 22.9595 10.4808 23.309C10.9849 23.3754 11.4929 23.4089 12.0014 23.4092C13.013 23.4096 14.0201 23.2741 14.9957 23.0065C15.9387 22.7466 16.8445 22.3668 17.691 21.8766C17.7245 21.8572 17.7616 21.8446 17.8 21.8395C17.8384 21.8345 17.8774 21.837 17.9148 21.8471L22.7336 23.1383C22.7624 23.1462 22.7921 23.1502 22.822 23.1504C22.8728 23.1498 22.9227 23.1376 22.968 23.1148C23.0133 23.0919 23.0528 23.059 23.0835 23.0186C23.1147 22.9785 23.136 22.9317 23.1458 22.8819C23.1556 22.8321 23.1535 22.7807 23.1398 22.7318L21.8483 17.913C21.8383 17.8756 21.8357 17.8365 21.8408 17.7982C21.8458 17.7598 21.8584 17.7227 21.8778 17.6892C23.1428 15.5122 23.6469 12.976 23.3105 10.4807C22.9613 7.93387 21.7654 5.57855 19.9152 3.79378C18.065 2.009 15.6682 0.898579 13.1104 0.641189C12.7428 0.607287 12.3687 0.589602 11.9993 0.589602H12.0017Z" fill="currentColor"/>
</svg>
