<svg width="48" height="48" viewBox="0 0 48 48" fill="none" xmlns="http://www.w3.org/2000/svg">
<path d="M37.4682 38.0001C36.3683 38.0006 35.2851 37.7315 34.3134 37.2163C33.3416 36.7011 32.511 35.9556 31.8942 35.045C31.8114 34.9743 31.7367 34.8947 31.6715 34.8076C31.6181 34.8203 31.5637 34.8281 31.5089 34.8309C29.5833 34.9077 27.5683 34.947 25.5189 34.947C23.4777 34.947 19.9345 34.825 18.0307 34.7596C17.5156 34.7419 17.1119 34.728 16.9159 34.7226C16.3386 35.6846 15.5318 36.4883 14.5676 37.0618C13.6885 37.581 12.7029 37.8935 11.6852 37.9756C10.6675 38.0576 9.64451 37.9072 8.69356 37.5356C7.74261 37.164 6.88864 36.5809 6.19625 35.8306C5.50386 35.0803 4.99119 34.1823 4.69702 33.2046C4.3512 33.1301 3.67814 32.9357 3.64307 32.9259C3.11778 32.7832 2.60214 32.607 2.09931 32.3985C1.64229 32.1609 1.26436 31.7953 1.01168 31.3464C0.723191 30.8472 0.511263 30.3076 0.382983 29.7455C0.104789 28.5129 0.00761749 27.2463 0.0945285 25.9856C0.307502 22.4015 1.85707 18.1147 5.56657 16.8322C7.52118 16.1563 8.56259 14.9356 9.66299 13.6434C10.1126 13.1164 10.5776 12.5718 11.1192 12.0471C11.697 11.4796 12.3422 10.9849 13.0404 10.5742C13.8899 10.0852 14.8059 9.72223 15.7598 9.49658C17.0191 9.2047 18.3083 9.06112 19.601 9.06877H19.7011C21.246 9.06604 22.7847 9.26331 24.2789 9.65567C25.5829 10.0049 26.8446 10.4963 28.0414 11.1209C30.2926 12.2891 32.05 13.7365 33.4621 14.8996L33.4714 14.9073C34.572 15.8131 35.6116 16.6694 36.2368 16.7978C43.4927 18.2828 46.9379 22.9757 47.7427 26.8712C47.986 27.9412 47.9935 29.0514 47.7645 30.1245C47.5915 30.9999 47.1021 31.7808 46.3898 32.3181C45.6788 32.7708 44.9002 33.1073 44.0833 33.315C44.0137 33.3351 43.9419 33.347 43.8694 33.3503C43.4313 34.7026 42.5757 35.8813 41.4256 36.7168C40.2754 37.5524 38.89 38.0017 37.4684 38.0004L37.4682 38.0001ZM31.883 34.2298L31.9808 34.4272C32.0392 34.5369 32.1198 34.6332 32.2175 34.7101L32.2432 34.7314L32.2618 34.7591C32.925 35.747 33.8557 36.5258 34.9452 37.0044C36.0346 37.483 37.2377 37.6417 38.4139 37.4619C39.5902 37.2821 40.691 36.7712 41.5876 35.989C42.4843 35.2068 43.1398 34.1856 43.4776 33.0446L43.5341 32.8532L43.7317 32.8804C43.8054 32.8923 43.8807 32.8884 43.9528 32.869C44.7212 32.675 45.454 32.3604 46.1239 31.937C46.7423 31.4639 47.1654 30.78 47.3128 30.0154C47.5257 29.0088 47.5171 27.968 47.2877 26.965C46.5129 23.2139 43.1785 18.6925 36.1434 17.2528C35.4053 17.1011 34.3723 16.2506 33.1762 15.2657L33.1669 15.258C31.7709 14.1086 30.035 12.6786 27.8275 11.5332C26.6607 10.9242 25.4305 10.4452 24.1591 10.1048C22.7036 9.72268 21.2047 9.53057 19.6999 9.53327H19.6024C18.3465 9.52552 17.0941 9.66457 15.8706 9.94761C14.9599 10.1628 14.0852 10.509 13.274 10.9755C11.8341 11.8135 10.9106 12.8969 10.0165 13.9446C9.47001 14.6201 8.87111 15.2513 8.22536 15.8326C7.4907 16.4698 6.63932 16.9584 5.71846 17.2711C2.22496 18.4791 0.762247 22.579 0.558331 26.0133C0.474064 27.2272 0.566931 28.4469 0.834012 29.634C0.951104 30.1504 1.14486 30.6463 1.40883 31.1053C1.61586 31.4771 1.92631 31.7809 2.30253 31.9798C3.13993 32.3026 3.99916 32.5657 4.87377 32.7671L5.05004 32.7422L5.10439 32.9387C5.36029 33.8664 5.82656 34.7226 6.46699 35.4409C7.10743 36.1592 7.90479 36.7202 8.79718 37.0804C9.68957 37.4405 10.653 37.5902 11.6126 37.5177C12.5722 37.4452 13.5021 37.1525 14.3303 36.6624C15.266 36.106 16.042 35.3172 16.5831 34.3726L16.6254 34.2988L16.7053 34.2697C16.7366 34.2588 16.7697 34.2538 16.8028 34.2551C16.9022 34.2551 17.3579 34.2707 18.0477 34.2946C19.9484 34.3601 23.4865 34.4818 25.5198 34.4818C27.5636 34.4818 29.5719 34.443 31.4903 34.3657C31.5566 34.361 31.6215 34.3443 31.6819 34.3164L31.883 34.2298ZM37.4682 36.919C36.0712 36.9172 34.7248 36.3967 33.6899 35.4583C32.6551 34.52 32.0056 33.2307 31.8676 31.8406C31.7295 30.4505 32.1127 29.0587 32.9428 27.9351C33.7728 26.8116 34.9906 26.0364 36.3599 25.7599C37.7292 25.4834 39.1524 25.7253 40.3534 26.4388C41.5544 27.1522 42.4476 28.2863 42.8598 29.6211C43.2719 30.9558 43.1736 32.3961 42.584 33.6624C41.9943 34.9288 40.9553 35.931 39.6685 36.4747C38.9724 36.7693 38.224 36.9205 37.4682 36.919ZM37.4682 26.0787C36.1865 26.0808 34.9512 26.5588 34.002 27.4201C33.0527 28.2813 32.4572 29.4644 32.3309 30.7399C32.2045 32.0154 32.5564 33.2923 33.3183 34.323C34.0801 35.3538 35.1976 36.0648 36.454 36.3183C37.7104 36.5717 39.0162 36.3495 40.118 35.6947C41.2199 35.04 42.0393 33.9993 42.4173 32.7746C42.7953 31.5499 42.705 30.2284 42.1639 29.0665C41.6228 27.9046 40.6694 26.9851 39.4887 26.4863C38.8495 26.2159 38.1623 26.0772 37.4682 26.0787ZM11.1408 36.919C9.74363 36.9172 8.39693 36.3966 7.36192 35.4581C6.32691 34.5195 5.67738 33.23 5.53932 31.8397C5.40126 30.4494 5.78452 29.0573 6.61475 27.9336C7.44498 26.8098 8.663 26.0345 10.0325 25.758C11.4021 25.4815 12.8255 25.7235 14.0267 26.4371C15.2279 27.1507 16.1212 28.285 16.5334 29.62C16.9455 30.955 16.8472 32.3955 16.2574 33.6621C15.6676 34.9286 14.6284 35.931 13.3414 36.4747C12.6452 36.7694 11.8967 36.9205 11.1408 36.919ZM11.1408 26.0787C9.85877 26.0808 8.62318 26.5588 7.6737 27.4203C6.72421 28.2817 6.12849 29.4651 6.00211 30.7408C5.87572 32.0166 6.22767 33.2939 6.98968 34.3249C7.7517 35.3558 8.86946 36.0671 10.1262 36.3206C11.3829 36.5741 12.689 36.3518 13.7911 35.6969C14.8932 35.0419 15.7128 34.001 16.0908 32.776C16.4689 31.551 16.3785 30.2292 15.8373 29.0671C15.296 27.9049 14.3424 26.9852 13.1614 26.4863C12.5221 26.2159 11.8349 26.0772 11.1408 26.0787Z" fill="currentColor"/>
</svg>
