<svg width="48" height="48" viewBox="0 0 48 48" fill="none" xmlns="http://www.w3.org/2000/svg">
<mask id="mask0_150_1178" style="mask-type:luminance" maskUnits="userSpaceOnUse" x="0" y="4" width="48" height="40">
<path d="M48 4H0V43.6348H48V4Z" fill="white"/>
</mask>
<g mask="url(#mask0_150_1178)">
<path d="M14.9035 43.6421C11.9544 43.6421 9.07155 42.7675 6.61952 41.129C4.16749 39.4906 2.25639 37.1618 1.12789 34.4372C-0.000609821 31.7125 -0.295826 28.7145 0.279575 25.8221C0.854975 22.9297 2.27515 20.2729 4.36051 18.1876C6.44587 16.1023 9.10275 14.6823 11.9952 14.107C14.8876 13.5317 17.8856 13.8271 20.6102 14.9557C23.3348 16.0843 25.6635 17.9955 27.3018 20.4476C28.9402 22.8997 29.8146 25.7826 29.8146 28.7317C29.81 32.6849 28.2375 36.4749 25.4421 39.2701C22.6467 42.0654 18.8567 43.6377 14.9035 43.6421ZM14.9035 14.4871C12.0862 14.4872 9.3323 15.3226 6.98989 16.8878C4.64749 18.453 2.82182 20.6777 1.74374 23.2805C0.665669 25.8832 0.383613 28.7473 0.933242 31.5104C1.48287 34.2734 2.8395 36.8115 4.83158 38.8036C6.82365 40.7956 9.36171 42.1523 12.1248 42.7019C14.8879 43.2515 17.7519 42.9695 20.3547 41.8914C22.9575 40.8133 25.1821 38.9877 26.7473 36.6452C28.3125 34.3028 29.148 31.5489 29.1481 28.7317C29.1437 24.9551 27.6416 21.3345 24.9711 18.664C22.3007 15.9936 18.68 14.4914 14.9035 14.4871ZM14.9035 41.026C12.4719 41.026 10.0949 40.305 8.07308 38.9541C6.05129 37.6031 4.47549 35.683 3.54496 33.4365C2.61443 31.19 2.37096 28.718 2.84534 26.3332C3.31972 23.9483 4.49064 21.7577 6.21004 20.0383C7.92943 18.3189 10.1201 17.1479 12.5049 16.6736C14.8898 16.1992 17.3618 16.4427 19.6083 17.3732C21.8548 18.3037 23.7749 19.8795 25.1258 21.9013C26.4768 23.9231 27.1978 26.3001 27.1978 28.7317C27.1941 31.9912 25.8976 35.1162 23.5928 37.421C21.288 39.7258 18.163 41.0223 14.9035 41.026ZM14.9035 17.1039C12.6037 17.1039 10.3556 17.7858 8.44338 19.0635C6.5312 20.3412 5.04083 22.1572 4.16075 24.2819C3.28066 26.4066 3.05039 28.7446 3.49906 31.0002C3.94772 33.2557 5.05516 35.3276 6.68134 36.9538C8.30752 38.58 10.3794 39.6874 12.635 40.1361C14.8906 40.5848 17.2285 40.3545 19.3532 39.4744C21.4779 38.5943 23.294 37.1039 24.5716 35.1918C25.8493 33.2796 26.5313 31.0315 26.5313 28.7317C26.5278 25.6489 25.3016 22.6933 23.1217 20.5135C20.9418 18.3336 17.9863 17.1074 14.9035 17.1039Z" fill="currentColor"/>
<path d="M15.9346 38.9428H13.752V36.4987C12.4945 36.446 11.2729 36.0639 10.2095 35.3906L10.0048 35.244L10.8117 32.9931L11.1666 33.2301C12.1426 33.8653 13.2813 34.2053 14.4459 34.2092C15.1148 34.2336 15.7715 34.0261 16.3048 33.6216C16.5183 33.4484 16.6896 33.229 16.8059 32.9799C16.9222 32.7308 16.9803 32.4585 16.976 32.1836C16.976 31.0915 16.2492 30.3507 14.4672 29.6295C13.0652 29.0793 12.1077 28.5297 11.4542 27.9032C11.0763 27.5543 10.7769 27.1291 10.5758 26.6557C10.3747 26.1824 10.2765 25.6717 10.2878 25.1575C10.2878 23.0776 11.7038 21.4739 13.9203 21.0074V18.5199H16.0789V20.8707C17.1214 20.924 18.1366 21.2226 19.0419 21.7422L19.2845 21.8845L18.445 24.1014L18.1061 23.9077C17.2403 23.3906 16.2485 23.1227 15.2401 23.1336C14.6076 23.0925 13.9842 23.3003 13.5028 23.7124C13.3495 23.8636 13.228 24.0439 13.1456 24.2427C13.0632 24.4416 13.0214 24.6549 13.0229 24.8702C13.0151 25.1126 13.0646 25.3534 13.1675 25.5731C13.2703 25.7927 13.4236 25.985 13.6147 26.1343C14.024 26.4902 14.6778 26.8401 15.8006 27.3047C17.1563 27.8579 18.0834 28.4508 18.7173 29.1709C19.4056 29.9561 19.7697 30.9734 19.7361 32.017C19.7378 33.0547 19.3635 34.0579 18.6823 34.8407C17.9592 35.6408 16.9942 36.1823 15.9346 36.3827V38.9428ZM14.4186 38.2763H15.268V35.8245L15.547 35.7785C16.5585 35.6413 17.49 35.1542 18.1798 34.4018C18.7551 33.7406 19.0713 32.8934 19.0699 32.017C19.0699 30.1291 18.0494 28.9427 15.5477 27.9219C14.3369 27.422 13.6511 27.0491 13.1778 26.6378C12.9147 26.426 12.7038 26.1566 12.5615 25.8503C12.4191 25.5441 12.349 25.2092 12.3567 24.8715C12.3548 24.5676 12.4141 24.2664 12.531 23.9859C12.6479 23.7054 12.8201 23.4512 13.0372 23.2385C13.6418 22.7024 14.4334 22.4262 15.2404 22.4697C16.2332 22.458 17.2137 22.6903 18.0958 23.1462L18.4597 22.1851C17.6132 21.7614 16.6815 21.5353 15.7349 21.5239L15.4123 21.5103V19.1864H14.5869V21.5679L14.3073 21.6136C13.3753 21.7375 12.511 22.1673 11.8498 22.8356C11.2618 23.4648 10.9405 24.2974 10.9533 25.1585C10.9414 25.5832 11.0213 26.0055 11.1874 26.3965C11.3535 26.7876 11.6019 27.1383 11.9158 27.4246C12.5046 27.9912 13.3934 28.4948 14.7125 29.012H14.7158C15.5071 29.2912 16.2342 29.7265 16.854 30.292C17.1081 30.5364 17.3092 30.8305 17.4449 31.1559C17.5805 31.4813 17.6478 31.8311 17.6425 32.1836C17.6458 32.5559 17.5656 32.9242 17.4079 33.2615C17.2503 33.5988 17.0191 33.8966 16.7314 34.1329C16.0805 34.6413 15.2713 34.9043 14.4459 34.8757C13.2932 34.8702 12.1609 34.5711 11.1559 34.0066L10.805 34.9857C11.8132 35.5372 12.9415 35.8324 14.0906 35.8452L14.4182 35.8508L14.4186 38.2763Z" fill="currentColor"/>
<path d="M34.099 3.99231C37.6349 3.99231 40.9922 4.38656 43.5523 5.1024C44.6126 5.37106 45.63 5.78725 46.5746 6.3388C47.1605 6.65398 47.6252 7.15457 47.896 7.76216H48.0077V11.506H47.891C47.6148 12.1122 47.147 12.6108 46.5596 12.9251C45.6141 13.4746 44.5965 13.8896 43.5363 14.1581C40.9782 14.871 37.6266 15.2639 34.099 15.2639C30.5714 15.2639 27.2201 14.8696 24.6614 14.1568C23.601 13.8883 22.5833 13.4733 21.6377 12.9237C21.0503 12.6095 20.5825 12.1109 20.3063 11.5047H20.1883V7.76216H20.3C20.5708 7.15459 21.0355 6.654 21.6213 6.3388C22.566 5.78727 23.5834 5.37108 24.6437 5.1024C27.2058 4.38656 30.5631 3.99231 34.099 3.99231ZM47.3411 8.32471L47.3118 8.15208C47.2425 7.7415 46.8646 7.30993 46.2197 6.90402C45.3295 6.38697 44.3713 5.99694 43.373 5.74527C40.8692 5.04442 37.5759 4.65883 34.099 4.65883C30.6221 4.65883 27.3284 5.04442 24.8247 5.74427C23.8263 5.99593 22.868 6.38596 21.9776 6.90302C21.3324 7.30893 20.9548 7.7405 20.8852 8.15108L20.8548 8.32471V10.9421L20.8862 11.1148C20.9602 11.525 21.3417 11.9563 21.9896 12.3612C22.8814 12.8761 23.8403 13.2648 24.839 13.5159C27.3408 14.2131 30.6287 14.597 34.0977 14.597C37.5666 14.597 40.8542 14.2131 43.356 13.5159C44.3546 13.2647 45.3134 12.8761 46.2051 12.3612C46.8529 11.9563 47.2345 11.5254 47.3085 11.1148L47.3398 10.9421L47.3411 8.32471Z" fill="currentColor"/>
<path d="M34.099 19.8206C32.3584 19.8245 30.6191 19.7244 28.8904 19.5207L28.7391 19.5023L28.6538 19.376C27.6836 17.943 26.4963 16.6696 25.1346 15.6015L23.9385 14.6587L25.4189 15.0156C28.2681 15.6497 31.1802 15.9572 34.099 15.9321C36.8647 15.9504 39.6248 15.6787 42.3339 15.1216C43.4186 14.8972 44.4785 14.5659 45.4979 14.1325C46.2279 13.8468 46.884 13.4001 47.4175 12.8258L48.0083 12.1056V16.0647H47.8914C47.6146 16.671 47.1462 17.1695 46.5583 17.4834C45.6127 18.0329 44.5951 18.448 43.535 18.7165C40.9778 19.4277 37.6262 19.8206 34.099 19.8206ZM29.1204 18.8751C30.7732 19.064 32.4355 19.1571 34.099 19.1541C37.5676 19.1541 40.8555 18.7702 43.3577 18.0726C44.3563 17.8214 45.3153 17.4328 46.2071 16.9179C46.8549 16.513 47.2365 16.0821 47.3108 15.6718L47.3418 15.4995V13.8212C46.8581 14.1922 46.3299 14.5012 45.7695 14.741C44.7091 15.1929 43.6065 15.5384 42.4779 15.7725C39.7214 16.3399 36.9131 16.6168 34.099 16.5986C31.5726 16.6097 29.0505 16.3896 26.5643 15.9411C27.5246 16.8192 28.3822 17.8035 29.1204 18.8751Z" fill="currentColor"/>
<path d="M34.099 24.3793C33.1325 24.3793 32.1291 24.346 31.1153 24.2793L30.882 24.2643L30.817 24.039C30.5202 23.0086 30.124 22.0095 29.634 21.0557L29.3557 20.5148L29.9612 20.5714C31.3206 20.6987 32.713 20.7634 34.0993 20.7634C36.8651 20.7817 39.6251 20.51 42.3342 19.9529C43.419 19.7285 44.4788 19.3972 45.4982 18.9638C46.2282 18.6781 46.8843 18.2315 47.4178 17.6571L48.0087 16.9369V20.6231H47.8917C47.6149 21.2294 47.1465 21.7279 46.5586 22.0418C45.6131 22.5913 44.5955 23.0063 43.5353 23.2749C40.9795 23.9864 37.6266 24.3793 34.099 24.3793ZM31.3906 23.6294C32.311 23.6848 33.2212 23.7128 34.099 23.7128C37.5676 23.7128 40.8555 23.3288 43.3577 22.6313C44.3563 22.3801 45.3153 21.9915 46.2071 21.4766C46.8549 21.0717 47.2365 20.6408 47.3108 20.2305L47.3418 20.0582V18.6535C46.8581 19.0245 46.3299 19.3335 45.7695 19.5733C44.7095 20.0252 43.6074 20.3708 42.4792 20.6051C39.7229 21.1725 36.9147 21.4494 34.1007 21.4313C32.8936 21.4313 31.6825 21.3829 30.4914 21.2876C30.8476 22.0454 31.1481 22.828 31.3906 23.6294Z" fill="currentColor"/>
<path d="M34.099 28.938C33.3685 28.938 32.6113 28.918 31.7848 28.877L31.4692 28.8613V28.5454C31.4631 27.5681 31.3697 26.5933 31.1899 25.6327L31.1136 25.2161L31.5365 25.2401C32.4177 25.2904 33.2802 25.3158 34.1 25.3158C36.8657 25.334 39.6258 25.0624 42.3349 24.5053C43.4196 24.2809 44.4795 23.9496 45.4989 23.5162C46.2289 23.2305 46.885 22.7838 47.4185 22.2094L48.0093 21.4893V25.1818H47.8924C47.6156 25.7881 47.1472 26.2866 46.5593 26.6005C45.6137 27.15 44.5961 27.565 43.536 27.8336C40.9778 28.5454 37.6262 28.938 34.099 28.938ZM32.1301 28.2271C32.8253 28.2578 33.4721 28.2728 34.099 28.2728C37.5676 28.2728 40.8555 27.8889 43.3577 27.1914C44.3563 26.9402 45.3153 26.5515 46.207 26.0366C46.8549 25.6317 47.2365 25.2008 47.3108 24.7905L47.3418 24.6183V23.2052C46.8581 23.5762 46.3299 23.8852 45.7695 24.125C44.7091 24.5769 43.6065 24.9224 42.4779 25.1565C39.7216 25.7239 36.9134 26.0008 34.0993 25.9826C33.3971 25.9826 32.6643 25.9643 31.9158 25.928C32.0384 26.6887 32.11 27.4568 32.1301 28.2271Z" fill="currentColor"/>
<path d="M34.099 33.4963C33.1415 33.4963 32.1547 33.463 31.1663 33.4013L30.7577 33.3753L30.866 32.9804C31.1352 32.0058 31.3143 31.0085 31.4012 30.0011L31.4282 29.6798L31.7505 29.6965C32.561 29.7381 33.3502 29.7591 34.1 29.7591C36.8657 29.7774 39.6258 29.5057 42.3349 28.9486C43.4196 28.7242 44.4795 28.3929 45.4989 27.9595C46.2289 27.6738 46.885 27.2272 47.4185 26.6528L48.008 25.9313V29.7398H47.8917C47.615 30.3462 47.1466 30.8448 46.5586 31.1588C45.613 31.7084 44.5953 32.1234 43.535 32.3919C40.9782 33.1034 37.6272 33.4963 34.099 33.4963ZM31.6119 32.7598C32.4513 32.8061 33.2862 32.8295 34.099 32.8295C37.5679 32.8295 40.8559 32.4455 43.3577 31.7484C44.3562 31.4972 45.3151 31.1085 46.2067 30.5936C46.8546 30.1887 47.2362 29.7578 47.3105 29.3472L47.3418 29.1749V27.6479C46.8581 28.0189 46.3299 28.3279 45.7695 28.5677C44.7091 29.0195 43.6065 29.3651 42.4779 29.5992C39.7216 30.1666 36.9134 30.4435 34.0993 30.4253C33.4381 30.4253 32.745 30.409 32.0331 30.377C31.9488 31.1802 31.8081 31.9764 31.6119 32.7598Z" fill="currentColor"/>
<path d="M34.099 38.0544C32.4735 38.0562 30.8491 37.9681 29.2334 37.7904L28.7098 37.7321L28.9868 37.2839C29.5295 36.4081 29.9892 35.4835 30.3598 34.5221L30.4488 34.2888L30.6964 34.3075C31.8295 34.3938 32.9752 34.4375 34.1003 34.4375C36.8661 34.4557 39.6261 34.1841 42.3352 33.627C43.42 33.4026 44.4798 33.0713 45.4992 32.6379C46.2292 32.3522 46.8853 31.9055 47.4188 31.3311L48.0097 30.611V34.2982H47.893C47.6163 34.9046 47.1479 35.4032 46.56 35.7172C45.6143 36.2668 44.5966 36.6818 43.5363 36.9503C40.9782 37.6618 37.6249 38.0544 34.099 38.0544ZM29.8246 37.1822C31.2113 37.3189 32.6466 37.3878 34.0987 37.3878C37.5676 37.3878 40.8555 37.0039 43.3573 36.3067C44.3559 36.0555 45.3147 35.6669 46.2064 35.152C46.8542 34.7471 47.2358 34.3162 47.3101 33.9056L47.3411 33.7333V32.3286C46.8574 32.6996 46.3292 33.0086 45.7688 33.2484C44.7084 33.7002 43.6058 34.0457 42.4772 34.2798C39.721 34.8472 36.9129 35.1241 34.099 35.106C33.0386 35.106 31.9601 35.0677 30.8904 34.992C30.5873 35.7464 30.2312 36.4783 29.8246 37.1822Z" fill="currentColor"/>
</g>
</svg>
