<svg width="24" height="24" viewBox="0 0 24 24" fill="none" xmlns="http://www.w3.org/2000/svg">
<path d="M13.5104 22.9834H10.4896C10.2186 22.9765 9.96024 22.8677 9.76594 22.6787C9.57165 22.4897 9.45573 22.2344 9.44128 21.9637C9.43008 21.8508 9.40089 21.8508 9.35697 21.8508H1.05008C0.771676 21.8505 0.504767 21.7398 0.307906 21.5429C0.111046 21.3461 0.000312111 21.0791 0 20.8007V4.56461C0.000312111 4.28621 0.111046 4.0193 0.307906 3.82243C0.504767 3.62557 0.771676 3.51484 1.05008 3.51453H1.42772V4.10413H1.05008C0.927976 4.10421 0.810898 4.15275 0.724559 4.23909C0.638219 4.32542 0.589679 4.44251 0.589601 4.56461V20.8007C0.589679 20.9228 0.638219 21.0399 0.724559 21.1263C0.810898 21.2126 0.927976 21.2611 1.05008 21.2612H9.35697C9.53106 21.2582 9.69927 21.3241 9.82496 21.4446C9.95064 21.5651 10.0236 21.7304 10.0279 21.9045C10.0295 22.0291 10.0779 22.1487 10.1635 22.2393C10.249 22.33 10.3655 22.3853 10.4899 22.3941H13.5107C13.6352 22.3851 13.7517 22.3297 13.8373 22.2389C13.9228 22.148 13.9711 22.0284 13.9727 21.9036C13.9771 21.7297 14.0502 21.5645 14.1759 21.4442C14.3015 21.3239 14.4697 21.2581 14.6436 21.2612H22.9505C23.0726 21.2611 23.1897 21.2126 23.276 21.1263C23.3624 21.0399 23.4109 20.9228 23.411 20.8007V4.56461C23.4109 4.5041 23.399 4.44418 23.3758 4.38829C23.3526 4.33241 23.3186 4.28164 23.2758 4.23888C23.233 4.19612 23.1822 4.16221 23.1263 4.13909C23.0704 4.11597 23.0104 4.10409 22.9499 4.10413H22.5723V3.51453H22.9499C23.2283 3.51484 23.4952 3.62557 23.6921 3.82243C23.889 4.0193 23.9997 4.28621 24 4.56461V20.8007C23.9997 21.0791 23.889 21.3461 23.6921 21.5429C23.4952 21.7398 23.2283 21.8505 22.9499 21.8508H14.643C14.5991 21.8508 14.5699 21.8508 14.5587 21.9628C14.5444 22.2336 14.4286 22.4891 14.2343 22.6783C14.04 22.8674 13.7815 22.9764 13.5104 22.9834Z" fill="currentColor"/>
<path d="M12.0002 20.7181C11.9534 20.7181 11.9073 20.707 11.8657 20.6856C11.8241 20.6643 11.7881 20.6334 11.7608 20.5954C11.6072 20.382 11.0665 19.987 9.17303 19.7426C7.8071 19.5858 6.43274 19.5142 5.05791 19.5282C3.65732 19.5282 2.5866 19.5843 2.57599 19.5848C2.53598 19.587 2.49596 19.5809 2.45837 19.5671C2.42078 19.5532 2.38641 19.5318 2.35736 19.5042C2.32831 19.4766 2.30518 19.4434 2.2894 19.4066C2.27362 19.3698 2.26551 19.3301 2.26556 19.29V2.29834C2.26555 2.22096 2.29597 2.14668 2.35024 2.09153C2.40451 2.03638 2.47828 2.00477 2.55565 2.00354C2.56449 2.00354 2.7797 2 3.14525 2C4.1912 2 6.22709 2.02741 8.10939 2.21048C8.98618 2.28239 9.85596 2.42305 10.7107 2.63117C11.5857 2.86494 12.0795 3.15355 12.2646 3.53944C12.2838 3.57915 12.2939 3.62268 12.2941 3.6668V20.4221C12.2941 20.5003 12.263 20.5753 12.2077 20.6305C12.1525 20.6858 12.0775 20.7169 11.9993 20.7169L12.0002 20.7181ZM5.05791 18.9389C6.45797 18.9248 7.85754 18.998 9.2485 19.158C9.86183 19.2276 10.4676 19.3527 11.0583 19.5318C11.282 19.6021 11.4986 19.6934 11.7051 19.8045V3.74816C11.6187 3.63024 11.356 3.41445 10.5598 3.2019C9.73632 3.0022 8.89849 2.86726 8.05397 2.79832C6.19673 2.61761 4.18206 2.59196 3.14672 2.59196C3.03529 2.59196 2.93741 2.59196 2.85546 2.59196V18.9829C3.27673 18.9652 4.08979 18.9389 5.05791 18.9389Z" fill="currentColor"/>
<path d="M12.0002 20.7181C11.922 20.7181 11.847 20.687 11.7917 20.6318C11.7364 20.5765 11.7054 20.5015 11.7054 20.4233V3.66802C11.7056 3.6239 11.7156 3.58037 11.7349 3.54066C11.92 3.15477 12.4129 2.86587 13.2888 2.63239C14.1435 2.42427 15.0133 2.28361 15.8901 2.21171C17.7724 2.02834 19.8083 2.00122 20.8542 2.00122C21.2212 2.00122 21.4362 2.00476 21.4438 2.00476C21.5212 2.00599 21.595 2.0376 21.6492 2.09275C21.7035 2.1479 21.7339 2.22218 21.7339 2.29956V19.2907C21.734 19.3307 21.7259 19.3704 21.7101 19.4072C21.6943 19.444 21.6712 19.4773 21.6421 19.5049C21.6131 19.5324 21.5787 19.5538 21.5411 19.5677C21.5035 19.5815 21.4635 19.5876 21.4235 19.5855C21.4129 19.5855 20.3422 19.5289 18.9416 19.5289C17.5667 19.5149 16.1924 19.5864 14.8264 19.7432C14.0137 19.8481 12.5969 20.0984 12.2387 20.5961C12.2114 20.6338 12.1755 20.6645 12.1341 20.6857C12.0926 20.7069 12.0468 20.718 12.0002 20.7181ZM12.295 3.74821V19.8045C12.5015 19.6934 12.7181 19.6021 12.9418 19.5318C13.5325 19.3527 14.1382 19.2276 14.7516 19.158C16.1425 18.998 17.5421 18.9249 18.9421 18.939C19.91 18.939 20.7233 18.9655 21.1449 18.9823V2.59141C21.0629 2.59141 20.9651 2.59141 20.8536 2.59141C19.8183 2.59141 17.8042 2.61853 15.9464 2.79777C15.1019 2.86671 14.264 3.00164 13.4406 3.20135C12.644 3.41449 12.3814 3.63088 12.295 3.74821Z" fill="currentColor"/>
<path d="M16.9086 13.9213C16.8304 13.9213 16.7554 13.8903 16.7001 13.835C16.6448 13.7797 16.6138 13.7047 16.6138 13.6265V9.39026H15.3983C15.3201 9.39026 15.2451 9.3592 15.1899 9.30391C15.1346 9.24862 15.1035 9.17365 15.1035 9.09546C15.1035 9.01727 15.1346 8.94229 15.1899 8.88701C15.2451 8.83172 15.3201 8.80066 15.3983 8.80066H16.9086C16.9868 8.80066 17.0617 8.83172 17.117 8.88701C17.1723 8.94229 17.2034 9.01727 17.2034 9.09546V13.6265C17.2034 13.7047 17.1723 13.7797 17.117 13.835C17.0617 13.8903 16.9868 13.9213 16.9086 13.9213Z" fill="currentColor"/>
<path d="M17.8867 14.2802H15.5283C15.4501 14.2802 15.3752 14.2491 15.3199 14.1938C15.2646 14.1385 15.2335 14.0635 15.2335 13.9854C15.2335 13.9072 15.2646 13.8322 15.3199 13.7769C15.3752 13.7216 15.4501 13.6906 15.5283 13.6906H17.8867C17.9649 13.6906 18.0399 13.7216 18.0952 13.7769C18.1505 13.8322 18.1815 13.9072 18.1815 13.9854C18.1815 14.0635 18.1505 14.1385 18.0952 14.1938C18.0399 14.2491 17.9649 14.2802 17.8867 14.2802Z" fill="currentColor"/>
<path d="M16.9088 8.11027C16.805 8.11027 16.7035 8.07947 16.6171 8.02178C16.5308 7.96408 16.4635 7.88209 16.4238 7.78615C16.384 7.69021 16.3736 7.58464 16.3939 7.48279C16.4141 7.38094 16.4641 7.28739 16.5376 7.21396C16.611 7.14053 16.7046 7.09053 16.8064 7.07027C16.9082 7.05001 17.0138 7.06041 17.1098 7.10015C17.2057 7.13989 17.2877 7.20719 17.3454 7.29353C17.4031 7.37987 17.4339 7.48138 17.4339 7.58523C17.4337 7.72443 17.3783 7.85788 17.2799 7.95631C17.1815 8.05474 17.048 8.11011 16.9088 8.11027ZM16.9088 7.35498C16.8785 7.35467 16.8484 7.36041 16.8203 7.37187C16.7923 7.38333 16.7668 7.40028 16.7453 7.42172C16.7239 7.44316 16.7069 7.46867 16.6955 7.49674C16.684 7.52482 16.6783 7.5549 16.6786 7.58523C16.6786 7.63076 16.6921 7.67528 16.7174 7.71314C16.7427 7.751 16.7786 7.78051 16.8207 7.79794C16.8628 7.81537 16.9091 7.81992 16.9537 7.81104C16.9984 7.80216 17.0394 7.78023 17.0716 7.74803C17.1038 7.71583 17.1258 7.67481 17.1346 7.63015C17.1435 7.58548 17.139 7.53918 17.1215 7.49711C17.1041 7.45504 17.0746 7.41909 17.0367 7.39379C16.9989 7.36849 16.9544 7.35498 16.9088 7.35498Z" fill="currentColor"/>
</svg>
