<svg width="24" height="24" viewBox="0 0 24 24" fill="none" xmlns="http://www.w3.org/2000/svg">
<path d="M22.1933 24.0001H1.80676C1.52796 23.9997 1.26067 23.8889 1.06353 23.6917C0.866393 23.4946 0.755502 23.2273 0.755188 22.9485V15.0205C0.755188 14.9419 0.786414 14.8665 0.841997 14.8109C0.89758 14.7553 0.972967 14.7241 1.05157 14.7241C1.13018 14.7241 1.20557 14.7553 1.26115 14.8109C1.31673 14.8665 1.34796 14.9419 1.34796 15.0205V22.9485C1.34804 23.0701 1.3964 23.1868 1.48242 23.2728C1.56845 23.3588 1.6851 23.4072 1.80676 23.4073H22.1933C22.315 23.4072 22.4316 23.3588 22.5176 23.2728C22.6037 23.1868 22.652 23.0701 22.6521 22.9485V13.1328C22.6521 13.0542 22.6833 12.9788 22.7389 12.9232C22.7945 12.8677 22.8699 12.8364 22.9485 12.8364C23.0271 12.8364 23.1025 12.8677 23.1581 12.9232C23.2136 12.9788 23.2449 13.0542 23.2449 13.1328V22.9485C23.2446 23.2273 23.1337 23.4946 22.9365 23.6917C22.7394 23.8889 22.4721 23.9997 22.1933 24.0001Z" fill="currentColor"/>
<path d="M17.5818 2.85824H16.9891V1.94123C16.6565 1.68263 16.2912 1.46926 15.9025 1.30667C14.6646 0.803048 13.3361 0.560092 12 0.592973C10.6649 0.569329 9.33844 0.81195 8.09812 1.30667C7.70928 1.46919 7.34371 1.68257 7.01098 1.94123V2.85824H6.41821V1.80815C6.41823 1.72955 6.44947 1.65418 6.50505 1.59861C6.89473 1.25438 7.33973 0.978415 7.8213 0.782363C8.36723 0.54347 8.93675 0.362572 9.52047 0.242647C10.3364 0.0766343 11.1674 -0.00461152 12 0.000203767C12.8328 -0.00463195 13.6638 0.0766139 14.4799 0.242647C15.0635 0.362095 15.6331 0.542496 16.1791 0.780881C16.6606 0.976933 17.1056 1.25289 17.4953 1.59713C17.5509 1.65269 17.5821 1.72807 17.5821 1.80667L17.5818 2.85824Z" fill="currentColor"/>
<path d="M11.0828 12.8364H12.9174C13.1532 12.8364 13.3794 12.9301 13.5461 13.0969C13.7129 13.2636 13.8065 13.4898 13.8065 13.7256V16.3154C13.8065 16.5512 13.7129 16.7774 13.5461 16.9441C13.3794 17.1109 13.1532 17.2045 12.9174 17.2045H11.0828C10.8469 17.2045 10.6208 17.1109 10.454 16.9441C10.2873 16.7774 10.1936 16.5512 10.1936 16.3154V13.7256C10.1936 13.4898 10.2873 13.2636 10.454 13.0969C10.6208 12.9301 10.8469 12.8364 11.0828 12.8364ZM12.9174 16.6118C12.996 16.6118 13.0714 16.5805 13.127 16.525C13.1825 16.4694 13.2138 16.394 13.2138 16.3154V13.7256C13.2138 13.647 13.1825 13.5716 13.127 13.516C13.0714 13.4604 12.996 13.4292 12.9174 13.4292H11.0828C11.0042 13.4292 10.9288 13.4604 10.8732 13.516C10.8176 13.5716 10.7864 13.647 10.7864 13.7256V16.3154C10.7864 16.394 10.8176 16.4694 10.8732 16.525C10.9288 16.5805 11.0042 16.6118 11.0828 16.6118H12.9174Z" fill="currentColor"/>
<path d="M13.5095 14.8797C13.4706 14.8811 13.4318 14.8747 13.3953 14.8611C13.3588 14.8475 13.3254 14.8268 13.2969 14.8002C13.2394 14.7466 13.2055 14.6723 13.2028 14.5937C13.2 14.5151 13.2286 14.4386 13.2822 14.3811C13.3359 14.3235 13.4102 14.2897 13.4888 14.2869C17.3753 14.0089 22.3118 12.8014 23.407 12.5246V4.82721C23.4069 4.70555 23.3585 4.5889 23.2725 4.50287C23.1865 4.41685 23.0698 4.36848 22.9482 4.3684H1.05157C0.929915 4.36848 0.813262 4.41685 0.727237 4.50287C0.641211 4.5889 0.592848 4.70555 0.59277 4.82721V12.5252C1.68791 12.802 6.62539 14.0095 10.511 14.2875C10.5894 14.2931 10.6624 14.3297 10.7138 14.3891C10.7653 14.4485 10.7911 14.5259 10.7854 14.6044C10.7798 14.6828 10.7433 14.7557 10.6839 14.8072C10.6244 14.8587 10.547 14.8844 10.4686 14.8788C8.17932 14.6832 5.90551 14.336 3.66213 13.8397C1.68613 13.4259 0.23533 13.0457 0.221103 13.0418C0.157911 13.0252 0.101972 12.9882 0.0619868 12.9365C0.0220013 12.8849 0.000209436 12.8214 0 12.7561L0 4.82721C0.000313786 4.54841 0.111205 4.28112 0.308345 4.08398C0.505485 3.88684 0.772775 3.77595 1.05157 3.77563H22.9485C23.2273 3.77595 23.4946 3.88684 23.6917 4.08398C23.8888 4.28112 23.9997 4.54841 24.0001 4.82721V12.7561C24 12.8216 23.9783 12.8852 23.9383 12.9371C23.8983 12.9889 23.8423 13.0261 23.779 13.0427C23.7644 13.0466 22.3139 13.428 20.3379 13.8406C18.0932 14.3295 15.8198 14.6765 13.5314 14.8797H13.5095Z" fill="currentColor"/>
</svg>
