<svg width="24" height="24" viewBox="0 0 24 24" fill="none" xmlns="http://www.w3.org/2000/svg">
<mask id="mask0_149_1110" style="mask-type:luminance" maskUnits="userSpaceOnUse" x="0" y="2" width="24" height="20">
<path d="M24 2H0V21.2464H24V2Z" fill="white"/>
</mask>
<g mask="url(#mask0_149_1110)">
<path d="M18.9182 11.0828C19.9236 11.0821 20.9066 11.3797 21.7428 11.938C22.579 12.4962 23.2307 13.2901 23.6155 14.219C24.0002 15.1479 24.1007 16.17 23.9042 17.1561C23.7077 18.1421 23.2231 19.0477 22.5117 19.7581C21.9812 20.2878 21.3402 20.6936 20.6345 20.9464C19.9287 21.1992 19.1758 21.2927 18.4297 21.2203C17.6836 21.1479 16.9627 20.9113 16.3188 20.5275C15.6749 20.1437 15.1239 19.6222 14.7052 19.0003C14.2866 18.3785 14.0107 17.6718 13.8973 16.9307C13.7839 16.1897 13.8359 15.4328 14.0495 14.7143C14.2631 13.9957 14.633 13.3333 15.1327 12.7746C15.6325 12.2158 16.2496 11.7745 16.94 11.4823C17.5658 11.2174 18.2386 11.0815 18.9182 11.0828ZM18.9182 20.7711C19.9809 20.7705 21.0108 20.4025 21.8333 19.7295C22.6558 19.0565 23.2203 18.1199 23.4313 17.0783C23.6423 16.0367 23.4868 14.9542 22.9911 14.0141C22.4954 13.0741 21.6899 12.3343 20.7112 11.9201C19.5855 11.4446 18.317 11.4357 17.1847 11.8954C16.0525 12.3552 15.1492 13.2458 14.6737 14.3716C14.1981 15.4973 14.1892 16.7658 14.649 17.898C15.1087 19.0303 15.9994 19.9336 17.1251 20.4091C17.6924 20.6492 18.3022 20.7723 18.9182 20.7711Z" fill="currentColor"/>
<path d="M21.6427 16.402H18.9179C18.8549 16.402 18.7944 16.377 18.7499 16.3324C18.7053 16.2878 18.6802 16.2274 18.6802 16.1644V13.4396C18.6802 13.3765 18.7053 13.3161 18.7499 13.2715C18.7944 13.2269 18.8549 13.2019 18.9179 13.2019C18.981 13.2019 19.0414 13.2269 19.086 13.2715C19.1306 13.3161 19.1556 13.3765 19.1556 13.4396V15.9267H21.6427C21.7057 15.9267 21.7662 15.9517 21.8107 15.9963C21.8553 16.0409 21.8804 16.1013 21.8804 16.1644C21.8804 16.2274 21.8553 16.2878 21.8107 16.3324C21.7662 16.377 21.7057 16.402 21.6427 16.402Z" fill="currentColor"/>
<path d="M21.9457 10.6497C21.8827 10.6497 21.8222 10.6246 21.7777 10.5801C21.7331 10.5355 21.708 10.475 21.708 10.412V3.75149C21.7079 3.65395 21.6691 3.56044 21.6001 3.49147C21.5312 3.42249 21.4377 3.38369 21.3401 3.38356H5.59689C5.49935 3.38369 5.40584 3.42249 5.33686 3.49147C5.26789 3.56044 5.22909 3.65395 5.22896 3.75149V6.47626C5.22896 6.5393 5.20392 6.59975 5.15935 6.64432C5.11477 6.6889 5.05432 6.71394 4.99128 6.71394C4.92824 6.71394 4.86779 6.6889 4.82322 6.64432C4.77864 6.59975 4.7536 6.5393 4.7536 6.47626V3.75149C4.75385 3.52792 4.84278 3.31357 5.00087 3.15547C5.15897 2.99738 5.37331 2.90845 5.59689 2.9082H21.3401C21.5637 2.90845 21.778 2.99738 21.9361 3.15547C22.0942 3.31357 22.1832 3.52792 22.1834 3.75149V10.412C22.1834 10.475 22.1584 10.5355 22.1138 10.5801C22.0692 10.6246 22.0088 10.6497 21.9457 10.6497Z" fill="currentColor"/>
<path d="M8.01887 4.29195C7.95583 4.29195 7.89538 4.26691 7.8508 4.22234C7.80623 4.17776 7.78119 4.11731 7.78119 4.05427V2.23768C7.78119 2.17464 7.80623 2.11419 7.8508 2.06961C7.89538 2.02504 7.95583 2 8.01887 2C8.08191 2 8.14236 2.02504 8.18693 2.06961C8.23151 2.11419 8.25655 2.17464 8.25655 2.23768V4.05427C8.25655 4.08548 8.2504 4.11639 8.23846 4.14523C8.22651 4.17406 8.20901 4.20027 8.18693 4.22234C8.16486 4.24441 8.13866 4.26191 8.10983 4.27386C8.08099 4.2858 8.05008 4.29195 8.01887 4.29195Z" fill="currentColor"/>
<path d="M10.7436 4.29195C10.6806 4.29195 10.6201 4.26691 10.5755 4.22234C10.531 4.17776 10.5059 4.11731 10.5059 4.05427V2.23768C10.5059 2.17464 10.531 2.11419 10.5755 2.06961C10.6201 2.02504 10.6806 2 10.7436 2C10.8066 2 10.8671 2.02504 10.9117 2.06961C10.9562 2.11419 10.9813 2.17464 10.9813 2.23768V4.05427C10.9813 4.08548 10.9751 4.11639 10.9632 4.14523C10.9512 4.17406 10.9337 4.20027 10.9117 4.22234C10.8896 4.24441 10.8634 4.26191 10.8346 4.27386C10.8057 4.2858 10.7748 4.29195 10.7436 4.29195Z" fill="currentColor"/>
<path d="M13.4684 4.29195C13.4054 4.29195 13.3449 4.26691 13.3003 4.22234C13.2558 4.17776 13.2307 4.11731 13.2307 4.05427V2.23768C13.2307 2.17464 13.2558 2.11419 13.3003 2.06961C13.3449 2.02504 13.4054 2 13.4684 2C13.5314 2 13.5919 2.02504 13.6365 2.06961C13.681 2.11419 13.7061 2.17464 13.7061 2.23768V4.05427C13.7061 4.08548 13.6999 4.11639 13.688 4.14523C13.676 4.17406 13.6585 4.20027 13.6365 4.22234C13.6144 4.24441 13.5882 4.26191 13.5593 4.27386C13.5305 4.2858 13.4996 4.29195 13.4684 4.29195Z" fill="currentColor"/>
<path d="M16.1932 4.29195C16.1301 4.29195 16.0697 4.26691 16.0251 4.22234C15.9805 4.17776 15.9555 4.11731 15.9555 4.05427V2.23768C15.9555 2.17464 15.9805 2.11419 16.0251 2.06961C16.0697 2.02504 16.1301 2 16.1932 2C16.2562 2 16.3167 2.02504 16.3613 2.06961C16.4058 2.11419 16.4309 2.17464 16.4309 2.23768V4.05427C16.4309 4.08548 16.4247 4.11639 16.4128 4.14523C16.4008 4.17406 16.3833 4.20027 16.3613 4.22234C16.3392 4.24441 16.313 4.26191 16.2841 4.27386C16.2553 4.2858 16.2244 4.29195 16.1932 4.29195Z" fill="currentColor"/>
<path d="M18.9179 4.29195C18.8549 4.29195 18.7944 4.26691 18.7499 4.22234C18.7053 4.17776 18.6802 4.11731 18.6802 4.05427V2.23768C18.6802 2.17464 18.7053 2.11419 18.7499 2.06961C18.7944 2.02504 18.8549 2 18.9179 2C18.981 2 19.0414 2.02504 19.086 2.06961C19.1306 2.11419 19.1556 2.17464 19.1556 2.23768V4.05427C19.1556 4.08548 19.1494 4.11639 19.1375 4.14523C19.1256 4.17406 19.1081 4.20027 19.086 4.22234C19.0639 4.24441 19.0377 4.26191 19.0089 4.27386C18.98 4.2858 18.9491 4.29195 18.9179 4.29195Z" fill="currentColor"/>
<path d="M7.80661 21.2465H0.842577C0.619162 21.2459 0.40507 21.1569 0.247158 20.9988C0.0892459 20.8408 0.000376463 20.6266 0 20.4032L0 7.08218C0.000251635 6.8586 0.0891788 6.64426 0.247272 6.48616C0.405365 6.32807 0.619713 6.23914 0.84329 6.23889H16.5865C16.8101 6.23914 17.0244 6.32807 17.1825 6.48616C17.3406 6.64426 17.4296 6.8586 17.4298 7.08218V13.7415C17.4298 13.8045 17.4048 13.865 17.3602 13.9096C17.3156 13.9541 17.2552 13.9792 17.1921 13.9792C17.1291 13.9792 17.0686 13.9541 17.0241 13.9096C16.9795 13.865 16.9544 13.8045 16.9544 13.7415V7.08218C16.9543 6.98464 16.9155 6.89113 16.8465 6.82215C16.7776 6.75318 16.6841 6.71438 16.5865 6.71425H0.84329C0.745747 6.71438 0.652236 6.75318 0.583263 6.82215C0.514291 6.89113 0.475486 6.98464 0.475361 7.08218V20.4032C0.475548 20.5006 0.514308 20.5941 0.583164 20.663C0.652021 20.7319 0.745374 20.7708 0.842814 20.7711H7.80685C7.86988 20.7711 7.93034 20.7962 7.97491 20.8408C8.01949 20.8853 8.04453 20.9458 8.04453 21.0088C8.04453 21.0719 8.01949 21.1323 7.97491 21.1769C7.93034 21.2215 7.86965 21.2465 7.80661 21.2465Z" fill="currentColor"/>
<path d="M3.26527 7.62252C3.20223 7.62252 3.14178 7.59748 3.0972 7.5529C3.05263 7.50833 3.02759 7.44787 3.02759 7.38484V5.56825C3.02759 5.50521 3.05263 5.44476 3.0972 5.40018C3.14178 5.35561 3.20223 5.33057 3.26527 5.33057C3.3283 5.33057 3.38876 5.35561 3.43333 5.40018C3.47791 5.44476 3.50295 5.50521 3.50295 5.56825V7.38484C3.50295 7.41605 3.4968 7.44696 3.48486 7.47579C3.47291 7.50463 3.4554 7.53083 3.43333 7.5529C3.41126 7.57497 3.38506 7.59248 3.35622 7.60442C3.32739 7.61637 3.29648 7.62252 3.26527 7.62252Z" fill="currentColor"/>
<path d="M5.99 7.62252C5.92696 7.62252 5.86651 7.59748 5.82193 7.5529C5.77736 7.50833 5.75232 7.44787 5.75232 7.38484V5.56825C5.75232 5.50521 5.77736 5.44476 5.82193 5.40018C5.86651 5.35561 5.92696 5.33057 5.99 5.33057C6.05304 5.33057 6.11349 5.35561 6.15806 5.40018C6.20264 5.44476 6.22768 5.50521 6.22768 5.56825V7.38484C6.22768 7.41605 6.22153 7.44696 6.20959 7.47579C6.19764 7.50463 6.18014 7.53083 6.15806 7.5529C6.13599 7.57497 6.10979 7.59248 6.08096 7.60442C6.05212 7.61637 6.02121 7.62252 5.99 7.62252Z" fill="currentColor"/>
<path d="M8.71479 7.62252C8.65176 7.62252 8.5913 7.59748 8.54673 7.5529C8.50215 7.50833 8.47711 7.44787 8.47711 7.38484V5.56825C8.47711 5.50521 8.50215 5.44476 8.54673 5.40018C8.5913 5.35561 8.65176 5.33057 8.71479 5.33057C8.77783 5.33057 8.83828 5.35561 8.88286 5.40018C8.92743 5.44476 8.95247 5.50521 8.95247 5.56825V7.38484C8.95247 7.41605 8.94632 7.44696 8.93438 7.47579C8.92244 7.50463 8.90493 7.53083 8.88286 7.5529C8.86079 7.57497 8.83459 7.59248 8.80575 7.60442C8.77691 7.61637 8.746 7.62252 8.71479 7.62252Z" fill="currentColor"/>
<path d="M11.4396 7.62252C11.3765 7.62252 11.3161 7.59748 11.2715 7.5529C11.2269 7.50833 11.2019 7.44787 11.2019 7.38484V5.56825C11.2019 5.50521 11.2269 5.44476 11.2715 5.40018C11.3161 5.35561 11.3765 5.33057 11.4396 5.33057C11.5026 5.33057 11.5631 5.35561 11.6076 5.40018C11.6522 5.44476 11.6773 5.50521 11.6773 5.56825V7.38484C11.6773 7.41605 11.6711 7.44696 11.6592 7.47579C11.6472 7.50463 11.6297 7.53083 11.6076 7.5529C11.5856 7.57497 11.5594 7.59248 11.5305 7.60442C11.5017 7.61637 11.4708 7.62252 11.4396 7.62252Z" fill="currentColor"/>
<path d="M14.1643 7.62252C14.1013 7.62252 14.0408 7.59748 13.9963 7.5529C13.9517 7.50833 13.9266 7.44787 13.9266 7.38484V5.56825C13.9266 5.50521 13.9517 5.44476 13.9963 5.40018C14.0408 5.35561 14.1013 5.33057 14.1643 5.33057C14.2274 5.33057 14.2878 5.35561 14.3324 5.40018C14.377 5.44476 14.402 5.50521 14.402 5.56825V7.38484C14.402 7.41605 14.3958 7.44696 14.3839 7.47579C14.372 7.50463 14.3545 7.53083 14.3324 7.5529C14.3103 7.57497 14.2841 7.59248 14.2553 7.60442C14.2264 7.61637 14.1955 7.62252 14.1643 7.62252Z" fill="currentColor"/>
<path d="M15.6132 10.0445H1.81659V9.56909H15.6132V10.0445Z" fill="currentColor"/>
</g>
</svg>
