<svg width="24" height="24" viewBox="0 0 24 24" fill="none" xmlns="http://www.w3.org/2000/svg">
<path d="M18.9179 13.2019C19.0492 13.2019 19.1556 13.3083 19.1556 13.4396V15.9266H21.6427C21.774 15.9266 21.8804 16.033 21.8804 16.1643C21.8804 16.2956 21.774 16.402 21.6427 16.402H18.9179C18.7867 16.402 18.6802 16.2956 18.6802 16.1643V13.4396C18.6802 13.3083 18.7867 13.2019 18.9179 13.2019Z" fill="currentColor"/>
<path fill-rule="evenodd" clip-rule="evenodd" d="M8.01886 2C8.15012 2 8.25654 2.10641 8.25654 2.23768V2.90818H10.5059V2.23768C10.5059 2.10641 10.6124 2 10.7436 2C10.8749 2 10.9813 2.10641 10.9813 2.23768V2.90818H13.2307V2.23768C13.2307 2.10641 13.3371 2 13.4684 2C13.5997 2 13.7061 2.10641 13.7061 2.23768V2.90818H15.9555V2.23768C15.9555 2.10641 16.0619 2 16.1932 2C16.3244 2 16.4308 2.10641 16.4308 2.23768V2.90818H18.6802V2.23768C18.6802 2.10641 18.7867 2 18.9179 2C19.0492 2 19.1556 2.10641 19.1556 2.23768V2.90818H21.3401C21.5638 2.90818 21.7783 2.99702 21.9364 3.15517C22.0946 3.31332 22.1834 3.52781 22.1834 3.75147V10.412C22.1834 10.5432 22.077 10.6497 21.9457 10.6497C21.8145 10.6497 21.708 10.5432 21.708 10.412V3.75147C21.708 3.65388 21.6693 3.5603 21.6003 3.4913C21.5313 3.4223 21.4377 3.38354 21.3401 3.38354H19.1556V4.05427C19.1556 4.18554 19.0492 4.29195 18.9179 4.29195C18.7867 4.29195 18.6802 4.18554 18.6802 4.05427V3.38354H16.4308V4.05427C16.4308 4.18554 16.3244 4.29195 16.1932 4.29195C16.0619 4.29195 15.9555 4.18554 15.9555 4.05427V3.38354H13.7061V4.05427C13.7061 4.18554 13.5997 4.29195 13.4684 4.29195C13.3371 4.29195 13.2307 4.18554 13.2307 4.05427V3.38354H10.9813V4.05427C10.9813 4.18554 10.8749 4.29195 10.7436 4.29195C10.6124 4.29195 10.5059 4.18554 10.5059 4.05427V3.38354H8.25654V4.05427C8.25654 4.18554 8.15012 4.29195 8.01886 4.29195C7.88759 4.29195 7.78118 4.18554 7.78118 4.05427V3.38354H5.59689C5.49931 3.38354 5.40573 3.4223 5.33673 3.4913C5.26773 3.5603 5.22897 3.65388 5.22897 3.75147V6.23879H5.75234V5.56829C5.75234 5.43703 5.85875 5.33061 5.99002 5.33061C6.12128 5.33061 6.2277 5.43703 6.2277 5.56829V6.23879H8.4771V5.56829C8.4771 5.43703 8.58352 5.33061 8.71478 5.33061C8.84605 5.33061 8.95246 5.43703 8.95246 5.56829V6.23879H11.2019V5.56829C11.2019 5.43703 11.3083 5.33061 11.4396 5.33061C11.5708 5.33061 11.6772 5.43703 11.6772 5.56829V6.23879H13.9266V5.56829C13.9266 5.43703 14.033 5.33061 14.1643 5.33061C14.2956 5.33061 14.402 5.43703 14.402 5.56829V6.23879H16.5865C16.6973 6.23879 16.8069 6.2606 16.9092 6.30298C17.0115 6.34536 17.1045 6.40748 17.1828 6.48578C17.2611 6.56409 17.3232 6.65705 17.3656 6.75937C17.408 6.86168 17.4298 6.97134 17.4298 7.08208V11.3041C17.9005 11.1602 18.4003 11.0827 18.9182 11.0827C21.7248 11.0827 24 13.3579 24 16.1646C24 18.9712 21.7248 21.2464 18.9182 21.2464C16.1115 21.2464 13.8363 18.9712 13.8363 16.1646C13.8363 14.0541 15.1229 12.2441 16.9544 11.476V7.08208C16.9544 7.03376 16.9449 6.98592 16.9264 6.94128C16.9079 6.89664 16.8808 6.85608 16.8467 6.82191C16.8125 6.78775 16.772 6.76065 16.7273 6.74216C16.6827 6.72367 16.6348 6.71415 16.5865 6.71415H14.402V7.38488C14.402 7.51615 14.2956 7.62256 14.1643 7.62256C14.033 7.62256 13.9266 7.51615 13.9266 7.38488V6.71415H11.6772V7.38488C11.6772 7.51615 11.5708 7.62256 11.4396 7.62256C11.3083 7.62256 11.2019 7.51615 11.2019 7.38488V6.71415H8.95246V7.38488C8.95246 7.51615 8.84605 7.62256 8.71478 7.62256C8.58352 7.62256 8.4771 7.51615 8.4771 7.38488V6.71415H6.2277V7.38488C6.2277 7.51615 6.12128 7.62256 5.99002 7.62256C5.85875 7.62256 5.75234 7.51615 5.75234 7.38488V6.71415H3.50293V7.38488C3.50293 7.51615 3.39652 7.62256 3.26525 7.62256C3.13398 7.62256 3.02757 7.51615 3.02757 7.38488V6.71415H0.84329C0.745709 6.71415 0.652124 6.75291 0.583124 6.82191C0.514124 6.89091 0.47536 6.9845 0.47536 7.08208V20.4031C0.47536 20.5006 0.514065 20.5941 0.582971 20.6631C0.651878 20.7321 0.745351 20.7709 0.842856 20.771H7.80661C7.93787 20.771 8.04429 20.8774 8.04429 21.0087C8.04429 21.14 7.93787 21.2464 7.80661 21.2464H0.842297C0.618814 21.2461 0.404575 21.1572 0.246643 20.999C0.0887101 20.8409 0 20.6266 0 20.4031V7.08208C0 6.85842 0.0888463 6.64393 0.246994 6.48578C0.405141 6.32764 0.619635 6.23879 0.84329 6.23879H3.02757V5.56829C3.02757 5.43703 3.13398 5.33061 3.26525 5.33061C3.39652 5.33061 3.50293 5.43703 3.50293 5.56829V6.23879H4.7536V3.75147C4.7536 3.52781 4.84245 3.31332 5.0006 3.15517C5.15875 2.99702 5.37324 2.90818 5.59689 2.90818H7.78118V2.23768C7.78118 2.10641 7.88759 2 8.01886 2ZM16.9544 11.9964C15.3925 12.7336 14.3117 14.3228 14.3117 16.1646C14.3117 18.7086 16.3741 20.771 18.9182 20.771C21.4622 20.771 23.5246 18.7086 23.5246 16.1646C23.5246 13.6205 21.4622 11.5581 18.9182 11.5581C18.3973 11.5581 17.8967 11.6445 17.4298 11.8038V13.7414C17.4298 13.8727 17.3234 13.9791 17.1921 13.9791C17.0609 13.9791 16.9544 13.8727 16.9544 13.7414V11.9964Z" fill="currentColor"/>
<path d="M15.6132 9.56917H1.81659V10.0445H15.6132V9.56917Z" fill="currentColor"/>
</svg>
