<svg width="25" height="24" viewBox="0 0 25 24" fill="none" xmlns="http://www.w3.org/2000/svg">
<path d="M15.4795 23.9999C14.7828 23.9978 14.0898 23.8986 13.4205 23.7051C11.6979 23.2131 10.1575 22.157 8.84885 21.206C7.69403 20.3725 6.60609 19.4501 5.59499 18.4471C4.57809 17.4227 3.64173 16.3213 2.79426 15.1528C1.84319 13.8439 0.787167 12.3029 0.294828 10.5812C0.0985166 9.90221 -0.000738503 9.19888 1.39062e-05 8.49211C-0.00149747 7.78186 0.120198 7.07673 0.359687 6.40807C0.644061 5.65269 1.08354 4.96526 1.64979 4.39008C2.33877 3.69697 3.09939 3.33081 3.8494 3.33081C3.93045 3.33087 4.01144 3.3352 4.09203 3.34378C4.85282 3.45309 5.55816 3.80458 6.10355 4.34615C6.64236 4.85484 7.08701 5.45478 7.41695 6.11828C7.78753 6.86209 7.87773 7.52218 7.68552 8.08026C7.47612 8.56773 7.14312 8.9921 6.71942 9.3114C6.48009 9.50927 6.26381 9.73347 6.07466 9.97974C5.83266 10.3305 5.72259 10.7555 5.76393 11.1796C5.80393 11.6244 5.94903 12.0532 6.18727 12.4308C7.50827 14.6421 9.35712 16.4911 11.5682 17.8124C11.9915 18.0808 12.4796 18.2292 12.9807 18.2419C13.3517 18.2476 13.7151 18.1368 14.0199 17.9253C14.2662 17.7361 14.4904 17.5198 14.6882 17.2805C15.0081 16.8564 15.4334 16.5232 15.9217 16.3141C16.1168 16.248 16.3216 16.2148 16.5276 16.2159C17.0018 16.2323 17.4659 16.3578 17.8837 16.5827C18.5471 16.9129 19.1469 17.3576 19.6556 17.8964C20.1972 18.4416 20.5486 19.1469 20.6579 19.9076C20.7425 20.7036 20.41 21.519 19.6956 22.2646C19.1036 22.8708 18.3861 23.3403 17.5936 23.6402C16.9154 23.883 16.1998 24.0047 15.4795 23.9999ZM3.85117 3.91926C3.10618 3.91926 2.47115 4.40069 2.06961 4.8037C1.56472 5.31926 1.17168 5.9335 0.915117 6.60796C0.501278 7.84123 0.483443 9.17304 0.864113 10.417C1.32992 12.0464 2.35204 13.5358 3.27363 14.8041C4.10253 15.9475 5.01839 17.0253 6.01304 18.0279C7.00246 19.0091 8.06702 19.9115 9.19703 20.7269C10.4647 21.6482 11.9541 22.6703 13.5842 23.1358C14.2008 23.3147 14.8393 23.4066 15.4813 23.4091C16.1326 23.4137 16.7797 23.304 17.3931 23.0848C18.1013 22.8167 18.7424 22.397 19.2714 21.8551C19.6841 21.4256 20.1558 20.7496 20.073 19.9683C19.9761 19.334 19.6782 18.7476 19.2231 18.2953C18.7629 17.8086 18.2205 17.407 17.6207 17.1089C17.2843 16.9253 16.9102 16.821 16.5273 16.8041C16.387 16.8031 16.2475 16.8254 16.1145 16.8701C15.7246 17.0513 15.3862 17.3272 15.1302 17.6726C14.9028 17.946 14.6447 18.1923 14.361 18.4067C13.9574 18.6884 13.4757 18.8364 12.9836 18.8301C12.3741 18.8172 11.7796 18.6388 11.2637 18.3141C8.97286 16.9441 7.05702 15.0281 5.68727 12.7371C5.40003 12.2795 5.22572 11.7601 5.17872 11.2218C5.12896 10.6623 5.27609 10.103 5.5947 9.64041C5.80902 9.35684 6.05523 9.09886 6.32849 8.87154C6.67381 8.61546 6.94958 8.27706 7.13068 7.88716C7.26954 7.48415 7.18964 6.97736 6.89188 6.38036C6.59404 5.78055 6.19251 5.2381 5.70584 4.77805C5.2534 4.32288 4.66688 4.02486 4.03248 3.92781C3.97224 3.92176 3.91172 3.91891 3.85117 3.91926Z" fill="currentColor"/>
<path d="M5.95939 9.09313C5.88121 9.09312 5.80623 9.06204 5.75096 9.00675L5.16133 8.41712C5.10606 8.36184 5.07501 8.28687 5.07501 8.20869C5.07501 8.13052 5.10606 8.05554 5.16133 8.00026C5.21662 7.94499 5.29159 7.91394 5.36976 7.91394C5.44794 7.91394 5.52291 7.94499 5.5782 8.00026L6.16782 8.58989C6.20904 8.63112 6.23711 8.68364 6.24848 8.74082C6.25985 8.798 6.25401 8.85727 6.2317 8.91113C6.20939 8.96499 6.17162 9.01103 6.12315 9.04343C6.07468 9.07582 6.01769 9.09312 5.95939 9.09313Z" fill="currentColor"/>
<path d="M15.983 19.1168C15.9048 19.1168 15.8299 19.0857 15.7746 19.0304L14.8902 18.146C14.8349 18.0907 14.8038 18.0157 14.8038 17.9376C14.8038 17.8594 14.8349 17.7844 14.8902 17.7291C14.9454 17.6739 15.0204 17.6428 15.0986 17.6428C15.1768 17.6428 15.2517 17.6739 15.307 17.7291L16.1915 18.6136C16.2327 18.6548 16.2607 18.7073 16.2721 18.7645C16.2835 18.8217 16.2776 18.881 16.2553 18.9348C16.233 18.9887 16.1953 19.0347 16.1468 19.0671C16.0983 19.0995 16.0413 19.1168 15.983 19.1168Z" fill="currentColor"/>
<path d="M21.8442 19.1159C21.7915 19.1159 21.7397 19.1017 21.6943 19.0749C21.6489 19.0481 21.6116 19.0095 21.5861 18.9633C21.5607 18.9172 21.5481 18.865 21.5497 18.8123C21.5513 18.7596 21.5669 18.7083 21.5951 18.6637C23.0218 16.4023 23.6372 13.7231 23.3403 11.0659C23.0434 8.40867 21.8518 5.93136 19.9611 4.04072C18.0705 2.15008 15.5932 0.958484 12.9359 0.661565C10.2787 0.364645 7.59949 0.980056 5.33818 2.40675C5.27207 2.44851 5.19208 2.46229 5.11581 2.44506C5.03954 2.42784 4.97324 2.38103 4.93148 2.31492C4.88973 2.24881 4.87594 2.16882 4.89317 2.09255C4.91039 2.01628 4.95721 1.94997 5.02332 1.90822C7.39773 0.410595 10.2108 -0.23527 13.0006 0.0766514C15.7905 0.388573 18.3914 1.63974 20.3765 3.62478C22.3615 5.60981 23.6127 8.21074 23.9246 11.0006C24.2365 13.7905 23.5907 16.6035 22.093 18.9779C22.0666 19.0201 22.0299 19.0548 21.9864 19.0789C21.9429 19.1031 21.894 19.1158 21.8442 19.1159Z" fill="currentColor"/>
<path d="M14.2678 13.0498H10.1142C10.0572 13.0498 10.0014 13.0332 9.95361 13.0022C9.90582 12.9711 9.86805 12.9268 9.8449 12.8747C9.82175 12.8226 9.8142 12.7649 9.82318 12.7086C9.83215 12.6523 9.85726 12.5998 9.89546 12.5575L12.5503 9.61937L12.5606 9.60846C12.8483 9.32014 13.5954 8.441 13.5954 7.84636C13.5954 7.84636 13.5954 7.84459 13.5954 7.844C13.6133 7.63082 13.5883 7.41621 13.522 7.21282C13.4557 7.00943 13.3493 6.82137 13.2092 6.65974C13.0457 6.51381 12.8544 6.40253 12.6468 6.3326C12.4391 6.26267 12.2194 6.23556 12.001 6.25289C11.579 6.25367 11.1746 6.42165 10.8762 6.72004C10.5778 7.01843 10.4098 7.4229 10.409 7.84488C10.409 7.92307 10.378 7.99806 10.3227 8.05335C10.2674 8.10864 10.1924 8.1397 10.1142 8.1397C10.036 8.1397 9.96104 8.10864 9.90575 8.05335C9.85046 7.99806 9.8194 7.92307 9.8194 7.84488C9.82033 7.26657 10.0505 6.71221 10.4594 6.30328C10.8683 5.89435 11.4227 5.6642 12.001 5.66326C12.297 5.647 12.5933 5.69003 12.8724 5.78981C13.1516 5.88959 13.408 6.04412 13.6266 6.24434C13.8229 6.46018 13.9735 6.71353 14.0692 6.9891C14.165 7.26468 14.204 7.55679 14.1838 7.84783C14.1329 8.39049 13.9178 8.90472 13.5671 9.3219C13.3886 9.56742 13.1932 9.80011 12.9822 10.0183L10.7767 12.459H14.2667C14.3448 12.459 14.4198 12.4901 14.4751 12.5454C14.5304 12.6007 14.5615 12.6756 14.5615 12.7538C14.5615 12.832 14.5304 12.907 14.4751 12.9623C14.4198 13.0176 14.3448 13.0486 14.2667 13.0486L14.2678 13.0498Z" fill="currentColor"/>
<path d="M18.0438 13.0499C17.9656 13.0499 17.8906 13.0188 17.8353 12.9636C17.78 12.9083 17.749 12.8333 17.749 12.7551V11.1631H14.6455C14.5917 11.1631 14.5389 11.1483 14.4929 11.1205C14.4469 11.0926 14.4094 11.0527 14.3844 11.0051C14.3595 10.9575 14.348 10.9039 14.3513 10.8502C14.3546 10.7965 14.3725 10.7448 14.4031 10.7005L17.8015 5.79159C17.8372 5.73996 17.8886 5.70111 17.948 5.68069C18.0074 5.66027 18.0717 5.65935 18.1317 5.67808C18.1916 5.6968 18.244 5.73418 18.2813 5.78478C18.3185 5.83537 18.3386 5.89653 18.3386 5.95934V10.5735H19.1765C19.2547 10.5735 19.3297 10.6045 19.3849 10.6598C19.4402 10.7151 19.4713 10.7901 19.4713 10.8683C19.4713 10.9465 19.4402 11.0215 19.3849 11.0768C19.3297 11.132 19.2547 11.1631 19.1765 11.1631H18.3386V12.7551C18.3386 12.8333 18.3076 12.9083 18.2523 12.9636C18.197 13.0188 18.122 13.0499 18.0438 13.0499ZM15.208 10.5735H17.749V6.90157L15.208 10.5735Z" fill="currentColor"/>
</svg>
