<svg width="24" height="24" viewBox="0 0 24 24" fill="none" xmlns="http://www.w3.org/2000/svg">
<path d="M15.4789 23.9998C14.7822 23.9978 14.0893 23.8985 13.42 23.705C11.6975 23.213 10.1571 22.157 8.84851 21.206C7.69373 20.3726 6.60584 19.4502 5.59477 18.4472C4.57791 17.4229 3.64159 16.3215 2.79415 15.1531C1.84312 13.8442 0.787136 12.3033 0.294816 10.5816C0.0985166 9.90269 -0.000734519 9.19939 1.3906e-05 8.49265C-0.00149741 7.78243 0.120191 7.07732 0.359671 6.40869C0.644121 5.65331 1.08368 4.9659 1.65002 4.39077C2.33898 3.69769 3.09957 3.33154 3.84954 3.33154C3.93059 3.33161 4.01157 3.33594 4.09216 3.34451C4.85292 3.45384 5.55822 3.80531 6.1036 4.34684C6.6424 4.85551 7.08703 5.45542 7.41695 6.1189C7.78751 6.86269 7.87772 7.52275 7.68551 8.08081C7.47613 8.56826 7.14313 8.99262 6.71944 9.3119C6.48013 9.50977 6.26385 9.73395 6.07471 9.98022C5.83272 10.3309 5.72265 10.756 5.76399 11.1801C5.80399 11.6248 5.94909 12.0536 6.18732 12.4312C7.50827 14.6424 9.35705 16.4913 11.5681 17.8125C11.9913 18.0809 12.4794 18.2294 12.9805 18.2421C13.3514 18.2477 13.7149 18.137 14.0196 17.9254C14.2659 17.7363 14.4901 17.52 14.6879 17.2807C15.0077 16.8566 15.4329 16.5235 15.9211 16.3143C16.1162 16.2482 16.3209 16.215 16.5269 16.2162C17.0011 16.2326 17.4652 16.3581 17.883 16.5829C18.5463 16.9131 19.1461 17.3578 19.6548 17.8965C20.1964 18.4418 20.5478 19.147 20.6571 19.9077C20.7417 20.7037 20.4092 21.5191 19.6949 22.2646C19.1028 22.8708 18.3854 23.3403 17.5929 23.6402C16.9147 23.8829 16.1992 24.0046 15.4789 23.9998ZM3.85102 3.91997C3.10605 3.91997 2.47105 4.40138 2.06953 4.80438C1.56466 5.31993 1.17165 5.93414 0.915079 6.60857C0.501256 7.84179 0.483425 9.17355 0.864079 10.4174C1.32987 12.0468 2.35195 13.5361 3.2735 14.8044C4.10237 15.9477 5.01818 17.0255 6.0128 18.028C7.00217 19.0092 8.0667 19.9116 9.19667 20.7269C10.4643 21.6482 11.9537 22.6703 13.5836 23.1358C14.2002 23.3146 14.8387 23.4066 15.4807 23.4091C16.132 23.4137 16.7791 23.3039 17.3925 23.0848C18.1006 22.8166 18.7417 22.397 19.2707 21.8552C19.6834 21.4256 20.1551 20.7496 20.0722 19.9684C19.9753 19.3342 19.6774 18.7477 19.2223 18.2954C18.7623 17.8088 18.22 17.4072 17.6204 17.1091C17.2839 16.9255 16.9099 16.8212 16.5269 16.8043C16.3866 16.8033 16.2472 16.8256 16.1142 16.8703C15.7243 17.0515 15.3859 17.3274 15.1299 17.6728C14.9026 17.9462 14.6446 18.1925 14.361 18.4069C13.9575 18.6885 13.4758 18.8366 12.9837 18.8302C12.3742 18.8173 11.7797 18.639 11.2638 18.3143C8.97309 16.9444 7.05732 15.0284 5.68764 12.7375C5.4004 12.2799 5.22609 11.7605 5.1791 11.2222C5.12934 10.6628 5.27647 10.1035 5.59507 9.6409C5.80938 9.35734 6.05558 9.09937 6.32883 8.87206C6.67414 8.61599 6.94989 8.2776 7.13099 7.88771C7.26984 7.48472 7.18995 6.97795 6.8922 6.38098C6.59436 5.78119 6.19286 5.23876 5.70621 4.77873C5.25379 4.32358 4.66728 4.02557 4.03291 3.92852C3.97247 3.92245 3.91176 3.9196 3.85102 3.91997Z" fill="currentColor"/>
<path d="M6.0965 9.41279C6.01832 9.41277 5.94335 9.3817 5.88808 9.32641L5.00367 8.44201C4.94841 8.38672 4.91736 8.31175 4.91736 8.23358C4.91736 8.15541 4.94841 8.08044 5.00367 8.02516C5.05896 7.96989 5.13393 7.93884 5.2121 7.93884C5.29027 7.93884 5.36524 7.96989 5.42052 8.02516L6.30493 8.90956C6.34615 8.95079 6.37421 9.00332 6.38558 9.06049C6.39695 9.11767 6.39111 9.17694 6.36881 9.2308C6.3465 9.28466 6.30872 9.33069 6.26026 9.36309C6.21179 9.39548 6.1548 9.41278 6.0965 9.41279Z" fill="currentColor"/>
<path d="M15.825 18.8464C15.7794 18.8463 15.7344 18.8356 15.6935 18.8151L15.1039 18.5203C15.034 18.4854 14.9808 18.4241 14.956 18.35C14.9313 18.2759 14.937 18.1949 14.9719 18.125C15.0068 18.0551 15.0681 18.002 15.1423 17.9773C15.2164 17.9526 15.2973 17.9583 15.3672 17.9932L15.9568 18.288C16.0161 18.3178 16.0637 18.3666 16.0918 18.4268C16.1199 18.4869 16.1269 18.5547 16.1116 18.6193C16.0964 18.6839 16.0598 18.7414 16.0078 18.7826C15.9558 18.8238 15.8914 18.8463 15.825 18.8464Z" fill="currentColor"/>
<path d="M22.8038 14.9789C22.7546 14.9789 22.7061 14.9665 22.6628 14.9429C22.6196 14.9194 22.5829 14.8853 22.5562 14.8439C22.5295 14.8025 22.5136 14.7551 22.5099 14.7059C22.5063 14.6568 22.515 14.6075 22.5353 14.5626C23.3631 12.7298 23.613 10.6883 23.2517 8.70991C22.8905 6.73152 21.9352 4.91009 20.5131 3.48808C19.091 2.06606 17.2695 1.11092 15.2911 0.749805C13.3126 0.388689 11.2712 0.638725 9.43839 1.46663C9.403 1.48342 9.36462 1.49299 9.32549 1.49478C9.28637 1.49657 9.24728 1.49055 9.2105 1.47706C9.17373 1.46358 9.14002 1.4429 9.11132 1.41623C9.08263 1.38957 9.05954 1.35746 9.0434 1.32177C9.02726 1.28608 9.0184 1.24753 9.01732 1.20838C9.01625 1.16922 9.02299 1.13025 9.03714 1.09373C9.0513 1.05721 9.07259 1.02388 9.09978 0.995679C9.12696 0.967481 9.15949 0.944984 9.19547 0.9295C11.1374 0.0525719 13.3003 -0.21213 15.3964 0.170625C17.4925 0.553381 19.4223 1.56544 20.9289 3.0721C22.4356 4.57876 23.4476 6.50855 23.8304 8.60463C24.2132 10.7007 23.9484 12.8636 23.0715 14.8056C23.0482 14.8571 23.0106 14.9008 22.9631 14.9315C22.9157 14.9623 22.8604 14.9787 22.8038 14.9789Z" fill="currentColor"/>
<path d="M19.6489 11.8233C19.606 11.8234 19.5636 11.8141 19.5247 11.796C19.4858 11.778 19.4513 11.7517 19.4236 11.719C19.3959 11.6863 19.3757 11.6479 19.3643 11.6065C19.353 11.5652 19.3508 11.5219 19.3579 11.4796C19.5228 10.5453 19.46 9.58504 19.1748 8.68019C18.8897 7.77534 18.3905 6.95259 17.7197 6.2817C17.0489 5.6108 16.2262 5.11155 15.3214 4.82625C14.4166 4.54096 13.4563 4.47804 12.522 4.64283C12.4836 4.64993 12.4441 4.64931 12.4059 4.641C12.3677 4.63269 12.3315 4.61686 12.2994 4.59444C12.2674 4.57201 12.2402 4.54344 12.2193 4.51037C12.1984 4.47731 12.1843 4.44043 12.1778 4.40187C12.1713 4.36331 12.1725 4.32384 12.1815 4.28576C12.1904 4.24769 12.2068 4.21176 12.2297 4.18008C12.2526 4.1484 12.2816 4.12161 12.315 4.10124C12.3484 4.08088 12.3855 4.06736 12.4241 4.06148C13.4511 3.88073 14.5065 3.95015 15.501 4.26388C16.4955 4.5776 17.3997 5.12638 18.137 5.86372C18.8744 6.60107 19.4231 7.50527 19.7369 8.49973C20.0506 9.49418 20.12 10.5496 19.9392 11.5766C19.9279 11.6454 19.8925 11.708 19.8393 11.7532C19.7861 11.7984 19.7186 11.8232 19.6489 11.8233Z" fill="currentColor"/>
</svg>
