<svg width="24" height="24" viewBox="0 0 24 24" fill="none" xmlns="http://www.w3.org/2000/svg">
<path fill-rule="evenodd" clip-rule="evenodd" d="M18.0624 0.000289917H1.80919C1.32954 0.000851069 0.869673 0.19518 0.530504 0.540646C0.191335 0.886112 0.000550924 1.3545 0 1.84307V19.032C0.000550335 19.2146 0.0720985 19.3896 0.198996 19.5186C0.325893 19.6477 0.497808 19.7202 0.67711 19.7205C0.765625 19.7206 0.853275 19.7027 0.934957 19.668C1.01664 19.6332 1.09072 19.5823 1.1529 19.5181L5.35263 15.2359H18.0624C18.5421 15.2353 19.002 15.041 19.3411 14.6955C19.6803 14.3501 19.8711 13.8817 19.8716 13.3931V1.84307C19.8711 1.3545 19.6803 0.886112 19.3411 0.540646C19.002 0.19518 18.5421 0.000851069 18.0624 0.000289917ZM18.9208 14.2671C18.6931 14.499 18.3844 14.6294 18.0624 14.6298L5.22893 14.6304C5.18983 14.6304 5.15111 14.6382 5.11498 14.6534C5.07886 14.6687 5.04603 14.691 5.01839 14.7192L0.732122 19.0902C0.725295 19.0979 0.716948 19.1041 0.707629 19.1084C0.69831 19.1127 0.688221 19.1149 0.677999 19.115C0.667161 19.1152 0.656393 19.1132 0.646319 19.1091C0.636244 19.105 0.627068 19.099 0.619321 19.0913C0.611573 19.0835 0.605409 19.0743 0.601189 19.0641C0.596969 19.054 0.594774 19.043 0.594737 19.032V1.84307C0.59513 1.51512 0.723206 1.20071 0.950874 0.968819C1.17854 0.736923 1.48722 0.606468 1.80919 0.606068H18.0624C18.3844 0.606468 18.6931 0.736923 18.9208 0.968819C19.1484 1.20071 19.2765 1.51512 19.2769 1.84307V13.3928C19.2765 13.7208 19.1484 14.0352 18.9208 14.2671Z" fill="currentColor"/>
<path d="M23.0608 23.9455C23.1439 23.9815 23.2333 24.0002 23.3236 24.0003C23.5027 24.0001 23.6744 23.9276 23.8011 23.7987C23.928 23.6697 23.9994 23.4947 23.9997 23.3121V10.2831C23.9991 9.7945 23.8084 9.32611 23.4692 8.98064C23.13 8.63518 22.6702 8.44085 22.1905 8.44028H21.5152V9.04606H22.1905C22.5127 9.04614 22.8217 9.17646 23.0496 9.40839C23.2775 9.64032 23.4057 9.9549 23.4061 10.2831V23.3103C23.4061 23.3267 23.4013 23.3426 23.3923 23.3562C23.3833 23.3697 23.3706 23.3803 23.3557 23.3864C23.3408 23.3925 23.3245 23.3939 23.3088 23.3905C23.2931 23.3871 23.2787 23.379 23.2676 23.3673L20.1452 20.0809C20.1173 20.052 20.0841 20.029 20.0473 20.0134C20.0106 19.9978 19.9712 19.9898 19.9314 19.99H10.473C10.151 19.9896 9.84235 19.8592 9.61468 19.6273C9.38702 19.3954 9.25894 19.081 9.25855 18.753V16.9103H8.66381V18.753C8.66428 19.2417 8.85504 19.7101 9.19421 20.0557C9.53339 20.4012 9.99329 20.5956 10.473 20.5961H19.8065L22.8397 23.7901C22.9024 23.8565 22.9776 23.9094 23.0608 23.9455Z" fill="currentColor"/>
</svg>
