<svg width="24" height="24" viewBox="0 0 24 24" fill="none" xmlns="http://www.w3.org/2000/svg">
<path d="M1.80506 0H18.0418C18.5204 0.000556308 18.9792 0.194439 19.3176 0.539115C19.656 0.88379 19.8463 1.35111 19.8469 1.83855V13.3764C19.8463 13.8639 19.656 14.3312 19.3176 14.6759C18.9792 15.0206 18.5204 15.2144 18.0418 15.215H5.34326L1.14796 19.4932C1.08629 19.5569 1.01285 19.6075 0.931894 19.642C0.850937 19.6766 0.764062 19.6945 0.676274 19.6947C0.497357 19.6951 0.325606 19.6231 0.198789 19.4946C0.0719715 19.366 0.000468555 19.1914 0 19.0092V1.83855C0.000546174 1.35111 0.1909 0.88379 0.529297 0.539115C0.867693 0.194439 1.32649 0.000556308 1.80506 0ZM18.0418 14.6145C18.364 14.6141 18.673 14.4835 18.9008 14.2514C19.1287 14.0193 19.2569 13.7047 19.2572 13.3764V1.83855C19.2569 1.51033 19.1287 1.19567 18.9008 0.963585C18.673 0.731499 18.364 0.600938 18.0418 0.60054H1.80506C1.48282 0.600938 1.17389 0.731499 0.946028 0.963585C0.718169 1.19567 0.589991 1.51033 0.589601 1.83855V19.0092C0.589638 19.0205 0.591891 19.0318 0.596222 19.0422C0.600554 19.0527 0.606882 19.0621 0.614836 19.0701C0.622791 19.078 0.63221 19.0842 0.642555 19.0884C0.6529 19.0926 0.663964 19.0947 0.675096 19.0945C0.685616 19.0944 0.696008 19.0921 0.705603 19.0877C0.715198 19.0833 0.723784 19.0769 0.730811 19.069L5.01161 14.7024C5.03901 14.6745 5.07155 14.6524 5.10737 14.6373C5.14318 14.6222 5.18157 14.6144 5.22033 14.6145H18.0418Z" fill="currentColor"/>
<path d="M23.3264 24C23.2362 23.9999 23.147 23.9812 23.0642 23.945C22.9813 23.9089 22.9064 23.8561 22.8441 23.7899L19.8129 20.5995H10.4896C10.0109 20.5989 9.55201 20.405 9.2136 20.0602C8.87519 19.7154 8.6849 19.2479 8.68451 18.7603V16.9221H9.27411V18.7603C9.2745 19.0885 9.40268 19.4032 9.63054 19.6353C9.8584 19.8674 10.1673 19.9979 10.4896 19.9983H19.9379C19.9774 19.9981 20.0165 20.006 20.0529 20.0215C20.0893 20.037 20.1223 20.0597 20.1499 20.0884L23.268 23.3713C23.2795 23.3834 23.2942 23.3917 23.3103 23.3952C23.3265 23.3986 23.3433 23.3972 23.3586 23.3909C23.3738 23.3846 23.387 23.3738 23.3962 23.3599C23.4054 23.3459 23.4104 23.3295 23.4104 23.3127V10.2996C23.41 9.97139 23.2818 9.65673 23.054 9.42464C22.8261 9.19256 22.5172 9.062 22.1949 9.0616H21.5225V8.46106H22.1949C22.6735 8.46162 23.1323 8.6555 23.4707 9.00017C23.8091 9.34485 23.9994 9.81217 24 10.2996V23.3148C23.9997 23.4966 23.9286 23.6709 23.8023 23.7993C23.676 23.9278 23.5048 24 23.3264 24Z" fill="currentColor"/>
</svg>
