<svg width="24" height="24" viewBox="0 0 24 24" fill="none" xmlns="http://www.w3.org/2000/svg">
<path d="M7.82546 10.8384H8.92242C9.32415 10.8388 9.70929 10.9986 9.99336 11.2827C10.2774 11.5668 10.4372 11.9519 10.4377 12.3537V13.7451C10.4372 14.1468 10.2774 14.532 9.99336 14.8161C9.70929 15.1001 9.32415 15.2599 8.92242 15.2604H7.82546C7.42381 15.2599 7.03874 15.1001 6.75473 14.8161C6.47072 14.5321 6.31095 14.1471 6.31049 13.7454V12.3534C6.31095 11.9517 6.47072 11.5666 6.75473 11.2826C7.03874 10.9986 7.42381 10.8388 7.82546 10.8384ZM8.92242 14.6708C9.16782 14.6705 9.40309 14.5728 9.57662 14.3993C9.75015 14.2258 9.84778 13.9905 9.84809 13.7451V12.3537C9.84778 12.1082 9.75015 11.873 9.57662 11.6994C9.40309 11.5259 9.16782 11.4283 8.92242 11.428H7.82546C7.58013 11.4283 7.34494 11.5259 7.17147 11.6994C6.99799 11.8728 6.9004 12.108 6.90009 12.3534V13.7454C6.9004 13.9907 6.99799 14.2259 7.17147 14.3994C7.34494 14.5729 7.58013 14.6705 7.82546 14.6708H8.92242Z" fill="currentColor"/>
<path d="M12.2504 19.469C12.1757 19.4692 12.1036 19.441 12.0489 19.39C11.9941 19.339 11.9608 19.2692 11.9556 19.1946C11.9261 18.875 11.8657 18.5591 11.7752 18.2512C11.6473 17.819 11.4041 17.2489 10.9716 16.9815L9.849 16.3816C9.39893 16.6639 8.87841 16.8136 8.34714 16.8136C7.81587 16.8136 7.29535 16.6639 6.84528 16.3816L5.72504 16.98C5.29286 17.2474 5.04965 17.8176 4.92171 18.2497C4.83173 18.5582 4.7719 18.8746 4.74306 19.1946C4.74041 19.2333 4.73016 19.2711 4.71289 19.3059C4.69563 19.3406 4.67169 19.3716 4.64244 19.3971C4.61319 19.4226 4.5792 19.4421 4.54242 19.4545C4.50564 19.4668 4.46678 19.4718 4.42807 19.4692C4.38935 19.4665 4.35154 19.4563 4.31679 19.439C4.28204 19.4217 4.25103 19.3978 4.22553 19.3686C4.20003 19.3393 4.18054 19.3053 4.16817 19.2685C4.15581 19.2318 4.15081 19.1929 4.15346 19.1542C4.15906 19.0731 4.30086 17.1593 5.42552 16.4753L5.43997 16.4671L6.72353 15.7814C6.7719 15.7555 6.82652 15.7437 6.88126 15.7472C6.93599 15.7507 6.98867 15.7693 7.03336 15.8011C7.41561 16.0779 7.8755 16.227 8.34744 16.227C8.81938 16.227 9.27927 16.0779 9.66151 15.8011C9.70624 15.7692 9.75901 15.7504 9.81386 15.7468C9.86872 15.7433 9.92347 15.7552 9.97193 15.7811L11.2579 16.4683L11.2723 16.4765C12.3958 17.1605 12.5399 19.0743 12.5444 19.1554C12.547 19.194 12.542 19.2328 12.5297 19.2695C12.5173 19.3062 12.4979 19.3401 12.4724 19.3693C12.4469 19.3985 12.416 19.4224 12.3813 19.4396C12.3466 19.4568 12.3088 19.467 12.2702 19.4696L12.2504 19.469Z" fill="currentColor"/>
<path d="M11.6222 11.5397C11.544 11.5397 11.469 11.5086 11.4137 11.4533C11.3585 11.398 11.3274 11.323 11.3274 11.2449V1.05008C11.3277 0.771679 11.4384 0.504768 11.6353 0.307908C11.8322 0.111048 12.0991 0.00031211 12.3775 0H22.9499C23.2283 0.00031211 23.4952 0.111048 23.6921 0.307908C23.8889 0.504768 23.9997 0.771679 24 1.05008V7.8467C23.9997 8.1251 23.8889 8.39201 23.6921 8.58887C23.4952 8.78573 23.2283 8.89646 22.9499 8.89677H14.7544L11.8165 11.4677C11.7625 11.5144 11.6935 11.54 11.6222 11.5397ZM12.3775 0.5896C12.2554 0.589678 12.1383 0.638219 12.0519 0.724558C11.9656 0.810898 11.9171 0.927979 11.917 1.05008V10.5951L14.4487 8.37969C14.5025 8.33268 14.5716 8.30681 14.643 8.30688H22.9499C23.072 8.3068 23.1891 8.25826 23.2754 8.17192C23.3617 8.08559 23.4103 7.9685 23.4104 7.8464V1.05008C23.4103 0.927979 23.3617 0.810898 23.2754 0.724558C23.1891 0.638219 23.072 0.589678 22.9499 0.5896H12.3775Z" fill="currentColor"/>
<path d="M20.7557 3.76318H14.5649C14.4867 3.76318 14.4117 3.73213 14.3564 3.67684C14.3011 3.62155 14.2701 3.54657 14.2701 3.46838C14.2701 3.3902 14.3011 3.31521 14.3564 3.25993C14.4117 3.20464 14.4867 3.17358 14.5649 3.17358H20.7557C20.8339 3.17358 20.9089 3.20464 20.9641 3.25993C21.0194 3.31521 21.0505 3.3902 21.0505 3.46838C21.0505 3.54657 21.0194 3.62155 20.9641 3.67684C20.9089 3.73213 20.8339 3.76318 20.7557 3.76318Z" fill="currentColor"/>
<path d="M17.8077 5.82678H14.5649C14.4867 5.82678 14.4117 5.79572 14.3564 5.74044C14.3011 5.68515 14.2701 5.61017 14.2701 5.53198C14.2701 5.4538 14.3011 5.37881 14.3564 5.32353C14.4117 5.26824 14.4867 5.23718 14.5649 5.23718H17.8077C17.8859 5.23718 17.9609 5.26824 18.0161 5.32353C18.0714 5.37881 18.1025 5.4538 18.1025 5.53198C18.1025 5.61017 18.0714 5.68515 18.0161 5.74044C17.9609 5.79572 17.8859 5.82678 17.8077 5.82678Z" fill="currentColor"/>
<path d="M22.5245 20.272H21.9349V10.5436H22.5245V20.272Z" fill="currentColor"/>
<path d="M2.09985 20.2242H1.51025V7.09143C1.5108 6.61287 1.70115 6.15407 2.03955 5.81567C2.37794 5.47728 2.83675 5.28692 3.31532 5.28638H9.65146V5.87598H3.31532C2.99307 5.87637 2.68414 6.00455 2.45629 6.2324C2.22843 6.46026 2.10024 6.76919 2.09985 7.09143V20.2242Z" fill="currentColor"/>
<path d="M21.4396 24H2.56034C1.88165 23.9989 1.2311 23.7287 0.751198 23.2488C0.271294 22.7689 0.00116914 22.1184 0 21.4397C0 21.3615 0.0310592 21.2865 0.086345 21.2312C0.141631 21.176 0.216614 21.1449 0.2948 21.1449H9.35696C9.43514 21.1449 9.51013 21.176 9.56541 21.2312C9.6207 21.2865 9.65176 21.3615 9.65176 21.4397V21.9002H14.3482V21.4397C14.3482 21.3615 14.3793 21.2865 14.4346 21.2312C14.4899 21.176 14.5648 21.1449 14.643 21.1449H23.7052C23.7834 21.1449 23.8583 21.176 23.9136 21.2312C23.9689 21.2865 24 21.3615 24 21.4397C23.9988 22.1184 23.7287 22.7689 23.2488 23.2488C22.7689 23.7287 22.1183 23.9989 21.4396 24ZM0.61171 21.7345C0.683115 22.2004 0.918782 22.6254 1.27614 22.9328C1.6335 23.2401 2.08899 23.4095 2.56034 23.4104H21.4396C21.911 23.4095 22.3665 23.2401 22.7238 22.9328C23.0812 22.6254 23.3169 22.2004 23.3883 21.7345H14.9378V22.195C14.9378 22.2732 14.9068 22.3481 14.8515 22.4034C14.7962 22.4587 14.7212 22.4898 14.643 22.4898H9.35696C9.27877 22.4898 9.20379 22.4587 9.1485 22.4034C9.09322 22.3481 9.06216 22.2732 9.06216 22.195V21.7345H0.61171Z" fill="currentColor"/>
</svg>
