<svg width="24" height="24" viewBox="0 0 24 24" fill="none" xmlns="http://www.w3.org/2000/svg">
<path fill-rule="evenodd" clip-rule="evenodd" d="M1.97423 1.76479C2.08936 1.68781 2.22471 1.64672 2.36318 1.64672C2.54881 1.64681 2.72688 1.72064 2.85814 1.852C2.9894 1.98335 3.06318 2.16148 3.06327 2.34724C3.06327 2.48581 3.02221 2.62132 2.94528 2.73653C2.86836 2.85173 2.75902 2.94153 2.63109 2.99456C2.50317 3.04758 2.3624 3.06146 2.22659 3.03442C2.09079 3.00739 1.96605 2.94067 1.86814 2.84269C1.77022 2.74471 1.70355 2.61988 1.67654 2.48398C1.64952 2.34808 1.66339 2.20722 1.71638 2.0792C1.76937 1.95119 1.8591 1.84177 1.97423 1.76479ZM2.36312 1.9122C2.27714 1.91221 2.1931 1.93773 2.12161 1.98553C2.05011 2.03334 1.99438 2.10129 1.96147 2.1808C1.92856 2.2603 1.91995 2.34779 1.93673 2.43219C1.95351 2.5166 1.99492 2.59412 2.05572 2.65497C2.11653 2.71582 2.194 2.75726 2.27835 2.77405C2.36269 2.79084 2.45012 2.78223 2.52957 2.74929C2.60902 2.71636 2.67693 2.66059 2.7247 2.58904C2.77247 2.5175 2.79797 2.4334 2.79798 2.34737C2.79793 2.23197 2.7521 2.12131 2.67055 2.03971C2.58903 1.95813 2.47841 1.91227 2.36312 1.9122Z" fill="currentColor"/>
<path fill-rule="evenodd" clip-rule="evenodd" d="M4.25468 1.64672C4.11621 1.64672 3.98085 1.68781 3.86572 1.76479C3.75059 1.84177 3.66086 1.95119 3.60787 2.0792C3.55489 2.20722 3.54102 2.34808 3.56804 2.48398C3.59505 2.61988 3.66172 2.74471 3.75963 2.84269C3.85754 2.94067 3.98229 3.00739 4.11809 3.03442C4.2539 3.06146 4.39466 3.04758 4.52259 2.99456C4.65052 2.94153 4.75985 2.85173 4.83678 2.73653C4.91371 2.62132 4.95477 2.48587 4.95477 2.3473C4.95468 2.16154 4.8809 1.98335 4.74964 1.852C4.61838 1.72064 4.44031 1.64681 4.25468 1.64672ZM4.01311 1.98553C4.0846 1.93773 4.16864 1.91221 4.25461 1.9122C4.36991 1.91227 4.48052 1.95813 4.56205 2.03971C4.64359 2.12131 4.68943 2.23197 4.68948 2.34737C4.68947 2.4334 4.66397 2.5175 4.6162 2.58904C4.56842 2.66059 4.50052 2.71636 4.42107 2.74929C4.34162 2.78223 4.25419 2.79084 4.16985 2.77405C4.0855 2.75726 4.00803 2.71582 3.94722 2.65497C3.88641 2.59412 3.845 2.5166 3.82823 2.43219C3.81145 2.34779 3.82006 2.2603 3.85297 2.1808C3.88588 2.10129 3.94161 2.03334 4.01311 1.98553Z" fill="currentColor"/>
<path fill-rule="evenodd" clip-rule="evenodd" d="M5.75696 1.76479C5.87209 1.68781 6.00744 1.64672 6.14591 1.64672C6.33154 1.64681 6.50961 1.72064 6.64087 1.852C6.77213 1.98335 6.84591 2.16148 6.846 2.34724C6.846 2.48581 6.80494 2.62132 6.72801 2.73653C6.65109 2.85173 6.54175 2.94153 6.41382 2.99456C6.2859 3.04758 6.14513 3.06146 6.00932 3.03442C5.87352 3.00739 5.74877 2.94067 5.65086 2.84269C5.55295 2.74471 5.48628 2.61988 5.45927 2.48398C5.43225 2.34808 5.44612 2.20722 5.49911 2.0792C5.55209 1.95119 5.64183 1.84177 5.75696 1.76479ZM6.14585 1.9122C6.05987 1.91221 5.97583 1.93773 5.90434 1.98553C5.83284 2.03334 5.77711 2.10129 5.7442 2.1808C5.71129 2.2603 5.70268 2.34779 5.71946 2.43219C5.73623 2.5166 5.77764 2.59412 5.83845 2.65497C5.89926 2.71582 5.97673 2.75726 6.06108 2.77405C6.14542 2.79084 6.23285 2.78223 6.3123 2.74929C6.39175 2.71636 6.45965 2.66059 6.50743 2.58904C6.5552 2.5175 6.5807 2.4334 6.58071 2.34737C6.58066 2.23197 6.53483 2.12131 6.45328 2.03971C6.37176 1.95813 6.26114 1.91227 6.14585 1.9122Z" fill="currentColor"/>
<path fill-rule="evenodd" clip-rule="evenodd" d="M0.0175089 4.47693V18.4354C0.0175089 18.9072 0.204774 19.3596 0.538105 19.6931C0.871436 20.0267 1.32353 20.2141 1.79493 20.2141H13.4089V19.6832H1.79493C1.46425 19.6832 1.14711 19.5517 0.913278 19.3177C0.679448 19.0837 0.548083 18.7664 0.548083 18.4354V4.64735H23.4689V18.4336C23.4689 18.7645 23.3375 19.0819 23.1037 19.3159C22.8699 19.5498 22.5527 19.6813 22.222 19.6813H21.2002V20.2122H22.222C22.6934 20.2122 23.1455 20.0249 23.4789 19.6913C23.8122 19.3577 23.9995 18.9053 23.9995 18.4336V1.77866C23.9995 1.30693 23.8122 0.854523 23.4789 0.520959C23.1455 0.187396 22.6935 0 22.222 0H1.79493C1.32353 0 0.871436 0.187396 0.538105 0.520959C0.204774 0.854523 0.0175089 1.30693 0.0175089 1.77866V4.28683C0.00619804 4.31634 0 4.34839 0 4.38188C0 4.41537 0.00619804 4.44742 0.0175089 4.47693ZM0.913278 0.896393C1.14711 0.6624 1.46425 0.530944 1.79493 0.530944H22.222C22.5527 0.530944 22.8699 0.6624 23.1037 0.896393C23.3375 1.13039 23.4689 1.44775 23.4689 1.77866V4.11641H0.548083V1.77866C0.548083 1.44775 0.679448 1.13039 0.913278 0.896393Z" fill="currentColor"/>
<path fill-rule="evenodd" clip-rule="evenodd" d="M7.64849 7.07164C7.50198 7.07164 7.38321 7.1905 7.38321 7.33712V9.40594C7.38321 9.55256 7.50198 9.67141 7.64849 9.67141H21.5288C21.6754 9.67141 21.7941 9.55256 21.7941 9.40594V7.33712C21.7941 7.1905 21.6754 7.07164 21.5288 7.07164H7.64849ZM7.91378 9.14047V7.60259H21.2636V9.14047H7.91378Z" fill="currentColor"/>
<path d="M7.5827 11.621C7.5827 11.4744 7.70148 11.3556 7.84799 11.3556H21.4654C21.612 11.3556 21.7307 11.4744 21.7307 11.621V16.4287H21.2002V11.8865H8.11328V16.6549H13.4089V17.1859H7.84799C7.70148 17.1859 7.5827 17.067 7.5827 16.9204V11.621Z" fill="currentColor"/>
<path d="M2.33267 11.5048C2.18616 11.5048 2.06738 11.6236 2.06738 11.7702C2.06738 11.9169 2.18616 12.0357 2.33267 12.0357H5.58138C5.72789 12.0357 5.84666 11.9169 5.84666 11.7702C5.84666 11.6236 5.72789 11.5048 5.58138 11.5048H2.33267Z" fill="currentColor"/>
<path d="M2.06738 7.33712C2.06738 7.1905 2.18616 7.07164 2.33267 7.07164H5.58138C5.72789 7.07164 5.84666 7.1905 5.84666 7.33712C5.84666 7.48373 5.72789 7.60259 5.58138 7.60259H2.33267C2.18616 7.60259 2.06738 7.48373 2.06738 7.33712Z" fill="currentColor"/>
<path fill-rule="evenodd" clip-rule="evenodd" d="M14.8038 13.293C14.7223 13.2387 14.6177 13.2336 14.5314 13.2798C14.4452 13.326 14.3913 13.4159 14.3913 13.5139V21.8414C14.3913 21.9445 14.4508 22.0382 14.5441 22.0819C14.6373 22.1255 14.7473 22.1113 14.8264 22.0454L16.858 20.3513L18.9682 23.8711C19.0044 23.9315 19.063 23.975 19.1313 23.9921C19.1996 24.0092 19.2718 23.9984 19.3321 23.9622L21.2234 22.8265C21.349 22.751 21.3897 22.588 21.3144 22.4623L19.2228 18.9739L21.5381 18.3119C21.6375 18.2834 21.7113 18.1998 21.7273 18.0976C21.7432 17.9953 21.6984 17.8931 21.6124 17.8357L14.8038 13.293ZM14.9219 21.2747V14.0099L20.8408 17.9591L18.7445 18.5585C18.6651 18.5812 18.6009 18.6395 18.5706 18.7163C18.5403 18.793 18.5474 18.8795 18.5899 18.9503L20.7229 22.5078L19.2866 23.3703L17.1536 19.8123C17.1137 19.7458 17.0468 19.7001 16.9704 19.6872C16.894 19.6742 16.8158 19.6953 16.7563 19.745L14.9219 21.2747Z" fill="currentColor"/>
</svg>
