<svg width="24" height="24" viewBox="0 0 24 24" fill="none" xmlns="http://www.w3.org/2000/svg">
<path d="M22.1965 20.2242H21.1472V19.6346H22.1965C22.5185 19.6342 22.8273 19.506 23.0549 19.2781C23.2826 19.0502 23.4107 18.7413 23.4111 18.419V1.80514C23.4107 1.48289 23.2826 1.17394 23.0549 0.946073C22.8273 0.718204 22.5185 0.590016 22.1965 0.589626H1.82117C1.49916 0.590016 1.19045 0.718204 0.962754 0.946073C0.735057 1.17394 0.606966 1.48289 0.606576 1.80514V18.4196C0.606966 18.7419 0.735057 19.0508 0.962754 19.2787C1.19045 19.5066 1.49916 19.6348 1.82117 19.6351H13.4354V20.2248H1.82117C1.34295 20.2242 0.884466 20.0339 0.54631 19.6954C0.208155 19.357 0.0179408 18.8982 0.017395 18.4196V1.80514C0.0179408 1.32656 0.208155 0.867728 0.54631 0.529317C0.884466 0.190906 1.34295 0.000546197 1.82117 0H22.1962C22.6745 0.000546197 23.1329 0.190906 23.4711 0.529317C23.8092 0.867728 23.9995 1.32656 24 1.80514V18.4196C23.9993 18.8981 23.8091 19.3567 23.471 19.695C23.1329 20.0332 22.6746 20.2236 22.1965 20.2242Z" fill="currentColor"/>
<path d="M23.5672 4.69607H0.294591C0.21646 4.69607 0.14153 4.66501 0.0862836 4.60972C0.0310371 4.55443 0 4.47945 0 4.40126C0 4.32307 0.0310371 4.24808 0.0862836 4.19279C0.14153 4.13751 0.21646 4.10645 0.294591 4.10645H23.5672C23.6454 4.10645 23.7203 4.13751 23.7756 4.19279C23.8308 4.24808 23.8618 4.32307 23.8618 4.40126C23.8618 4.47945 23.8308 4.55443 23.7756 4.60972C23.7203 4.66501 23.6454 4.69607 23.5672 4.69607Z" fill="currentColor"/>
<path d="M2.38703 3.0852C2.24597 3.0852 2.10808 3.04334 1.99079 2.96491C1.87351 2.88649 1.7821 2.77501 1.72812 2.64459C1.67413 2.51418 1.66001 2.37067 1.68753 2.23221C1.71505 2.09376 1.78298 1.96658 1.88272 1.86677C1.98246 1.76695 2.10954 1.69897 2.24789 1.67143C2.38624 1.64389 2.52964 1.65802 2.65996 1.71205C2.79028 1.76607 2.90167 1.85755 2.98004 1.97492C3.05841 2.0923 3.10023 2.23029 3.10023 2.37146C3.1 2.56068 3.02479 2.74209 2.89109 2.87589C2.75739 3.00969 2.57611 3.08497 2.38703 3.0852ZM2.38703 1.95253C2.30424 1.95253 2.2233 1.9771 2.15446 2.02313C2.08562 2.06916 2.03197 2.13459 2.00028 2.21114C1.9686 2.28769 1.96031 2.37192 1.97646 2.45319C1.99261 2.53445 2.03248 2.6091 2.09103 2.66769C2.14957 2.72627 2.22416 2.76617 2.30537 2.78234C2.38657 2.7985 2.47074 2.79021 2.54723 2.7585C2.62372 2.72679 2.6891 2.6731 2.7351 2.6042C2.7811 2.53531 2.80564 2.45431 2.80564 2.37146C2.80549 2.2604 2.76134 2.15393 2.68286 2.0754C2.60439 1.99687 2.49801 1.95268 2.38703 1.95253Z" fill="currentColor"/>
<path d="M4.27393 3.0852C4.13288 3.0852 3.99498 3.04334 3.8777 2.96491C3.76041 2.88649 3.669 2.77501 3.61502 2.64459C3.56104 2.51418 3.54692 2.37067 3.57444 2.23221C3.60195 2.09376 3.66988 1.96658 3.76962 1.86677C3.86936 1.76695 3.99645 1.69897 4.13479 1.67143C4.27314 1.64389 4.41654 1.65802 4.54686 1.71205C4.67718 1.76607 4.78857 1.85755 4.86694 1.97492C4.94531 2.0923 4.98714 2.23029 4.98714 2.37146C4.9869 2.56068 4.91169 2.74209 4.77799 2.87589C4.64429 3.00969 4.46302 3.08497 4.27393 3.0852ZM4.27393 1.95253C4.19114 1.95253 4.1102 1.9771 4.04136 2.02313C3.97252 2.06916 3.91887 2.13459 3.88719 2.21114C3.8555 2.28769 3.84721 2.37192 3.86336 2.45319C3.87951 2.53445 3.91938 2.6091 3.97793 2.66769C4.03647 2.72627 4.11107 2.76617 4.19227 2.78234C4.27347 2.7985 4.35764 2.79021 4.43413 2.7585C4.51062 2.72679 4.576 2.6731 4.622 2.6042C4.668 2.53531 4.69255 2.45431 4.69255 2.37146C4.69239 2.2604 4.64824 2.15393 4.56977 2.0754C4.49129 1.99687 4.38491 1.95268 4.27393 1.95253Z" fill="currentColor"/>
<path d="M6.16053 3.0852C6.01947 3.0852 5.88158 3.04334 5.76429 2.96491C5.64701 2.88649 5.55559 2.77501 5.50161 2.64459C5.44763 2.51418 5.43351 2.37067 5.46103 2.23221C5.48855 2.09376 5.55647 1.96658 5.65622 1.86677C5.75596 1.76695 5.88304 1.69897 6.02139 1.67143C6.15974 1.64389 6.30314 1.65802 6.43346 1.71205C6.56378 1.76607 6.67517 1.85755 6.75354 1.97492C6.83191 2.0923 6.87373 2.23029 6.87373 2.37146C6.8735 2.56068 6.79829 2.74209 6.66458 2.87589C6.53088 3.00969 6.34961 3.08497 6.16053 3.0852ZM6.16053 1.95253C6.07774 1.95253 5.9968 1.9771 5.92796 2.02313C5.85912 2.06916 5.80547 2.13459 5.77378 2.21114C5.7421 2.28769 5.73381 2.37192 5.74996 2.45319C5.76611 2.53445 5.80598 2.6091 5.86453 2.66769C5.92307 2.72627 5.99766 2.76617 6.07886 2.78234C6.16007 2.7985 6.24424 2.79021 6.32073 2.7585C6.39722 2.72679 6.4626 2.6731 6.5086 2.6042C6.55459 2.53531 6.57914 2.45431 6.57914 2.37146C6.57899 2.2604 6.53483 2.15393 6.45636 2.0754C6.37789 1.99687 6.27151 1.95268 6.16053 1.95253Z" fill="currentColor"/>
<path d="M7.65934 7.05457H21.5051C21.5832 7.05457 21.6582 7.08563 21.7134 7.14091C21.7686 7.1962 21.7997 7.27119 21.7997 7.34938V9.41307C21.7997 9.49126 21.7686 9.56625 21.7134 9.62153C21.6582 9.67682 21.5832 9.70788 21.5051 9.70788H7.65934C7.58121 9.70788 7.50628 9.67682 7.45103 9.62153C7.39578 9.56625 7.36475 9.49126 7.36475 9.41307V7.34938C7.36475 7.27119 7.39578 7.1962 7.45103 7.14091C7.50628 7.08563 7.58121 7.05457 7.65934 7.05457ZM21.2105 7.64419H7.95393V9.11826H21.2105V7.64419Z" fill="currentColor"/>
<path d="M13.4354 17.2042H7.85849C7.78036 17.2042 7.70543 17.1731 7.65019 17.1178C7.59494 17.0625 7.5639 16.9875 7.5639 16.9094V11.6231C7.5639 11.5449 7.59494 11.4699 7.65019 11.4146C7.70543 11.3593 7.78036 11.3282 7.85849 11.3282H21.4421C21.5202 11.3282 21.5951 11.3593 21.6504 11.4146C21.7056 11.4699 21.7367 11.5449 21.7367 11.6231V16.4491H21.1475V11.9179H8.15308V16.6145H13.4354V17.2042Z" fill="currentColor"/>
<path d="M5.59722 12.0664H2.35672C2.27859 12.0664 2.20366 12.0354 2.14842 11.9801C2.09317 11.9248 2.06213 11.8498 2.06213 11.7716C2.06213 11.6934 2.09317 11.6184 2.14842 11.5632C2.20366 11.5079 2.27859 11.4768 2.35672 11.4768H5.59722C5.67535 11.4768 5.75028 11.5079 5.80553 11.5632C5.86077 11.6184 5.89181 11.6934 5.89181 11.7716C5.89181 11.8498 5.86077 11.9248 5.80553 11.9801C5.75028 12.0354 5.67535 12.0664 5.59722 12.0664Z" fill="currentColor"/>
<path d="M5.59722 7.64419H2.35672C2.27859 7.64419 2.20366 7.61313 2.14842 7.55784C2.09317 7.50255 2.06213 7.42757 2.06213 7.34938C2.06213 7.27119 2.09317 7.1962 2.14842 7.14091C2.20366 7.08563 2.27859 7.05457 2.35672 7.05457H5.59722C5.67535 7.05457 5.75028 7.08563 5.80553 7.14091C5.86077 7.1962 5.89181 7.27119 5.89181 7.34938C5.89181 7.42757 5.86077 7.50255 5.80553 7.55784C5.75028 7.61313 5.67535 7.64419 5.59722 7.64419Z" fill="currentColor"/>
<path d="M14.65 13.2162C14.7082 13.2162 14.7651 13.2334 14.8135 13.2657L21.6053 17.797C21.6521 17.8282 21.689 17.8722 21.7117 17.9237C21.7343 17.9753 21.7417 18.0322 21.7331 18.0878C21.7244 18.1435 21.7 18.1955 21.6627 18.2376C21.6254 18.2798 21.5769 18.3104 21.5228 18.3259L19.2509 18.9745L21.3172 22.4208C21.3371 22.454 21.3502 22.4908 21.3559 22.5291C21.3616 22.5674 21.3597 22.6065 21.3504 22.644C21.341 22.6816 21.3243 22.7169 21.3013 22.748C21.2782 22.7791 21.2493 22.8054 21.2161 22.8253L19.3307 23.958C19.2976 23.9779 19.2608 23.9911 19.2225 23.9968C19.1843 24.0025 19.1453 24.0006 19.1077 23.9912C19.0702 23.9818 19.0349 23.9651 19.0038 23.9421C18.9727 23.919 18.9465 23.8901 18.9266 23.8569L16.8397 20.376L14.84 22.0438C14.797 22.0796 14.7447 22.1025 14.6891 22.1096C14.6336 22.1168 14.5772 22.108 14.5265 22.0842C14.4758 22.0605 14.433 22.0228 14.4029 21.9755C14.3729 21.9282 14.3569 21.8734 14.3569 21.8174V13.511C14.3569 13.4328 14.3879 13.3578 14.4432 13.3025C14.4984 13.2472 14.5733 13.2162 14.6515 13.2162H14.65ZM20.748 17.9332L14.9446 14.062V21.1888L16.7254 19.7038C16.7581 19.6765 16.7963 19.6566 16.8374 19.6454C16.8785 19.6343 16.9216 19.6322 16.9636 19.6393C17.0056 19.6464 17.0455 19.6626 17.0807 19.6866C17.1159 19.7107 17.1454 19.7421 17.1673 19.7787L19.2795 23.302L20.6596 22.4733L18.5474 18.95C18.5242 18.9112 18.5102 18.8676 18.5064 18.8225C18.5027 18.7774 18.5095 18.7321 18.5261 18.69C18.5427 18.648 18.5687 18.6103 18.6022 18.5799C18.6357 18.5495 18.6757 18.5273 18.7192 18.5149L20.748 17.9332Z" fill="currentColor"/>
</svg>
