<svg width="25" height="24" viewBox="0 0 25 24" fill="none" xmlns="http://www.w3.org/2000/svg">
<path d="M19.379 24H14.8503C14.7933 24 14.7376 23.9835 14.6898 23.9524C14.642 23.9213 14.6043 23.8771 14.5812 23.825C14.558 23.7729 14.5505 23.7153 14.5594 23.659C14.5684 23.6027 14.5935 23.5503 14.6317 23.508L17.5062 20.3258L17.5192 20.3123C17.8318 20.007 18.6438 19.0721 18.6438 18.4213C18.6438 18.4213 18.6438 18.4195 18.6438 18.4186C18.6634 18.1796 18.6347 17.9391 18.5596 17.7113C18.4845 17.4836 18.3645 17.2732 18.2066 17.0927C17.8451 16.7763 17.3742 16.6138 16.8945 16.6398C16.6639 16.6402 16.4357 16.6869 16.2235 16.7773C16.0113 16.8676 15.8195 16.9997 15.6594 17.1658C15.3292 17.5005 15.1443 17.9519 15.145 18.4221C15.145 18.5003 15.1139 18.5752 15.0587 18.6305C15.0034 18.6857 14.9285 18.7168 14.8503 18.7168C14.7722 18.7168 14.6972 18.6857 14.642 18.6305C14.5867 18.5752 14.5557 18.5003 14.5557 18.4221C14.555 17.7981 14.8004 17.199 15.2386 16.7548C15.4534 16.5325 15.7107 16.3557 15.9953 16.2349C16.2798 16.1141 16.5857 16.0518 16.8948 16.0517C17.2123 16.0214 17.5326 16.0622 17.8324 16.1711C18.1321 16.28 18.4039 16.4543 18.6278 16.6814C18.8518 16.9085 19.0224 17.1827 19.1271 17.4839C19.2319 17.7852 19.2682 18.106 19.2334 18.423C19.1799 19.0026 18.9478 19.5512 18.569 19.9932C18.3765 20.2529 18.1656 20.4985 17.9379 20.728L15.5138 23.4093H19.379C19.4571 23.4093 19.5321 23.4403 19.5873 23.4956C19.6426 23.5508 19.6736 23.6258 19.6736 23.7039C19.6736 23.782 19.6426 23.857 19.5873 23.9122C19.5321 23.9675 19.4571 23.9985 19.379 23.9985V24Z" fill="currentColor"/>
<path d="M23.5299 24C23.4517 24 23.3768 23.9689 23.3215 23.9137C23.2663 23.8584 23.2352 23.7835 23.2352 23.7053V22.1142H19.8504C19.7966 22.1142 19.7439 22.0995 19.6979 22.0717C19.6519 22.0438 19.6144 22.0039 19.5895 21.9563C19.5646 21.9087 19.5531 21.8552 19.5564 21.8015C19.5597 21.7479 19.5776 21.6962 19.6082 21.6519L23.2877 16.3372C23.3234 16.2856 23.3747 16.2467 23.4341 16.2263C23.4935 16.2059 23.5578 16.205 23.6177 16.2237C23.6776 16.2424 23.73 16.2798 23.7672 16.3304C23.8044 16.3809 23.8245 16.4421 23.8245 16.5048V21.525H24.6619C24.7401 21.525 24.815 21.556 24.8703 21.6113C24.9255 21.6665 24.9566 21.7415 24.9566 21.8196C24.9566 21.8977 24.9255 21.9727 24.8703 22.0279C24.815 22.0832 24.7401 22.1142 24.6619 22.1142H23.8245V23.7053C23.8245 23.7835 23.7935 23.8584 23.7382 23.9137C23.683 23.9689 23.608 24 23.5299 24ZM20.4129 21.525H23.2352V17.4468L20.4129 21.525Z" fill="currentColor"/>
<path d="M12.586 23.9938H12.5766C10.2203 23.9191 7.93825 23.152 6.01529 21.7882C4.09232 20.4245 2.61364 18.5246 1.76383 16.3257C0.914015 14.1267 0.730726 11.7262 1.23684 9.42369C1.74295 7.12121 2.91605 5.01882 4.60968 3.37895C6.30332 1.73909 8.44245 0.634412 10.7601 0.20282C13.0777 -0.228771 15.471 0.0318429 17.6414 0.952133C19.8118 1.87242 21.6631 3.41162 22.9641 5.37757C24.2651 7.34351 24.9582 9.64912 24.9569 12.0066C24.957 12.7858 24.8819 13.5633 24.7324 14.3281C24.7249 14.366 24.71 14.4022 24.6886 14.4344C24.6672 14.4666 24.6397 14.4943 24.6075 14.5159C24.5754 14.5375 24.5394 14.5526 24.5014 14.5602C24.4635 14.5679 24.4244 14.568 24.3864 14.5605C24.3485 14.5531 24.3123 14.5382 24.2801 14.5168C24.2479 14.4954 24.2202 14.4678 24.1986 14.4357C24.177 14.4036 24.1619 14.3675 24.1543 14.3296C24.1466 14.2917 24.1465 14.2526 24.154 14.2146C24.2961 13.4872 24.3675 12.7477 24.3673 12.0066C24.3655 9.37567 23.4543 6.82627 21.7882 4.7902C20.1221 2.75412 17.8034 1.35654 15.2248 0.834174C12.6463 0.311807 9.96652 0.696769 7.63932 1.92386C5.31212 3.15095 3.48061 5.14472 2.455 7.56747C1.73359 9.27285 1.43841 11.1283 1.59498 12.9733C1.75155 14.8184 2.35516 16.5976 3.35361 18.157C4.35207 19.7164 5.71532 21.0092 7.32551 21.9236C8.9357 22.8379 10.7444 23.3463 12.5951 23.4048C12.6733 23.406 12.7477 23.4382 12.8021 23.4943C12.8565 23.5505 12.8864 23.6259 12.8852 23.704C12.884 23.7822 12.8518 23.8566 12.7957 23.911C12.7396 23.9654 12.6641 23.995 12.586 23.9938Z" fill="currentColor"/>
<path d="M12.875 11.1639C12.7969 11.1639 12.7219 11.1329 12.6667 11.0776C12.6114 11.0224 12.5804 10.9474 12.5804 10.8693V4.09249C12.5804 4.01435 12.6114 3.93941 12.6667 3.88415C12.7219 3.82889 12.7969 3.79785 12.875 3.79785C12.9532 3.79785 13.0281 3.82889 13.0834 3.88415C13.1386 3.93941 13.1697 4.01435 13.1697 4.09249V10.8693C13.1697 10.9474 13.1386 11.0224 13.0834 11.0776C13.0281 11.1329 12.9532 11.1639 12.875 11.1639Z" fill="currentColor"/>
<path d="M12.875 10.5746C13.1664 10.5746 13.4512 10.661 13.6935 10.8229C13.9358 10.9847 14.1246 11.2148 14.2361 11.484C14.3476 11.7532 14.3768 12.0494 14.3199 12.3352C14.2631 12.621 14.1228 12.8835 13.9167 13.0895C13.7107 13.2956 13.4482 13.4359 13.1624 13.4927C12.8766 13.5496 12.5804 13.5204 12.3112 13.4089C12.042 13.2974 11.812 13.1085 11.6501 12.8663C11.4882 12.624 11.4018 12.3392 11.4018 12.0478C11.4023 11.6572 11.5576 11.2828 11.8338 11.0066C12.11 10.7304 12.4844 10.5751 12.875 10.5746ZM12.875 12.9317C13.0498 12.9317 13.2207 12.8799 13.3661 12.7828C13.5115 12.6856 13.6247 12.5476 13.6917 12.3861C13.7586 12.2245 13.7761 12.0468 13.742 11.8754C13.7078 11.7039 13.6237 11.5464 13.5 11.4228C13.3764 11.2991 13.2189 11.215 13.0475 11.1809C12.876 11.1467 12.6983 11.1643 12.5367 11.2312C12.3752 11.2981 12.2372 11.4114 12.14 11.5567C12.0429 11.7021 11.9911 11.873 11.9911 12.0478C11.9911 12.2822 12.0842 12.5071 12.25 12.6728C12.4157 12.8386 12.6406 12.9317 12.875 12.9317Z" fill="currentColor"/>
<path d="M14.0955 11.1688C14.0173 11.1688 13.9424 11.1378 13.8872 11.0825C13.8319 11.0272 13.8009 10.9523 13.8009 10.8742C13.8009 10.7961 13.8319 10.7211 13.8872 10.6659L16.224 8.32907C16.2792 8.27383 16.3542 8.2428 16.4323 8.2428C16.5104 8.2428 16.5854 8.27383 16.6406 8.32907C16.6958 8.38432 16.7269 8.45925 16.7269 8.53738C16.7269 8.61551 16.6958 8.69044 16.6406 8.74569L14.3038 11.0825C14.2486 11.1378 14.1736 11.1688 14.0955 11.1688Z" fill="currentColor"/>
</svg>
