<svg width="24" height="24" viewBox="0 0 24 24" fill="none" xmlns="http://www.w3.org/2000/svg">
<path d="M10.4896 0H13.5098C13.7886 0.000313785 14.0559 0.111204 14.253 0.308344C14.4502 0.505484 14.561 0.772772 14.5614 1.05157V1.58239C14.5613 1.67317 14.5881 1.76192 14.6386 1.83739C14.689 1.91285 14.7608 1.97162 14.8447 2.00622L17.0548 2.92176C17.1386 2.95656 17.2309 2.96567 17.3198 2.94794C17.4088 2.93021 17.4905 2.88643 17.5545 2.82217L17.9304 2.44695C18.1275 2.24981 18.3949 2.13907 18.6737 2.13907C18.9525 2.13907 19.2199 2.24981 19.417 2.44695L21.5528 4.58269C21.7499 4.77984 21.8606 5.04722 21.8606 5.32602C21.8606 5.60482 21.7499 5.8722 21.5528 6.06935L21.1772 6.44487C21.113 6.50886 21.0692 6.59052 21.0515 6.67946C21.0339 6.76839 21.0431 6.86058 21.078 6.94428L21.9935 9.15501C22.0281 9.23893 22.0869 9.31067 22.1623 9.36112C22.2378 9.41157 22.3265 9.43845 22.4173 9.43835H22.9481C23.2269 9.43867 23.4942 9.54956 23.6914 9.7467C23.8885 9.94384 23.9994 10.2111 23.9997 10.4899V13.5101C23.9994 13.7889 23.8885 14.0562 23.6914 14.2533C23.4942 14.4504 23.2269 14.5613 22.9481 14.5616H22.4173C22.3266 14.5615 22.2378 14.5883 22.1623 14.6387C22.0869 14.6891 22.0281 14.7608 21.9935 14.8447L21.078 17.0548C21.043 17.1386 21.0337 17.2309 21.0514 17.32C21.0691 17.409 21.1129 17.4908 21.1772 17.5548L21.5528 17.9301C21.7496 18.1275 21.8602 18.3949 21.8602 18.6737C21.8602 18.9525 21.7496 19.2199 21.5528 19.4173L19.417 21.5528C19.2199 21.7499 18.9525 21.8606 18.6737 21.8606C18.3949 21.8606 18.1275 21.7499 17.9304 21.5528L17.5548 21.1775C17.4907 21.1133 17.4089 21.0696 17.3199 21.0519C17.2309 21.0342 17.1387 21.0432 17.0548 21.078L14.8444 21.9935C14.7605 22.0281 14.6887 22.0869 14.6383 22.1623C14.5878 22.2378 14.561 22.3265 14.5611 22.4173V22.9484C14.5607 23.2272 14.4499 23.4945 14.2527 23.6917C14.0556 23.8888 13.7883 23.9997 13.5095 24H10.4893C10.2105 23.9997 9.94325 23.8888 9.74611 23.6917C9.54897 23.4945 9.43807 23.2272 9.43776 22.9484V22.4173C9.43792 22.3266 9.4111 22.2378 9.3607 22.1623C9.3103 22.0869 9.2386 22.0281 9.15471 21.9935L6.94458 21.078C6.86072 21.0433 6.76848 21.0343 6.6795 21.052C6.59051 21.0697 6.50877 21.1134 6.44457 21.1775L6.06935 21.5528C5.87211 21.7498 5.6047 21.8605 5.32588 21.8605C5.04705 21.8605 4.77963 21.7498 4.58239 21.5528L2.44665 19.4188C2.24985 19.2213 2.13933 18.9539 2.13933 18.6752C2.13933 18.3964 2.24985 18.129 2.44665 17.9315L2.82247 17.556C2.88679 17.492 2.93061 17.4102 2.94834 17.3212C2.96607 17.2321 2.95692 17.1398 2.92205 17.056L2.00652 14.8456C1.97185 14.7618 1.91306 14.6901 1.83759 14.6398C1.76213 14.5894 1.67341 14.5626 1.58269 14.5628H1.05157C0.772518 14.5625 0.504999 14.4514 0.307817 14.254C0.110635 14.0565 -7.86976e-05 13.7888 4.1971e-08 13.5098V10.4896C0.000313827 10.2108 0.111202 9.94354 0.308342 9.7464C0.505481 9.54926 0.772775 9.43837 1.05157 9.43805H1.58269C1.67346 9.43815 1.76222 9.41127 1.83768 9.36082C1.91315 9.31037 1.97191 9.23863 2.00652 9.15471L2.92205 6.94458C2.9569 6.8608 2.96604 6.76855 2.9483 6.67957C2.93057 6.59059 2.88677 6.50889 2.82247 6.44487L2.44695 6.06935C2.25011 5.87205 2.13956 5.60473 2.13956 5.32602C2.13956 5.04732 2.25011 4.77999 2.44695 4.58269L4.58269 2.44695C4.77994 2.24978 5.04742 2.13902 5.32632 2.13902C5.60522 2.13902 5.8727 2.24978 6.06995 2.44695L6.44517 2.82217C6.50927 2.88633 6.59096 2.93004 6.67991 2.94777C6.76886 2.96549 6.86107 2.95644 6.94487 2.92176L9.1556 2.00622C9.23949 1.9716 9.31119 1.91283 9.36159 1.83736C9.41199 1.76189 9.43881 1.67314 9.43865 1.58239V1.05157C9.43896 0.772875 9.54977 0.505677 9.74678 0.308554C9.9438 0.111431 10.2109 0.000470593 10.4896 0ZM17.23 3.5492C17.092 3.54938 16.9553 3.52218 16.8278 3.46918L14.6177 2.55364C14.4253 2.47434 14.2609 2.33962 14.1453 2.16662C14.0297 1.99362 13.9682 1.79015 13.9686 1.5821V1.05127C13.9684 0.929667 13.92 0.813092 13.834 0.727131C13.748 0.64117 13.6314 0.592847 13.5098 0.592768H10.4896C10.368 0.592847 10.2513 0.641209 10.1653 0.727235C10.0793 0.81326 10.0309 0.929912 10.0308 1.05157V1.58239C10.0312 1.79042 9.96974 1.99386 9.85421 2.16685C9.73869 2.33985 9.57433 2.47459 9.38204 2.55394L7.17131 3.46947C6.97913 3.5491 6.76764 3.56991 6.56362 3.52929C6.3596 3.48866 6.17222 3.38842 6.0252 3.24126L5.64997 2.86603C5.56388 2.77999 5.44714 2.73166 5.32543 2.73166C5.20371 2.73166 5.08698 2.77999 5.00089 2.86603L2.86544 5.00148C2.77958 5.08755 2.73136 5.20416 2.73136 5.32573C2.73136 5.4473 2.77958 5.56391 2.86544 5.64997L3.24096 6.02549C3.38832 6.17227 3.48869 6.35956 3.52933 6.56353C3.56997 6.76751 3.54903 6.97897 3.46917 7.17101L2.55364 9.38145C2.47434 9.5738 2.33962 9.73821 2.16662 9.85379C1.99362 9.96937 1.79016 10.0309 1.5821 10.0305H1.05098C0.929369 10.0308 0.812828 10.0792 0.726923 10.1653C0.641017 10.2514 0.592768 10.368 0.592768 10.4896V13.5098C0.592847 13.6314 0.641214 13.7481 0.727239 13.8341C0.813264 13.9201 0.929914 13.9685 1.05157 13.9686H1.58269C1.79071 13.9682 1.99415 14.0297 2.16715 14.1452C2.34014 14.2607 2.47489 14.4251 2.55424 14.6174L3.46977 16.8281C3.54971 17.0202 3.5707 17.2318 3.53006 17.4359C3.48942 17.64 3.389 17.8274 3.24156 17.9742L2.86574 18.3494C2.77993 18.4356 2.73176 18.5522 2.73176 18.6738C2.73176 18.7954 2.77993 18.9121 2.86574 18.9982L5.00118 21.1322C5.08726 21.2181 5.20394 21.2664 5.32558 21.2664C5.44722 21.2664 5.56389 21.2181 5.64997 21.1322L6.0252 20.757C6.17226 20.61 6.35958 20.5098 6.56351 20.4692C6.76745 20.4286 6.97885 20.4493 7.17102 20.5288L9.38145 21.4443C9.57374 21.5236 9.7381 21.6584 9.85362 21.8314C9.96915 22.0044 10.0306 22.2078 10.0302 22.4158V22.9469C10.0303 23.0686 10.0787 23.1853 10.1647 23.2713C10.2507 23.3573 10.3674 23.4057 10.489 23.4057H13.5092C13.6308 23.4057 13.7475 23.3573 13.8335 23.2713C13.9196 23.1853 13.9679 23.0686 13.968 22.9469V22.4158C13.9676 22.2078 14.0291 22.0043 14.1447 21.8313C14.2603 21.6583 14.4247 21.5236 14.6171 21.4443L16.8278 20.5288C17.0199 20.4493 17.2313 20.4286 17.4352 20.4692C17.6391 20.5098 17.8263 20.6099 17.9733 20.757L18.3488 21.1322C18.3914 21.1748 18.442 21.2086 18.4976 21.2316C18.5532 21.2546 18.6129 21.2665 18.6731 21.2665C18.7333 21.2665 18.7929 21.2546 18.8486 21.2316C18.9042 21.2086 18.9548 21.1748 18.9973 21.1322L21.1331 18.9982C21.2189 18.9121 21.2671 18.7954 21.2671 18.6738C21.2671 18.5522 21.2189 18.4356 21.1331 18.3494L20.7576 17.9742C20.6101 17.8273 20.5096 17.6399 20.4691 17.4357C20.4286 17.2315 20.4497 17.0199 20.5299 16.8278L21.4455 14.6177C21.5248 14.4254 21.6596 14.261 21.8326 14.1455C22.0055 14.03 22.209 13.9685 22.417 13.9689H22.9478C23.0695 13.9688 23.1861 13.9204 23.2722 13.8344C23.3582 13.7484 23.4066 13.6317 23.4066 13.5101V10.4899C23.4066 10.3683 23.3582 10.2516 23.2722 10.1656C23.1861 10.0796 23.0695 10.0312 22.9478 10.0311H22.417C22.209 10.0315 22.0055 9.96997 21.8325 9.85439C21.6595 9.73881 21.5248 9.57439 21.4455 9.38204L20.5299 7.17131C20.4499 6.97935 20.4287 6.76789 20.4693 6.56388C20.5098 6.35987 20.6102 6.17255 20.7576 6.02579L21.1331 5.65027C21.1757 5.60769 21.2094 5.55714 21.2325 5.50151C21.2555 5.44587 21.2674 5.38624 21.2674 5.32602C21.2674 5.2658 21.2555 5.20617 21.2325 5.15054C21.2094 5.09491 21.1757 5.04436 21.1331 5.00178L18.9982 2.86603C18.9556 2.82345 18.9051 2.78967 18.8495 2.76662C18.7938 2.74357 18.7342 2.73171 18.674 2.73171C18.6138 2.73171 18.5541 2.74357 18.4985 2.76662C18.4429 2.78967 18.3923 2.82345 18.3497 2.86603L17.9739 3.24126C17.8765 3.33924 17.7605 3.41691 17.6328 3.46977C17.5051 3.52263 17.3682 3.54963 17.23 3.5492Z" fill="currentColor"/>
<path d="M12 19.8464C10.6347 19.8463 9.29307 19.49 8.10756 18.8128C6.92206 18.1356 5.93369 17.1609 5.24007 15.985C4.54645 14.809 4.17157 13.4724 4.15244 12.1073C4.13332 10.7421 4.4706 9.39556 5.131 8.20062C5.24956 7.98426 5.38442 7.7679 5.52875 7.55806C5.57325 7.49325 5.64166 7.44877 5.71895 7.4344C5.79624 7.42003 5.87607 7.43695 5.94088 7.48144C6.00569 7.52593 6.05017 7.59435 6.06454 7.67164C6.07891 7.74892 6.06198 7.82875 6.01749 7.89357C5.88412 8.08799 5.76023 8.28805 5.64968 8.48811C4.78652 10.0479 4.52782 11.8708 4.92292 13.6092C5.31801 15.3475 6.33925 16.8796 7.7918 17.913C9.24434 18.9465 11.0265 19.409 12.7983 19.2123C14.5701 19.0157 16.2075 18.1736 17.3981 16.8468C18.5887 15.52 19.2491 13.8013 19.2534 12.0187C19.2577 10.236 18.6056 8.51413 17.4214 7.18159C16.2373 5.84904 14.604 4.99909 12.8331 4.79389C11.0623 4.58868 9.27792 5.0426 7.8204 6.06903C7.75614 6.11317 7.67708 6.13021 7.60034 6.11647C7.5236 6.10273 7.45536 6.0593 7.41042 5.99561C7.36547 5.93191 7.34743 5.85306 7.36021 5.77616C7.37298 5.69925 7.41554 5.63048 7.47867 5.58473C8.48715 4.87317 9.64922 4.40947 10.8705 4.23128C12.0918 4.05309 13.338 4.16543 14.5077 4.55919C15.6774 4.95295 16.7378 5.61703 17.6028 6.49749C18.4677 7.37796 19.1128 8.45 19.4857 9.62656C19.8586 10.8031 19.9488 12.051 19.7489 13.269C19.549 14.4869 19.0647 15.6406 18.3354 16.6362C17.606 17.6319 16.6521 18.4415 15.5511 18.9993C14.4501 19.5572 13.2331 19.8475 11.9988 19.8467L12 19.8464Z" fill="currentColor"/>
<path d="M14.6426 14.9389C14.564 14.9389 14.4886 14.9076 14.433 14.852L11.7905 12.2095C11.7349 12.1539 11.7036 12.0785 11.7036 11.9999V8.97949C11.7036 8.90088 11.7348 8.8255 11.7904 8.76991C11.846 8.71433 11.9214 8.68311 12 8.68311C12.0786 8.68311 12.154 8.71433 12.2096 8.76991C12.2652 8.8255 12.2964 8.90088 12.2964 8.97949V11.8769L14.8524 14.433C14.8938 14.4744 14.9221 14.5272 14.9335 14.5847C14.9449 14.6422 14.939 14.7018 14.9166 14.7559C14.8942 14.8101 14.8562 14.8563 14.8075 14.8889C14.7588 14.9215 14.7015 14.9389 14.6429 14.9389H14.6426Z" fill="currentColor"/>
<path d="M12 7.38824C11.9214 7.38824 11.846 7.35701 11.7904 7.30143C11.7348 7.24585 11.7036 7.17046 11.7036 7.09185V6.33667C11.7036 6.25806 11.7348 6.18267 11.7904 6.12709C11.846 6.07151 11.9214 6.04028 12 6.04028C12.0786 6.04028 12.154 6.07151 12.2096 6.12709C12.2652 6.18267 12.2964 6.25806 12.2964 6.33667V7.09185C12.2964 7.17046 12.2652 7.24585 12.2096 7.30143C12.154 7.35701 12.0786 7.38824 12 7.38824Z" fill="currentColor"/>
<path d="M17.663 12.296H16.9078C16.8292 12.296 16.7538 12.2648 16.6983 12.2092C16.6427 12.1536 16.6115 12.0782 16.6115 11.9996C16.6115 11.921 16.6427 11.8456 16.6983 11.7901C16.7538 11.7345 16.8292 11.7032 16.9078 11.7032H17.663C17.7416 11.7032 17.817 11.7345 17.8726 11.7901C17.9282 11.8456 17.9594 11.921 17.9594 11.9996C17.9594 12.0782 17.9282 12.1536 17.8726 12.2092C17.817 12.2648 17.7416 12.296 17.663 12.296Z" fill="currentColor"/>
<path d="M12 17.959C11.9214 17.959 11.846 17.9278 11.7904 17.8722C11.7348 17.8166 11.7036 17.7413 11.7036 17.6627V16.9075C11.7036 16.8289 11.7348 16.7535 11.7904 16.6979C11.846 16.6423 11.9214 16.6111 12 16.6111C12.0786 16.6111 12.154 16.6423 12.2096 16.6979C12.2652 16.7535 12.2964 16.8289 12.2964 16.9075V17.6627C12.2964 17.7413 12.2652 17.8166 12.2096 17.8722C12.154 17.9278 12.0786 17.959 12 17.959Z" fill="currentColor"/>
<path d="M7.09216 12.296H6.33697C6.25837 12.296 6.18298 12.2648 6.1274 12.2092C6.07181 12.1536 6.04059 12.0782 6.04059 11.9996C6.04059 11.921 6.07181 11.8456 6.1274 11.7901C6.18298 11.7345 6.25837 11.7032 6.33697 11.7032H7.09216C7.17077 11.7032 7.24615 11.7345 7.30173 11.7901C7.35732 11.8456 7.38854 11.921 7.38854 11.9996C7.38854 12.0782 7.35732 12.1536 7.30173 12.2092C7.24615 12.2648 7.17077 12.296 7.09216 12.296Z" fill="currentColor"/>
</svg>
