<svg width="24" height="24" viewBox="0 0 24 24" fill="none" xmlns="http://www.w3.org/2000/svg">
<path d="M20.6844 15.6954H16.5336C16.455 15.6954 16.3796 15.6642 16.3241 15.6086C16.2685 15.553 16.2373 15.4776 16.2373 15.399C16.2373 15.3204 16.2685 15.2451 16.3241 15.1895C16.3796 15.1339 16.455 15.1027 16.5336 15.1027H20.6844C21.0766 15.1024 21.4641 15.0173 21.8204 14.8534C22.1766 14.6894 22.4933 14.4504 22.7486 14.1527C23.004 13.855 23.1921 13.5056 23.3 13.1284C23.4078 12.7513 23.433 12.3553 23.3737 11.9675C23.3144 11.5797 23.1721 11.2093 22.9565 10.8817C22.7408 10.554 22.457 10.2768 22.1243 10.069C21.7917 9.86128 21.4181 9.72786 21.0291 9.67791C20.6401 9.62795 20.245 9.66264 19.8706 9.77961C19.8205 9.79527 19.7671 9.79732 19.7159 9.78554C19.6647 9.77376 19.6176 9.74857 19.5793 9.71256C19.541 9.67656 19.513 9.63102 19.4982 9.58062C19.4833 9.53022 19.4821 9.47678 19.4947 9.42576C19.5852 9.06452 19.6319 8.69368 19.6336 8.32126C19.6354 7.39289 19.3566 6.48566 18.8338 5.71861C18.311 4.95156 17.5686 4.36052 16.704 4.02306C15.8394 3.6856 14.893 3.61749 13.989 3.82764C13.0851 4.0378 12.2657 4.51641 11.6385 5.20067C11.6122 5.22956 11.5805 5.25296 11.5451 5.26953C11.5097 5.2861 11.4714 5.29551 11.4324 5.29723C11.3934 5.29894 11.3545 5.29292 11.3178 5.27952C11.2811 5.26612 11.2474 5.24559 11.2187 5.21912C11.19 5.19266 11.1668 5.16078 11.1504 5.12531C11.1341 5.08984 11.1249 5.05149 11.1234 5.01245C11.1219 4.97342 11.1281 4.93448 11.1417 4.89786C11.1554 4.86125 11.1761 4.82769 11.2027 4.79911C11.68 4.27903 12.2581 3.8615 12.9017 3.57192C13.6937 3.21691 14.5618 3.06586 15.4271 3.13256C16.2923 3.19925 17.1271 3.48157 17.8553 3.95376C18.5835 4.42595 19.182 5.07298 19.5961 5.83586C20.0102 6.59873 20.2268 7.45317 20.2261 8.32126C20.2257 8.58338 20.2048 8.84506 20.1636 9.10392C20.336 9.07666 20.5102 9.06298 20.6847 9.06303C21.564 9.06303 22.4073 9.41242 23.029 10.0344C23.6507 10.6563 24 11.4998 24 12.3794C24 13.2589 23.6507 14.1024 23.029 14.7244C22.4073 15.3463 21.564 15.6957 20.6847 15.6957L20.6844 15.6954Z" fill="currentColor"/>
<path d="M7.85379 15.6954C6.66167 15.6967 5.48494 15.4262 4.41296 14.9045C3.34099 14.3828 2.40196 13.6236 1.66722 12.6845C0.932482 11.7454 0.421345 10.6512 0.172635 9.48496C-0.076075 8.3187 -0.0558158 7.11108 0.231874 5.95384C0.519563 4.79659 1.06712 3.72014 1.83294 2.80626C2.59877 1.89238 3.56273 1.1651 4.6516 0.679661C5.74047 0.194223 6.92562 -0.0366021 8.11702 0.00471162C9.30842 0.0460254 10.4747 0.358397 11.5274 0.918096C12.6195 1.50246 13.5595 2.33475 14.2719 3.34818C14.3171 3.41251 14.3349 3.49216 14.3214 3.56961C14.3078 3.64705 14.2641 3.71596 14.1998 3.76115C14.1355 3.80634 14.0559 3.82413 13.9784 3.81059C13.901 3.79706 13.8321 3.75332 13.787 3.68899C13.128 2.75191 12.2586 1.98236 11.2486 1.44205C10.2755 0.925495 9.19762 0.637482 8.09666 0.599885C6.9957 0.562287 5.90065 0.77609 4.89463 1.22506C3.8886 1.67402 2.99806 2.34636 2.29058 3.19102C1.58311 4.03568 1.07731 5.03047 0.811573 6.09988C0.545836 7.16928 0.52715 8.2852 0.756933 9.36291C0.986716 10.4406 1.45893 11.4518 2.13772 12.3197C2.81652 13.1876 3.68406 13.8894 4.67448 14.3718C5.66491 14.8542 6.75219 15.1046 7.85379 15.1039C7.93236 15.1039 8.00772 15.1351 8.06327 15.1907C8.11883 15.2462 8.15005 15.3216 8.15005 15.4002C8.15005 15.4788 8.11883 15.5542 8.06327 15.6098C8.00772 15.6654 7.93236 15.6966 7.85379 15.6966V15.6954Z" fill="currentColor"/>
<path d="M9.65966 24H9.06696V10.5726H9.65966V24Z" fill="currentColor"/>
<path d="M15.3203 24H14.7276V10.5726H15.3203V24Z" fill="currentColor"/>
<path d="M15.3201 13.8079H10.9538V13.2152H15.3201V13.8079Z" fill="currentColor"/>
<path d="M15.3201 17.5828H10.9538V16.9901H15.3201V17.5828Z" fill="currentColor"/>
<path d="M15.3201 21.3577H10.9538V20.765H15.3201V21.3577Z" fill="currentColor"/>
</svg>
