<svg width="24" height="24" viewBox="0 0 24 24" fill="none" xmlns="http://www.w3.org/2000/svg">
<path fill-rule="evenodd" clip-rule="evenodd" d="M9.7596 1.00141C10.4601 0.718307 11.2105 0.57913 11.9659 0.592176L11.971 0.59222C15.2599 0.59222 18.0778 3.11761 18.0778 6.32257V7.07335L18.0778 7.07569L18.0778 7.07802V11.5926L18.0778 11.595C18.0778 11.5985 18.0778 11.6021 18.0779 11.6056C18.0834 11.7641 18.2136 11.8909 18.3734 11.8909C18.3778 11.8909 18.3821 11.8908 18.3863 11.8906C19.6526 11.8847 20.5522 11.0112 20.5522 9.90021V8.77046C20.5522 7.74407 19.7845 6.9204 18.6691 6.79622V6.32257C18.6691 2.74871 15.5431 0.00219111 11.9736 0.000883768C11.1396 -0.0131751 10.3114 0.140628 9.53803 0.453154C8.76392 0.765998 8.06072 1.23149 7.47033 1.82188C6.87994 2.41226 6.41445 3.11547 6.10161 3.88958C5.78908 4.66289 5.63528 5.49115 5.64933 6.32509V6.79622C4.53395 6.92039 3.7662 7.74407 3.7662 8.77046V9.90021C3.7662 11.015 4.67188 11.8906 5.94498 11.8906C5.98827 11.8906 6.02939 11.8813 6.06644 11.8646C6.16234 12.0112 6.27328 12.1478 6.39771 12.2722C6.63502 12.5096 6.91675 12.6978 7.22682 12.8262C7.43769 12.9135 7.65888 12.972 7.88438 13.0005C8.02481 13.273 8.18604 13.5338 8.36849 13.7784C8.46439 13.907 8.56611 14.0309 8.67365 14.1497C8.66619 14.1756 8.6622 14.2031 8.6622 14.2314V15.9267L3.18351 18.4831C3.18109 18.4843 3.17869 18.4854 3.1763 18.4866C1.58336 19.2831 0.78864 20.5788 0.394409 21.6629C0.197455 22.2045 0.0991022 22.6964 0.0498492 23.0535C0.0251874 23.2323 0.012735 23.378 0.00644305 23.4803C0.00329512 23.5314 0.00168506 23.5718 0.000861705 23.6C0.000449462 23.6141 0.000234036 23.6252 0.000121812 23.6331L1.86101e-05 23.6425L3.38366e-06 23.6454L5.63943e-07 23.6464L0 23.6467C0 23.6469 0 23.647 0.295668 23.647H0C0 23.8103 0.132375 23.9427 0.295668 23.9427C0.458833 23.9427 0.591129 23.8105 0.591337 23.6474V23.647L0.591399 23.6415C0.591471 23.6364 0.591623 23.6283 0.591947 23.6172C0.592594 23.595 0.593926 23.5611 0.596663 23.5166C0.60214 23.4276 0.613226 23.2968 0.63564 23.1343C0.680539 22.8088 0.77049 22.3591 0.950144 21.865C1.30883 20.8786 2.01966 19.7274 3.43723 19.0173L7.11516 17.3011L6.7803 20.9838C6.77162 21.0792 6.80968 21.1728 6.88242 21.2351C6.95516 21.2974 7.05356 21.3206 7.14647 21.2974C8.7073 20.9071 9.69704 20.1259 10.2984 19.4301C10.3472 19.8442 10.5038 20.2943 10.8631 20.708C10.8534 20.738 10.8426 20.7716 10.8308 20.8086C10.7768 20.9778 10.7014 21.2185 10.6155 21.5054C10.4439 22.0783 10.2294 22.8385 10.0602 23.5813C10.0239 23.7405 10.1236 23.899 10.2828 23.9353C10.442 23.9716 10.6005 23.8719 10.6367 23.7127C10.8019 22.9878 11.0123 22.2416 11.182 21.675C11.2667 21.3921 11.341 21.1548 11.3941 20.9884C11.4207 20.9052 11.4419 20.8398 11.4565 20.7952C11.4637 20.773 11.4693 20.756 11.4731 20.7446L11.4773 20.7318L11.4787 20.7277C11.5141 20.6214 11.4865 20.5042 11.4073 20.425C10.9226 19.9405 10.8394 19.3785 10.881 18.9194C10.8983 18.7282 10.9374 18.5577 10.9773 18.4233C10.9879 18.4021 10.9979 18.3817 11.0072 18.3621C11.6452 18.5259 12.3117 18.5398 12.9546 18.4037C12.9696 18.4342 12.986 18.4665 13.0039 18.5005C13.031 18.552 13.0615 18.6074 13.0957 18.6661C13.1147 18.7557 13.1307 18.854 13.1401 18.9585C13.1817 19.4176 13.0986 19.9796 12.6139 20.4642C12.5347 20.5434 12.507 20.6605 12.5424 20.7668L12.5438 20.7709L12.548 20.7837C12.5518 20.7951 12.5574 20.8121 12.5647 20.8344C12.5792 20.8789 12.6004 20.9443 12.627 21.0275C12.6801 21.1939 12.7544 21.4312 12.8392 21.7141C13.0089 22.2807 13.2192 23.027 13.3844 23.7518C13.4207 23.911 13.5791 24.0107 13.7384 23.9744C13.8976 23.9381 13.9972 23.7797 13.961 23.6204C13.7917 22.8776 13.5772 22.1174 13.4056 21.5445C13.3197 21.2576 13.2443 21.0169 13.1903 20.8478C13.1785 20.8107 13.1677 20.7771 13.1581 20.7472C13.5044 20.3483 13.6624 19.9155 13.7171 19.5139C14.3245 20.1878 15.2966 20.9229 16.7953 21.2977C16.8882 21.3209 16.9866 21.2977 17.0593 21.2354C17.1321 21.1731 17.1701 21.0794 17.1614 20.9841L16.8265 17.3008L20.5051 19.0173C21.9227 19.7274 22.6335 20.8786 22.9922 21.865C23.1718 22.3591 23.2618 22.8088 23.3067 23.1343C23.3291 23.2968 23.3402 23.4276 23.3457 23.5166C23.3484 23.5611 23.3497 23.595 23.3504 23.6172L23.3507 23.6283L23.3509 23.6415L23.351 23.647V23.6474C23.3512 23.8105 23.4835 23.9427 23.6467 23.9427C23.81 23.9427 23.9423 23.8103 23.9423 23.647H23.6467C23.9423 23.647 23.9423 23.6469 23.9423 23.6467V23.6464L23.9423 23.6454L23.9423 23.6425L23.9422 23.6331C23.9421 23.6252 23.9419 23.6141 23.9415 23.6C23.9407 23.5718 23.939 23.5314 23.9359 23.4803C23.9296 23.378 23.9172 23.2323 23.8925 23.0535C23.8432 22.6964 23.7449 22.2045 23.5479 21.6629C23.1537 20.5788 22.359 19.2831 20.766 18.4866L20.7618 18.4845L20.7588 18.4831L15.2793 15.9263V14.6078C15.2793 14.5784 15.275 14.55 15.267 14.5232C15.5205 14.2994 15.7482 14.049 15.9501 13.7784C16.7715 12.6771 17.1626 11.2468 17.1626 9.90017V7.53305H16.5713V9.90017C16.5713 11.1427 16.2085 12.4429 15.4761 13.4248C14.7502 14.3979 13.6583 15.0655 12.1593 15.0655C10.6604 15.0655 9.56837 14.3979 8.84247 13.4248C8.74588 13.2953 8.65572 13.1603 8.57197 13.0206H10.0879C10.129 13.0206 10.1682 13.0122 10.2038 12.9971C10.251 13.1736 10.344 13.3363 10.4755 13.4678C10.6723 13.6646 10.9393 13.7752 11.2177 13.7752H13.1008C13.3792 13.7752 13.6461 13.6646 13.843 13.4678C14.0398 13.2709 14.1504 13.0039 14.1504 12.7256C14.1504 12.4472 14.0398 12.1802 13.843 11.9834C13.6461 11.7865 13.3791 11.6759 13.1008 11.6759H11.2177C10.9393 11.6759 10.6723 11.7865 10.4755 11.9834C10.3443 12.1146 10.2514 12.2769 10.2041 12.453C10.1684 12.4377 10.1291 12.4293 10.0879 12.4293H8.26683C7.9196 11.641 7.74708 10.7569 7.74708 9.90017V7.53305H7.15574V9.90017C7.15574 10.7098 7.29716 11.5497 7.58851 12.3302C7.54283 12.3151 7.49766 12.2983 7.45308 12.2799C7.21477 12.1812 6.99824 12.0365 6.81585 11.8541C6.63346 11.6717 6.48879 11.4552 6.3901 11.2169C6.2914 10.9786 6.24062 10.7231 6.24065 10.4652V9.33863L6.24067 9.33543V6.32257L6.24063 6.31746C6.22758 5.56201 6.36676 4.81167 6.64986 4.11115C6.93297 3.41063 7.3542 2.77428 7.88847 2.24001C8.42273 1.70575 9.05908 1.28451 9.7596 1.00141ZM13.6512 18.4432C13.7564 18.6156 13.8965 18.8171 14.0785 19.0295C14.5569 19.5875 15.3288 20.2254 16.5336 20.6091L16.2065 17.0115L15.1539 16.5203C15.0888 16.6752 14.9919 16.8718 14.8538 17.0791C14.595 17.4676 14.1858 17.9004 13.5661 18.1557C13.5707 18.1689 13.5754 18.1826 13.5801 18.1967C13.6037 18.2677 13.6284 18.3506 13.6512 18.4432ZM10.427 18.2008L10.4341 18.1787C9.78161 17.9271 9.35478 17.4794 9.0879 17.0788C8.94995 16.8718 8.85317 16.6753 8.78803 16.5205L7.73524 17.0118L7.40816 20.6088C8.61297 20.2251 9.38484 19.5872 9.86321 19.0292C10.1292 18.7189 10.3055 18.4319 10.4146 18.2248C10.4188 18.2167 10.423 18.2087 10.427 18.2008ZM12.9973 17.7142C12.3377 17.9096 11.6369 17.9162 10.9745 17.7339C10.9549 17.724 10.9342 17.7162 10.9126 17.7108C10.2499 17.5453 9.83447 17.1329 9.58001 16.7509C9.4526 16.5597 9.36753 16.3787 9.31464 16.2462C9.28828 16.1802 9.27017 16.1269 9.25894 16.0912L9.25685 16.0845L9.25354 16.0737V14.6915C10.0124 15.2877 10.9805 15.6568 12.1593 15.6568C13.1511 15.6568 13.9936 15.3956 14.6879 14.9576V16.0749C14.6864 16.0799 14.6847 16.0855 14.6828 16.0915C14.6716 16.1272 14.6535 16.1805 14.6271 16.2465C14.5742 16.379 14.4891 16.56 14.3617 16.7512C14.1116 17.1267 13.7058 17.5317 13.0624 17.7025C13.0408 17.7039 13.019 17.7078 12.9973 17.7142ZM5.64933 9.33223V7.3919C4.83981 7.50783 4.35754 8.09891 4.35754 8.77046V9.90021C4.35754 10.6091 4.89488 11.2283 5.78725 11.2936C5.69601 11.0273 5.64929 10.7474 5.64932 10.4652V9.33543L5.64933 9.33223ZM18.6691 7.39191V11.2788C19.4786 11.1628 19.9609 10.5717 19.9609 9.90021V8.77046C19.9609 8.09892 19.4786 7.50784 18.6691 7.39191ZM11.2177 12.2673C11.0961 12.2673 10.9795 12.3156 10.8936 12.4015C10.8077 12.4875 10.7594 12.604 10.7594 12.7256C10.7594 12.8471 10.8077 12.9637 10.8936 13.0496C10.9796 13.1356 11.0961 13.1839 11.2177 13.1839H13.1008C13.2223 13.1839 13.3389 13.1356 13.4248 13.0496C13.5108 12.9637 13.5591 12.8471 13.5591 12.7256C13.5591 12.604 13.5108 12.4875 13.4248 12.4015C13.3389 12.3156 13.2223 12.2673 13.1008 12.2673H11.2177Z" fill="currentColor"/>
<path d="M15.2795 4.06224V4.06256L15.2796 4.06528C15.2796 4.06819 15.2797 4.07312 15.2799 4.07994C15.2803 4.09358 15.281 4.11473 15.2827 4.1423C15.286 4.19754 15.2926 4.27801 15.3061 4.37519C15.3333 4.57108 15.3872 4.82708 15.4922 5.07895C15.5972 5.3311 15.7483 5.5668 15.963 5.7386C16.1731 5.90668 16.4603 6.0269 16.867 6.0269H17.1626V6.61823H16.867C16.332 6.61823 15.9131 6.45597 15.5936 6.20035C15.2787 5.94843 15.0767 5.61918 14.9463 5.30638C14.8696 5.12235 14.816 4.93974 14.7784 4.7742C13.7489 5.79579 11.709 6.61823 7.45141 6.61823H7.15574V6.0269H7.45141C12.396 6.0269 14.07 4.90055 14.7379 3.89876C14.8101 3.79035 14.9448 3.74203 15.0695 3.77979C15.1941 3.81749 15.2793 3.93218 15.2795 4.06224Z" fill="currentColor"/>
</svg>
