<svg width="24" height="24" viewBox="0 0 24 24" fill="none" xmlns="http://www.w3.org/2000/svg">
<path d="M13.1323 14.9383H11.2457C11.1063 14.9406 10.9679 14.9152 10.8385 14.8635C10.709 14.8118 10.5912 14.7348 10.4918 14.6371C10.3925 14.5394 10.3135 14.4229 10.2597 14.2943C10.2058 14.1658 10.178 14.0278 10.178 13.8884C10.178 13.749 10.2058 13.6111 10.2597 13.4825C10.3135 13.354 10.3925 13.2375 10.4918 13.1397C10.5912 13.042 10.709 12.9651 10.8385 12.9133C10.9679 12.8616 11.1063 12.8362 11.2457 12.8385H13.1323C13.2717 12.8362 13.4101 12.8616 13.5395 12.9133C13.669 12.9651 13.7868 13.042 13.8862 13.1397C13.9855 13.2375 14.0645 13.354 14.1183 13.4825C14.1722 13.6111 14.2 13.749 14.2 13.8884C14.2 14.0278 14.1722 14.1658 14.1183 14.2943C14.0645 14.4229 13.9855 14.5394 13.8862 14.6371C13.7868 14.7348 13.669 14.8118 13.5395 14.8635C13.4101 14.9152 13.2717 14.9406 13.1323 14.9383ZM11.2457 13.4281C11.1842 13.4266 11.1231 13.4373 11.0659 13.4597C11.0087 13.4822 10.9566 13.5158 10.9126 13.5587C10.8686 13.6016 10.8336 13.6529 10.8097 13.7095C10.7859 13.7661 10.7736 13.827 10.7736 13.8884C10.7736 13.9499 10.7859 14.0107 10.8097 14.0673C10.8336 14.1239 10.8686 14.1752 10.9126 14.2181C10.9566 14.261 11.0087 14.2947 11.0659 14.3171C11.1231 14.3395 11.1842 14.3503 11.2457 14.3487H13.1323C13.1938 14.3503 13.2549 14.3395 13.3121 14.3171C13.3693 14.2947 13.4214 14.261 13.4654 14.2181C13.5094 14.1752 13.5444 14.1239 13.5683 14.0673C13.5921 14.0107 13.6044 13.9499 13.6044 13.8884C13.6044 13.827 13.5921 13.7661 13.5683 13.7095C13.5444 13.6529 13.5094 13.6016 13.4654 13.5587C13.4214 13.5158 13.3693 13.4822 13.3121 13.4597C13.2549 13.4373 13.1938 13.4266 13.1323 13.4281H11.2457Z" fill="currentColor"/>
<path d="M10.1116 14.1832H8.22494C7.54587 14.1823 6.89486 13.9122 6.41468 13.432C5.93451 12.9518 5.66437 12.3008 5.66351 11.6218V9.7351C5.66351 9.65691 5.69457 9.58194 5.74985 9.52665C5.80514 9.47137 5.88012 9.44031 5.9583 9.44031C6.03649 9.44031 6.11147 9.47137 6.16675 9.52665C6.22204 9.58194 6.25309 9.65691 6.25309 9.7351V11.6218C6.25364 12.1442 6.46144 12.6452 6.83089 13.0146C7.20035 13.3841 7.70128 13.5919 8.22376 13.5924H10.1104C10.1886 13.5924 10.2636 13.6235 10.3189 13.6788C10.3742 13.7341 10.4052 13.809 10.4052 13.8872C10.4052 13.9654 10.3742 14.0404 10.3189 14.0957C10.2636 14.151 10.1886 14.182 10.1104 14.182L10.1116 14.1832Z" fill="currentColor"/>
<path d="M5.95713 12.2955C5.37951 12.3084 4.81849 12.1017 4.38737 11.7171C4.19278 11.5366 4.03782 11.3176 3.93232 11.074C3.82681 10.8304 3.77308 10.5676 3.7745 10.3021V9.16953C3.77308 8.90409 3.82681 8.64125 3.93232 8.39767C4.03782 8.15409 4.19278 7.93508 4.38737 7.75454C4.81831 7.36948 5.37935 7.16235 5.95713 7.17498C6.03531 7.17498 6.11029 7.20605 6.16558 7.26133C6.22086 7.31661 6.25192 7.39159 6.25192 7.46977C6.25192 7.54796 6.22086 7.62293 6.16558 7.67822C6.11029 7.7335 6.03531 7.76456 5.95713 7.76456C5.03414 7.76456 4.36526 8.35415 4.36526 9.16895V10.3015C4.36526 11.1151 5.03532 11.7059 5.95713 11.7059C6.03531 11.7059 6.11029 11.737 6.16558 11.7923C6.22086 11.8475 6.25192 11.9225 6.25192 12.0007C6.25192 12.0789 6.22086 12.1539 6.16558 12.2092C6.11029 12.2644 6.03531 12.2955 5.95713 12.2955Z" fill="currentColor"/>
<path d="M18.4182 12.2954C18.34 12.2954 18.265 12.2643 18.2098 12.2091C18.1545 12.1538 18.1234 12.0788 18.1234 12.0006C18.1234 11.9224 18.1545 11.8474 18.2098 11.7922C18.265 11.7369 18.34 11.7058 18.4182 11.7058C19.3412 11.7058 20.0101 11.1162 20.0101 10.3014V9.16885C20.0101 8.35523 19.34 7.76447 18.4182 7.76447C18.34 7.76447 18.265 7.73341 18.2098 7.67813C18.1545 7.62284 18.1234 7.54786 18.1234 7.46968C18.1234 7.3915 18.1545 7.31652 18.2098 7.26124C18.265 7.20595 18.34 7.17489 18.4182 7.17489C18.9958 7.16193 19.5568 7.36864 19.988 7.75327C20.1826 7.93374 20.3377 8.15273 20.4432 8.39633C20.5487 8.63992 20.6024 8.9028 20.6008 9.16826V10.3008C20.6024 10.5663 20.5487 10.8292 20.4432 11.0728C20.3377 11.3164 20.1826 11.5354 19.988 11.7158C19.557 12.1009 18.996 12.308 18.4182 12.2954Z" fill="currentColor"/>
<path d="M23.9992 24.0001H23.4096V23.6525C23.4096 22.7094 23.1425 21.7856 22.6391 20.988C22.1356 20.1905 21.4166 19.552 20.5651 19.1463L16.5672 17.6164C16.0131 17.9973 15.4246 18.3256 14.8094 18.5969C14.0406 18.9249 13.2132 19.0933 12.3774 19.0918C11.5452 19.1097 10.7156 18.9933 9.92058 18.7469C9.15718 18.4861 8.44058 18.1045 7.79808 17.6167L3.43195 19.1496C2.58141 19.5553 1.86309 20.1935 1.36009 20.9903C0.857087 21.7872 0.589951 22.7102 0.58958 23.6525V24.0001H1.29687e-08V23.6525C-7.2009e-05 22.5959 0.29984 21.5609 0.864853 20.668C1.42987 19.7751 2.23676 19.061 3.19169 18.6086C3.2013 18.6042 3.21114 18.6003 3.22117 18.5969L7.74944 17.0085C7.79515 16.9925 7.84411 16.988 7.89198 16.9954C7.93985 17.0028 7.98515 17.0219 8.02389 17.051C9.25072 18.0476 10.7985 18.5635 12.3779 18.5022C14.0391 18.5022 15.2129 17.8112 16.3676 17.0415C16.4068 17.0155 16.4517 16.9993 16.4985 16.9941C16.5453 16.989 16.5926 16.9952 16.6365 17.0121L20.7871 18.6004C20.7942 18.6031 20.8012 18.6061 20.8081 18.6092C21.763 19.0616 22.5699 19.7757 23.1349 20.6686C23.6999 21.5615 23.9998 22.5964 23.9997 23.6531L23.9992 24.0001Z" fill="currentColor"/>
<path d="M18.4182 12.2951C18.34 12.2951 18.265 12.264 18.2097 12.2087C18.1545 12.1534 18.1234 12.0785 18.1234 12.0003V6.33677C18.1204 5.56725 17.9565 4.80685 17.6421 4.10447C17.3278 3.40208 16.8699 2.77323 16.2981 2.25834C15.7286 1.73304 15.0662 1.31847 14.3448 1.03584C13.5981 0.740784 12.8023 0.589655 11.9994 0.590419C11.241 0.576709 10.4876 0.715976 9.78428 0.999903C9.0809 1.28383 8.44196 1.70659 7.9056 2.24295C7.36925 2.7793 6.94649 3.41824 6.66256 4.12161C6.37863 4.82499 6.23937 5.57837 6.25308 6.33677V9.73481C6.25308 9.81299 6.22202 9.88798 6.16674 9.94326C6.11145 9.99854 6.03647 10.0296 5.95829 10.0296C5.8801 10.0296 5.80512 9.99854 5.74984 9.94326C5.69456 9.88798 5.6635 9.81299 5.6635 9.73481V6.33677C5.64979 5.50094 5.80431 4.67089 6.11786 3.89599C6.43142 3.12108 6.89761 2.41715 7.48871 1.82605C8.07981 1.23495 8.78374 0.768761 9.55864 0.455205C10.3335 0.141649 11.1636 -0.0128709 11.9994 0.000838537C12.8763 8.93172e-05 13.7454 0.165226 14.5609 0.487537C15.3502 0.796908 16.075 1.25067 16.6981 1.82559C17.3161 2.39185 17.8153 3.07536 18.1667 3.83635C18.528 4.62034 18.7144 5.47354 18.713 6.33677V12.0003C18.713 12.039 18.7054 12.0773 18.6905 12.1131C18.6757 12.1488 18.654 12.1813 18.6266 12.2087C18.5993 12.2361 18.5668 12.2578 18.531 12.2726C18.4952 12.2874 18.4569 12.2951 18.4182 12.2951Z" fill="currentColor"/>
<path d="M12.1884 16.8262C11.4501 16.8429 10.7187 16.6803 10.057 16.3524C9.39529 16.0245 8.82289 15.5412 8.38884 14.9437C7.9781 14.3846 7.66805 13.7581 7.47263 13.0924C7.27527 12.4318 7.17468 11.7461 7.17401 11.0566V7.93005H7.76359V11.0566C7.74886 12.3209 8.13299 13.5577 8.86139 14.5911C9.25207 15.1028 9.7555 15.5174 10.3325 15.8028C10.9096 16.0882 11.5446 16.2367 12.1884 16.2367C12.8321 16.2367 13.4672 16.0882 14.0443 15.8028C14.6213 15.5174 15.1247 15.1028 15.5154 14.5911C16.2438 13.5577 16.6279 12.3209 16.6132 11.0566V7.93005H17.2028V11.0566C17.2021 11.7461 17.1015 12.4318 16.9041 13.0924C16.7087 13.7581 16.3987 14.3846 15.9879 14.9437C15.5539 15.5412 14.9815 16.0245 14.3198 16.3524C13.658 16.6803 12.9267 16.8429 12.1884 16.8262Z" fill="currentColor"/>
<path d="M17.2031 7.00926H16.9083C16.4474 7.022 15.9964 6.87401 15.6327 6.59066C15.3443 6.3518 15.1211 6.04366 14.9842 5.69508C14.9127 5.52159 14.8562 5.34229 14.8153 5.15916C14.2768 5.6672 13.6335 6.05099 12.9307 6.28348C11.6041 6.76488 9.7661 7.00926 7.4688 7.00926H7.17401V6.41968H7.4688C9.69741 6.41968 11.4673 6.18738 12.7296 5.72928C13.6906 5.38054 14.3598 4.90829 14.7749 4.28481C14.81 4.23217 14.8611 4.19222 14.9207 4.17086C14.9802 4.14951 15.0451 4.14788 15.1056 4.16623C15.1662 4.18457 15.2192 4.22191 15.2569 4.27273C15.2946 4.32354 15.3149 4.38514 15.3149 4.44841C15.327 4.80301 15.4012 5.15274 15.5343 5.48166C15.6341 5.73541 15.7963 5.9599 16.0059 6.13433C16.2648 6.32962 16.583 6.43005 16.9071 6.4188H17.2019L17.2031 7.00926Z" fill="currentColor"/>
</svg>
