<svg width="24" height="24" viewBox="0 0 24 24" fill="none" xmlns="http://www.w3.org/2000/svg">
<path d="M13.1321 13.8081H11.2445C10.9655 13.8081 10.6979 13.6973 10.5005 13.5C10.3032 13.3027 10.1924 13.035 10.1924 12.756C10.1924 12.477 10.3032 12.2093 10.5005 12.012C10.6979 11.8147 10.9655 11.7039 11.2445 11.7039H13.1321C13.4112 11.7039 13.6788 11.8147 13.8761 12.012C14.0734 12.2093 14.1843 12.477 14.1843 12.756C14.1843 13.035 14.0734 13.3027 13.8761 13.5C13.6788 13.6973 13.4112 13.8081 13.1321 13.8081ZM11.2445 12.2966C11.1227 12.2966 11.0058 12.345 10.9197 12.4312C10.8335 12.5173 10.7851 12.6342 10.7851 12.756C10.7851 12.8778 10.8335 12.9947 10.9197 13.0808C11.0058 13.167 11.1227 13.2154 11.2445 13.2154H13.1321C13.254 13.2154 13.3708 13.167 13.457 13.0808C13.5431 12.9947 13.5915 12.8778 13.5915 12.756C13.5915 12.6342 13.5431 12.5173 13.457 12.4312C13.3708 12.345 13.254 12.2966 13.1321 12.2966H11.2445Z" fill="currentColor"/>
<path d="M10.112 13.0518H8.22443C7.54529 13.051 6.8942 12.7809 6.41398 12.3007C5.93376 11.8205 5.66363 11.1694 5.66284 10.4902V9.35778C5.66284 9.27917 5.69407 9.20379 5.74965 9.14821C5.80523 9.09263 5.88061 9.0614 5.95922 9.0614C6.03782 9.0614 6.11321 9.09263 6.16879 9.14821C6.22437 9.20379 6.2556 9.27917 6.2556 9.35778V10.4902C6.25614 11.0122 6.46375 11.5127 6.83286 11.8818C7.20197 12.2509 7.70243 12.4585 8.22443 12.4591H10.112C10.1907 12.4591 10.266 12.4903 10.3216 12.5459C10.3772 12.6015 10.4084 12.6768 10.4084 12.7554C10.4084 12.834 10.3772 12.9094 10.3216 12.965C10.266 13.0206 10.1907 13.0518 10.112 13.0518Z" fill="currentColor"/>
<path d="M5.95924 11.9191C5.38126 11.9322 4.81986 11.7254 4.38844 11.3406C4.1935 11.1599 4.03829 10.9407 3.93267 10.6968C3.82705 10.4529 3.77333 10.1897 3.77494 9.9239V8.79145C3.77333 8.52567 3.82705 8.26247 3.93267 8.01857C4.03829 7.77468 4.1935 7.55543 4.38844 7.37477C4.81986 6.98992 5.38126 6.78316 5.95924 6.79624C6.03784 6.79624 6.11323 6.82746 6.16881 6.88305C6.22439 6.93863 6.25561 7.01401 6.25561 7.09262C6.25561 7.17122 6.22439 7.24661 6.16881 7.30219C6.11323 7.35777 6.03784 7.38899 5.95924 7.38899C5.03721 7.38899 4.36799 7.97878 4.36799 8.79145V9.9239C4.36799 10.7366 5.03721 11.3264 5.95924 11.3264C6.03784 11.3264 6.11323 11.3576 6.16881 11.4132C6.22439 11.4687 6.25561 11.5441 6.25561 11.6227C6.25561 11.7013 6.22439 11.7767 6.16881 11.8323C6.11323 11.8879 6.03784 11.9191 5.95924 11.9191Z" fill="currentColor"/>
<path d="M18.4174 11.9191C18.3388 11.9191 18.2634 11.8879 18.2078 11.8323C18.1523 11.7767 18.121 11.7013 18.121 11.6227C18.121 11.5441 18.1523 11.4687 18.2078 11.4132C18.2634 11.3576 18.3388 11.3264 18.4174 11.3264C19.3394 11.3264 20.0087 10.7366 20.0087 9.9239V8.79145C20.0087 7.97878 19.3394 7.38899 18.4174 7.38899C18.3388 7.38899 18.2634 7.35777 18.2078 7.30219C18.1523 7.24661 18.121 7.17122 18.121 7.09262C18.121 7.01401 18.1523 6.93863 18.2078 6.88305C18.2634 6.82746 18.3388 6.79624 18.4174 6.79624C18.9954 6.78316 19.5568 6.98992 19.9882 7.37477C20.1831 7.55543 20.3384 7.77468 20.444 8.01857C20.5496 8.26247 20.6033 8.52567 20.6017 8.79145V9.9239C20.6033 10.1897 20.5496 10.4529 20.444 10.6968C20.3384 10.9407 20.1831 11.1599 19.9882 11.3406C19.5568 11.7254 18.9954 11.9322 18.4174 11.9191Z" fill="currentColor"/>
<path d="M18.4175 11.9193C18.3389 11.9193 18.2635 11.8881 18.2079 11.8325C18.1523 11.777 18.1211 11.7016 18.1211 11.623V6.33767C18.1182 5.56845 17.9543 4.80835 17.6401 4.10626C17.3258 3.40416 16.8681 2.7756 16.2963 2.26101C15.727 1.73594 15.0649 1.32155 14.3438 1.03905C13.5974 0.74439 12.8021 0.593551 11.9997 0.594485C11.2417 0.580744 10.4887 0.719901 9.78562 1.00365C9.08256 1.28739 8.44389 1.70991 7.90775 2.24596C7.37162 2.78202 6.949 3.42062 6.66515 4.12363C6.38129 4.82664 6.24202 5.57964 6.25564 6.33767V9.35775C6.25564 9.43636 6.22442 9.51174 6.16884 9.56732C6.11326 9.62291 6.03787 9.65413 5.95927 9.65413C5.88066 9.65413 5.80528 9.62291 5.7497 9.56732C5.69412 9.51174 5.66289 9.43636 5.66289 9.35775V6.33767C5.64915 5.50172 5.80367 4.67154 6.11726 3.89651C6.43085 3.12148 6.8971 2.41743 7.48829 1.82624C8.07948 1.23505 8.78353 0.768795 9.55856 0.455205C10.3336 0.141616 11.1638 -0.0129015 11.9997 0.00084262C12.8766 7.49684e-05 13.7458 0.165194 14.5613 0.487493C15.3507 0.796882 16.0756 1.25067 16.6988 1.82563C17.3169 2.39202 17.8162 3.07569 18.1676 3.83685C18.529 4.62095 18.7155 5.47429 18.7141 6.33767V11.623C18.7141 11.6619 18.7065 11.7005 18.6915 11.7364C18.6766 11.7724 18.6548 11.8051 18.6272 11.8326C18.5997 11.8602 18.567 11.882 18.531 11.8969C18.495 11.9117 18.4564 11.9194 18.4175 11.9193Z" fill="currentColor"/>
<path d="M12.1882 15.6943C11.4497 15.711 10.7182 15.5485 10.0563 15.2205C9.39436 14.8926 8.82184 14.4091 8.38776 13.8114C7.97706 13.2522 7.66704 12.6257 7.47166 11.9599C7.27423 11.2992 7.1736 10.6134 7.17291 9.92382V7.55103H7.76567V9.92382C7.75065 11.1875 8.13436 12.4238 8.86226 13.4569C9.25279 13.9682 9.75597 14.3825 10.3327 14.6677C10.9094 14.9529 11.5441 15.1013 12.1875 15.1013C12.8308 15.1013 13.4655 14.9529 14.0422 14.6677C14.619 14.3825 15.1221 13.9682 15.5127 13.4569C16.2406 12.4238 16.6243 11.1875 16.6093 9.92382V7.55103H17.202V9.92382C17.2013 10.6133 17.1007 11.299 16.9033 11.9596C16.7079 12.6254 16.3979 13.2519 15.9872 13.8111C15.5533 14.4086 14.981 14.8921 14.3194 15.2201C13.6577 15.548 12.9265 15.7107 12.1882 15.6943Z" fill="currentColor"/>
<path d="M17.2038 6.63403H16.9074C16.4462 6.64683 15.9949 6.49878 15.6309 6.21525C15.3424 5.97627 15.1192 5.66801 14.9821 5.3193C14.911 5.14658 14.8547 4.96811 14.8138 4.78582C14.2756 5.29282 13.6329 5.67591 12.9309 5.9082C11.604 6.38981 9.76651 6.63373 7.46929 6.63373H7.17291V6.04098H7.46929C9.69745 6.04098 11.4671 5.80892 12.7288 5.35101C13.6894 5.00247 14.3589 4.53035 14.7738 3.90795C14.8091 3.85503 14.8605 3.81486 14.9204 3.79339C14.9802 3.77192 15.0454 3.77029 15.1063 3.78873C15.1672 3.80718 15.2205 3.84472 15.2584 3.89581C15.2963 3.9469 15.3168 4.00883 15.3168 4.07244C15.3287 4.42681 15.4029 4.77631 15.5358 5.10502C15.6357 5.35865 15.7981 5.58293 16.0079 5.75705C16.2665 5.95216 16.5843 6.0525 16.908 6.04127H17.2044L17.2038 6.63403Z" fill="currentColor"/>
<path d="M8.9793 16.4495C8.9007 16.4495 8.82531 16.4183 8.76973 16.3627C8.71415 16.3071 8.68292 16.2317 8.68292 16.1531V14.2655C8.68292 14.1869 8.71415 14.1115 8.76973 14.0559C8.82531 14.0003 8.9007 13.9691 8.9793 13.9691C9.0579 13.9691 9.13329 14.0003 9.18887 14.0559C9.24445 14.1115 9.27568 14.1869 9.27568 14.2655V16.1531C9.27568 16.2317 9.24445 16.3071 9.18887 16.3627C9.13329 16.4183 9.0579 16.4495 8.9793 16.4495Z" fill="currentColor"/>
<path d="M15.0195 16.4506C14.9409 16.4506 14.8655 16.4194 14.8099 16.3638C14.7543 16.3082 14.7231 16.2328 14.7231 16.1542V14.6427C14.7231 14.5641 14.7543 14.4887 14.8099 14.4331C14.8655 14.3775 14.9409 14.3463 15.0195 14.3463C15.0981 14.3463 15.1734 14.3775 15.229 14.4331C15.2846 14.4887 15.3158 14.5641 15.3158 14.6427V16.1542C15.3158 16.2328 15.2846 16.3082 15.229 16.3638C15.1734 16.4194 15.0981 16.4506 15.0195 16.4506Z" fill="currentColor"/>
<path d="M23.7033 24C23.6247 24 23.5493 23.9687 23.4937 23.9132C23.4381 23.8576 23.4069 23.7822 23.4069 23.7036C23.3799 23.086 23.2561 22.4766 23.04 21.8975C22.8412 21.347 22.554 20.8327 22.1897 20.3747C21.7457 19.8241 21.1877 19.3764 20.554 19.0623L14.895 16.4213C14.8591 16.4052 14.8268 16.3822 14.7999 16.3535C14.7731 16.3248 14.7522 16.2911 14.7385 16.2542C14.7248 16.2174 14.7185 16.1782 14.7201 16.1389C14.7217 16.0997 14.731 16.0611 14.7477 16.0255C14.7643 15.9899 14.7878 15.9579 14.8169 15.9315C14.846 15.9051 14.8801 15.8847 14.9171 15.8715C14.9542 15.8584 14.9934 15.8528 15.0327 15.855C15.0719 15.8571 15.1104 15.8671 15.1457 15.8843L20.8086 18.5268L20.8157 18.5303C21.5315 18.8846 22.1611 19.3911 22.6606 20.0143C23.0658 20.5257 23.3845 21.1 23.6043 21.7143C23.8413 22.352 23.9748 23.0235 23.9997 23.7033C23.9997 23.7422 23.9921 23.7808 23.9772 23.8168C23.9623 23.8528 23.9405 23.8855 23.913 23.913C23.8854 23.9406 23.8528 23.9625 23.8168 23.9774C23.7808 23.9923 23.7422 24 23.7033 24Z" fill="currentColor"/>
<path d="M0.296377 23.9996C0.217773 23.9996 0.142388 23.9684 0.0868065 23.9128C0.0312251 23.8572 0 23.7818 0 23.7032C0.0249066 23.0234 0.158381 22.3519 0.395367 21.7143C0.615141 21.0999 0.933904 20.5257 1.33903 20.0142C1.83854 19.3911 2.46821 18.8846 3.18397 18.5303L3.19376 18.5255L7.34659 16.6379C7.38202 16.6218 7.42029 16.6128 7.4592 16.6115C7.4981 16.6102 7.53689 16.6165 7.57334 16.6302C7.60979 16.6439 7.6432 16.6646 7.67164 16.6911C7.70009 16.7177 7.72303 16.7496 7.73914 16.7851C7.75525 16.8205 7.76423 16.8588 7.76556 16.8977C7.76688 16.9366 7.76053 16.9754 7.74686 17.0118C7.7332 17.0483 7.71249 17.0817 7.68592 17.1101C7.65934 17.1386 7.62742 17.1615 7.59199 17.1776L3.4442 19.0629C2.80723 19.3788 2.2468 19.8298 1.80197 20.3844C1.43723 20.8455 1.1503 21.363 0.952556 21.9167C0.7399 22.4897 0.618488 23.0926 0.592754 23.7032C0.592754 23.7818 0.561528 23.8572 0.505947 23.9128C0.450366 23.9684 0.374981 23.9996 0.296377 23.9996Z" fill="currentColor"/>
<path d="M7.09167 21.3573C7.05038 21.3574 7.0095 21.349 6.97166 21.3324C6.93382 21.3159 6.89987 21.2916 6.87196 21.2611C6.84406 21.2307 6.82282 21.1947 6.80962 21.1556C6.79642 21.1165 6.79154 21.075 6.7953 21.0339L7.17288 16.8811C7.18 16.8028 7.21792 16.7305 7.27831 16.6802C7.3387 16.6299 7.41661 16.6056 7.4949 16.6127C7.57319 16.6198 7.64544 16.6577 7.69577 16.7181C7.7461 16.7785 7.77038 16.8564 7.76327 16.9347L7.42599 20.6581C8.06865 20.4745 8.66825 20.1645 9.18971 19.7464C9.71117 19.3283 10.144 18.8104 10.463 18.2231C9.90803 18.0053 9.43508 17.6195 9.1103 17.1197C8.92478 16.8452 8.78356 16.5432 8.69181 16.2249C8.67426 16.1492 8.68715 16.0696 8.72771 16.0033C8.76827 15.937 8.83324 15.8893 8.90865 15.8704C8.98405 15.8516 9.06384 15.8631 9.13083 15.9025C9.19782 15.9419 9.24664 16.0061 9.26678 16.0812C9.3446 16.3397 9.46186 16.5848 9.61443 16.8076C9.91997 17.2793 10.3933 17.6173 10.9386 17.7533C10.9782 17.7632 11.0154 17.7812 11.0477 17.8061C11.08 17.8311 11.1068 17.8624 11.1265 17.8982C11.1461 17.934 11.1582 17.9734 11.1619 18.0141C11.1655 18.0547 11.1608 18.0957 11.1479 18.1344C10.9586 18.6212 10.6839 19.0703 10.3367 19.4604C9.9834 19.8709 9.57215 20.2278 9.11593 20.5197C8.51473 20.901 7.85517 21.1813 7.1634 21.3495C7.13989 21.355 7.11581 21.3576 7.09167 21.3573Z" fill="currentColor"/>
<path d="M16.9074 21.3572C16.8832 21.3571 16.8591 21.3541 16.8357 21.3483C16.1439 21.1801 15.4843 20.8997 14.8831 20.5184C14.4269 20.2265 14.0157 19.8697 13.6624 19.4592C13.3152 19.069 13.0405 18.6199 12.8512 18.1332C12.8383 18.0944 12.8335 18.0535 12.8372 18.0128C12.8409 17.9722 12.8529 17.9327 12.8726 17.8969C12.8922 17.8611 12.919 17.8298 12.9514 17.8049C12.9837 17.7799 13.0208 17.7619 13.0604 17.752C13.6058 17.6161 14.0791 17.278 14.3846 16.8063C14.5374 16.5832 14.6548 16.3379 14.7326 16.079C14.7421 16.0412 14.7589 16.0057 14.7821 15.9745C14.8054 15.9432 14.8345 15.9169 14.8679 15.8969C14.9013 15.8769 14.9383 15.8637 14.9769 15.858C15.0154 15.8523 15.0546 15.8543 15.0924 15.8638C15.1301 15.8733 15.1657 15.8902 15.1969 15.9134C15.2281 15.9366 15.2545 15.9657 15.2745 15.9992C15.2945 16.0326 15.3077 16.0696 15.3133 16.1081C15.319 16.1466 15.317 16.1859 15.3075 16.2236C15.2158 16.542 15.0746 16.8439 14.8891 17.1184C14.5644 17.6182 14.0915 18.004 13.5367 18.2218C13.6989 18.5358 13.8986 18.8291 14.1312 19.0952C14.4473 19.4578 14.8142 19.7727 15.2204 20.0303C15.6424 20.2968 16.0972 20.5074 16.5734 20.6568L16.2349 16.9337C16.2278 16.8554 16.2521 16.7775 16.3024 16.7171C16.3527 16.6568 16.425 16.6188 16.5033 16.6117C16.5816 16.6046 16.6595 16.6289 16.7199 16.6792C16.7803 16.7295 16.8182 16.8018 16.8253 16.8801L17.2029 21.0329C17.2066 21.074 17.2018 21.1155 17.1886 21.1546C17.1754 21.1938 17.1541 21.2297 17.1262 21.2602C17.0983 21.2906 17.0643 21.3149 17.0265 21.3314C16.9887 21.348 16.9478 21.3564 16.9065 21.3563L16.9074 21.3572Z" fill="currentColor"/>
<path d="M10.393 24C10.3485 24 10.3045 23.99 10.2644 23.9707C10.2242 23.9514 10.189 23.9234 10.1612 23.8886C10.1334 23.8538 10.1138 23.8131 10.1038 23.7697C10.0939 23.7263 10.0939 23.6812 10.1038 23.6378C10.3744 22.4505 10.7659 21.2007 10.9087 20.7576C10.6909 20.506 10.5276 20.2119 10.429 19.8941C10.3304 19.5762 10.2987 19.2413 10.3358 18.9106C10.3671 18.5637 10.4573 18.2248 10.6026 17.9082C10.6346 17.8445 10.6885 17.7944 10.7544 17.7672C10.8203 17.74 10.8938 17.7374 10.9615 17.7601C11.6399 17.9576 12.3606 17.9576 13.0391 17.7601C13.1067 17.7374 13.1803 17.74 13.2462 17.7672C13.3121 17.7944 13.366 17.8445 13.398 17.9082C13.5433 18.2248 13.6335 18.5637 13.6647 18.9106C13.7019 19.2413 13.6702 19.5762 13.5716 19.8941C13.473 20.2119 13.3097 20.506 13.0918 20.7576C13.2347 21.2022 13.6253 22.4502 13.8968 23.6366C13.9055 23.6746 13.9066 23.7138 13.9 23.7522C13.8935 23.7906 13.8795 23.8273 13.8588 23.8603C13.8381 23.8932 13.8111 23.9218 13.7793 23.9443C13.7476 23.9668 13.7117 23.9829 13.6738 23.9915C13.6358 24.0002 13.5965 24.0013 13.5582 23.9948C13.5198 23.9882 13.4831 23.9742 13.4501 23.9535C13.4172 23.9328 13.3886 23.9058 13.3661 23.8741C13.3436 23.8423 13.3275 23.8064 13.3189 23.7685C12.9905 22.3299 12.4801 20.7926 12.4748 20.7772C12.4574 20.725 12.4549 20.6689 12.4676 20.6154C12.4803 20.5618 12.5076 20.5129 12.5465 20.474C12.742 20.2819 12.8913 20.0479 12.983 19.7896C13.0748 19.5313 13.1066 19.2556 13.0761 18.9832C13.0593 18.7849 13.0195 18.5891 12.9576 18.3999C12.3289 18.5409 11.6766 18.5391 11.0486 18.3949C10.9855 18.5856 10.9448 18.783 10.9274 18.9832C10.8969 19.2556 10.9287 19.5313 11.0205 19.7896C11.1122 20.0479 11.2615 20.2819 11.457 20.474C11.4959 20.5129 11.5233 20.5618 11.5359 20.6154C11.5486 20.6689 11.5461 20.725 11.5287 20.7772C11.5237 20.7926 11.0128 22.3299 10.685 23.7706C10.6697 23.8363 10.6325 23.8949 10.5794 23.9367C10.5263 23.9784 10.4605 24.0007 10.393 24Z" fill="currentColor"/>
</svg>
