<svg width="24" height="24" viewBox="0 0 24 24" fill="none" xmlns="http://www.w3.org/2000/svg">
<path d="M22.1952 24H1.80508C1.32651 23.9995 0.867699 23.8091 0.529299 23.4707C0.190899 23.1323 0.000546179 22.6735 0 22.1949V7.4689H0.589607V22.1949C0.589997 22.5172 0.718181 22.8261 0.946042 23.054C1.1739 23.2818 1.48284 23.41 1.80508 23.4104H22.1952C22.5174 23.41 22.8263 23.2818 23.0542 23.054C23.2821 22.8261 23.4102 22.5172 23.4106 22.1949V7.4689H24.0002V22.1949C23.9997 22.6735 23.8093 23.1323 23.4709 23.4707C23.1325 23.8091 22.6737 23.9995 22.1952 24Z" fill="currentColor"/>
<path d="M0.310139 7.74253C0.260613 7.74264 0.211857 7.73028 0.16837 7.70658C0.124884 7.68288 0.0880691 7.6486 0.0613252 7.60692C0.040384 7.57421 0.0261107 7.53769 0.0193254 7.49946C0.0125401 7.46122 0.0133764 7.42202 0.0217862 7.38411C0.0301961 7.34619 0.0460139 7.31031 0.0683308 7.27853C0.0906478 7.24675 0.119024 7.21969 0.15183 7.19891L2.40324 5.76617C2.4359 5.74535 2.47233 5.73117 2.51046 5.72444C2.5486 5.7177 2.58769 5.71855 2.62549 5.72693C2.6633 5.73531 2.69909 5.75105 2.73081 5.77326C2.76253 5.79547 2.78956 5.82371 2.81037 5.85638C2.83115 5.88915 2.84526 5.9257 2.85188 5.96393C2.85851 6.00217 2.85752 6.04133 2.84897 6.07918C2.84043 6.11703 2.82449 6.15283 2.80208 6.18451C2.77968 6.21619 2.75123 6.24313 2.71839 6.26379L0.468449 7.69536C0.421252 7.72585 0.366326 7.74221 0.310139 7.74253Z" fill="currentColor"/>
<path d="M15.9716 2.8558C15.9158 2.85576 15.8612 2.83992 15.8141 2.81011L12.6126 0.783041C12.422 0.656589 12.1983 0.589145 11.9696 0.589145C11.7409 0.589145 11.5172 0.656589 11.3266 0.783041L8.14454 2.80834C8.11188 2.82967 8.07532 2.84431 8.03696 2.85142C7.99861 2.85852 7.95923 2.85793 7.9211 2.8497C7.88297 2.84147 7.84685 2.82576 7.81484 2.80347C7.78283 2.78118 7.75556 2.75276 7.73461 2.71986C7.71367 2.68695 7.69946 2.65022 7.69281 2.61178C7.68616 2.57335 7.6872 2.53398 7.69588 2.49595C7.70456 2.45792 7.7207 2.42199 7.74337 2.39024C7.76603 2.3585 7.79477 2.33156 7.82792 2.31101L11.0109 0.284528H11.0127C11.297 0.0988665 11.6292 0 11.9687 0C12.3083 0 12.6405 0.0988665 12.9248 0.284528H12.9265L16.1296 2.31189C16.1836 2.34606 16.225 2.39686 16.2476 2.45662C16.2703 2.51638 16.2729 2.58188 16.255 2.64324C16.2372 2.70461 16.1999 2.75852 16.1488 2.79686C16.0977 2.83519 16.0355 2.85588 15.9716 2.8558Z" fill="currentColor"/>
<path d="M23.6895 7.74251C23.6342 7.74224 23.58 7.72641 23.5333 7.69682L21.2824 6.27262C21.2497 6.25191 21.2214 6.22496 21.1991 6.19331C21.1768 6.16165 21.161 6.12592 21.1525 6.08814C21.144 6.05036 21.143 6.01128 21.1496 5.97313C21.1563 5.93498 21.1703 5.8985 21.191 5.86579C21.2118 5.83307 21.2387 5.80476 21.2704 5.78246C21.302 5.76016 21.3378 5.74431 21.3755 5.73582C21.4133 5.72734 21.4524 5.72638 21.4905 5.733C21.5287 5.73962 21.5652 5.75369 21.5979 5.7744L23.8475 7.1986C23.9015 7.23277 23.943 7.28356 23.9656 7.34333C23.9882 7.40309 23.9908 7.46859 23.973 7.52995C23.9551 7.59132 23.9179 7.64523 23.8667 7.68356C23.8156 7.7219 23.7534 7.74259 23.6895 7.74251Z" fill="currentColor"/>
<path d="M11.9675 19.8418C11.6287 19.8392 11.2975 19.7404 11.0127 19.5568H11.0109L0.150639 12.6416C0.0867241 12.5986 0.0421736 12.5323 0.0265206 12.4569C0.0108677 12.3814 0.0253557 12.3029 0.0668845 12.238C0.108413 12.1731 0.173684 12.1271 0.248731 12.1097C0.323777 12.0924 0.402637 12.1051 0.468437 12.1451L11.3266 19.058C11.5171 19.1844 11.7406 19.2519 11.9692 19.2519C12.1977 19.2519 12.4213 19.1844 12.6117 19.058L23.5321 12.1451C23.5981 12.1033 23.6781 12.0894 23.7544 12.1066C23.8307 12.1237 23.8971 12.1704 23.9389 12.2365C23.9807 12.3026 23.9946 12.3826 23.9775 12.4589C23.9603 12.5351 23.9136 12.6015 23.8475 12.6433L12.9265 19.5562H12.9248C12.639 19.7396 12.3071 19.8387 11.9675 19.8418Z" fill="currentColor"/>
<path d="M21.4399 11.9172C21.3617 11.9172 21.2867 11.8862 21.2314 11.8309C21.1761 11.7756 21.1451 11.7006 21.1451 11.6224V4.07045C21.1447 3.7482 21.0165 3.43927 20.7886 3.21141C20.5608 2.98355 20.2518 2.85536 19.9296 2.85497H4.07064C3.7484 2.85536 3.43947 2.98355 3.2116 3.21141C2.98374 3.43927 2.85556 3.7482 2.85517 4.07045V11.6224C2.85517 11.7006 2.82411 11.7756 2.76882 11.8309C2.71354 11.8862 2.63855 11.9172 2.56037 11.9172C2.48218 11.9172 2.4072 11.8862 2.35191 11.8309C2.29662 11.7756 2.26556 11.7006 2.26556 11.6224V4.07045C2.26611 3.59188 2.45646 3.13306 2.79486 2.79466C3.13326 2.45626 3.59207 2.26591 4.07064 2.26537H19.9296C20.4082 2.26591 20.867 2.45626 21.2054 2.79466C21.5438 3.13306 21.7341 3.59188 21.7347 4.07045V11.6224C21.7347 11.7006 21.7036 11.7756 21.6483 11.8309C21.593 11.8862 21.5181 11.9172 21.4399 11.9172Z" fill="currentColor"/>
<path d="M12.8643 15.854C12.1734 15.8575 11.485 15.7688 10.8175 15.5902C10.113 15.4043 9.44912 15.0895 8.85944 14.6615C7.84417 13.889 7.17169 12.7496 6.98597 11.4874C6.88392 10.8671 6.88233 10.2344 6.98125 9.61362C7.07751 8.99122 7.27614 8.38905 7.56909 7.83154C7.83668 7.32553 8.19078 6.87027 8.61535 6.48635C9.03041 6.11103 9.5035 5.8054 10.0163 5.5813C11.054 5.12708 12.2078 5.00895 13.316 5.24346C15.4975 5.71514 17.1189 7.60189 17.1652 9.73508C17.1652 9.76987 17.1652 9.80525 17.1652 9.84092C17.1652 9.86686 17.1652 9.8928 17.1652 9.91875C17.197 10.5723 17.101 11.2258 16.8828 11.8426C16.7314 12.2695 16.4406 12.633 16.0574 12.8744C15.7471 13.0544 15.3887 13.1339 15.0314 13.102C14.6991 13.0734 14.377 12.9722 14.0881 12.8055C13.5486 12.498 13.2134 12.039 13.2134 11.6068V7.8451C13.2134 7.76691 13.2445 7.69193 13.2997 7.63664C13.355 7.58136 13.43 7.5503 13.5082 7.5503C13.5864 7.5503 13.6614 7.58136 13.7167 7.63664C13.7719 7.69193 13.803 7.76691 13.803 7.8451V11.6059C13.8399 11.757 13.9112 11.8975 14.0113 12.0166C14.1113 12.1357 14.2375 12.2301 14.3799 12.2925C14.5838 12.4222 14.8176 12.4971 15.0589 12.5101C15.3001 12.523 15.5407 12.4736 15.7573 12.3665C16.0271 12.1907 16.2305 11.9297 16.3351 11.6251C16.5238 11.0808 16.6055 10.5052 16.5756 9.92995C16.5756 9.90224 16.5756 9.87423 16.5756 9.84622C16.5756 9.81822 16.5756 9.78196 16.5756 9.74982C16.5282 8.81195 16.1698 7.91659 15.5569 7.20505C14.9441 6.49351 14.1118 6.00632 13.1913 5.82039C12.2043 5.61165 11.1768 5.717 10.2527 6.12168C9.79812 6.32019 9.37869 6.59098 9.01068 6.92354C8.63657 7.26124 8.32447 7.66184 8.08853 8.10718C7.82592 8.60726 7.64791 9.14737 7.56172 9.7056C7.47262 10.264 7.47392 10.833 7.56555 11.391C7.72689 12.502 8.31672 13.5056 9.20879 14.1872C9.73992 14.5719 10.3378 14.8547 10.972 15.0215C11.6184 15.1937 12.2857 15.2753 12.9546 15.2638C13.0327 15.263 13.1081 15.2932 13.164 15.3479C13.2199 15.4026 13.2517 15.4772 13.2526 15.5554C13.2535 15.6336 13.2232 15.7089 13.1685 15.7648C13.1139 15.8207 13.0392 15.8526 12.961 15.8534L12.8643 15.854Z" fill="currentColor"/>
<path d="M11.8104 13.0274C11.5588 13.0248 11.309 12.9844 11.0693 12.9078C10.7299 12.7949 10.4238 12.5997 10.1783 12.3396C9.9329 12.0795 9.75575 11.7626 9.66277 11.4172C9.48871 10.7654 9.5266 10.0751 9.77096 9.44617C10.0141 8.78727 10.5045 8.24909 11.138 7.94592C11.7964 7.67049 12.5307 7.63522 13.2125 7.84627C13.2506 7.85487 13.2867 7.87096 13.3185 7.89361C13.3504 7.91627 13.3774 7.94503 13.398 7.97822C13.4187 8.01142 13.4325 8.04838 13.4387 8.08697C13.4449 8.12556 13.4434 8.165 13.4343 8.203C13.4251 8.241 13.4085 8.27679 13.3853 8.3083C13.3622 8.33981 13.333 8.36641 13.2995 8.38654C13.266 8.40668 13.2289 8.41995 13.1902 8.42558C13.1515 8.43122 13.1121 8.42911 13.0742 8.41937C12.5214 8.24102 11.9233 8.26293 11.385 8.48128C10.8903 8.72093 10.5084 9.14392 10.3205 9.66049C10.1216 10.17 10.09 10.7296 10.2303 11.2583C10.2961 11.509 10.423 11.7395 10.5997 11.9292C10.7763 12.1188 10.9972 12.2618 11.2426 12.3453C11.4378 12.4205 11.6471 12.4523 11.8558 12.4384C12.0646 12.4245 12.2678 12.3653 12.4513 12.2648C12.7653 12.0526 13.0037 11.7462 13.1323 11.3898C13.1473 11.3541 13.1691 11.3217 13.1966 11.2944C13.224 11.2671 13.2566 11.2455 13.2924 11.2308C13.3282 11.2162 13.3666 11.2087 13.4053 11.2088C13.444 11.2089 13.4823 11.2167 13.5181 11.2316C13.5538 11.2466 13.5862 11.2684 13.6135 11.2959C13.6407 11.3234 13.6623 11.3559 13.677 11.3918C13.6917 11.4276 13.6992 11.4659 13.6991 11.5047C13.6989 11.5434 13.6912 11.5817 13.6762 11.6174C13.5004 12.0889 13.1784 12.4917 12.7573 12.7671C12.4721 12.9405 12.1441 13.0307 11.8104 13.0274Z" fill="currentColor"/>
</svg>
