<svg width="24" height="24" viewBox="0 0 24 24" fill="none" xmlns="http://www.w3.org/2000/svg">
<path d="M20.6018 5.87567H20.0122V3.06003L17.5418 0.589601H9.27411V5.87567H8.68451V0.294801C8.68451 0.216615 8.71557 0.141631 8.77086 0.0863449C8.82614 0.031059 8.90112 0 8.97931 0H17.6638C17.742 1.66967e-05 17.817 0.0310867 17.8723 0.0863764L20.5154 2.72956C20.5707 2.78483 20.6018 2.8598 20.6018 2.93798V5.87567Z" fill="currentColor"/>
<path d="M19.173 3.60926H18.0404C17.7624 3.60864 17.4959 3.49793 17.2994 3.30136C17.1028 3.10478 16.9921 2.83835 16.9915 2.56036V1.42773H17.5811V2.56036C17.5811 2.68246 17.6297 2.79954 17.716 2.88588C17.8024 2.97222 17.9194 3.02076 18.0415 3.02084H19.173V3.60926Z" fill="currentColor"/>
<path d="M3.12665 24C2.29808 23.9978 1.50407 23.6677 0.918184 23.0818C0.332294 22.4959 0.00217882 21.7019 0 20.8733V10.6785C0 9.8493 0.329411 9.05402 0.915773 8.46766C1.50213 7.88129 2.29741 7.55188 3.12665 7.55188C3.95589 7.55188 4.75117 7.88129 5.33753 8.46766C5.92389 9.05402 6.25331 9.8493 6.25331 10.6785V20.8733C6.25113 21.7019 5.92102 22.4959 5.33513 23.0818C4.74924 23.6677 3.95522 23.9978 3.12665 24ZM3.12665 8.14148C2.45445 8.14366 1.81041 8.41165 1.3351 8.88697C0.859777 9.36229 0.591778 10.0063 0.589601 10.6785V20.8733C0.589601 21.5462 0.856895 22.1915 1.33268 22.6673C1.80847 23.1431 2.45378 23.4104 3.12665 23.4104C3.79952 23.4104 4.44484 23.1431 4.92063 22.6673C5.39642 22.1915 5.66371 21.5462 5.66371 20.8733V10.6785C5.66154 10.0063 5.39354 9.36229 4.91822 8.88697C4.4429 8.41165 3.79885 8.14366 3.12665 8.14148Z" fill="currentColor"/>
<path d="M22.1946 24H6.79633V23.4104H22.1946C22.5169 23.41 22.8258 23.2818 23.0537 23.054C23.2815 22.8261 23.4097 22.5172 23.4101 22.1949V9.35694C23.4097 9.0347 23.2815 8.72577 23.0537 8.49791C22.8258 8.27005 22.5169 8.14187 22.1946 8.14148H6.79633V7.55188H22.1946C22.6732 7.55243 23.132 7.74278 23.4704 8.08117C23.8088 8.41957 23.9992 8.87838 23.9997 9.35694V22.1949C23.9992 22.6735 23.8088 23.1323 23.4704 23.4707C23.132 23.8091 22.6732 23.9994 22.1946 24Z" fill="currentColor"/>
<path d="M9.20014 9.70752H19.813C19.8911 9.70752 19.9661 9.73858 20.0214 9.79386C20.0767 9.84915 20.1078 9.92413 20.1078 10.0023V12.9503C20.1078 13.0285 20.0767 13.1035 20.0214 13.1588C19.9661 13.2141 19.8911 13.2451 19.813 13.2451H9.20014C9.12195 13.2451 9.04697 13.2141 8.99168 13.1588C8.93639 13.1035 8.90533 13.0285 8.90533 12.9503V10.0023C8.90533 9.92413 8.93639 9.84915 8.99168 9.79386C9.04697 9.73858 9.12195 9.70752 9.20014 9.70752ZM19.5182 10.2971H9.49494V12.6555H19.5182V10.2971Z" fill="currentColor"/>
<path d="M12.1481 18.5515H10.6741C10.5959 18.5515 10.521 18.5205 10.4657 18.4652C10.4104 18.4099 10.3793 18.3349 10.3793 18.2567C10.3793 18.1785 10.4104 18.1035 10.4657 18.0483C10.521 17.993 10.5959 17.9619 10.6741 17.9619H12.1481C12.2263 17.9619 12.3013 17.993 12.3566 18.0483C12.4119 18.1035 12.4429 18.1785 12.4429 18.2567C12.4429 18.3349 12.4119 18.4099 12.3566 18.4652C12.3013 18.5205 12.2263 18.5515 12.1481 18.5515Z" fill="currentColor"/>
<path d="M15.3909 18.5515H13.9169C13.8387 18.5515 13.7638 18.5205 13.7085 18.4652C13.6532 18.4099 13.6221 18.3349 13.6221 18.2567C13.6221 18.1785 13.6532 18.1035 13.7085 18.0483C13.7638 17.993 13.8387 17.9619 13.9169 17.9619H15.3909C15.4691 17.9619 15.5441 17.993 15.5994 18.0483C15.6547 18.1035 15.6857 18.1785 15.6857 18.2567C15.6857 18.3349 15.6547 18.4099 15.5994 18.4652C15.5441 18.5205 15.4691 18.5515 15.3909 18.5515Z" fill="currentColor"/>
<path d="M18.6337 18.5515H17.1597C17.0815 18.5515 17.0066 18.5205 16.9513 18.4652C16.896 18.4099 16.8649 18.3349 16.8649 18.2567C16.8649 18.1785 16.896 18.1035 16.9513 18.0483C17.0066 17.993 17.0815 17.9619 17.1597 17.9619H18.6337C18.7119 17.9619 18.7869 17.993 18.8422 18.0483C18.8975 18.1035 18.9285 18.1785 18.9285 18.2567C18.9285 18.3349 18.8975 18.4099 18.8422 18.4652C18.7869 18.5205 18.7119 18.5515 18.6337 18.5515Z" fill="currentColor"/>
<path d="M12.1481 21.2047H10.6741C10.5959 21.2047 10.521 21.1737 10.4657 21.1184C10.4104 21.0631 10.3793 20.9881 10.3793 20.9099C10.3793 20.8317 10.4104 20.7567 10.4657 20.7015C10.521 20.6462 10.5959 20.6151 10.6741 20.6151H12.1481C12.2263 20.6151 12.3013 20.6462 12.3566 20.7015C12.4119 20.7567 12.4429 20.8317 12.4429 20.9099C12.4429 20.9881 12.4119 21.0631 12.3566 21.1184C12.3013 21.1737 12.2263 21.2047 12.1481 21.2047Z" fill="currentColor"/>
<path d="M15.3909 21.2047H13.9169C13.8387 21.2047 13.7638 21.1737 13.7085 21.1184C13.6532 21.0631 13.6221 20.9881 13.6221 20.9099C13.6221 20.8317 13.6532 20.7567 13.7085 20.7015C13.7638 20.6462 13.8387 20.6151 13.9169 20.6151H15.3909C15.4691 20.6151 15.5441 20.6462 15.5994 20.7015C15.6547 20.7567 15.6857 20.8317 15.6857 20.9099C15.6857 20.9881 15.6547 21.0631 15.5994 21.1184C15.5441 21.1737 15.4691 21.2047 15.3909 21.2047Z" fill="currentColor"/>
<path d="M18.6337 21.2047H17.1597C17.0815 21.2047 17.0066 21.1737 16.9513 21.1184C16.896 21.0631 16.8649 20.9881 16.8649 20.9099C16.8649 20.8317 16.896 20.7567 16.9513 20.7015C17.0066 20.6462 17.0815 20.6151 17.1597 20.6151H18.6337C18.7119 20.6151 18.7869 20.6462 18.8422 20.7015C18.8975 20.7567 18.9285 20.8317 18.9285 20.9099C18.9285 20.9881 18.8975 21.0631 18.8422 21.1184C18.7869 21.1737 18.7119 21.2047 18.6337 21.2047Z" fill="currentColor"/>
<path d="M12.1481 15.0139H10.6741C10.5959 15.0139 10.521 14.9829 10.4657 14.9276C10.4104 14.8723 10.3793 14.7973 10.3793 14.7191C10.3793 14.6409 10.4104 14.5659 10.4657 14.5107C10.521 14.4554 10.5959 14.4243 10.6741 14.4243H12.1481C12.2263 14.4243 12.3013 14.4554 12.3566 14.5107C12.4119 14.5659 12.4429 14.6409 12.4429 14.7191C12.4429 14.7973 12.4119 14.8723 12.3566 14.9276C12.3013 14.9829 12.2263 15.0139 12.1481 15.0139Z" fill="currentColor"/>
<path d="M15.3909 15.0139H13.9169C13.8387 15.0139 13.7638 14.9829 13.7085 14.9276C13.6532 14.8723 13.6221 14.7973 13.6221 14.7191C13.6221 14.6409 13.6532 14.5659 13.7085 14.5107C13.7638 14.4554 13.8387 14.4243 13.9169 14.4243H15.3909C15.4691 14.4243 15.5441 14.4554 15.5994 14.5107C15.6547 14.5659 15.6857 14.6409 15.6857 14.7191C15.6857 14.7973 15.6547 14.8723 15.5994 14.9276C15.5441 14.9829 15.4691 15.0139 15.3909 15.0139Z" fill="currentColor"/>
<path d="M18.6337 15.0139H17.1597C17.0815 15.0139 17.0066 14.9829 16.9513 14.9276C16.896 14.8723 16.8649 14.7973 16.8649 14.7191C16.8649 14.6409 16.896 14.5659 16.9513 14.5107C17.0066 14.4554 17.0815 14.4243 17.1597 14.4243H18.6337C18.7119 14.4243 18.7869 14.4554 18.8422 14.5107C18.8975 14.5659 18.9285 14.6409 18.9285 14.7191C18.9285 14.7973 18.8975 14.8723 18.8422 14.9276C18.7869 14.9829 18.7119 15.0139 18.6337 15.0139Z" fill="currentColor"/>
</svg>
