<svg width="25" height="24" viewBox="0 0 25 24" fill="none" xmlns="http://www.w3.org/2000/svg">
<path d="M11.9999 12.2963H7.91653C7.85841 12.2963 7.80156 12.2792 7.75308 12.2471C7.70459 12.2151 7.66659 12.1695 7.64382 12.116C7.62105 12.0625 7.6145 12.0035 7.62499 11.9464C7.63548 11.8892 7.66255 11.8364 7.70283 11.7945C7.99635 11.4895 8.19371 11.105 8.27033 10.6888C8.34695 10.2725 8.29946 9.8429 8.13377 9.45343C7.96808 9.06396 7.6915 8.73183 7.33846 8.49836C6.98543 8.2649 6.57153 8.14042 6.14828 8.14042C5.72503 8.14042 5.31113 8.2649 4.95809 8.49836C4.60505 8.73183 4.32848 9.06396 4.16278 9.45343C3.99709 9.8429 3.9496 10.2725 4.02622 10.6888C4.10285 11.105 4.3002 11.4895 4.59372 11.7945C4.634 11.8364 4.66107 11.8892 4.67156 11.9464C4.68205 12.0035 4.67551 12.0625 4.65273 12.116C4.62996 12.1695 4.59197 12.2151 4.54348 12.2471C4.49499 12.2792 4.43815 12.2963 4.38002 12.2963H0.296388V11.7035H3.78369C3.53588 11.286 3.40304 10.8103 3.39865 10.3248C3.39426 9.8393 3.51849 9.36129 3.75871 8.93937C3.99893 8.51744 4.34658 8.16664 4.76631 7.92262C5.18605 7.67859 5.66291 7.55005 6.14842 7.55005C6.63394 7.55005 7.1108 7.67859 7.53054 7.92262C7.95027 8.16664 8.29792 8.51744 8.53814 8.93937C8.77836 9.36129 8.90259 9.8393 8.8982 10.3248C8.89381 10.8103 8.76097 11.286 8.51316 11.7035H11.7035V7.91653C11.7035 7.85841 11.7206 7.80157 11.7526 7.75308C11.7847 7.70459 11.8303 7.66659 11.8837 7.64382C11.9372 7.62105 11.9962 7.6145 12.0534 7.62499C12.1105 7.63548 12.1634 7.66255 12.2053 7.70283C12.5102 7.99635 12.8947 8.19371 13.311 8.27033C13.7272 8.34695 14.1568 8.29946 14.5463 8.13377C14.9358 7.96808 15.2679 7.6915 15.5014 7.33846C15.7348 6.98543 15.8593 6.57153 15.8593 6.14828C15.8593 5.72503 15.7348 5.31113 15.5014 4.95809C15.2679 4.60505 14.9358 4.32848 14.5463 4.16278C14.1568 3.99709 13.7272 3.9496 13.311 4.02623C12.8947 4.10285 12.5102 4.3002 12.2053 4.59372C12.1634 4.634 12.1105 4.66107 12.0534 4.67156C11.9962 4.68206 11.9372 4.67551 11.8837 4.65273C11.8303 4.62996 11.7847 4.59197 11.7526 4.54348C11.7206 4.49499 11.7035 4.43815 11.7035 4.38002V0.592776H1.80797C1.48568 0.592776 1.17659 0.720804 0.948698 0.948697C0.720805 1.17659 0.592776 1.48568 0.592776 1.80797V9.73665H0V1.80797C0 1.32846 0.190482 0.868602 0.529542 0.529542C0.868601 0.190483 1.32847 0 1.80797 0H11.9999C12.0785 0 12.1539 0.0312263 12.2094 0.0868099C12.265 0.142393 12.2963 0.217781 12.2963 0.296388V3.78369C12.7138 3.53588 13.1895 3.40304 13.6749 3.39865C14.1604 3.39426 14.6384 3.51849 15.0604 3.75871C15.4823 3.99893 15.8331 4.34658 16.0771 4.76631C16.3211 5.18605 16.4497 5.66291 16.4497 6.14842C16.4497 6.63394 16.3211 7.1108 16.0771 7.53054C15.8331 7.95027 15.4823 8.29792 15.0604 8.53814C14.6384 8.77836 14.1604 8.90259 13.6749 8.8982C13.1895 8.89382 12.7138 8.76097 12.2963 8.51316V11.9999C12.2963 12.0785 12.265 12.1539 12.2094 12.2094C12.1539 12.265 12.0785 12.2963 11.9999 12.2963Z" fill="currentColor"/>
<path d="M17.8509 16.4495C17.3655 16.4495 16.8887 16.321 16.4691 16.077C16.0494 15.833 15.7019 15.4822 15.4617 15.0604C15.2216 14.6385 15.0974 14.1606 15.1018 13.6752C15.1063 13.1898 15.2391 12.7143 15.4869 12.2968H12.0002C11.9216 12.2968 11.8462 12.2656 11.7906 12.21C11.735 12.1545 11.7038 12.0791 11.7038 12.0005V7.91653C11.7038 7.85841 11.7209 7.80157 11.7529 7.75308C11.785 7.70459 11.8306 7.66659 11.8841 7.64382C11.9375 7.62105 11.9965 7.6145 12.0537 7.62499C12.1109 7.63548 12.1637 7.66255 12.2056 7.70283C12.5105 7.99635 12.895 8.19371 13.3113 8.27033C13.7276 8.34695 14.1572 8.29946 14.5466 8.13377C14.9361 7.96808 15.2682 7.6915 15.5017 7.33846C15.7352 6.98543 15.8596 6.57153 15.8596 6.14828C15.8596 5.72503 15.7352 5.31113 15.5017 4.95809C15.2682 4.60505 14.9361 4.32848 14.5466 4.16278C14.1572 3.99709 13.7276 3.9496 13.3113 4.02623C12.895 4.10285 12.5105 4.3002 12.2056 4.59372C12.1637 4.63402 12.1108 4.66109 12.0536 4.67158C11.9964 4.68206 11.9374 4.67548 11.8839 4.65267C11.8304 4.62986 11.7848 4.59183 11.7528 4.54329C11.7208 4.49476 11.7037 4.43788 11.7038 4.37973V0.296388H12.2966V3.78369C12.7141 3.53588 13.1898 3.40304 13.6753 3.39865C14.1608 3.39426 14.6388 3.51849 15.0607 3.75871C15.4826 3.99893 15.8334 4.34658 16.0774 4.76631C16.3215 5.18605 16.45 5.66291 16.45 6.14842C16.45 6.63394 16.3215 7.1108 16.0774 7.53054C15.8334 7.95027 15.4826 8.29792 15.0607 8.53814C14.6388 8.77836 14.1608 8.90259 13.6753 8.8982C13.1898 8.89382 12.7141 8.76097 12.2966 8.51316V11.7035H16.0835C16.1416 11.7035 16.1985 11.7206 16.247 11.7526C16.2955 11.7847 16.3335 11.8303 16.3562 11.8837C16.379 11.9372 16.3856 11.9962 16.3751 12.0534C16.3646 12.1105 16.3375 12.1634 16.2972 12.2053C16.0037 12.5102 15.8063 12.8947 15.7297 13.311C15.6531 13.7272 15.7006 14.1568 15.8663 14.5463C16.032 14.9358 16.3086 15.2679 16.6616 15.5014C17.0146 15.7348 17.4285 15.8593 17.8518 15.8593C18.275 15.8593 18.6889 15.7348 19.042 15.5014C19.395 15.2679 19.6716 14.9358 19.8373 14.5463C20.003 14.1568 20.0505 13.7272 19.9738 13.311C19.8972 12.8947 19.6999 12.5102 19.4063 12.2053C19.3661 12.1634 19.339 12.1105 19.3285 12.0534C19.318 11.9962 19.3245 11.9372 19.3473 11.8837C19.3701 11.8303 19.4081 11.7847 19.4566 11.7526C19.5051 11.7206 19.5619 11.7035 19.62 11.7035H23.4073V1.80797C23.4073 1.48568 23.2792 1.17659 23.0514 0.948697C22.8235 0.720804 22.5144 0.592776 22.1921 0.592776H14.2649V0H22.1936C22.6731 0 23.1329 0.190483 23.472 0.529542C23.8111 0.868602 24.0015 1.32846 24.0015 1.80797V12.0014C24.0015 12.08 23.9703 12.1553 23.9147 12.2109C23.8591 12.2665 23.7838 12.2977 23.7051 12.2977H20.2164C20.4575 12.7132 20.5863 13.1842 20.59 13.6645C20.5937 14.1449 20.4722 14.6179 20.2375 15.037C20.0028 15.4561 19.663 15.8068 19.2515 16.0546C18.84 16.3024 18.3711 16.4387 17.8909 16.4501L17.8509 16.4495Z" fill="currentColor"/>
<path d="M22.1924 23.9996H12.0002C11.9216 23.9996 11.8462 23.9684 11.7906 23.9128C11.735 23.8572 11.7038 23.7818 11.7038 23.7032V20.2159C11.2863 20.4637 10.8106 20.5966 10.3251 20.601C9.8396 20.6054 9.3616 20.4811 8.93967 20.2409C8.51775 20.0007 8.16695 19.6531 7.92292 19.2333C7.6789 18.8136 7.55035 18.3367 7.55035 17.8512C7.55035 17.3657 7.6789 16.8888 7.92292 16.4691C8.16695 16.0494 8.51775 15.7017 8.93967 15.4615C9.3616 15.2213 9.8396 15.097 10.3251 15.1014C10.8106 15.1058 11.2863 15.2387 11.7038 15.4865V11.9998C11.7038 11.9212 11.735 11.8458 11.7906 11.7902C11.8462 11.7346 11.9216 11.7034 12.0002 11.7034H16.0835C16.1416 11.7034 16.1985 11.7205 16.247 11.7525C16.2955 11.7846 16.3334 11.8302 16.3562 11.8836C16.379 11.9371 16.3855 11.9961 16.3751 12.0533C16.3646 12.1104 16.3375 12.1632 16.2972 12.2052C16.0037 12.5101 15.8063 12.8946 15.7297 13.3109C15.6531 13.7271 15.7006 14.1567 15.8663 14.5462C16.032 14.9357 16.3085 15.2678 16.6616 15.5013C17.0146 15.7347 17.4285 15.8592 17.8518 15.8592C18.275 15.8592 18.6889 15.7347 19.042 15.5013C19.395 15.2678 19.6716 14.9357 19.8373 14.5462C20.003 14.1567 20.0504 13.7271 19.9738 13.3109C19.8972 12.8946 19.6998 12.5101 19.4063 12.2052C19.366 12.1632 19.339 12.1104 19.3285 12.0532C19.318 11.996 19.3246 11.937 19.3474 11.8835C19.3702 11.83 19.4082 11.7844 19.4568 11.7524C19.5053 11.7204 19.5622 11.7033 19.6203 11.7034H23.704V12.2961H20.2164C20.4642 12.7137 20.597 13.1893 20.6014 13.6748C20.6058 14.1603 20.4816 14.6383 20.2413 15.0603C20.0011 15.4822 19.6535 15.833 19.2337 16.077C18.814 16.321 18.3371 16.4496 17.8516 16.4496C17.3661 16.4496 16.8892 16.321 16.4695 16.077C16.0498 15.833 15.7021 15.4822 15.4619 15.0603C15.2217 14.6383 15.0975 14.1603 15.1018 13.6748C15.1062 13.1893 15.2391 12.7137 15.4869 12.2961H12.2966V16.0831C12.2966 16.1412 12.2795 16.1981 12.2474 16.2465C12.2154 16.295 12.1698 16.333 12.1163 16.3558C12.0628 16.3786 12.0038 16.3851 11.9467 16.3746C11.8895 16.3641 11.8367 16.3371 11.7948 16.2968C11.4898 16.0033 11.1053 15.806 10.6891 15.7294C10.2728 15.6528 9.84324 15.7003 9.45379 15.866C9.06435 16.0318 8.73224 16.3083 8.49879 16.6614C8.26535 17.0144 8.14088 17.4283 8.14088 17.8515C8.14088 18.2747 8.26535 18.6886 8.49879 19.0416C8.73224 19.3947 9.06435 19.6712 9.45379 19.8369C9.84324 20.0027 10.2728 20.0502 10.6891 19.9736C11.1053 19.897 11.4898 19.6997 11.7948 19.4062C11.8367 19.3659 11.8895 19.3389 11.9467 19.3284C12.0038 19.3179 12.0628 19.3244 12.1163 19.3472C12.1698 19.37 12.2154 19.408 12.2474 19.4564C12.2795 19.5049 12.2966 19.5618 12.2966 19.6199V23.4069H22.1924C22.5147 23.4069 22.8238 23.2788 23.0516 23.0509C23.2795 22.823 23.4076 22.5139 23.4076 22.1917V14.2651H24.0003V22.1931C23.9999 22.6724 23.8093 23.1319 23.4703 23.4706C23.1313 23.8093 22.6716 23.9996 22.1924 23.9996Z" fill="currentColor"/>
<path d="M9.73487 24H1.80797C1.32847 24 0.868601 23.8096 0.529542 23.4705C0.190482 23.1314 0 22.6716 0 22.1921L0 11.9999C0 11.9213 0.0312265 11.8459 0.0868101 11.7903C0.142394 11.7347 0.217781 11.7035 0.296388 11.7035H3.78369C3.53588 11.286 3.40304 10.8103 3.39865 10.3248C3.39426 9.8393 3.51849 9.36129 3.75871 8.93937C3.99893 8.51744 4.34658 8.16664 4.76631 7.92262C5.18605 7.6786 5.66291 7.55005 6.14842 7.55005C6.63394 7.55005 7.1108 7.6786 7.53054 7.92262C7.95027 8.16664 8.29792 8.51744 8.53814 8.93937C8.77836 9.36129 8.90259 9.8393 8.8982 10.3248C8.89381 10.8103 8.76097 11.286 8.51316 11.7035H11.9999C12.0785 11.7035 12.1539 11.7347 12.2094 11.7903C12.265 11.8459 12.2963 11.9213 12.2963 11.9999V16.0832C12.2963 16.1413 12.2792 16.1982 12.2471 16.2467C12.2151 16.2952 12.1695 16.3331 12.116 16.3559C12.0625 16.3787 12.0035 16.3852 11.9464 16.3747C11.8892 16.3643 11.8364 16.3372 11.7945 16.2969C11.4895 16.0034 11.105 15.8061 10.6887 15.7295C10.2725 15.6529 9.84293 15.7005 9.45349 15.8662C9.06404 16.0319 8.73193 16.3084 8.49849 16.6615C8.26504 17.0145 8.14057 17.4284 8.14057 17.8516C8.14057 18.2748 8.26504 18.6887 8.49849 19.0418C8.73193 19.3948 9.06404 19.6714 9.45349 19.8371C9.84293 20.0028 10.2725 20.0503 10.6887 19.9737C11.105 19.8971 11.4895 19.6998 11.7945 19.4063C11.8364 19.366 11.8892 19.339 11.9464 19.3285C12.0035 19.318 12.0625 19.3245 12.116 19.3473C12.1695 19.3701 12.2151 19.4081 12.2471 19.4566C12.2792 19.505 12.2963 19.5619 12.2963 19.62V23.7036H11.7035V20.216C11.286 20.4639 10.8103 20.5967 10.3248 20.6011C9.8393 20.6055 9.36129 20.4813 8.93937 20.241C8.51744 20.0008 8.16664 19.6532 7.92262 19.2334C7.67859 18.8137 7.55005 18.3368 7.55005 17.8513C7.55005 17.3658 7.67859 16.8889 7.92262 16.4692C8.16664 16.0495 8.51744 15.7018 8.93937 15.4616C9.36129 15.2214 9.8393 15.0972 10.3248 15.1015C10.8103 15.1059 11.286 15.2388 11.7035 15.4866V12.2963H7.91653C7.85841 12.2963 7.80156 12.2792 7.75308 12.2471C7.70459 12.2151 7.66659 12.1695 7.64382 12.116C7.62105 12.0625 7.6145 12.0035 7.62499 11.9464C7.63548 11.8892 7.66255 11.8364 7.70283 11.7945C7.99635 11.4895 8.19371 11.105 8.27033 10.6888C8.34695 10.2725 8.29946 9.8429 8.13377 9.45343C7.96808 9.06396 7.6915 8.73183 7.33846 8.49836C6.98543 8.2649 6.57153 8.14042 6.14828 8.14042C5.72503 8.14042 5.31113 8.2649 4.95809 8.49836C4.60505 8.73183 4.32848 9.06396 4.16278 9.45343C3.99709 9.8429 3.9496 10.2725 4.02622 10.6888C4.10285 11.105 4.3002 11.4895 4.59372 11.7945C4.634 11.8364 4.66107 11.8892 4.67156 11.9464C4.68205 12.0035 4.67551 12.0625 4.65273 12.116C4.62996 12.1695 4.59197 12.2151 4.54348 12.2471C4.49499 12.2792 4.43815 12.2963 4.38002 12.2963H0.592776V22.1921C0.592776 22.5144 0.720805 22.8234 0.948698 23.0513C1.17659 23.2792 1.48568 23.4073 1.80797 23.4073H9.73487V24Z" fill="currentColor"/>
</svg>
