<svg width="24" height="25" viewBox="0 0 24 25" fill="none" xmlns="http://www.w3.org/2000/svg">
<path fill-rule="evenodd" clip-rule="evenodd" d="M0.529377 0.529377C0.868331 0.190423 1.32805 0 1.8074 0H12C12.1642 0 12.2974 0.133136 12.2974 0.297368V3.78206C12.6768 3.55668 13.108 3.42462 13.555 3.4014L13.559 3.40119L13.559 3.40122C13.9268 3.38712 14.2938 3.44608 14.6387 3.57469C14.9835 3.70329 15.2995 3.89899 15.5683 4.15046C15.8371 4.40194 16.0533 4.7042 16.2046 5.03978C16.3558 5.37535 16.439 5.73757 16.4494 6.10551L16.4495 6.10943L16.4495 6.10943C16.4576 6.65219 16.3049 7.18522 16.0106 7.64133C15.7163 8.09744 15.2935 8.45621 14.7956 8.67241C14.2977 8.88861 13.7469 8.95258 13.2127 8.85624C12.888 8.79767 12.5782 8.68147 12.2974 8.51478V12C12.2974 12.1642 12.1642 12.2974 12 12.2974H7.91684C7.79758 12.2974 7.68987 12.2261 7.64319 12.1164C7.59652 12.0066 7.61991 11.8796 7.70263 11.7937C7.9977 11.4873 8.19544 11.1004 8.27094 10.6817C8.34644 10.2631 8.29632 9.83148 8.12689 9.44128C7.95745 9.05108 7.6763 8.71977 7.31886 8.48912C6.96198 8.25882 6.545 8.13916 6.12033 8.14515C5.83164 8.15355 5.54746 8.21897 5.28414 8.33764C5.02024 8.45658 4.78252 8.62666 4.58475 8.83804C4.38698 9.04942 4.23308 9.29791 4.13194 9.56914C4.03104 9.83973 3.98465 10.1276 3.99544 10.4162C4.02274 10.9324 4.23544 11.4215 4.59449 11.7935C4.67736 11.8793 4.70088 12.0064 4.65425 12.1162C4.60761 12.2261 4.49985 12.2974 4.38053 12.2974H0.297368V11.7026H3.78206C3.55668 11.3232 3.42462 10.892 3.4014 10.445L3.40119 10.441L3.40122 10.441C3.38712 10.0732 3.44608 9.70622 3.57469 9.36134C3.70329 9.01646 3.89899 8.70049 4.15046 8.43171C4.40194 8.16293 4.7042 7.94667 5.03977 7.79543C5.37535 7.64419 5.73757 7.56097 6.10551 7.5506L6.10943 7.55049L6.10943 7.55051C6.65219 7.54236 7.18523 7.69507 7.64133 7.9894C8.09744 8.28372 8.45621 8.70649 8.67241 9.2044C8.88862 9.70232 8.95258 10.2531 8.85624 10.7873C8.79767 11.112 8.68147 11.4218 8.51478 11.7026H11.7026V7.91684C11.7026 7.79758 11.7739 7.68987 11.8836 7.64319C11.9934 7.59652 12.1204 7.61991 12.2063 7.70263C12.5127 7.9977 12.8996 8.19544 13.3183 8.27094C13.7369 8.34644 14.1685 8.29632 14.5587 8.12688C14.9489 7.95745 15.2802 7.6763 15.5109 7.31886C15.7412 6.96199 15.8608 6.54502 15.8549 6.12037C15.8465 5.83167 15.781 5.54747 15.6624 5.28414C15.5434 5.02024 15.3733 4.78252 15.162 4.58475C14.9506 4.38698 14.7021 4.23308 14.4309 4.13194C14.1603 4.03104 13.8724 3.98465 13.5838 3.99544C13.0676 4.02274 12.5785 4.23544 12.2065 4.59449C12.1207 4.67736 11.9936 4.70088 11.8838 4.65425C11.774 4.60761 11.7026 4.49985 11.7026 4.38053V0.594737H1.8074C1.48579 0.594737 1.17734 0.7225 0.949919 0.949919C0.7225 1.17734 0.594737 1.48579 0.594737 1.80741V9.73524H0V1.80741C0 1.32805 0.190422 0.868331 0.529377 0.529377Z" fill="currentColor"/>
<path fill-rule="evenodd" clip-rule="evenodd" d="M14.2648 0H22.1926C22.6719 0 23.1317 0.190423 23.4706 0.529377C23.8096 0.868332 24 1.32805 24 1.80741V12C24 12.1642 23.8669 12.2974 23.7026 12.2974H20.2179C20.4433 12.6768 20.5754 13.108 20.5986 13.555L20.5988 13.559L20.5988 13.559C20.6129 13.9268 20.5539 14.2938 20.4253 14.6387C20.2967 14.9835 20.101 15.2995 19.8495 15.5683C19.5981 15.8371 19.2958 16.0533 18.9602 16.2046C18.6247 16.3558 18.2624 16.439 17.8945 16.4494L17.8906 16.4495L17.8906 16.4495C17.3478 16.4576 16.8148 16.3049 16.3587 16.0106C15.9026 15.7163 15.5438 15.2935 15.3276 14.7956C15.1114 14.2977 15.0474 13.7469 15.1438 13.2127C15.2023 12.888 15.3185 12.5782 15.4852 12.2974H12C11.8358 12.2974 11.7026 12.1642 11.7026 12V7.91684C11.7026 7.79758 11.7739 7.68987 11.8836 7.64319C11.9934 7.59652 12.1204 7.61992 12.2063 7.70263C12.5127 7.9977 12.8996 8.19544 13.3183 8.27094C13.7369 8.34644 14.1685 8.29632 14.5587 8.12688C14.9489 7.95745 15.2802 7.6763 15.5109 7.31886C15.7412 6.96197 15.8608 6.54498 15.8548 6.12031C15.8464 5.83163 15.781 5.54745 15.6624 5.28414C15.5434 5.02024 15.3733 4.78252 15.162 4.58475C14.9506 4.38698 14.7021 4.23308 14.4309 4.13194C14.1603 4.03104 13.8724 3.98465 13.5838 3.99544C13.0676 4.02274 12.5785 4.23544 12.2065 4.59449C12.1207 4.67736 11.9936 4.70088 11.8838 4.65425C11.774 4.60761 11.7026 4.49985 11.7026 4.38053V0.297368H12.2974V3.78206C12.6768 3.55668 13.108 3.42462 13.555 3.4014L13.559 3.40119L13.559 3.40122C13.9268 3.38712 14.2938 3.44608 14.6387 3.57469C14.9835 3.70329 15.2995 3.89899 15.5683 4.15046C15.8371 4.40194 16.0533 4.7042 16.2046 5.03978C16.3558 5.37535 16.439 5.73757 16.4494 6.10551L16.4495 6.10943L16.4495 6.10943C16.4576 6.65219 16.3049 7.18523 16.0106 7.64133C15.7163 8.09744 15.2935 8.45621 14.7956 8.67241C14.2977 8.88861 13.7469 8.95258 13.2127 8.85624C12.888 8.79768 12.5782 8.68147 12.2974 8.51478V11.7026H16.0832C16.2024 11.7026 16.3101 11.7739 16.3568 11.8836C16.4035 11.9934 16.3801 12.1204 16.2974 12.2063C16.0023 12.5127 15.8046 12.8996 15.7291 13.3183C15.6536 13.7369 15.7037 14.1685 15.8731 14.5587C16.0425 14.9489 16.3237 15.2802 16.6811 15.5109C17.038 15.7412 17.455 15.8608 17.8796 15.8549C18.1683 15.8465 18.4525 15.781 18.7159 15.6624C18.9798 15.5434 19.2175 15.3733 19.4152 15.162C19.613 14.9506 19.7669 14.7021 19.8681 14.4309C19.969 14.1603 20.0153 13.8724 20.0046 13.5838C19.9773 13.0676 19.7646 12.5785 19.4055 12.2065C19.3226 12.1207 19.2991 11.9936 19.3458 11.8838C19.3924 11.774 19.5002 11.7026 19.6195 11.7026H23.4053V1.80741C23.4053 1.48578 23.2775 1.17734 23.0501 0.949919C22.8227 0.7225 22.5142 0.594737 22.1926 0.594737H14.2648V0Z" fill="currentColor"/>
<path fill-rule="evenodd" clip-rule="evenodd" d="M11.7027 12C11.7027 11.8358 11.8358 11.7026 12 11.7026H16.0832C16.2024 11.7026 16.3102 11.7739 16.3568 11.8836C16.4035 11.9934 16.3801 12.1204 16.2974 12.2063C16.0023 12.5127 15.8045 12.8997 15.729 13.3184C15.6536 13.7371 15.7037 14.1688 15.8732 14.559C16.0427 14.9492 16.324 15.2805 16.6815 15.5111C17.0385 15.7414 17.4555 15.861 17.8802 15.8549C18.1689 15.8464 18.4531 15.781 18.7164 15.6623C18.9802 15.5433 19.2179 15.3733 19.4157 15.1619C19.6134 14.9505 19.7673 14.702 19.8684 14.4308C19.9693 14.1602 20.0157 13.8724 20.0049 13.5838C19.9776 13.0676 19.7649 12.5785 19.4058 12.2065C19.323 12.1207 19.2994 11.9936 19.3461 11.8838C19.3927 11.774 19.5005 11.7026 19.6198 11.7026H23.7027V12.2974H20.2183C20.4436 12.6768 20.5757 13.108 20.5989 13.555L20.5991 13.559L20.5991 13.559C20.6132 13.9268 20.5542 14.2937 20.4257 14.6386C20.2971 14.9834 20.1014 15.2994 19.85 15.5682C19.5985 15.837 19.2963 16.0532 18.9608 16.2045C18.6252 16.3557 18.263 16.439 17.8951 16.4494L17.8913 16.4495L17.8913 16.4495C17.3484 16.4578 16.8153 16.3052 16.3591 16.0109C15.9029 15.7166 15.544 15.2939 15.3277 14.7959C15.1114 14.298 15.0474 13.7471 15.1437 13.2129C15.2023 12.8881 15.3185 12.5783 15.4852 12.2974H12.2974V16.0832C12.2974 16.2024 12.2261 16.3102 12.1164 16.3568C12.0066 16.4035 11.8796 16.3801 11.7937 16.2973C11.4872 16.0021 11.1001 15.8042 10.6813 15.7287C10.2624 15.6532 9.83063 15.7034 9.44031 15.8731C9.04999 16.0427 8.71866 16.3242 8.48812 16.6819C8.25791 17.0391 8.13849 17.4564 8.14487 17.8813C8.1533 18.17 8.21874 18.4542 8.33744 18.7175C8.45639 18.9814 8.62648 19.2191 8.83785 19.4168C9.04923 19.6146 9.29771 19.7685 9.56892 19.8696C9.8395 19.9705 10.1273 20.0168 10.4159 20.006C10.9322 19.9788 11.4212 19.7661 11.7932 19.407C11.8791 19.3241 12.0061 19.3006 12.116 19.3472C12.2258 19.3939 12.2971 19.5016 12.2971 19.621V23.4068H22.1926C22.3519 23.4068 22.5096 23.3754 22.6567 23.3144C22.8038 23.2535 22.9375 23.1642 23.0501 23.0516C23.1627 22.939 23.252 22.8053 23.313 22.6582C23.3739 22.511 23.4053 22.3533 23.4053 22.1941V14.2651H24V22.1941C24 22.4314 23.9533 22.6665 23.8624 22.8858C23.7716 23.105 23.6385 23.3043 23.4706 23.4721C23.3028 23.6399 23.1036 23.7731 22.8843 23.8639C22.665 23.9547 22.43 24.0015 22.1926 24.0015H11.9997C11.8355 24.0015 11.7024 23.8684 11.7024 23.7041V20.2194C11.3229 20.4448 10.8918 20.5769 10.4447 20.6001L10.4407 20.6003L10.4407 20.6003C10.0729 20.6144 9.706 20.5554 9.36114 20.4268C9.01628 20.2983 8.70033 20.1026 8.43155 19.8511C8.16277 19.5997 7.94651 19.2975 7.79525 18.9619C7.64399 18.6264 7.56074 18.2642 7.55032 17.8963L7.55022 17.8926L7.55024 17.8926C7.54162 17.3496 7.69402 16.8162 7.9882 16.3597C8.28239 15.9032 8.70518 15.5441 9.20325 15.3276C9.70131 15.1112 10.2523 15.0471 10.7868 15.1434C11.1117 15.202 11.4217 15.3183 11.7027 15.4851V12Z" fill="currentColor"/>
<path fill-rule="evenodd" clip-rule="evenodd" d="M6.10906 7.54989C6.65192 7.5416 7.18508 7.69424 7.64131 7.98856C8.09754 8.28287 8.45641 8.70569 8.67267 9.20368C8.88893 9.70168 8.95289 10.2526 8.8565 10.7869C8.7979 11.1116 8.68165 11.4214 8.51489 11.7023H12C12.1642 11.7023 12.2974 11.8354 12.2974 11.9997V16.0831C12.2974 16.2024 12.2261 16.3101 12.1164 16.3568C12.0066 16.4035 11.8796 16.3801 11.7937 16.2973C11.4873 16.0023 11.1003 15.8045 10.6817 15.729C10.263 15.6535 9.83137 15.7037 9.44116 15.8731C9.05095 16.0426 8.71964 16.3238 8.48901 16.6813C8.25873 17.0382 8.13911 17.4552 8.14515 17.8799C8.15359 18.1686 8.21903 18.4527 8.33771 18.716C8.45667 18.9799 8.62675 19.2176 8.83813 19.4153C9.0495 19.613 9.29798 19.7669 9.56919 19.8681C9.83978 19.9689 10.1277 20.0153 10.4162 20.0045C10.9324 19.9772 11.4215 19.7645 11.7935 19.4055C11.8793 19.3226 12.0064 19.2991 12.1162 19.3457C12.2261 19.3924 12.2974 19.5001 12.2974 19.6194V23.7023H11.7026V20.2179C11.3232 20.4433 10.892 20.5754 10.445 20.5986L10.441 20.5988L10.441 20.5988C10.0732 20.6128 9.70627 20.5539 9.36141 20.4253C9.01655 20.2967 8.7006 20.1011 8.43183 19.8496C8.16305 19.5982 7.94678 19.296 7.79552 18.9604C7.64427 18.6249 7.56102 18.2627 7.5506 17.8948L7.55049 17.8909H7.55051C7.54229 17.3481 7.69496 16.815 7.98926 16.3588C8.28356 15.9027 8.70632 15.5439 9.20424 15.3276C9.70217 15.1114 10.253 15.0474 10.7872 15.1437C11.112 15.2023 11.4218 15.3185 11.7026 15.4852V12.297H7.91684C7.79757 12.297 7.68985 12.2258 7.64318 12.116C7.59651 12.0063 7.61993 11.8793 7.70267 11.7934C7.99784 11.4869 8.19567 11.1 8.27121 10.6813C8.34675 10.2625 8.29663 9.83084 8.12715 9.44058C7.95768 9.05032 7.67644 8.71897 7.31891 8.48833C6.96192 8.25803 6.54483 8.13843 6.12007 8.14453C5.83141 8.15296 5.54725 8.2184 5.28396 8.33709C5.02008 8.45605 4.7824 8.62613 4.58466 8.8375C4.38692 9.04888 4.23304 9.29736 4.13192 9.56857C4.03103 9.83915 3.98465 10.127 3.99544 10.4156C4.02274 10.9318 4.23544 11.4209 4.59449 11.7929C4.67736 11.8787 4.70088 12.0058 4.65425 12.1156C4.60761 12.2254 4.49985 12.2967 4.38053 12.2967H0.594737V22.1923C0.594737 22.5139 0.722499 22.8223 0.949919 23.0498C1.17734 23.2772 1.48578 23.4049 1.8074 23.4049H9.73495V23.9997H1.8074C1.32805 23.9997 0.868331 23.8093 0.529377 23.4703C0.190423 23.1313 0 22.6716 0 22.1923V11.9994C0 11.8351 0.133136 11.702 0.297368 11.702H3.78206C3.55668 11.3225 3.42462 10.8914 3.4014 10.4444L3.40119 10.4404L3.40122 10.4404C3.38712 10.0726 3.44607 9.70565 3.57466 9.36079C3.70324 9.01593 3.89891 8.69998 4.15035 8.4312C4.40179 8.16243 4.70401 7.94616 5.03954 7.7949C5.37508 7.64364 5.73727 7.56039 6.10517 7.54997L6.10906 7.54986L6.10906 7.54989Z" fill="currentColor"/>
</svg>
