<svg width="48" height="48" viewBox="0 0 48 48" fill="none" xmlns="http://www.w3.org/2000/svg">
<path d="M2.6913 17.4697H11.8857V41.8479H2.6913V17.4697ZM11.0705 18.174H3.50648V41.1436H11.0705V18.174Z" fill="currentColor"/>
<path d="M13.8376 17.4697H23.032V41.8479H13.8376V17.4697ZM22.2168 18.174H14.6528V41.1436H22.2168V18.174Z" fill="currentColor"/>
<path d="M24.5841 17.4697H33.7784V41.8479H24.5841V17.4697ZM32.9633 18.174H25.3993V41.1436H32.9633V18.174Z" fill="currentColor"/>
<path d="M35.8217 17.4697H45.0152V41.8479H35.8217V17.4697ZM44.2001 18.174H36.6369V41.1436H44.2001V18.174Z" fill="currentColor"/>
<mask id="mask0_150_1213" style="mask-type:luminance" maskUnits="userSpaceOnUse" x="3" y="0" width="42" height="48">
<path d="M44.4712 0H3V48H44.4712V0Z" fill="white"/>
</mask>
<g mask="url(#mask0_150_1213)">
<path d="M3.01373 43.726H44.2039V47.987H3.01373V43.726ZM43.4996 44.4302H3.71803V47.2827H43.4996V44.4302Z" fill="currentColor"/>
<path d="M23.8627 0.0162354L44.4574 11.7181V15.8302H3.26728V11.7181L23.8627 0.0162354ZM43.7531 12.128L23.8627 0.826178L3.97158 12.128V15.1259H43.7531V12.128Z" fill="currentColor"/>
</g>
</svg>
