<svg width="24" height="24" viewBox="0 0 24 24" fill="none" xmlns="http://www.w3.org/2000/svg">
<path d="M12.0799 6.12281C13.2758 6.12146 14.4452 6.4751 15.44 7.13894C16.4348 7.80277 17.2101 8.74692 17.6679 9.85179C18.1256 10.9567 18.2451 12.1725 18.0112 13.3454C17.7774 14.5182 17.2007 15.5953 16.3542 16.4401C15.7232 17.0692 14.9609 17.551 14.122 17.851C13.283 18.151 12.388 18.2617 11.5012 18.1753C10.6144 18.0889 9.75771 17.8075 8.99243 17.3511C8.22715 16.8948 7.57225 16.2749 7.07463 15.5358C6.57701 14.7967 6.24899 13.9567 6.11406 13.076C5.97914 12.1952 6.04064 11.2956 6.29416 10.4414C6.54769 9.58722 6.98697 8.79968 7.58054 8.13517C8.17411 7.47067 8.90728 6.94564 9.72754 6.5977C10.4717 6.28276 11.2718 6.12124 12.0799 6.12281ZM12.0799 17.6192C13.1584 17.6191 14.2127 17.2993 15.1095 16.7C16.0062 16.1008 16.7052 15.2491 17.1179 14.2527C17.5306 13.2562 17.6386 12.1598 17.4282 11.1019C17.2178 10.0441 16.6985 9.07245 15.9359 8.30978C15.4311 7.79629 14.8296 7.38786 14.1661 7.10806C13.5026 6.82825 12.7903 6.68261 12.0702 6.67954C11.3502 6.67647 10.6366 6.81604 9.97081 7.09017C9.30497 7.36431 8.70002 7.7676 8.19085 8.27676C7.68169 8.78592 7.27841 9.39088 7.00427 10.0567C6.73013 10.7226 6.59057 11.4361 6.59364 12.1561C6.59671 12.8762 6.74235 13.5885 7.02215 14.252C7.30196 14.9155 7.71039 15.517 8.22387 16.0218C8.72906 16.5298 9.32999 16.9325 9.99187 17.2067C10.6537 17.4809 11.3634 17.6211 12.0799 17.6192Z" fill="currentColor"/>
<path d="M6.71459 13.806H1.80623C1.32749 13.806 0.868368 13.6158 0.52985 13.2773C0.191333 12.9387 0.00115967 12.4796 0.00115967 12.0009C0.00115967 11.5221 0.191333 11.063 0.52985 10.7245C0.868368 10.386 1.32749 10.1958 1.80623 10.1958H6.71459V10.7854H1.80623C1.48385 10.7854 1.17468 10.9134 0.946731 11.1414C0.718777 11.3693 0.590717 11.6785 0.590717 12.0009C0.590717 12.3233 0.718777 12.6324 0.946731 12.8604C1.17468 13.0883 1.48385 13.2164 1.80623 13.2164H6.71459V13.806Z" fill="currentColor"/>
<path d="M22.1946 13.806H17.2863V13.2164H22.1946C22.517 13.2164 22.8262 13.0883 23.0541 12.8604C23.2821 12.6324 23.4101 12.3233 23.4101 12.0009C23.4101 11.6785 23.2821 11.3693 23.0541 11.1414C22.8262 10.9134 22.517 10.7854 22.1946 10.7854H17.2863V10.1958H22.1946C22.6733 10.1958 23.1325 10.386 23.471 10.7245C23.8095 11.063 23.9997 11.5221 23.9997 12.0009C23.9997 12.4796 23.8095 12.9387 23.471 13.2773C23.1325 13.6158 22.6733 13.806 22.1946 13.806Z" fill="currentColor"/>
<path d="M12.0002 24C11.5217 23.9995 11.0629 23.8091 10.7246 23.4708C10.3862 23.1324 10.1959 22.6736 10.1953 22.1951V17.2867H10.7849V22.1951C10.7849 22.5175 10.9129 22.8266 11.1409 23.0546C11.3688 23.2826 11.678 23.4106 12.0004 23.4106C12.3228 23.4106 12.6319 23.2826 12.8599 23.0546C13.0878 22.8266 13.2159 22.5175 13.2159 22.1951V17.2867H13.8055V22.1951C13.8049 22.6737 13.6145 23.1325 13.2761 23.4709C12.9377 23.8093 12.4788 23.9996 12.0002 24Z" fill="currentColor"/>
<path d="M13.8055 6.71501H13.2159V1.80666C13.2159 1.48428 13.0878 1.17511 12.8599 0.947158C12.6319 0.719204 12.3228 0.591144 12.0004 0.591144C11.678 0.591144 11.3688 0.719204 11.1409 0.947158C10.9129 1.17511 10.7849 1.48428 10.7849 1.80666V6.71501H10.1953V1.80666C10.1953 1.32792 10.3855 0.868795 10.724 0.530278C11.0625 0.19176 11.5217 0.00158691 12.0004 0.00158691C12.4791 0.00158691 12.9383 0.19176 13.2768 0.530278C13.6153 0.868795 13.8055 1.32792 13.8055 1.80666V6.71501Z" fill="currentColor"/>
<path d="M22.724 10.4074C22.677 10.4074 22.6307 10.3961 22.5889 10.3746C22.5471 10.353 22.5111 10.3217 22.4838 10.2834C22.4566 10.245 22.4389 10.2007 22.4323 10.1541C22.4257 10.1076 22.4303 10.0601 22.4458 10.0157C23.2417 7.73115 23.4389 6.86155 23.407 5.78914C23.3952 5.05437 23.2594 4.32687 23.0056 3.63726C22.7797 3.03451 22.4264 2.48762 21.9697 2.03396L21.9659 2.03013C21.5122 1.57348 20.9653 1.22014 20.3626 0.994276C19.673 0.740381 18.9455 0.604647 18.2107 0.592788C17.138 0.561247 16.269 0.758745 13.9841 1.55406C13.9476 1.56679 13.9089 1.57221 13.8702 1.56998C13.8316 1.56775 13.7937 1.55794 13.7589 1.54109C13.724 1.52425 13.6928 1.50069 13.6671 1.47179C13.6413 1.44288 13.6215 1.40919 13.6087 1.37263C13.596 1.33606 13.5906 1.29735 13.5928 1.25869C13.5951 1.22004 13.6049 1.1822 13.6217 1.14734C13.6386 1.11248 13.6621 1.08129 13.691 1.05553C13.7199 1.02977 13.7536 1.00996 13.7902 0.997227C15.9884 0.230803 16.9891 -0.0344983 18.2278 0.00352809C19.0287 0.0173332 19.8216 0.16622 20.573 0.443924C21.2531 0.701875 21.8706 1.10115 22.385 1.61538C22.8993 2.12962 23.2987 2.74711 23.5568 3.42708C23.8345 4.17849 23.9834 4.97137 23.9972 5.77234C24.0337 7.01041 23.7687 8.01266 23.0035 10.2102C22.9832 10.2681 22.9454 10.3182 22.8953 10.3535C22.8452 10.3888 22.7853 10.4077 22.724 10.4074Z" fill="currentColor"/>
<path d="M18.0096 23.9997C16.8665 23.9997 15.8577 23.7223 13.791 23.0028C13.7172 22.9771 13.6566 22.9231 13.6226 22.8527C13.5885 22.7823 13.5839 22.7012 13.6096 22.6274C13.6353 22.5535 13.6893 22.4929 13.7597 22.4589C13.8301 22.4249 13.9112 22.4202 13.985 22.4459C16.2698 23.2419 17.1391 23.4391 18.2115 23.4072C18.9463 23.3954 19.6738 23.2596 20.3634 23.0057C20.9662 22.7799 21.5131 22.4265 21.9667 21.9699L21.9706 21.9661C22.4272 21.5124 22.7805 20.9655 23.0064 20.3628C23.2603 19.6731 23.396 18.9456 23.4079 18.2109C23.4397 17.1382 23.2419 16.2692 22.4466 13.9843C22.4209 13.9105 22.4256 13.8295 22.4596 13.7591C22.4936 13.6887 22.5542 13.6347 22.6281 13.6089C22.7019 13.5832 22.7829 13.5879 22.8533 13.6219C22.9237 13.6559 22.9777 13.7165 23.0035 13.7904C23.7699 15.9885 24.0352 16.9893 23.9972 18.228C23.9834 19.0289 23.8345 19.8218 23.5568 20.5732C23.2989 21.2533 22.8998 21.871 22.3857 22.3854C21.8715 22.8998 21.2541 23.2993 20.5742 23.5576C19.8228 23.8353 19.0299 23.9842 18.2289 23.998C18.155 23.9991 18.0819 23.9997 18.0096 23.9997Z" fill="currentColor"/>
<path d="M5.99092 23.9997C5.91841 23.9997 5.84559 23.9997 5.7719 23.9964C4.97093 23.9826 4.17805 23.8337 3.42664 23.556C2.74692 23.2983 2.12958 22.8993 1.61537 22.3854C1.10115 21.8715 0.701734 21.2545 0.443484 20.5749C0.165811 19.8235 0.0170139 19.0306 0.0033765 18.2297C-0.0337656 16.9916 0.231543 15.9894 0.996788 13.7921C1.02251 13.7182 1.0765 13.6576 1.1469 13.6236C1.2173 13.5896 1.29835 13.5849 1.37219 13.6106C1.44603 13.6364 1.50663 13.6904 1.54065 13.7608C1.57468 13.8312 1.57934 13.9122 1.55362 13.986C0.757716 16.2709 0.56081 17.1402 0.592646 18.2123C0.604348 18.947 0.739982 19.6746 0.993837 20.3642C1.21969 20.9669 1.57302 21.5138 2.02969 21.9675L2.03352 21.9713C2.48718 22.428 3.03407 22.7813 3.63682 23.0072C4.32643 23.2611 5.05393 23.3968 5.7887 23.4086C6.8614 23.4405 7.73041 23.2427 10.0152 22.4474C10.0891 22.4216 10.1701 22.4263 10.2405 22.4603C10.3109 22.4944 10.3649 22.555 10.3906 22.6288C10.4164 22.7027 10.4117 22.7837 10.3777 22.8541C10.3436 22.9245 10.283 22.9785 10.2092 23.0042C8.14251 23.7229 7.13496 23.9997 5.99092 23.9997Z" fill="currentColor"/>
<path d="M1.27653 10.4074C1.21533 10.4074 1.15565 10.3883 1.10578 10.3528C1.05592 10.3173 1.01834 10.2672 0.998263 10.2093C0.231839 8.01088 -0.0334601 7.01011 0.00486108 5.77145C0.0184928 4.9705 0.16729 4.1776 0.444969 3.4262C0.702918 2.74658 1.10204 2.12937 1.616 1.61531C2.12997 1.10124 2.74708 0.702003 3.42665 0.44392C4.17806 0.166211 4.97094 0.0173236 5.77191 0.00352414C7.00998 -0.0330284 8.01223 0.231978 10.2098 0.997223C10.2836 1.02294 10.3442 1.07694 10.3783 1.14734C10.4123 1.21774 10.417 1.29878 10.3912 1.37262C10.3655 1.44646 10.3115 1.50706 10.2411 1.54109C10.1707 1.57512 10.0897 1.57977 10.0158 1.55405C7.7313 0.758151 6.86171 0.561243 5.7893 0.592784C5.05454 0.604643 4.32703 0.740377 3.63742 0.994273C3.03466 1.22014 2.48777 1.57347 2.03412 2.03013L2.03029 2.03396C1.57362 2.4876 1.22028 3.03449 0.994431 3.63726C0.740671 4.32689 0.605138 5.0544 0.593537 5.78914C0.561406 6.86184 0.75891 7.73085 1.55452 10.0157C1.56999 10.0601 1.57461 10.1076 1.56799 10.1541C1.56137 10.2007 1.5437 10.245 1.51646 10.2834C1.48923 10.3217 1.45321 10.353 1.41142 10.3746C1.36963 10.3961 1.32357 10.4074 1.27653 10.4074Z" fill="currentColor"/>
<path d="M22.4605 10.7715C22.3897 10.7714 22.3213 10.7458 22.2678 10.6995C22.2143 10.6531 22.1793 10.589 22.1692 10.5189C21.8508 8.32819 20.8331 6.29896 19.2677 4.73359C17.7024 3.16823 15.6731 2.15052 13.4824 1.8321C13.4435 1.82731 13.4059 1.81479 13.3718 1.79528C13.3378 1.77577 13.308 1.74966 13.2842 1.71848C13.2604 1.68731 13.243 1.65169 13.2331 1.61372C13.2232 1.57576 13.2211 1.5362 13.2267 1.49737C13.2323 1.45854 13.2456 1.42122 13.2658 1.3876C13.286 1.35398 13.3128 1.32474 13.3444 1.30158C13.3761 1.27843 13.4121 1.26182 13.4502 1.25274C13.4884 1.24367 13.528 1.24231 13.5667 1.24873C15.8834 1.58535 18.0293 2.6615 19.6846 4.3168C21.34 5.97211 22.4162 8.11797 22.7529 10.4346C22.7589 10.4765 22.7559 10.5192 22.744 10.5598C22.7321 10.6004 22.7116 10.6379 22.6838 10.6699C22.6561 10.7018 22.6219 10.7275 22.5834 10.745C22.5449 10.7626 22.5028 10.7716 22.4605 10.7715Z" fill="currentColor"/>
<path d="M10.4763 22.7563C10.4621 22.7563 10.4479 22.7554 10.4338 22.7534C8.11692 22.417 5.97072 21.3409 4.31513 19.6855C2.65953 18.0301 1.58317 15.8841 1.24647 13.5672C1.24005 13.5285 1.24142 13.4889 1.25049 13.4507C1.25957 13.4126 1.27616 13.3766 1.29932 13.3449C1.32248 13.3132 1.35172 13.2865 1.38534 13.2663C1.41896 13.2461 1.45628 13.2328 1.49511 13.2272C1.53394 13.2215 1.57349 13.2237 1.61146 13.2336C1.64943 13.2435 1.68505 13.2608 1.71623 13.2847C1.7474 13.3085 1.77351 13.3383 1.79302 13.3723C1.81253 13.4063 1.82504 13.4439 1.82984 13.4829C2.14826 15.6736 3.16598 17.7028 4.73134 19.2682C6.2967 20.8336 8.32593 21.8513 10.5167 22.1697C10.5905 22.1802 10.6576 22.2184 10.7045 22.2764C10.7513 22.3345 10.7744 22.4081 10.7691 22.4825C10.7638 22.5569 10.7305 22.6265 10.6759 22.6774C10.6213 22.7282 10.5494 22.7564 10.4748 22.7563H10.4763Z" fill="currentColor"/>
<path d="M1.54119 10.7714C1.49888 10.7715 1.45707 10.7624 1.41857 10.7449C1.38008 10.7274 1.3458 10.7017 1.31809 10.6698C1.29037 10.6378 1.26987 10.6002 1.25796 10.5597C1.24605 10.5191 1.24301 10.4764 1.24906 10.4345C1.58538 8.1178 2.66126 5.97176 4.31635 4.31619C5.97144 2.66062 8.11717 1.58413 10.4338 1.24714C10.4725 1.24072 10.5121 1.24209 10.5502 1.25116C10.5884 1.26024 10.6244 1.27684 10.656 1.29999C10.6877 1.32315 10.7144 1.35239 10.7347 1.38601C10.7549 1.41963 10.7682 1.45695 10.7738 1.49578C10.7794 1.53461 10.7772 1.57416 10.7673 1.61213C10.7575 1.6501 10.7401 1.68572 10.7163 1.7169C10.6925 1.74808 10.6627 1.77418 10.6286 1.79369C10.5946 1.8132 10.557 1.82571 10.5181 1.83051C8.32734 2.14893 6.29811 3.16665 4.73274 4.73201C3.16738 6.29738 2.14967 8.3266 1.83125 10.5173C1.82148 10.5875 1.7868 10.6517 1.73354 10.6984C1.68028 10.7451 1.61199 10.771 1.54119 10.7714Z" fill="currentColor"/>
<path d="M13.5242 22.7564C13.4497 22.7565 13.3778 22.7282 13.3232 22.6774C13.2686 22.6266 13.2352 22.557 13.2299 22.4826C13.2246 22.4082 13.2477 22.3345 13.2946 22.2765C13.3414 22.2184 13.4085 22.1803 13.4824 22.1698C15.6731 21.8514 17.7024 20.8337 19.2677 19.2683C20.8331 17.7029 21.8508 15.6737 22.1692 13.483C22.1818 13.4069 22.2238 13.3388 22.286 13.2933C22.3483 13.2478 22.4259 13.2285 22.5022 13.2395C22.5785 13.2505 22.6475 13.291 22.6943 13.3523C22.7411 13.4136 22.762 13.4907 22.7526 13.5673C22.4159 15.8839 21.3397 18.0298 19.6843 19.6851C18.029 21.3404 15.8831 22.4165 13.5664 22.7532C13.5524 22.7552 13.5384 22.7563 13.5242 22.7564Z" fill="currentColor"/>
</svg>
