<svg width="24" height="24" viewBox="0 0 24 24" fill="none" xmlns="http://www.w3.org/2000/svg">
<path d="M10.1054 13.8065C10.0272 13.8065 9.95224 13.7755 9.89696 13.7202C9.84169 13.6649 9.81063 13.59 9.81063 13.5118V8.52127H8.59535C8.51718 8.52127 8.44221 8.49022 8.38693 8.43494C8.33165 8.37967 8.3006 8.30469 8.3006 8.22652C8.3006 8.14834 8.33165 8.07337 8.38693 8.01809C8.44221 7.96282 8.51718 7.93176 8.59535 7.93176H10.1054C10.1836 7.93176 10.2585 7.96282 10.3138 8.01809C10.3691 8.07337 10.4001 8.14834 10.4001 8.22652V13.5118C10.4001 13.59 10.3691 13.6649 10.3138 13.7202C10.2585 13.7755 10.1836 13.8065 10.1054 13.8065Z" fill="currentColor"/>
<path d="M11.3115 14.1552H8.65871C8.58053 14.1552 8.50556 14.1241 8.45028 14.0689C8.39501 14.0136 8.36395 13.9386 8.36395 13.8604C8.36395 13.7823 8.39501 13.7073 8.45028 13.652C8.50556 13.5967 8.58053 13.5657 8.65871 13.5657H11.3115C11.3897 13.5657 11.4647 13.5967 11.5199 13.652C11.5752 13.7073 11.6063 13.7823 11.6063 13.8604C11.6063 13.9386 11.5752 14.0136 11.5199 14.0689C11.4647 14.1241 11.3897 14.1552 11.3115 14.1552Z" fill="currentColor"/>
<path d="M9.91673 7.24142C9.77559 7.24142 9.63762 7.19956 9.52027 7.12115C9.40292 7.04274 9.31145 6.93129 9.25744 6.8009C9.20343 6.6705 9.1893 6.52702 9.21684 6.3886C9.24437 6.25017 9.31233 6.12302 9.41213 6.02322C9.51193 5.92342 9.63909 5.85546 9.77751 5.82792C9.91594 5.80039 10.0594 5.81452 10.1898 5.86853C10.3202 5.92254 10.4317 6.014 10.5101 6.13136C10.5885 6.24871 10.6303 6.38668 10.6303 6.52781C10.6301 6.717 10.5548 6.89837 10.4211 7.03215C10.2873 7.16592 10.1059 7.24118 9.91673 7.24142ZM9.91673 6.10897C9.83389 6.10897 9.75291 6.13353 9.68403 6.17955C9.61515 6.22558 9.56147 6.29099 9.52976 6.36753C9.49806 6.44406 9.48977 6.52828 9.50593 6.60953C9.52209 6.69077 9.56198 6.76541 9.62056 6.82398C9.67913 6.88256 9.75377 6.92245 9.83502 6.93861C9.91627 6.95477 10.0005 6.94648 10.077 6.91478C10.1536 6.88308 10.219 6.82939 10.265 6.76051C10.311 6.69163 10.3356 6.61065 10.3356 6.52781C10.3354 6.41678 10.2912 6.31033 10.2127 6.23182C10.1342 6.1533 10.0278 6.10912 9.91673 6.10897Z" fill="currentColor"/>
<path d="M9.91673 19.8475C7.62794 19.8458 5.41011 19.0529 3.63888 17.6034C1.86765 16.1538 0.6519 14.1365 0.197536 11.8933C-0.256827 9.65005 0.0781291 7.31871 1.14567 5.29414C2.21322 3.26956 3.94773 1.6762 6.05543 0.783918C7.56407 0.145658 9.20729 -0.109036 10.8384 0.0425817C12.4694 0.194199 14.0376 0.747409 15.4027 1.6528C16.7678 2.5582 17.8875 3.7876 18.6617 5.2312C19.4359 6.67481 19.8405 8.28768 19.8394 9.92577C19.8392 10.5127 19.7874 11.0985 19.6846 11.6763C19.6783 11.7148 19.6643 11.7516 19.6436 11.7847C19.6229 11.8177 19.5958 11.8463 19.564 11.8688C19.5321 11.8913 19.4961 11.9073 19.4581 11.9158C19.42 11.9243 19.3807 11.9251 19.3423 11.9183C19.3039 11.9115 19.2672 11.8971 19.2344 11.876C19.2016 11.8549 19.1733 11.8275 19.1512 11.7954C19.1291 11.7633 19.1135 11.7272 19.1055 11.689C19.0974 11.6508 19.097 11.6115 19.1043 11.5732C19.2008 11.0294 19.2493 10.4783 19.2493 9.92607C19.2504 8.07873 18.7035 6.27258 17.6779 4.73612C16.6523 3.19966 15.194 2.00193 13.4875 1.29448C11.781 0.587021 9.90297 0.401628 8.09108 0.761753C6.27919 1.12188 4.61482 2.01134 3.30856 3.3176C2.0023 4.62386 1.11284 6.28822 0.752713 8.10011C0.392588 9.912 0.577981 11.79 1.28544 13.4965C1.99289 15.203 3.19062 16.6613 4.72708 17.687C6.26354 18.7126 8.0697 19.2594 9.91703 19.2583C10.3456 19.2579 10.7737 19.2284 11.1983 19.1699C11.2371 19.1638 11.2766 19.1654 11.3147 19.1748C11.3528 19.1842 11.3886 19.201 11.4201 19.2244C11.4516 19.2478 11.4781 19.2772 11.498 19.311C11.518 19.3447 11.531 19.3821 11.5364 19.4209C11.5417 19.4598 11.5392 19.4993 11.5291 19.5372C11.519 19.5751 11.5014 19.6106 11.4774 19.6416C11.4534 19.6726 11.4234 19.6985 11.3892 19.7177C11.3551 19.737 11.3175 19.7493 11.2785 19.7538C10.8272 19.8159 10.3723 19.8472 9.91673 19.8475Z" fill="currentColor"/>
<path d="M21.4322 24C21.3541 24 21.2791 23.9689 21.2238 23.9137C21.1685 23.8584 21.1375 23.7834 21.1375 23.7052V23.3421C21.1374 23.2763 21.1594 23.2124 21.2 23.1605L21.7081 22.5103C21.7766 22.4233 21.8331 22.3276 21.8761 22.2256C22.3712 21.0874 22.6334 19.8618 22.6475 18.6207V16.0781C22.6354 15.9144 22.5618 15.7614 22.4416 15.6496C22.3213 15.5379 22.1632 15.4758 21.999 15.4758C21.8349 15.4758 21.6768 15.5379 21.5565 15.6496C21.4363 15.7614 21.3627 15.9144 21.3506 16.0781V16.5324C21.3506 16.6105 21.3195 16.6855 21.2642 16.7408C21.209 16.7961 21.134 16.8271 21.0558 16.8271C20.9777 16.8271 20.9027 16.7961 20.8474 16.7408C20.7921 16.6855 20.7611 16.6105 20.7611 16.5324V15.3516C20.749 15.1879 20.6754 15.0348 20.5551 14.9231C20.4348 14.8113 20.2768 14.7493 20.1126 14.7493C19.9485 14.7493 19.7904 14.8113 19.6701 14.9231C19.5498 15.0348 19.4762 15.1879 19.4641 15.3516V15.7769C19.4641 15.8551 19.4331 15.93 19.3778 15.9853C19.3225 16.0406 19.2476 16.0717 19.1694 16.0717C19.0912 16.0717 19.0162 16.0406 18.961 15.9853C18.9057 15.93 18.8746 15.8551 18.8746 15.7769V14.6253C18.8625 14.4616 18.789 14.3085 18.6687 14.1968C18.5484 14.0851 18.3903 14.023 18.2262 14.023C18.062 14.023 17.9039 14.0851 17.7837 14.1968C17.6634 14.3085 17.5898 14.4616 17.5777 14.6253V15.3996C17.5777 15.4778 17.5467 15.5528 17.4914 15.608C17.4361 15.6633 17.3611 15.6944 17.283 15.6944C17.2048 15.6944 17.1298 15.6633 17.0745 15.608C17.0192 15.5528 16.9882 15.4778 16.9882 15.3996V10.267C16.9761 10.1033 16.9025 9.95024 16.7822 9.83853C16.662 9.72681 16.5039 9.66472 16.3397 9.66472C16.1756 9.66472 16.0175 9.72681 15.8972 9.83853C15.7769 9.95024 15.7034 10.1033 15.6913 10.267V18.42C15.6913 18.4981 15.6602 18.5731 15.6049 18.6284C15.5497 18.6837 15.4747 18.7147 15.3965 18.7147C15.3183 18.7147 15.2434 18.6837 15.1881 18.6284C15.1328 18.5731 15.1018 18.4981 15.1018 18.42V16.1548C15.0463 15.9011 14.9122 15.6714 14.7186 15.4984C14.5549 15.2973 14.3282 15.1575 14.0751 15.1016C13.9059 15.1016 13.8037 15.1016 13.8037 15.7147V18.6204C13.7967 19.539 14.0186 20.4449 14.4492 21.2564C14.4881 21.3248 14.5333 21.3894 14.5842 21.4495L16.0008 23.1532C16.0447 23.2061 16.0688 23.2727 16.0688 23.3415V23.7047C16.0688 23.7828 16.0378 23.8578 15.9825 23.9131C15.9272 23.9684 15.8523 23.9994 15.7741 23.9994C15.6959 23.9994 15.6209 23.9684 15.5657 23.9131C15.5104 23.8578 15.4793 23.7828 15.4793 23.7047V23.4485L14.1308 21.8274C14.0562 21.7389 13.99 21.6436 13.9333 21.5426C13.4528 20.644 13.2037 19.6398 13.2085 18.6207V15.715C13.1916 15.4542 13.2312 15.1927 13.3247 14.9486C13.3892 14.8084 13.4953 14.6912 13.6284 14.6131C13.7616 14.5349 13.9156 14.4995 14.0695 14.5115C14.4646 14.5615 14.8286 14.7519 15.095 15.048V10.267C15.095 9.9387 15.2254 9.62381 15.4576 9.39165C15.6897 9.15948 16.0046 9.02905 16.333 9.02905C16.6613 9.02905 16.9762 9.15948 17.2083 9.39165C17.4405 9.62381 17.5709 9.9387 17.5709 10.267V13.6013C17.7669 13.484 17.991 13.4223 18.2194 13.4227C18.4948 13.4203 18.7632 13.5101 18.9817 13.6779C19.2001 13.8457 19.3562 14.0818 19.4249 14.3485C19.6285 14.2179 19.8654 14.1487 20.1073 14.1493C20.3828 14.1469 20.6511 14.2367 20.8696 14.4045C21.0881 14.5723 21.2441 14.8083 21.3129 15.0751C21.5164 14.9444 21.7533 14.8753 21.9952 14.8758C22.3187 14.8717 22.6307 14.9959 22.8627 15.2213C23.0948 15.4467 23.228 15.755 23.2332 16.0784V18.621C23.2196 19.94 22.942 21.2429 22.4167 22.4528C22.3534 22.6039 22.27 22.7458 22.1688 22.8746L21.727 23.4435V23.7052C21.727 23.7834 21.6959 23.8584 21.6407 23.9137C21.5854 23.9689 21.5104 24 21.4322 24Z" fill="currentColor"/>
</svg>
