<svg width="24" height="24" viewBox="0 0 24 24" fill="none" xmlns="http://www.w3.org/2000/svg">
<path d="M12.0018 1.34799C11.9232 1.34799 11.8478 1.31676 11.7922 1.26118C11.7366 1.2056 11.7054 1.13021 11.7054 1.0516L11.7039 0.296392C11.7039 0.217784 11.7351 0.142396 11.7907 0.0868112C11.8463 0.0312269 11.9217 0 12.0003 0C12.0789 0 12.1543 0.0312269 12.2099 0.0868112C12.2655 0.142396 12.2967 0.217784 12.2967 0.296392L12.2982 1.0516C12.2982 1.13021 12.267 1.2056 12.2114 1.26118C12.1558 1.31676 12.0804 1.34799 12.0018 1.34799Z" fill="currentColor"/>
<path d="M23.7037 11.3029C23.6537 11.3029 23.6046 11.2902 23.5608 11.2661C21.9983 10.3885 20.1721 10.1025 18.416 10.4605C17.6417 10.6056 16.8959 10.875 16.2076 11.2584C16.1629 11.2861 16.1117 11.3014 16.0591 11.3028C16.0066 11.3041 15.9546 11.2915 15.9086 11.2661C15.0268 10.7795 14.0574 10.472 13.0564 10.3613C12.2222 10.2718 11.3794 10.3042 10.5545 10.4576C9.69882 10.6068 8.86921 10.8792 8.09152 11.2661C8.04775 11.2902 7.99861 11.3028 7.94866 11.3028C7.89871 11.3028 7.84957 11.2902 7.8058 11.2661C6.24327 10.3885 4.41705 10.1025 2.66103 10.4605C1.88666 10.6056 1.14088 10.875 0.452612 11.2584C0.385842 11.2982 0.306112 11.3102 0.230608 11.2917C0.155103 11.2733 0.0898624 11.226 0.0489356 11.1599C0.00800869 11.0938 -0.00532293 11.0143 0.0118052 10.9385C0.0289332 10.8627 0.0751511 10.7966 0.140509 10.7546C0.888707 10.3323 1.70147 10.0365 2.54603 9.87902C4.38556 9.50432 6.29821 9.78469 7.95281 10.6716C8.73905 10.2988 9.57127 10.032 10.4277 9.87813C11.3115 9.71207 12.2148 9.67583 13.1091 9.77054C14.1364 9.88246 15.1333 10.1868 16.0479 10.6677C17.2511 10.0285 18.5952 9.70083 19.9576 9.71465C21.32 9.72848 22.6572 10.0833 23.8471 10.7469C23.9048 10.7786 23.9502 10.8286 23.9763 10.889C24.0024 10.9493 24.0076 11.0167 23.9912 11.0804C23.9748 11.1441 23.9377 11.2005 23.8857 11.2408C23.8337 11.2811 23.7698 11.3029 23.704 11.3029H23.7037Z" fill="currentColor"/>
<path d="M7.94832 11.3029C7.87709 11.3029 7.80826 11.2772 7.75443 11.2305C7.7006 11.1839 7.66538 11.1194 7.65519 11.0489C7.44593 9.64452 7.52662 8.21214 7.8923 6.84014C8.1966 5.72597 8.67634 4.66735 9.3135 3.70402C9.33491 3.67148 9.36252 3.64347 9.39475 3.6216C9.42698 3.59973 9.4632 3.58443 9.50134 3.57655C9.53949 3.56868 9.57881 3.5684 9.61707 3.57573C9.65532 3.58305 9.69176 3.59784 9.7243 3.61925C9.75684 3.64066 9.78485 3.66827 9.80672 3.7005C9.82859 3.73273 9.84389 3.76895 9.85176 3.80709C9.85964 3.84524 9.85992 3.88456 9.8526 3.92282C9.84527 3.96107 9.83048 3.99751 9.80907 4.03005C9.20654 4.94045 8.75272 5.94093 8.46463 6.99397C8.11958 8.28807 8.04333 9.63914 8.24057 10.9638C8.24665 11.0059 8.2436 11.0489 8.23162 11.0897C8.21964 11.1305 8.19903 11.1683 8.17116 11.2004C8.1433 11.2325 8.10883 11.2583 8.07013 11.2759C8.03142 11.2936 7.98938 11.3027 7.94684 11.3026L7.94832 11.3029Z" fill="currentColor"/>
<path d="M16.0511 11.303C16.0086 11.303 15.9665 11.2939 15.9278 11.2763C15.8891 11.2587 15.8547 11.2329 15.8268 11.2008C15.7989 11.1686 15.7783 11.1309 15.7663 11.09C15.7544 11.0492 15.7513 11.0063 15.7574 10.9642C15.9546 9.63951 15.8784 8.28844 15.5333 6.99434C15.2452 5.9413 14.7914 4.94082 14.1889 4.03042C14.1457 3.9647 14.1303 3.8845 14.1462 3.80746C14.1621 3.73042 14.2079 3.66285 14.2737 3.61962C14.3394 3.57638 14.4196 3.56102 14.4966 3.57692C14.5737 3.59282 14.6412 3.63867 14.6845 3.70439C15.3216 4.66772 15.8014 5.72634 16.1057 6.84051C16.4713 8.21251 16.552 9.64489 16.3428 11.0493C16.3326 11.1195 16.2975 11.1837 16.244 11.2302C16.1905 11.2768 16.122 11.3026 16.0511 11.303Z" fill="currentColor"/>
<path d="M23.704 11.3027C23.6253 11.3027 23.55 11.2715 23.4944 11.2159C23.4388 11.1603 23.4076 11.0849 23.4076 11.0063C23.4063 9.72402 23.1016 8.46024 22.5184 7.3183C21.922 6.15386 21.0937 5.12372 20.0844 4.29124C19.0073 3.39577 17.7783 2.70088 16.4557 2.23962C13.5698 1.23371 10.4285 1.23371 7.54258 2.23962C6.22 2.70087 4.99093 3.39576 3.91385 4.29124C2.90535 5.12394 2.07777 6.15405 1.48196 7.3183C0.898702 8.46024 0.594005 9.72402 0.592784 11.0063C0.592784 11.0849 0.561553 11.1603 0.505969 11.2159C0.450384 11.2715 0.375 11.3027 0.296392 11.3027C0.217784 11.3027 0.1424 11.2715 0.0868155 11.2159C0.0312312 11.1603 0 11.0849 0 11.0063C0.000668599 9.63135 0.326688 8.27607 0.951416 7.05125C1.58401 5.81488 2.46285 4.721 3.53388 3.83688C4.66516 2.89584 5.95616 2.16551 7.34548 1.68062C10.3596 0.629246 13.6408 0.629246 16.6549 1.68062C18.0442 2.16551 19.3352 2.89584 20.4665 3.83688C21.5375 4.721 22.4163 5.81488 23.0489 7.05125C23.6737 8.27607 23.9997 9.63135 24.0003 11.0063C24.0003 11.0849 23.9691 11.1603 23.9135 11.2159C23.8579 11.2715 23.7826 11.3027 23.704 11.3027Z" fill="currentColor"/>
<path d="M12.7555 22.8678H11.2439C10.9144 22.8543 10.5897 22.7833 10.2845 22.6579C9.59689 22.3826 9.03673 21.8606 8.71365 21.1941C8.67924 21.1238 8.67397 21.0429 8.69901 20.9688C8.72404 20.8947 8.77735 20.8335 8.84731 20.7985C8.91727 20.7636 8.99822 20.7577 9.0725 20.7821C9.14679 20.8066 9.20839 20.8594 9.2439 20.9291C9.42793 21.3107 9.71015 21.6365 10.0616 21.873C10.4131 22.1096 10.8211 22.2484 11.2439 22.2753H12.7555C13.2735 22.2689 13.7681 22.0587 14.1322 21.6902C14.4962 21.3217 14.7003 20.8245 14.7003 20.3065C14.7003 19.7885 14.4962 19.2914 14.1322 18.9228C13.7681 18.5543 13.2735 18.3441 12.7555 18.3377H11.2439C10.5693 18.3305 9.92485 18.0574 9.45038 17.5778C8.97591 17.0982 8.70978 16.4508 8.70978 15.7762C8.70978 15.1015 8.97591 14.4541 9.45038 13.9745C9.92485 13.4949 10.5693 13.2219 11.2439 13.2146H12.7555C13.0851 13.2281 13.4098 13.2991 13.715 13.4244C14.4026 13.6998 14.9628 14.2218 15.2858 14.8883C15.3036 14.9232 15.3143 14.9612 15.3173 15.0002C15.3203 15.0392 15.3155 15.0784 15.3033 15.1156C15.291 15.1527 15.2716 15.1871 15.246 15.2167C15.2204 15.2463 15.1892 15.2705 15.1542 15.288C15.1193 15.3055 15.0811 15.3159 15.0421 15.3186C15.0031 15.3213 14.9639 15.3162 14.9269 15.3037C14.8898 15.2911 14.8556 15.2714 14.8262 15.2456C14.7968 15.2198 14.7728 15.1884 14.7556 15.1533C14.5716 14.7716 14.2894 14.4458 13.9379 14.2092C13.5865 13.9726 13.1784 13.8337 12.7555 13.8068H11.2439C10.726 13.8131 10.2314 14.0234 9.86734 14.3919C9.50331 14.7604 9.29917 15.2576 9.29917 15.7756C9.29917 16.2936 9.50331 16.7907 9.86734 17.1593C10.2314 17.5278 10.726 17.738 11.2439 17.7444H12.7555C13.4301 17.7516 14.0746 18.0247 14.5491 18.5043C15.0236 18.9839 15.2897 19.6313 15.2897 20.3059C15.2897 20.9806 15.0236 21.628 14.5491 22.1076C14.0746 22.5872 13.4301 22.8602 12.7555 22.8675V22.8678Z" fill="currentColor"/>
<path d="M12.0003 13.8068C11.9217 13.8068 11.8463 13.7756 11.7907 13.72C11.7351 13.6644 11.7039 13.589 11.7039 13.5104V11.6227C11.7039 11.5441 11.7351 11.4687 11.7907 11.4131C11.8463 11.3575 11.9217 11.3263 12.0003 11.3263C12.0789 11.3263 12.1543 11.3575 12.2099 11.4131C12.2655 11.4687 12.2967 11.5441 12.2967 11.6227V13.5104C12.2967 13.589 12.2655 13.6644 12.2099 13.72C12.1543 13.7756 12.0789 13.8068 12.0003 13.8068Z" fill="currentColor"/>
<path d="M12.0003 24C11.9217 24 11.8463 23.9687 11.7907 23.9131C11.7351 23.8576 11.7039 23.7822 11.7039 23.7036V22.5711C11.7039 22.4924 11.7351 22.4171 11.7907 22.3615C11.8463 22.3059 11.9217 22.2747 12.0003 22.2747C12.0789 22.2747 12.1543 22.3059 12.2099 22.3615C12.2655 22.4171 12.2967 22.4924 12.2967 22.5711V23.7036C12.2967 23.7822 12.2655 23.8576 12.2099 23.9131C12.1543 23.9687 12.0789 24 12.0003 24Z" fill="currentColor"/>
</svg>
