<svg width="24" height="24" viewBox="0 0 24 24" fill="none" xmlns="http://www.w3.org/2000/svg">
<path d="M4.45569 24C4.39063 24.0001 4.32735 23.9789 4.27554 23.9397C4.22373 23.9004 4.18626 23.8453 4.16889 23.7828C4.15151 23.7203 4.15519 23.6538 4.17935 23.5936C4.2035 23.5333 4.24681 23.4827 4.30263 23.4493L5.93365 22.4745L2.45169 16.9184L0.423907 17.9282C0.353657 17.9613 0.273236 17.9655 0.199857 17.9402C0.126479 17.9148 0.0659717 17.8618 0.0312867 17.7925C-0.00339824 17.7232 -0.00950517 17.6431 0.0142719 17.5694C0.038049 17.4957 0.0898206 17.4341 0.158508 17.398L2.42791 16.2682C2.49406 16.2352 2.57015 16.228 2.64132 16.2481C2.71248 16.2681 2.77362 16.3138 2.81278 16.3763L6.59848 22.417C6.61943 22.4504 6.63348 22.4877 6.63983 22.5265C6.64617 22.5654 6.64468 22.6052 6.63544 22.6435C6.6262 22.6818 6.60939 22.7179 6.586 22.7496C6.56261 22.7814 6.53311 22.8082 6.49922 22.8284L4.60815 23.9582C4.56204 23.9856 4.50936 24.0001 4.45569 24Z" fill="currentColor"/>
<path d="M10.1348 17.5817C10.056 17.5817 9.9804 17.5505 9.92467 17.4949C9.86893 17.4393 9.83762 17.3639 9.83762 17.2853C9.83762 17.2067 9.86893 17.1313 9.92467 17.0757C9.9804 17.0202 10.056 16.9889 10.1348 16.9889L14.6727 16.9863C14.9919 16.9813 15.2962 16.8514 15.5201 16.6246C15.744 16.3977 15.8696 16.0922 15.8696 15.7739C15.8696 15.4556 15.744 15.1501 15.5201 14.9232C15.2962 14.6964 14.9919 14.5665 14.6727 14.5615L8.8854 14.5642C8.26817 14.5646 7.6621 14.7282 7.12896 15.0384L3.47343 17.165C3.40532 17.2046 3.32424 17.2156 3.24799 17.1956C3.17174 17.1756 3.10659 17.1262 3.06686 17.0583C3.02714 16.9904 3.01609 16.9095 3.03616 16.8335C3.05622 16.7574 3.10575 16.6925 3.17385 16.6528L6.82938 14.5263C7.45345 14.1635 8.16278 13.9723 8.8851 13.972L14.6724 13.9688C15.1485 13.9748 15.6029 14.1677 15.9374 14.5056C16.2719 14.8434 16.4595 15.2991 16.4595 15.7739C16.4595 16.2487 16.2719 16.7044 15.9374 17.0422C15.6029 17.3801 15.1485 17.573 14.6724 17.579L10.1348 17.5817Z" fill="currentColor"/>
<path d="M6.19786 22.1117C6.13278 22.1118 6.06945 22.0906 6.01759 22.0514C5.96574 22.0122 5.92822 21.9571 5.9108 21.8946C5.89339 21.832 5.89704 21.7655 5.92119 21.7053C5.94534 21.645 5.98867 21.5943 6.04451 21.561L7.39676 20.7515C7.7955 20.5125 8.25197 20.3863 8.7172 20.3864H14.6612C15.1265 20.3868 15.5871 20.2939 16.0158 20.1134L22.6989 16.9124L22.7137 16.9059C23.0121 16.7831 23.2494 16.5472 23.3733 16.2499C23.4972 15.9527 23.4977 15.6185 23.3745 15.321C23.2514 15.0234 23.0148 14.7868 22.7168 14.6632C22.4187 14.5396 22.0837 14.5392 21.7853 14.6619L15.1732 17.5571C15.1018 17.5846 15.0224 17.5836 14.9517 17.5542C14.881 17.5248 14.8244 17.4693 14.7938 17.3993C14.7631 17.3293 14.7607 17.2502 14.7871 17.1784C14.8135 17.1067 14.8667 17.048 14.9355 17.0144L21.5529 14.1187L21.5585 14.1163C21.9975 13.9545 22.4821 13.9682 22.9111 14.1546C23.3402 14.341 23.6803 14.6856 23.8604 15.1164C24.0405 15.5471 24.0465 16.0306 23.8774 16.4657C23.7082 16.9008 23.3769 17.2539 22.9527 17.451L16.2702 20.6519L16.2574 20.6579C15.7537 20.8711 15.212 20.9808 14.6647 20.9803H8.72077C8.3634 20.9802 8.01274 21.0771 7.70643 21.2607L6.35389 22.0702C6.30672 22.0981 6.25272 22.1124 6.19786 22.1117Z" fill="currentColor"/>
<path d="M12.4063 14.5615C12.36 14.5615 12.3142 14.5507 12.2728 14.53C12.2314 14.5092 12.1954 14.4791 12.1677 14.442C12.1401 14.4049 12.1215 14.3619 12.1135 14.3164C12.1055 14.2708 12.1082 14.224 12.1216 14.1798C12.3822 13.2889 12.8844 12.4872 13.5728 11.8629C14.1559 11.3457 14.8334 10.9454 15.5682 10.6836C16.3751 10.3859 17.225 10.2203 18.0849 10.1934C18.1637 10.1934 18.2393 10.2246 18.295 10.2802C18.3508 10.3358 18.3821 10.4111 18.3821 10.4897C18.3685 10.888 18.3004 11.2824 18.1797 11.6623C17.937 12.4911 17.4358 13.2213 16.749 13.747C16.6859 13.7942 16.6066 13.8145 16.5286 13.8033C16.4506 13.7922 16.3802 13.7507 16.3329 13.6878C16.2856 13.6249 16.2653 13.5458 16.2764 13.468C16.2876 13.3902 16.3293 13.32 16.3923 13.2728C17.1587 12.6631 17.6511 11.7751 17.7615 10.8036C17.0768 10.8614 16.403 11.0101 15.7578 11.2458C15.0975 11.4823 14.4889 11.8431 13.9651 12.3087C13.3608 12.8598 12.92 13.5661 12.691 14.3502C12.6727 14.4113 12.6351 14.4648 12.5838 14.5029C12.5325 14.541 12.4703 14.5615 12.4063 14.5615Z" fill="currentColor"/>
<path d="M12.4063 14.5618C12.3481 14.5619 12.2912 14.5449 12.2425 14.513C12.1939 14.481 12.1558 14.4356 12.1329 14.3822C11.2642 12.3606 8.14121 11.9981 7.08051 11.9332C7.19773 12.3096 7.40867 12.6503 7.69363 12.9234C7.74777 12.9793 7.77772 13.0542 7.77705 13.1319C7.77637 13.2096 7.74512 13.2839 7.69001 13.3389C7.63491 13.3938 7.56037 13.425 7.48244 13.4257C7.40452 13.4264 7.32945 13.3965 7.27339 13.3425C6.78575 12.8951 6.48485 12.2811 6.43054 11.6226C6.43054 11.544 6.46185 11.4686 6.51759 11.413C6.57332 11.3574 6.64892 11.3262 6.72774 11.3262C7.56733 11.3442 8.40208 11.4582 9.21558 11.6661C9.91559 11.8355 10.5849 12.1126 11.1994 12.4874C11.851 12.8771 12.3674 13.4563 12.6794 14.1472C12.6988 14.1923 12.7066 14.2414 12.7023 14.2903C12.6979 14.3391 12.6815 14.3861 12.6544 14.4271C12.6273 14.468 12.5905 14.5017 12.5472 14.5249C12.5039 14.5482 12.4555 14.5603 12.4063 14.5604V14.5618Z" fill="currentColor"/>
<path d="M12.4064 9.60543e-06C13.4388 -0.000688668 14.4482 0.304124 15.3068 0.875858C16.1655 1.44759 16.8347 2.26054 17.2298 3.21178C17.6249 4.16302 17.7281 5.20978 17.5263 6.21955C17.3245 7.22931 16.8269 8.15667 16.0964 8.88422C15.5517 9.42671 14.8934 9.84229 14.1687 10.1012C13.444 10.3601 12.6708 10.4559 11.9046 10.3817C11.1384 10.3075 10.3982 10.0652 9.73691 9.67217C9.07567 9.27911 8.50981 8.74502 8.07991 8.10819C7.65 7.47136 7.3667 6.74756 7.25031 5.98869C7.13391 5.22981 7.18731 4.45466 7.40667 3.71879C7.62603 2.98291 8.00592 2.30456 8.51912 1.73234C9.03231 1.16012 9.66608 0.708218 10.375 0.409024C11.0176 0.137784 11.7085 -0.00133155 12.4064 9.60543e-06ZM12.4064 9.81577C13.3209 9.81567 14.2148 9.54513 14.9752 9.03837C15.7355 8.53161 16.3281 7.81138 16.6781 6.96876C17.028 6.12613 17.1195 5.19895 16.9411 4.30445C16.7626 3.40996 16.3222 2.58832 15.6755 1.94342C15.2492 1.50222 14.7389 1.15018 14.1745 0.907871C13.6102 0.665565 13.0031 0.537854 12.3887 0.532199C11.7743 0.526543 11.1649 0.643057 10.5962 0.874932C10.0274 1.10681 9.51074 1.44939 9.07628 1.88268C8.64181 2.31596 8.29829 2.83125 8.06578 3.39843C7.83327 3.96562 7.71644 4.57333 7.72211 5.18606C7.72778 5.79878 7.85584 6.40424 8.09881 6.96705C8.34177 7.52986 8.69478 8.03874 9.13719 8.46395C9.56541 8.89365 10.0748 9.23438 10.636 9.46642C11.1972 9.69846 11.7989 9.8172 12.4064 9.81577Z" fill="currentColor"/>
<path d="M12.4063 13.8066C12.3275 13.8066 12.2519 13.7754 12.1962 13.7198C12.1404 13.6642 12.1091 13.5888 12.1091 13.5102V10.1124C12.1091 10.0338 12.1404 9.95843 12.1962 9.90285C12.2519 9.84727 12.3275 9.81604 12.4063 9.81604C12.4852 9.81604 12.5607 9.84727 12.6165 9.90285C12.6722 9.95843 12.7035 10.0338 12.7035 10.1124V13.5102C12.7035 13.5888 12.6722 13.6642 12.6165 13.7198C12.5607 13.7754 12.4852 13.8066 12.4063 13.8066Z" fill="currentColor"/>
<path d="M12.7849 7.766H12.0277C11.7327 7.75287 11.4468 7.66058 11.2002 7.49886C10.9535 7.33714 10.7551 7.112 10.6261 6.8472C10.5916 6.77697 10.5863 6.69599 10.6114 6.6219C10.6365 6.54781 10.69 6.48662 10.7601 6.45166C10.8303 6.4167 10.9114 6.4108 10.9859 6.43526C11.0604 6.45972 11.1222 6.51255 11.1578 6.58223C11.2369 6.74905 11.3593 6.89179 11.5122 6.99573C11.6651 7.09967 11.843 7.16104 12.0277 7.17352H12.7849C13.0073 7.17352 13.2206 7.08542 13.3779 6.92859C13.5351 6.77176 13.6235 6.55905 13.6235 6.33726C13.6235 6.11547 13.5351 5.90277 13.3779 5.74594C13.2206 5.58911 13.0073 5.50101 12.7849 5.50101H12.0277C11.6476 5.50101 11.2832 5.35045 11.0144 5.08246C10.7457 4.81446 10.5947 4.45098 10.5947 4.07198C10.5947 3.69297 10.7457 3.32949 11.0144 3.0615C11.2832 2.7935 11.6476 2.64294 12.0277 2.64294H12.7849C13.0798 2.65607 13.3657 2.74837 13.6124 2.91009C13.8591 3.07181 14.0575 3.29695 14.1865 3.56175C14.221 3.63198 14.2263 3.71296 14.2012 3.78705C14.1761 3.86114 14.1226 3.92233 14.0525 3.95729C13.9823 3.99225 13.9012 3.99814 13.8267 3.97368C13.7522 3.94923 13.6904 3.8964 13.6548 3.82672C13.575 3.6601 13.4522 3.5176 13.299 3.41377C13.1459 3.30994 12.9679 3.2485 12.7831 3.23572H12.028C11.8056 3.23572 11.5923 3.32383 11.435 3.48065C11.2778 3.63748 11.1894 3.85019 11.1894 4.07198C11.1894 4.29377 11.2778 4.50647 11.435 4.6633C11.5923 4.82013 11.8056 4.90824 12.028 4.90824H12.7852C13.1653 4.90824 13.5297 5.05879 13.7985 5.32679C14.0672 5.59478 14.2182 5.95826 14.2182 6.33726C14.2182 6.71627 14.0672 7.07975 13.7985 7.34774C13.5297 7.61574 13.1653 7.7663 12.7852 7.7663L12.7849 7.766Z" fill="currentColor"/>
<path d="M12.4063 3.23567C12.3275 3.23567 12.2519 3.20444 12.1962 3.14886C12.1404 3.09327 12.1091 3.01789 12.1091 2.93928V2.18408C12.1091 2.10548 12.1404 2.03009 12.1962 1.97451C12.2519 1.91892 12.3275 1.8877 12.4063 1.8877C12.4852 1.8877 12.5607 1.91892 12.6165 1.97451C12.6722 2.03009 12.7035 2.10548 12.7035 2.18408V2.93928C12.7035 3.01789 12.6722 3.09327 12.6165 3.14886C12.5607 3.20444 12.4852 3.23567 12.4063 3.23567Z" fill="currentColor"/>
<path d="M12.4063 8.52119C12.3275 8.52119 12.2519 8.48996 12.1962 8.43438C12.1404 8.37879 12.1091 8.30341 12.1091 8.2248V7.46961C12.1091 7.391 12.1404 7.31561 12.1962 7.26003C12.2519 7.20444 12.3275 7.17322 12.4063 7.17322C12.4852 7.17322 12.5607 7.20444 12.6165 7.26003C12.6722 7.31561 12.7035 7.391 12.7035 7.46961V8.2248C12.7035 8.30341 12.6722 8.37879 12.6165 8.43438C12.5607 8.48996 12.4852 8.52119 12.4063 8.52119Z" fill="currentColor"/>
</svg>
