<svg width="24" height="24" viewBox="0 0 24 24" fill="none" xmlns="http://www.w3.org/2000/svg">
<path d="M0.595638 11.9199C0.545294 11.92 0.495774 11.9071 0.451751 11.8827C0.407727 11.8583 0.370651 11.8231 0.344019 11.7803C0.0894552 11.3559 -0.0285889 10.8636 0.0058598 10.3699C0.029247 9.89235 0.188519 9.43141 0.46494 9.04128L0.469386 9.03535C0.502875 8.99208 3.82401 4.69529 4.65889 3.04865L4.70335 2.96152C4.91758 2.60444 5.05863 2.20831 5.11827 1.79619C5.12504 1.55131 5.07636 1.30808 4.97587 1.08467C4.87538 0.861269 4.72568 0.663475 4.53797 0.506081C4.49547 0.463643 4.46687 0.409293 4.45596 0.350235C4.44504 0.291177 4.45233 0.230195 4.47685 0.17537C4.50137 0.120545 4.54197 0.0744633 4.59326 0.0432296C4.64456 0.0119959 4.70414 -0.0029144 4.7641 0.00047153C6.06868 0.137661 7.33711 0.512525 8.50668 1.10653C9.72424 1.70005 10.8417 2.48 11.8186 3.41823C13.0948 4.65761 14.141 6.11351 14.9086 7.71828C14.9257 7.75331 14.9357 7.79136 14.9381 7.83026C14.9405 7.86916 14.9352 7.90815 14.9225 7.945C14.9098 7.98185 14.89 8.01584 14.8641 8.04503C14.8383 8.07422 14.807 8.09803 14.772 8.11512C14.7369 8.1322 14.6989 8.14222 14.66 8.1446C14.6211 8.14698 14.5821 8.14168 14.5453 8.12899C14.5084 8.11631 14.4744 8.09649 14.4452 8.07066C14.416 8.04484 14.3922 8.01352 14.3751 7.97849C13.6408 6.44213 12.6409 5.04753 11.4215 3.85893C10.4925 2.96447 9.42993 2.22007 8.27195 1.65244C7.47099 1.25939 6.62752 0.959672 5.75813 0.759182C5.64107 0.732804 5.5323 0.710281 5.43212 0.69161C5.63997 1.03597 5.73634 1.43615 5.70804 1.83738C5.64505 2.3295 5.48207 2.80353 5.22911 3.23033L5.18525 3.31627C4.32962 5.00263 1.10777 9.17406 0.938245 9.39189C0.730529 9.68906 0.611509 10.0391 0.595046 10.4013C0.567455 10.7726 0.654455 11.1433 0.844295 11.4635C0.872321 11.5084 0.887838 11.5599 0.88924 11.6127C0.890641 11.6656 0.877874 11.7179 0.852263 11.7641C0.826653 11.8104 0.78913 11.849 0.743589 11.8758C0.698048 11.9027 0.646147 11.9169 0.593269 11.917L0.595638 11.9199Z" fill="currentColor"/>
<path d="M1.72832 13.0523C1.66468 13.0524 1.6027 13.032 1.55156 12.9941C1.50042 12.9563 1.46283 12.9029 1.44435 12.842C1.42587 12.7811 1.42748 12.7159 1.44895 12.656C1.47041 12.5961 1.51059 12.5447 1.56353 12.5094L4.96113 10.2442C4.9938 10.2225 5.03047 10.2074 5.069 10.1999C5.10754 10.1925 5.14717 10.1927 5.18561 10.2007C5.22405 10.2086 5.26052 10.2242 5.29291 10.2463C5.32529 10.2685 5.35295 10.2969 5.37427 10.3299C5.48384 10.4997 5.62782 10.6446 5.7969 10.7553C5.96598 10.866 6.1564 10.9399 6.35586 10.9724C6.77364 11.0409 7.20188 10.9495 7.55527 10.7163L7.8715 10.5121C8.04008 10.4058 8.18496 10.2659 8.29713 10.1012C8.4093 9.93644 8.48636 9.75038 8.52352 9.55457C8.5934 9.14794 8.50438 8.73001 8.27486 8.38716C8.25371 8.35449 8.2392 8.31797 8.23216 8.27968C8.22512 8.2414 8.22569 8.20211 8.23384 8.16405C8.25029 8.08718 8.2966 8.02 8.36259 7.97728C8.42858 7.93456 8.50883 7.9198 8.5857 7.93625C8.66257 7.9527 8.72975 7.99902 8.77247 8.065C9.08451 8.53496 9.20398 9.10687 9.10619 9.66245C9.05477 9.93761 8.94725 10.1993 8.7903 10.431C8.63336 10.6628 8.43036 10.8598 8.19395 11.0097L7.87772 11.2139C7.39963 11.5279 6.82081 11.6502 6.25657 11.5566C5.79235 11.4806 5.3688 11.2461 5.05805 10.893L1.89251 13.0034C1.84378 13.0355 1.78667 13.0526 1.72832 13.0523Z" fill="currentColor"/>
<path d="M16.5307 24H4.07269C3.894 23.9999 3.72267 23.9288 3.59631 23.8025C3.46996 23.6761 3.3989 23.5048 3.39874 23.3261V21.4385C3.39906 21.1597 3.50994 20.8924 3.70707 20.6953C3.9042 20.4982 4.17148 20.3873 4.45027 20.387H4.53177C4.53651 19.0302 4.60527 17.9206 5.63279 16.8204L5.29522 15.4699C5.28932 15.4463 5.28634 15.4221 5.28633 15.3979V13.1333C5.28633 13.0547 5.31756 12.9793 5.37314 12.9237C5.42872 12.8681 5.5041 12.8369 5.5827 12.8369C5.66131 12.8369 5.73669 12.8681 5.79227 12.9237C5.84785 12.9793 5.87908 13.0547 5.87908 13.1333V15.362L6.24776 16.8367C6.2602 16.8864 6.25955 16.9384 6.24589 16.9878C6.23223 17.0371 6.20602 17.0821 6.16982 17.1183C5.71582 17.5521 5.39888 18.1094 5.25818 18.7214C5.14127 19.3686 5.09634 20.0268 5.12422 20.6839C5.12422 20.7625 5.09299 20.8379 5.03741 20.8935C4.98183 20.9491 4.90645 20.9803 4.82785 20.9803H4.45027C4.32872 20.9804 4.21216 21.0287 4.12616 21.1146C4.04015 21.2005 3.99172 21.3169 3.99149 21.4385V23.3261C3.99149 23.3476 4.00004 23.3683 4.01527 23.3835C4.0305 23.3987 4.05115 23.4073 4.07269 23.4073H16.5307C16.6093 23.4073 16.6847 23.4385 16.7402 23.4941C16.7958 23.5497 16.827 23.6251 16.827 23.7037C16.827 23.7823 16.7958 23.8577 16.7402 23.9132C16.6847 23.9688 16.6093 24 16.5307 24Z" fill="currentColor"/>
<path d="M6.71541 17.2048H5.96025C5.88165 17.2048 5.80626 17.1736 5.75068 17.118C5.6951 17.0624 5.66388 16.987 5.66388 16.9084C5.66388 16.8298 5.6951 16.7544 5.75068 16.6989C5.80626 16.6433 5.88165 16.6121 5.96025 16.6121H6.71541C6.79401 16.6121 6.86939 16.6433 6.92497 16.6989C6.98055 16.7544 7.01178 16.8298 7.01178 16.9084C7.01178 16.987 6.98055 17.0624 6.92497 17.118C6.86939 17.1736 6.79401 17.2048 6.71541 17.2048Z" fill="currentColor"/>
<path d="M5.96024 20.9799H4.8278C4.7492 20.9799 4.67382 20.9487 4.61824 20.8931C4.56266 20.8376 4.53143 20.7622 4.53143 20.6836C4.53143 20.605 4.56266 20.5296 4.61824 20.474C4.67382 20.4184 4.7492 20.3872 4.8278 20.3872H5.96024C6.03884 20.3872 6.11423 20.4184 6.16981 20.474C6.22539 20.5296 6.25661 20.605 6.25661 20.6836C6.25661 20.7622 6.22539 20.8376 6.16981 20.8931C6.11423 20.9487 6.03884 20.9799 5.96024 20.9799Z" fill="currentColor"/>
<path d="M21.0826 7.88928C21.1518 7.8893 21.2189 7.91356 21.2721 7.95784C21.3253 8.00212 21.3613 8.06364 21.3739 8.13171L21.6851 9.81688H23.3261C23.3816 9.8169 23.436 9.83249 23.483 9.86187C23.5301 9.89125 23.5679 9.93325 23.5923 9.98309C23.6167 10.0329 23.6265 10.0886 23.6208 10.1438C23.6151 10.199 23.594 10.2514 23.56 10.2952L20.9172 13.6928C20.8895 13.7284 20.854 13.7573 20.8135 13.7771C20.773 13.7969 20.7285 13.8072 20.6834 13.8072H18.7973C18.7263 13.8072 18.6577 13.7818 18.6039 13.7355C18.5501 13.6892 18.5147 13.6252 18.5042 13.555L18.235 11.7712C18.2235 11.6945 18.2425 11.6164 18.2878 11.5536L20.8437 8.01228C20.871 7.97441 20.9069 7.94353 20.9484 7.92216C20.9899 7.90078 21.0359 7.88952 21.0826 7.88928ZM22.7203 10.4084H21.4388C21.3696 10.4084 21.3026 10.3842 21.2493 10.3399C21.1961 10.2956 21.1601 10.2341 21.1475 10.166L20.9175 8.92125L18.8385 11.8023L19.0516 13.2142H20.539L22.7203 10.4084Z" fill="currentColor"/>
<path d="M16.5306 16.8272C16.4665 16.8272 16.4041 16.8064 16.3528 16.768C16.2899 16.7208 16.2483 16.6506 16.2372 16.5728C16.2261 16.495 16.2464 16.4159 16.2935 16.3531L18.5587 13.333C18.582 13.3019 18.6113 13.2757 18.6448 13.2558C18.6783 13.236 18.7154 13.223 18.7539 13.2175C18.7924 13.212 18.8316 13.2141 18.8693 13.2237C18.907 13.2334 18.9425 13.2504 18.9736 13.2738C19.0365 13.3209 19.0781 13.3911 19.0892 13.4689C19.1003 13.5467 19.0801 13.6258 19.0329 13.6887L16.7677 16.7087C16.7401 16.7455 16.7043 16.7754 16.6632 16.796C16.622 16.8165 16.5766 16.8272 16.5306 16.8272Z" fill="currentColor"/>
<path d="M16.53 23.9991C14.5492 23.9991 12.6496 23.2123 11.249 21.8116C9.84832 20.411 9.06146 18.5114 9.06146 16.5306C9.06146 14.5498 9.84832 12.6501 11.249 11.2495C12.6496 9.84887 14.5492 9.06201 16.53 9.06201C17.1241 9.06447 17.7157 9.1375 18.2925 9.27955C18.3304 9.28871 18.366 9.30524 18.3975 9.32819C18.4289 9.35113 18.4555 9.38005 18.4758 9.41328C18.4961 9.44651 18.5096 9.4834 18.5156 9.52186C18.5216 9.56032 18.52 9.59959 18.5108 9.63742C18.5017 9.67525 18.4851 9.7109 18.4622 9.74234C18.4392 9.77379 18.4103 9.8004 18.3771 9.82067C18.3439 9.84094 18.307 9.85447 18.2685 9.86047C18.23 9.86648 18.1908 9.86486 18.1529 9.85569C17.6218 9.72469 17.077 9.65724 16.53 9.65475C15.0259 9.65412 13.563 10.1465 12.3653 11.0564C11.1676 11.9664 10.3012 13.2439 9.89864 14.6932C9.49611 16.1425 9.57969 17.6837 10.1366 19.081C10.6934 20.4783 11.6929 21.6545 12.9819 22.4297C14.271 23.2048 15.7786 23.5361 17.2738 23.3729C18.7691 23.2096 20.1697 22.5607 21.261 21.5257C22.3524 20.4906 23.0745 19.1264 23.3167 17.6419C23.5589 16.1573 23.3079 14.6343 22.6021 13.3061C22.583 13.2716 22.5709 13.2338 22.5666 13.1947C22.5623 13.1556 22.5659 13.116 22.577 13.0782C22.5882 13.0405 22.6067 13.0054 22.6316 12.9749C22.6565 12.9444 22.6872 12.9192 22.7219 12.9007C22.7567 12.8822 22.7947 12.8708 22.8339 12.8672C22.8731 12.8635 22.9126 12.8677 22.9501 12.8795C22.9877 12.8913 23.0225 12.9105 23.0525 12.9359C23.0826 12.9613 23.1073 12.9924 23.1252 13.0275C23.7306 14.1653 24.0312 15.4406 23.9975 16.729C23.9639 18.0175 23.5972 19.2754 22.9331 20.3801C22.2691 21.4848 21.3303 22.3987 20.2082 23.0329C19.0861 23.6671 17.8189 24 16.53 23.9991Z" fill="currentColor"/>
<path d="M16.5306 20.9799C15.9178 20.9841 15.3108 20.8616 14.7476 20.6202C14.1844 20.3788 13.6771 20.0236 13.2576 19.5769C12.838 19.1303 12.5153 18.6018 12.3095 18.0246C12.1038 17.4473 12.0196 16.8338 12.062 16.2225C12.1045 15.6112 12.2728 15.0153 12.5564 14.472C12.8399 13.9288 13.2327 13.45 13.71 13.0657C14.1872 12.6813 14.7387 12.3997 15.3299 12.2385C15.9211 12.0773 16.5393 12.04 17.1456 12.1288C17.2233 12.1397 17.2936 12.1811 17.3408 12.2437C17.3881 12.3064 17.4086 12.3853 17.3978 12.463C17.3871 12.5408 17.3458 12.6111 17.2833 12.6585C17.2207 12.7059 17.1419 12.7266 17.0641 12.7159C16.224 12.5976 15.3684 12.7593 14.6294 13.176C13.8904 13.5927 13.3092 14.2411 12.9756 15.0212C12.6421 15.8012 12.5747 16.6694 12.7839 17.4915C12.9931 18.3137 13.4673 19.044 14.1331 19.5698C14.7989 20.0955 15.6194 20.3873 16.4677 20.4C17.3159 20.4128 18.1448 20.1458 18.8261 19.6404C19.5075 19.135 20.0034 18.4192 20.2373 17.6037C20.4711 16.7882 20.4299 15.9184 20.12 15.1287C20.1058 15.0924 20.0989 15.0537 20.0997 15.0148C20.1005 14.9759 20.1089 14.9375 20.1245 14.9019C20.1561 14.8299 20.2149 14.7733 20.2882 14.7447C20.3614 14.7161 20.443 14.7178 20.515 14.7493C20.587 14.7808 20.6435 14.8397 20.6721 14.9129C20.9362 15.587 21.0316 16.3154 20.9501 17.0348C20.8686 17.7542 20.6126 18.4428 20.2045 19.0407C19.7963 19.6387 19.2482 20.1279 18.608 20.4659C17.9677 20.8038 17.2546 20.9803 16.5306 20.9799Z" fill="currentColor"/>
<path d="M16.5321 18.3375C16.1848 18.3369 15.8449 18.2362 15.5532 18.0475C15.2616 17.8588 15.0305 17.59 14.8876 17.2734C14.7446 16.9568 14.696 16.6057 14.7474 16.2621C14.7988 15.9186 14.9481 15.5971 15.1774 15.3362C15.2294 15.2772 15.3027 15.2413 15.3812 15.2364C15.4596 15.2315 15.5368 15.258 15.5958 15.3099C15.6547 15.3619 15.6906 15.4352 15.6955 15.5137C15.7004 15.5921 15.674 15.6693 15.622 15.7283C15.5079 15.8553 15.4218 16.0049 15.3694 16.1674C15.317 16.3298 15.2994 16.5015 15.3178 16.6713C15.3362 16.841 15.3901 17.005 15.4761 17.1525C15.5621 17.2999 15.6782 17.4277 15.8168 17.5273C15.9555 17.6269 16.1136 17.6962 16.2808 17.7306C16.448 17.765 16.6206 17.7638 16.7874 17.7271C16.9541 17.6903 17.1112 17.6189 17.2484 17.5173C17.3857 17.4158 17.5 17.2865 17.584 17.1378C17.6028 17.1029 17.6284 17.0721 17.6593 17.0472C17.6902 17.0224 17.7258 17.004 17.764 16.9932C17.8022 16.9823 17.8421 16.9793 17.8815 16.9842C17.9209 16.989 17.9588 17.0018 17.9932 17.0216C18.0275 17.0415 18.0576 17.068 18.0815 17.0997C18.1054 17.1313 18.1227 17.1675 18.1324 17.206C18.142 17.2444 18.1439 17.2845 18.1378 17.3237C18.1317 17.3629 18.1178 17.4005 18.097 17.4342C17.9379 17.7084 17.7097 17.9362 17.4351 18.0947C17.1605 18.2532 16.8492 18.3369 16.5321 18.3375Z" fill="currentColor"/>
</svg>
