<svg width="24" height="24" viewBox="0 0 24 24" fill="none" xmlns="http://www.w3.org/2000/svg">
<path d="M14.7896 14.5615H9.20711C9.14207 14.5615 9.07884 14.5402 9.02715 14.5007C8.97547 14.4612 8.9382 14.4058 8.92109 14.3431C7.62529 9.58992 7.57045 8.07241 7.56808 7.92925C7.51307 7.05223 7.56612 6.17177 7.72606 5.3077C7.85665 4.62051 8.07854 3.95386 8.38582 3.32547C8.8578 2.39711 9.50612 1.56959 10.2946 0.889163C11.2454 0.027564 11.9247 0 11.9976 0C12.0705 0 12.7513 0.0266749 13.7027 0.889163C14.4909 1.56976 15.1389 2.39738 15.6106 3.32577C15.9179 3.95415 16.1399 4.62079 16.2706 5.308C16.4305 6.17207 16.4836 7.05253 16.4286 7.92955C16.4265 8.07241 16.3711 9.58933 15.0753 14.3434C15.0581 14.406 15.0209 14.4613 14.9693 14.5007C14.9176 14.5401 14.8545 14.5615 14.7896 14.5615ZM9.43414 13.9687H14.5616C15.8088 9.35281 15.8361 7.93222 15.8361 7.91829C15.8361 7.91296 15.8361 7.90851 15.8361 7.90318C15.8888 7.07281 15.839 6.23912 15.6879 5.42093C15.5674 4.78565 15.3624 4.16934 15.0785 3.58836C14.6393 2.72715 14.0367 1.95959 13.3044 1.32841C12.5699 0.662721 12.0595 0.598409 11.9976 0.593074C11.9362 0.598409 11.4253 0.663015 10.6914 1.32811C9.95888 1.95934 9.3561 2.72701 8.91665 3.58836C8.63277 4.16933 8.42783 4.78565 8.30728 5.42093C8.15613 6.23912 8.10636 7.07281 8.15908 7.90318C8.15908 7.90851 8.15908 7.91394 8.15908 7.91947C8.16116 7.93222 8.18664 9.35281 9.43384 13.9687H9.43414Z" fill="currentColor"/>
<path d="M11.9982 2.85806C11.2687 2.85806 10.4531 2.80619 9.93412 2.42237C9.90228 2.39944 9.87532 2.37042 9.8548 2.33699C9.83427 2.30355 9.82057 2.26638 9.81452 2.22762C9.80847 2.18886 9.81017 2.14928 9.81953 2.11119C9.82889 2.07309 9.84573 2.03722 9.86905 2.00568C9.89238 1.97413 9.92173 1.94753 9.95541 1.92742C9.9891 1.9073 10.0264 1.89409 10.0653 1.88852C10.1041 1.88294 10.1437 1.88513 10.1816 1.89496C10.2196 1.9048 10.2553 1.92207 10.2865 1.94579C10.6692 2.22884 11.4021 2.26529 11.9979 2.26529C12.3126 2.26529 13.2723 2.26529 13.711 1.94459C13.7424 1.92099 13.7782 1.90386 13.8163 1.89421C13.8543 1.88456 13.894 1.88258 13.9328 1.88838C13.9717 1.89418 14.009 1.90764 14.0426 1.928C14.0762 1.94835 14.1054 1.97518 14.1286 2.00693C14.1517 2.03868 14.1683 2.07471 14.1774 2.11293C14.1865 2.15115 14.1879 2.1908 14.1815 2.22957C14.1752 2.26834 14.1612 2.30546 14.1403 2.33876C14.1195 2.37206 14.0922 2.40089 14.0601 2.42356C13.5323 2.80857 12.6807 2.85806 11.9982 2.85806Z" fill="currentColor"/>
<path d="M11.9982 4.9082C12.4301 4.9082 12.8524 5.0363 13.2116 5.27629C13.5707 5.51628 13.8507 5.85738 14.016 6.25647C14.1813 6.65556 14.2246 7.09471 14.1403 7.51838C14.056 7.94205 13.848 8.33121 13.5425 8.63666C13.2371 8.94211 12.8479 9.15012 12.4243 9.2344C12.0006 9.31867 11.5614 9.27542 11.1624 9.11011C10.7633 8.9448 10.4222 8.66486 10.1822 8.30569C9.94218 7.94652 9.81409 7.52425 9.81409 7.09228C9.81471 6.51322 10.045 5.95806 10.4545 5.5486C10.8639 5.13914 11.4191 4.90883 11.9982 4.9082ZM11.9982 8.68359C12.3129 8.68359 12.6206 8.59026 12.8822 8.4154C13.1439 8.24055 13.3479 7.99202 13.4683 7.70125C13.5888 7.41048 13.6203 7.09052 13.5589 6.78183C13.4975 6.47315 13.3459 6.18961 13.1234 5.96706C12.9008 5.74451 12.6173 5.59296 12.3086 5.53155C11.9999 5.47015 11.68 5.50167 11.3892 5.62211C11.0984 5.74255 10.8499 5.94651 10.675 6.2082C10.5002 6.46989 10.4069 6.77755 10.4069 7.09228C10.4073 7.51418 10.5751 7.91866 10.8735 8.21699C11.1718 8.51531 11.5763 8.68312 11.9982 8.68359Z" fill="currentColor"/>
<path d="M13.5083 16.4492H10.4881C10.4197 16.4493 10.3534 16.4258 10.3004 16.3826C10.2474 16.3393 10.211 16.2791 10.1973 16.2121L9.81972 14.3245C9.81147 14.286 9.81094 14.2464 9.81815 14.2078C9.82536 14.1692 9.84018 14.1324 9.86174 14.0995C9.8833 14.0667 9.91116 14.0385 9.94372 14.0165C9.97628 13.9945 10.0129 13.9793 10.0514 13.9716C10.0899 13.9639 10.1296 13.9639 10.1681 13.9717C10.2066 13.9794 10.2432 13.9948 10.2757 14.0168C10.3082 14.0388 10.336 14.0671 10.3575 14.1C10.379 14.1328 10.3938 14.1696 10.4009 14.2083L10.7308 15.8577H13.2652L13.5951 14.2083C13.6115 14.1321 13.6571 14.0655 13.7222 14.0227C13.7873 13.98 13.8666 13.9646 13.943 13.9799C14.0193 13.9951 14.0866 14.0398 14.1303 14.1043C14.174 14.1688 14.1905 14.2479 14.1763 14.3245L13.7987 16.2121C13.7851 16.2791 13.7487 16.3393 13.6958 16.3825C13.6428 16.4257 13.5766 16.4493 13.5083 16.4492Z" fill="currentColor"/>
<path d="M8.2231 17.9593H7.0906C7.03398 17.9593 6.97854 17.9431 6.93085 17.9125C6.88316 17.882 6.8452 17.8385 6.82148 17.7871L5.04138 13.9305C4.87574 13.5702 4.83301 13.1656 4.91976 12.7787C5.0065 12.3918 5.21793 12.0441 5.52153 11.7891L7.6484 9.89219C7.70704 9.83984 7.78408 9.81292 7.86256 9.81737C7.94104 9.82182 8.01455 9.85727 8.0669 9.91591C8.11925 9.97455 8.14616 10.0516 8.14172 10.1301C8.13727 10.2085 8.10183 10.282 8.04319 10.3344L5.91276 12.2357L5.90505 12.2423C5.69991 12.4132 5.55681 12.6471 5.49788 12.9075C5.43895 13.168 5.46747 13.4406 5.57903 13.6833L7.27969 17.3677H8.2228C8.30141 17.3677 8.3768 17.3989 8.43238 17.4545C8.48796 17.5101 8.51919 17.5855 8.51919 17.6641C8.51919 17.7427 8.48796 17.8181 8.43238 17.8736C8.3768 17.9292 8.30141 17.9605 8.2228 17.9605L8.2231 17.9593Z" fill="currentColor"/>
<path d="M16.9061 17.9594H15.7736C15.695 17.9594 15.6196 17.9281 15.564 17.8725C15.5084 17.817 15.4772 17.7416 15.4772 17.663C15.4772 17.5844 15.5084 17.509 15.564 17.4534C15.6196 17.3978 15.695 17.3666 15.7736 17.3666H16.7167L18.4173 13.6822C18.5289 13.4395 18.5574 13.1669 18.4985 12.9064C18.4395 12.646 18.2965 12.4121 18.0913 12.2412L18.0836 12.2346L15.9532 10.3333C15.9241 10.3074 15.9005 10.276 15.8836 10.2409C15.8667 10.2059 15.8568 10.1678 15.8546 10.129C15.8502 10.0505 15.8771 9.97345 15.9295 9.91481C15.9818 9.85617 16.0553 9.82072 16.1338 9.81627C16.2123 9.81182 16.2893 9.83874 16.348 9.89109L18.4748 11.788C18.7786 12.0428 18.9902 12.3905 19.077 12.7775C19.1637 13.1644 19.1209 13.5692 18.955 13.9294L17.1749 17.786C17.1513 17.8376 17.1135 17.8813 17.0659 17.912C17.0182 17.9428 16.9628 17.9592 16.9061 17.9594Z" fill="currentColor"/>
<path d="M8.22279 23.2451C8.14418 23.2451 8.0688 23.2139 8.01322 23.1583C7.95763 23.1027 7.9264 23.0274 7.9264 22.9488C7.92753 22.6388 7.83778 22.3352 7.66823 22.0757C7.49868 21.8162 7.25678 21.6121 6.97245 21.4886C6.68811 21.3651 6.37382 21.3276 6.06843 21.3809C5.76303 21.4341 5.47995 21.5757 5.25417 21.7881C5.21742 21.8223 5.17259 21.8466 5.12387 21.8587C5.07516 21.8709 5.02415 21.8704 4.97566 21.8574C4.92716 21.8445 4.88276 21.8194 4.84661 21.7845C4.81046 21.7497 4.78375 21.7063 4.76898 21.6583C4.57436 21.0317 4.18761 20.4821 3.66346 20.0874C3.20402 19.7436 2.65825 19.5339 2.08679 19.4815C1.51533 19.4292 0.940555 19.5364 0.426316 19.791C0.356006 19.8253 0.274991 19.8304 0.200932 19.8052C0.126873 19.7801 0.065779 19.7266 0.030967 19.6565C-0.00384492 19.5865 -0.0095525 19.5055 0.015093 19.4313C0.0397385 19.357 0.0927369 19.2955 0.162532 19.2602C0.775131 18.9566 1.45992 18.8289 2.14076 18.8912C2.8216 18.9536 3.47181 19.2035 4.01912 19.6132C4.5296 19.9979 4.93281 20.5071 5.19015 21.0922C5.53345 20.8775 5.93019 20.7636 6.3351 20.7635C6.91416 20.7641 7.46932 20.9944 7.87878 21.4039C8.28824 21.8133 8.51855 22.3685 8.51918 22.9476C8.51933 22.9866 8.51178 23.0253 8.49696 23.0614C8.48213 23.0975 8.46032 23.1303 8.43279 23.1579C8.40525 23.1856 8.37253 23.2075 8.33649 23.2225C8.30045 23.2374 8.26181 23.2451 8.22279 23.2451Z" fill="currentColor"/>
<path d="M15.7736 23.2451C15.695 23.2451 15.6196 23.2139 15.564 23.1583C15.5084 23.1027 15.4772 23.0273 15.4772 22.9487C15.4778 22.3696 15.7081 21.8145 16.1176 21.405C16.527 20.9956 17.0822 20.7652 17.6612 20.7646C18.0661 20.7647 18.4627 20.8786 18.8059 21.0933C19.0632 20.5082 19.4665 19.999 19.9769 19.6143C20.5243 19.2046 21.1746 18.9547 21.8554 18.8923C22.5363 18.83 23.2212 18.9578 23.8338 19.2613C23.869 19.2785 23.9004 19.3024 23.9262 19.3318C23.9521 19.3611 23.9719 19.3953 23.9845 19.4323C23.9971 19.4693 24.0022 19.5085 23.9996 19.5475C23.997 19.5865 23.9867 19.6246 23.9693 19.6596C23.9519 19.6947 23.9277 19.7259 23.8982 19.7515C23.8687 19.7772 23.8344 19.7967 23.7973 19.809C23.7602 19.8213 23.721 19.8262 23.682 19.8233C23.643 19.8204 23.6049 19.8098 23.57 19.7922C23.0558 19.5375 22.481 19.4304 21.9096 19.4827C21.3381 19.5351 20.7923 19.7448 20.3329 20.0886C19.8088 20.4833 19.4221 21.0328 19.2274 21.6594C19.2126 21.7074 19.1859 21.7509 19.1497 21.7857C19.1135 21.8206 19.069 21.8457 19.0205 21.8586C18.972 21.8716 18.9209 21.872 18.8722 21.8598C18.8234 21.8476 18.7786 21.8232 18.7419 21.7889C18.5162 21.5765 18.2332 21.4349 17.9279 21.3816C17.6226 21.3283 17.3084 21.3657 17.0241 21.4891C16.7398 21.6125 16.4979 21.8165 16.3283 22.0759C16.1587 22.3354 16.0689 22.6388 16.0699 22.9487C16.0699 23.0273 16.0387 23.1027 15.9831 23.1583C15.9276 23.2139 15.8522 23.2451 15.7736 23.2451Z" fill="currentColor"/>
<path d="M7.8784 24C7.82874 23.9999 7.77989 23.9874 7.73633 23.9636C7.69277 23.9397 7.65591 23.9053 7.62911 23.8635C7.60232 23.8217 7.58647 23.7738 7.583 23.7243C7.57953 23.6748 7.58857 23.6251 7.60927 23.58C7.99448 22.74 8.61266 22.0281 9.39041 21.529C10.1682 21.0299 11.0728 20.7644 11.997 20.7642C12.9211 20.7639 13.8259 21.0289 14.6039 21.5276C15.382 22.0263 16.0005 22.7378 16.3862 23.5776C16.4191 23.6491 16.4222 23.7306 16.3949 23.8043C16.3677 23.8781 16.3122 23.9379 16.2408 23.9708C16.1694 24.0037 16.0879 24.0068 16.0141 23.9795C15.9404 23.9523 15.8805 23.8968 15.8477 23.8254C15.5094 23.0887 14.9667 22.4644 14.2842 22.0269C13.6017 21.5894 12.8079 21.357 11.9972 21.3572C11.1865 21.3574 10.3929 21.5903 9.71058 22.0282C9.02829 22.4661 8.486 23.0905 8.1481 23.8275C8.12438 23.8791 8.08636 23.9227 8.03855 23.9533C7.99074 23.9839 7.93515 24.0001 7.8784 24Z" fill="currentColor"/>
<path d="M8.60068 20.2246H8.22308C8.14448 20.2246 8.06909 20.1934 8.01351 20.1378C7.95792 20.0822 7.9267 20.0069 7.9267 19.9283C7.9267 19.8496 7.95792 19.7743 8.01351 19.7187C8.06909 19.6631 8.14448 19.6319 8.22308 19.6319H8.60068C9.02258 19.6314 9.42706 19.4636 9.72538 19.1653C10.0237 18.8669 10.1915 18.4625 10.192 18.0406V17.663C10.192 17.5844 10.2232 17.509 10.2788 17.4534C10.3344 17.3978 10.4098 17.3666 10.4884 17.3666C10.567 17.3666 10.6424 17.3978 10.6979 17.4534C10.7535 17.509 10.7848 17.5844 10.7848 17.663V18.0406C10.7841 18.6196 10.5538 19.1748 10.1444 19.5842C9.73491 19.9937 9.17974 20.224 8.60068 20.2246Z" fill="currentColor"/>
<path d="M15.7738 20.2246H15.3962C14.8172 20.224 14.262 19.9937 13.8526 19.5842C13.4431 19.1748 13.2128 18.6196 13.2122 18.0406V17.663C13.2122 17.5844 13.2434 17.509 13.299 17.4534C13.3546 17.3978 13.4299 17.3666 13.5085 17.3666C13.5872 17.3666 13.6625 17.3978 13.7181 17.4534C13.7737 17.509 13.8049 17.5844 13.8049 17.663V18.0406C13.8054 18.4625 13.9732 18.8669 14.2715 19.1653C14.5699 19.4636 14.9743 19.6314 15.3962 19.6319H15.7738C15.8524 19.6319 15.9278 19.6631 15.9834 19.7187C16.039 19.7743 16.0702 19.8496 16.0702 19.9283C16.0702 20.0069 16.039 20.0822 15.9834 20.1378C15.9278 20.1934 15.8524 20.2246 15.7738 20.2246Z" fill="currentColor"/>
</svg>
