<svg width="24" height="24" viewBox="0 0 24 24" fill="none" xmlns="http://www.w3.org/2000/svg">
<path d="M17.992 24H5.84803C5.36719 23.9995 4.90619 23.8093 4.5661 23.4711C4.22602 23.1329 4.0346 22.6743 4.03381 22.1959V13.9709H4.62641V22.1959C4.6268 22.5181 4.75563 22.827 4.98464 23.0549C5.21366 23.2828 5.52416 23.4109 5.84803 23.4113H17.992C18.3159 23.4109 18.6264 23.2828 18.8554 23.0549C19.0844 22.827 19.2133 22.5181 19.2137 22.1959V17.7467H19.8063V22.1959C19.8055 22.6743 19.614 23.1329 19.274 23.4711C18.9339 23.8093 18.4729 23.9995 17.992 24Z" fill="currentColor"/>
<path d="M4.62641 7.76385H4.03381V1.80506C4.03436 1.3265 4.22568 0.867688 4.5658 0.529292C4.90591 0.190895 5.36704 0.000546173 5.84803 0H17.992C18.473 0.000546173 18.9342 0.190895 19.2743 0.529292C19.6144 0.867688 19.8057 1.3265 19.8063 1.80506V3.61012H19.2137V1.80506C19.2133 1.48282 19.0844 1.17389 18.8554 0.946031C18.6264 0.718173 18.3159 0.58999 17.992 0.5896H5.84803C5.52416 0.58999 5.21366 0.718173 4.98464 0.946031C4.75563 1.17389 4.6268 1.48282 4.62641 1.80506V7.76385Z" fill="currentColor"/>
<path d="M6.90344 5.49828H6.31085V2.5603C6.31085 2.48212 6.34207 2.40713 6.39764 2.35185C6.45321 2.29656 6.52857 2.2655 6.60715 2.2655H17.2332C17.3118 2.2655 17.3872 2.29656 17.4427 2.35185C17.4983 2.40713 17.5295 2.48212 17.5295 2.5603V3.61038H16.9369V2.8551H6.90344V5.49828Z" fill="currentColor"/>
<path d="M17.2332 19.4692H6.60715C6.52857 19.4692 6.45321 19.4382 6.39764 19.3829C6.34207 19.3276 6.31085 19.2526 6.31085 19.1744V16.2365H6.90344V18.8796H16.9369V17.747H17.5295V19.1744C17.5295 19.2526 17.4983 19.3276 17.4427 19.3829C17.3872 19.4382 17.3118 19.4692 17.2332 19.4692Z" fill="currentColor"/>
<path d="M13.3333 21.4753H10.3703C10.2917 21.4753 10.2164 21.4443 10.1608 21.389C10.1053 21.3337 10.074 21.2587 10.074 21.1805C10.074 21.1024 10.1053 21.0274 10.1608 20.9721C10.2164 20.9168 10.2917 20.8857 10.3703 20.8857H13.3333C13.4119 20.8857 13.4872 20.9168 13.5428 20.9721C13.5984 21.0274 13.6296 21.1024 13.6296 21.1805C13.6296 21.2587 13.5984 21.3337 13.5428 21.389C13.4872 21.4443 13.4119 21.4753 13.3333 21.4753Z" fill="currentColor"/>
<path d="M1.48148 9.97815H0.296296C0.217714 9.97815 0.14235 9.94709 0.0867832 9.89181C0.0312168 9.83652 0 9.76154 0 9.68335C0 9.60516 0.0312168 9.53018 0.0867832 9.47489C0.14235 9.41961 0.217714 9.38855 0.296296 9.38855H1.48148C1.56006 9.38855 1.63543 9.41961 1.69099 9.47489C1.74656 9.53018 1.77778 9.60516 1.77778 9.68335C1.77778 9.76154 1.74656 9.83652 1.69099 9.89181C1.63543 9.94709 1.56006 9.97815 1.48148 9.97815Z" fill="currentColor"/>
<path d="M7.40739 9.97815H3.85184C3.77326 9.97815 3.69789 9.94709 3.64233 9.89181C3.58676 9.83652 3.55554 9.76154 3.55554 9.68335C3.55554 9.60516 3.58676 9.53018 3.64233 9.47489C3.69789 9.41961 3.77326 9.38855 3.85184 9.38855H7.40739C7.48598 9.38855 7.56134 9.41961 7.61691 9.47489C7.67247 9.53018 7.70369 9.60516 7.70369 9.68335C7.70369 9.76154 7.67247 9.83652 7.61691 9.89181C7.56134 9.94709 7.48598 9.97815 7.40739 9.97815Z" fill="currentColor"/>
<path d="M2.96299 12.3365H1.18521C1.10663 12.3365 1.03127 12.3055 0.975699 12.2502C0.920133 12.1949 0.888916 12.1199 0.888916 12.0417C0.888916 11.9636 0.920133 11.8886 0.975699 11.8333C1.03127 11.778 1.10663 11.7469 1.18521 11.7469H2.96299C3.04157 11.7469 3.11694 11.778 3.1725 11.8333C3.22807 11.8886 3.25929 11.9636 3.25929 12.0417C3.25929 12.1199 3.22807 12.1949 3.1725 12.2502C3.11694 12.3055 3.04157 12.3365 2.96299 12.3365Z" fill="currentColor"/>
<path d="M8.59257 12.3365H5.03702C4.95844 12.3365 4.88307 12.3055 4.82751 12.2502C4.77194 12.1949 4.74072 12.1199 4.74072 12.0417C4.74072 11.9636 4.77194 11.8886 4.82751 11.8333C4.88307 11.778 4.95844 11.7469 5.03702 11.7469H8.59257C8.67116 11.7469 8.74652 11.778 8.80209 11.8333C8.85765 11.8886 8.88887 11.9636 8.88887 12.0417C8.88887 12.1199 8.85765 12.1949 8.80209 12.2502C8.74652 12.3055 8.67116 12.3365 8.59257 12.3365Z" fill="currentColor"/>
<path d="M11.5556 14.4001C11.5096 14.4001 11.4642 14.3895 11.4231 14.369C11.3819 14.3486 11.3461 14.3188 11.3185 14.2822C11.2714 14.2197 11.2511 14.1411 11.2623 14.0637C11.2734 13.9863 11.3149 13.9164 11.3778 13.8695L14.9334 11.2163C14.9645 11.1931 14.9999 11.1762 15.0376 11.1666C15.0753 11.157 15.1145 11.1548 15.153 11.1603C15.1916 11.1658 15.2286 11.1788 15.2621 11.1985C15.2956 11.2182 15.3248 11.2443 15.3482 11.2753C15.3715 11.3062 15.3885 11.3415 15.3982 11.379C15.4078 11.4165 15.41 11.4555 15.4044 11.4938C15.3989 11.5322 15.3859 11.569 15.3661 11.6023C15.3463 11.6357 15.32 11.6648 15.2889 11.688L11.7334 14.3412C11.6821 14.3795 11.6197 14.4001 11.5556 14.4001Z" fill="currentColor"/>
<path d="M22.2222 14.4002C22.1621 14.4001 22.1034 14.3818 22.0539 14.3477L18.2021 11.6945C18.1374 11.65 18.0932 11.5819 18.0791 11.505C18.065 11.4281 18.0821 11.3487 18.1268 11.2844C18.1715 11.2202 18.2401 11.1762 18.3174 11.1622C18.3947 11.1482 18.4744 11.1654 18.539 11.2098L22.3908 13.863C22.4427 13.8988 22.4818 13.9501 22.5023 14.0095C22.5228 14.0689 22.5237 14.1333 22.5049 14.1932C22.4861 14.2532 22.4485 14.3056 22.3977 14.3428C22.3468 14.38 22.2853 14.4001 22.2222 14.4002Z" fill="currentColor"/>
<path d="M16.8533 11.961C16.366 11.9591 15.8952 11.7854 15.5245 11.4707C15.5179 11.4652 15.5116 11.4594 15.5055 11.4533L11.331 7.29989C11.277 7.24429 11.2471 7.16983 11.2478 7.09253C11.2485 7.01524 11.2796 6.94129 11.3346 6.88664C11.3895 6.83198 11.4638 6.80098 11.5415 6.8003C11.6192 6.79963 11.6941 6.82935 11.7499 6.88305L15.915 11.0271C16.1764 11.2499 16.5093 11.3724 16.8535 11.3724C17.1977 11.3724 17.5306 11.2499 17.792 11.0271L21.9571 6.88305C22.0129 6.82935 22.0878 6.79963 22.1655 6.8003C22.2431 6.80098 22.3175 6.83198 22.3724 6.88664C22.4273 6.94129 22.4585 7.01524 22.4592 7.09253C22.4598 7.16983 22.43 7.24429 22.376 7.29989L18.2015 11.4545C18.1954 11.4606 18.189 11.4664 18.1825 11.4719C17.8115 11.7861 17.3406 11.9593 16.8533 11.961Z" fill="currentColor"/>
<path d="M10.9369 5.55615H23.1374C23.3661 5.55639 23.5854 5.64687 23.7471 5.80776C23.9088 5.96865 23.9997 6.18679 24 6.41432V15.0157C23.9997 15.2433 23.9087 15.4615 23.747 15.6225C23.5852 15.7834 23.3659 15.8739 23.1371 15.8742H10.9369C10.7081 15.8739 10.4888 15.7834 10.327 15.6225C10.1652 15.4615 10.0743 15.2433 10.074 15.0157V6.41461C10.0743 6.187 10.1652 5.96879 10.327 5.80785C10.4888 5.64691 10.7081 5.55639 10.9369 5.55615ZM23.1371 15.2846C23.2088 15.2845 23.2775 15.2561 23.3281 15.2057C23.3788 15.1553 23.4073 15.087 23.4074 15.0157V6.41432C23.4073 6.34311 23.3788 6.27485 23.3282 6.2245C23.2776 6.17415 23.209 6.14583 23.1374 6.14575H10.9369C10.8652 6.14583 10.7965 6.17418 10.7459 6.22459C10.6952 6.27499 10.6667 6.34333 10.6666 6.41461V15.0157C10.6667 15.087 10.6952 15.1553 10.7459 15.2057C10.7965 15.2561 10.8652 15.2845 10.9369 15.2846H23.1371Z" fill="currentColor"/>
</svg>
