<svg width="24" height="24" viewBox="0 0 24 24" fill="none" xmlns="http://www.w3.org/2000/svg">
<path d="M11.9217 2.951C12.8108 2.94538 13.6677 3.28335 14.3137 3.89437C14.6286 4.18857 14.8797 4.54437 15.0514 4.93968C15.2231 5.335 15.3117 5.76138 15.3117 6.19236C15.3117 6.62334 15.2231 7.04972 15.0514 7.44504C14.8797 7.84035 14.6286 8.19615 14.3137 8.49035C13.6682 9.10245 12.8112 9.44149 11.9217 9.43667C11.0325 9.44228 10.1756 9.10432 9.52962 8.4933C9.21468 8.1991 8.96357 7.8433 8.79189 7.44798C8.62021 7.05267 8.53162 6.62629 8.53162 6.19531C8.53162 5.76433 8.62021 5.33794 8.79189 4.94263C8.96357 4.54732 9.21468 4.19152 9.52962 3.89732C10.1751 3.28522 11.0321 2.94618 11.9217 2.951ZM11.9217 8.84707C12.6445 8.86523 13.3451 8.59621 13.87 8.09892C14.3949 7.60163 14.7014 6.9166 14.7223 6.19383C14.7014 5.47107 14.3949 4.78603 13.87 4.28875C13.3451 3.79146 12.6445 3.52244 11.9217 3.5406C11.1988 3.52244 10.4982 3.79146 9.97331 4.28875C9.4484 4.78603 9.14193 5.47107 9.12102 6.19383C9.14193 6.9166 9.4484 7.60163 9.97331 8.09892C10.4982 8.59621 11.1988 8.86523 11.9217 8.84707Z" fill="currentColor"/>
<path d="M11.9995 2.22597e-06C12.8318 -0.00069567 13.656 0.162719 14.4251 0.480896C15.1941 0.799073 15.8929 1.26577 16.4814 1.85428C17.0699 2.44279 17.5366 3.14156 17.8548 3.91062C18.173 4.67968 18.3364 5.50393 18.3357 6.33621C18.3357 7.15636 18.0633 8.1864 17.5256 9.39745C17.0071 10.5352 16.3929 11.6269 15.6895 12.6606C15.0743 13.5892 14.3878 14.4685 13.6362 15.2906C13.3675 15.5849 13.0751 15.8569 12.7621 16.1036C12.6668 16.212 12.5494 16.2988 12.4179 16.3582C12.2863 16.4177 12.1437 16.4484 11.9993 16.4484C11.855 16.4484 11.7123 16.4177 11.5808 16.3582C11.4492 16.2988 11.3319 16.212 11.2365 16.1036C10.9235 15.8569 10.6312 15.5849 10.3624 15.2906C9.61082 14.4685 8.92432 13.5892 8.30913 12.6606C7.60575 11.6269 6.99152 10.5352 6.47309 9.39745C5.93566 8.1864 5.66297 7.15694 5.66297 6.33621C5.66231 5.50392 5.82576 4.67966 6.14397 3.9106C6.46218 3.14154 6.9289 2.44277 7.51743 1.85426C8.10597 1.26575 8.80476 0.799064 9.57384 0.48089C10.3429 0.162717 11.1672 -0.000695617 11.9995 2.22597e-06ZM11.9995 15.8587C12.0024 15.8587 12.3043 15.8475 13.2064 14.8858C13.9362 14.087 14.6028 13.2326 15.2002 12.3304C15.8845 11.3251 16.4821 10.2634 16.9867 9.15689C17.4905 8.0216 17.7461 7.07204 17.7461 6.33474C17.7461 4.81064 17.1406 3.34897 16.0629 2.27128C14.9852 1.19358 13.5236 0.588135 11.9995 0.588135C10.4754 0.588135 9.01371 1.19358 7.93601 2.27128C6.85831 3.34897 6.25287 4.81064 6.25287 6.33474C6.25287 7.07175 6.50847 8.0216 7.01228 9.15689C7.51681 10.2634 8.11446 11.3251 8.79879 12.3304C9.39616 13.2332 10.0628 14.0882 10.7928 14.8876C11.6946 15.8477 11.9965 15.8587 11.9995 15.8587Z" fill="currentColor"/>
<path d="M6.76259 21.2288C6.74709 21.2289 6.73161 21.2277 6.7163 21.2253C6.67805 21.2193 6.64136 21.2058 6.60833 21.1855C6.5753 21.1653 6.54657 21.1388 6.52379 21.1075C6.50101 21.0762 6.48463 21.0407 6.47558 21.003C6.46652 20.9654 6.46498 20.9263 6.47103 20.888L7.35544 15.2868C7.36147 15.2485 7.37498 15.2118 7.39522 15.1787C7.41545 15.1457 7.442 15.1169 7.47335 15.0942C7.50471 15.0714 7.54024 15.055 7.57793 15.046C7.61562 15.0369 7.65471 15.0354 7.69299 15.0415C7.73124 15.0475 7.76793 15.061 7.80096 15.0813C7.83399 15.1015 7.86272 15.128 7.8855 15.1593C7.90827 15.1906 7.92466 15.2261 7.93371 15.2638C7.94276 15.3014 7.94431 15.3405 7.93826 15.3788L7.05385 20.98C7.0429 21.0494 7.00754 21.1126 6.95414 21.1582C6.90074 21.2038 6.83281 21.2289 6.76259 21.2288Z" fill="currentColor"/>
<path d="M17.0807 21.2288C17.0105 21.2287 16.9426 21.2037 16.8893 21.158C16.836 21.1124 16.8007 21.0493 16.7897 20.98L15.9053 15.3787C15.8931 15.3015 15.912 15.2226 15.958 15.1594C16.0039 15.0961 16.0731 15.0537 16.1503 15.0415C16.1885 15.0354 16.2276 15.037 16.2653 15.046C16.3029 15.0551 16.3384 15.0714 16.3697 15.0942C16.401 15.117 16.4276 15.1457 16.4478 15.1788C16.468 15.2118 16.4815 15.2485 16.4875 15.2867L17.3719 20.888C17.3786 20.9301 17.376 20.9731 17.3645 21.0141C17.3529 21.0551 17.3325 21.0931 17.3049 21.1255C17.2772 21.1579 17.2428 21.1839 17.2041 21.2018C17.1654 21.2196 17.1233 21.2288 17.0807 21.2288Z" fill="currentColor"/>
<path d="M23.7049 24C23.6664 24.0001 23.6283 23.9925 23.5926 23.9779L17.2882 21.3819L12.1159 23.5985C12.0792 23.6142 12.0397 23.6223 11.9998 23.6223C11.9598 23.6223 11.9203 23.6142 11.8836 23.5985L6.71129 21.3819L0.406916 23.9779C0.354699 23.9994 0.297413 24.0054 0.241871 23.9953C0.18633 23.9851 0.134867 23.9593 0.0936015 23.9207C0.0523363 23.8822 0.0230039 23.8326 0.0090911 23.7779C-0.00482172 23.7232 -0.00272945 23.6656 0.0151189 23.6121L3.41332 13.4172C3.4278 13.3738 3.45217 13.3344 3.4845 13.302C3.51684 13.2697 3.55626 13.2453 3.59964 13.2308L6.14497 12.3824L6.33128 12.9425L3.92598 13.7444L0.777777 23.1872L6.60132 20.7893C6.63761 20.7744 6.67651 20.7669 6.71574 20.7672C6.75497 20.7675 6.79375 20.7756 6.8298 20.7911L12.0001 23.0068L17.1703 20.7911C17.2064 20.7756 17.2451 20.7675 17.2844 20.7672C17.3236 20.7669 17.3625 20.7744 17.3988 20.7893L23.2223 23.1872L20.0735 13.7432L17.6682 12.9414L17.8546 12.3812L20.3999 13.2297C20.4433 13.2441 20.4827 13.2685 20.515 13.3009C20.5474 13.3332 20.5717 13.3726 20.5862 13.416L23.9847 23.6121C23.9995 23.6564 24.0035 23.7036 23.9964 23.7497C23.9894 23.7959 23.9714 23.8398 23.9441 23.8776C23.9168 23.9155 23.8809 23.9464 23.8393 23.9677C23.7977 23.9889 23.7517 24 23.7049 24Z" fill="currentColor"/>
</svg>
