<svg width="48" height="48" viewBox="0 0 48 48" fill="none" xmlns="http://www.w3.org/2000/svg">
<path d="M24.3414 46.8695H23.66C23.5511 46.8701 23.4423 46.8607 23.3351 46.8414C21.7212 46.5552 19.5564 45.4012 17.0738 43.5046C14.3753 41.3996 11.8952 39.0273 9.67072 36.4234C7.20513 33.6006 5.05643 30.5142 3.26338 27.22C1.40191 23.7224 0.325315 20.4506 0.0651925 17.4958C-0.0539565 16.2168 -0.00965252 14.9279 0.197027 13.6602C0.431605 12.2421 0.91055 10.8758 1.61239 9.62256C3.29787 6.62794 6.28622 4.32448 10.494 2.77623C11.8381 2.27038 13.261 2.00757 14.6965 2C16.6389 2.00618 18.5478 2.50839 20.2433 3.45931C21.6588 4.24883 22.9291 5.27579 23.9991 6.49565C25.0697 5.27604 26.3403 4.24912 27.7559 3.45931C29.4508 2.50849 31.3591 2.00629 33.301 2C34.7373 2.00801 36.161 2.27079 37.5061 2.77623C41.7136 4.32383 44.7022 6.62729 46.3887 9.62191C47.0902 10.8754 47.5687 12.2419 47.8028 13.6602C48.0096 14.9279 48.054 16.2168 47.9349 17.4958C47.6741 20.4506 46.5985 23.7221 44.7374 27.22C42.9443 30.5144 40.7955 33.6009 38.3297 36.4238C36.1056 39.0277 33.6256 41.4002 30.9273 43.5052C28.4453 45.4015 26.2806 46.5552 24.6666 46.8417C24.5593 46.8609 24.4504 46.8702 24.3414 46.8695ZM14.6965 2.64686C13.3367 2.65463 11.9891 2.90419 10.7161 3.38395C6.65626 4.87851 3.7817 7.08365 2.17261 9.94081C0.952898 12.1078 0.459406 14.6305 0.706636 17.4385C0.95999 20.306 2.01176 23.4947 3.83327 26.915C5.604 30.1667 7.72578 33.2132 10.1603 35.9994C12.3558 38.5698 14.8037 40.9117 17.467 42.9897C18.5124 43.8029 19.6196 44.533 20.7783 45.1731C21.6113 45.6524 22.5128 46.0001 23.4511 46.2042H23.4531C23.5222 46.2166 23.5923 46.2225 23.6626 46.222H24.3424C24.4123 46.2226 24.4821 46.2167 24.5509 46.2046H24.5538C25.4922 46.0005 26.3937 45.6527 27.2266 45.1735C28.3853 44.5333 29.4923 43.8033 30.5376 42.99C33.2004 40.9119 35.6478 38.5699 37.8427 35.9994C40.2768 33.2132 42.3982 30.1667 44.1684 26.915C45.9883 23.4947 47.0395 20.3064 47.2925 17.4385C47.54 14.6292 47.0469 12.1065 45.8272 9.94081C44.2184 7.08365 41.3442 4.87851 37.284 3.38427C36.01 2.90484 34.6616 2.6552 33.301 2.64686C31.4674 2.65346 29.6658 3.12828 28.0656 4.0266C26.6098 4.83973 25.315 5.91406 24.2457 7.1962L23.9988 7.49052L23.7522 7.1962C22.6835 5.91375 21.389 4.83936 19.9332 4.0266C18.3326 3.1282 16.5305 2.65338 14.6965 2.64686ZM24.2279 43.7679H23.7767L23.7444 43.7607C21.9471 43.3726 18.9739 41.3531 15.7925 38.3595C14.1165 36.779 12.5418 35.0938 11.0777 33.314C9.53078 31.45 8.12625 29.4714 6.87609 27.3953L6.58438 26.9059H12.8054L16.7601 34.2154C16.8653 34.4096 17.0208 34.5717 17.21 34.6847C17.3993 34.7976 17.6155 34.8573 17.8357 34.8574C17.8609 34.8574 17.8896 34.8574 17.926 34.8545C18.1598 34.8367 18.3836 34.7523 18.5711 34.6112C18.7587 34.47 18.9021 34.2781 18.9845 34.0579L24.5948 18.9748L27.4152 26.63C27.4961 26.8586 27.6436 27.0574 27.8386 27.2007C28.0336 27.344 28.267 27.4252 28.5085 27.4338C28.5269 27.4338 28.5453 27.4338 28.5636 27.4338H28.5762L41.2056 27.2695L40.9 27.7695C39.6473 29.8015 38.2484 31.739 36.7145 33.5666C35.2686 35.3035 33.7166 36.9486 32.0674 38.4924C28.944 41.4088 26.0259 43.3781 24.2615 43.7604L24.2279 43.7679ZM23.8476 43.121H24.1583C24.9519 42.9405 26.0472 42.3868 27.3288 41.5181C28.8478 40.4619 30.2851 39.2922 31.6287 38.0189C33.2584 36.4932 34.792 34.8673 36.2207 33.1507C37.607 31.4965 38.883 29.7524 40.0403 27.9296L28.5907 28.0783C28.5636 28.0783 28.5359 28.0803 28.5088 28.0803C28.135 28.0734 27.7722 27.9523 27.4688 27.7331C27.1654 27.5139 26.9358 27.2071 26.8108 26.8535L24.5931 20.8323L19.587 34.2853C19.4609 34.6217 19.2415 34.9149 18.9546 35.1303C18.6678 35.3456 18.3255 35.474 17.9682 35.5004H17.964C17.9141 35.5033 17.8728 35.5046 17.8351 35.5046C17.4989 35.5045 17.1689 35.4134 16.8799 35.2409C16.591 35.0685 16.3537 34.821 16.1931 34.5246L12.4218 27.5528H7.72577C8.88547 29.4219 10.1714 31.2091 11.5744 32.902C13.0212 34.6607 14.5773 36.3259 16.2334 37.8876C19.2676 40.7422 22.1792 42.7426 23.8476 43.121ZM17.6266 30.6732L14.6066 25.0902C14.5021 24.8955 14.3471 24.7329 14.1579 24.6195C13.9688 24.5061 13.7526 24.4461 13.5323 24.4459H5.64575C5.63995 24.4459 5.62544 24.4485 5.61352 24.4505C5.59192 24.454 5.56484 24.4582 5.5339 24.4605L5.31117 24.4786L5.21608 24.2758C4.03376 21.7505 3.33688 19.3772 3.14444 17.2218C3.01817 15.9511 3.10269 14.6681 3.39457 13.4251C3.67777 12.2715 4.18431 11.1851 4.88536 10.2277C5.64115 9.21941 6.56386 8.34881 7.61327 7.65385C8.84492 6.84148 10.1697 6.18112 11.559 5.68708C12.5626 5.30957 13.6247 5.1125 14.6965 5.10491C15.631 5.10603 16.5584 5.26704 17.439 5.581C18.2678 5.87878 19.0513 6.29066 19.7672 6.80485C21.0564 7.72843 22.1373 8.91408 22.9396 10.2846C23.0473 10.4708 23.2018 10.6253 23.3877 10.7327C23.5736 10.8401 23.7844 10.8967 23.9989 10.8967C24.2135 10.8967 24.4242 10.8401 24.6101 10.7327C24.796 10.6253 24.9506 10.4708 25.0583 10.2846C26.4375 7.8948 29.4233 5.10491 33.301 5.10491C34.3729 5.11336 35.435 5.3112 36.4386 5.68935C37.8279 6.18384 39.1529 6.8444 40.3849 7.65676C41.4348 8.35179 42.3581 9.22248 43.1144 10.2309C43.8158 11.1882 44.3226 12.2747 44.6059 13.4283C44.8976 14.6713 44.9817 15.9542 44.8547 17.2247C44.6542 19.4768 43.9041 21.963 42.6254 24.6151L42.5387 24.7949L29.4111 24.966L25.7484 15.0209C25.6609 14.7876 25.5053 14.5862 25.3019 14.443C25.0985 14.2998 24.8567 14.2216 24.6083 14.2185C24.3613 14.2288 24.1221 14.3078 23.9172 14.4465C23.7074 14.5831 23.5461 14.7828 23.4563 15.017L17.6266 30.6732ZM5.70603 23.7991H13.5323C13.8685 23.7991 14.1985 23.8903 14.4873 24.063C14.7761 24.2357 15.013 24.4836 15.173 24.7803L17.5189 29.1143L22.8522 14.7913C22.9931 14.4398 23.2331 14.1372 23.5429 13.9205C23.8526 13.7039 24.2186 13.5826 24.596 13.5716H24.6067C24.9873 13.5735 25.3584 13.6917 25.6704 13.9105C25.9824 14.1294 26.2205 14.4384 26.3531 14.7964L29.8578 24.3123L42.1313 24.1522C43.3239 21.6386 44.0237 19.2895 44.2126 17.1662C44.3332 15.9671 44.2547 14.7562 43.9802 13.5829C43.717 12.5111 43.246 11.5018 42.5942 10.6126C41.8814 9.66378 41.0117 8.84473 40.0229 8.19106C38.8342 7.408 37.5559 6.77134 36.2155 6.2948C35.2833 5.94363 34.2967 5.75981 33.301 5.75177C29.6976 5.75177 26.9094 8.36863 25.6166 10.6097C25.4522 10.894 25.2163 11.13 24.9325 11.2941C24.6486 11.4582 24.3268 11.5446 23.9992 11.5446C23.6717 11.5446 23.3498 11.4582 23.066 11.2941C22.7822 11.13 22.5463 10.894 22.3819 10.6097C21.0884 8.36766 18.2993 5.75177 14.6965 5.75177C13.7002 5.76015 12.7132 5.94463 11.7807 6.29674C10.4416 6.77287 9.1646 7.4091 7.97719 8.19171C6.98892 8.84521 6.11975 9.66405 5.40754 10.6126C4.75589 11.5019 4.28493 12.5112 4.02151 13.5829C3.74692 14.7563 3.66795 15.9672 3.78782 17.1665C4.04814 19.4704 4.69677 21.7132 5.70603 23.7991Z" fill="currentColor"/>
</svg>
