<svg width="24" height="24" viewBox="0 0 24 24" fill="none" xmlns="http://www.w3.org/2000/svg">
<path d="M1.34798 20.2233H0.755188V7.09282C0.755188 6.6133 0.945677 6.15342 1.28475 5.81435C1.62382 5.47528 2.0837 5.28479 2.56322 5.28479H6.63514V5.87759H2.56322C2.24092 5.87759 1.93182 6.00562 1.70392 6.23352C1.47602 6.46142 1.34798 6.77052 1.34798 7.09282V20.2233Z" fill="currentColor"/>
<path d="M23.2457 20.2233H22.6529V7.09282C22.6529 6.77052 22.5248 6.46142 22.2969 6.23352C22.069 6.00562 21.7599 5.87759 21.4376 5.87759H17.3672V5.28479H21.4391C21.9186 5.28479 22.3785 5.47528 22.7176 5.81435C23.0566 6.15342 23.2471 6.6133 23.2471 7.09282L23.2457 20.2233Z" fill="currentColor"/>
<path d="M21.4391 24H2.56177C1.88256 23.9993 1.23138 23.7292 0.751106 23.2489C0.270834 22.7686 0.00070616 22.1175 0 21.4382C0 21.3596 0.0312274 21.2842 0.0868128 21.2287C0.142398 21.1731 0.217789 21.1418 0.296398 21.1418H9.35759C9.4362 21.1418 9.51159 21.1731 9.56718 21.2287C9.62276 21.2842 9.65399 21.3596 9.65399 21.4382V21.8971H14.3457V21.4382C14.3457 21.3596 14.3769 21.2842 14.4325 21.2287C14.4881 21.1731 14.5635 21.1418 14.6421 21.1418H23.7033C23.7819 21.1418 23.8573 21.1731 23.9129 21.2287C23.9684 21.2842 23.9997 21.3596 23.9997 21.4382C23.999 22.1172 23.729 22.7683 23.249 23.2485C22.769 23.7287 22.1181 23.999 21.4391 24ZM0.615026 21.7346C0.686484 22.1999 0.922013 22.6242 1.27905 22.931C1.63608 23.2377 2.09106 23.4067 2.56177 23.4072H21.4391C21.9098 23.4067 22.3648 23.2377 22.7218 22.931C23.0788 22.6242 23.3144 22.1999 23.3858 21.7346H14.9385V22.1935C14.9385 22.2721 14.9072 22.3475 14.8517 22.403C14.7961 22.4586 14.7207 22.4899 14.6421 22.4899H9.35759C9.27898 22.4899 9.20359 22.4586 9.14801 22.403C9.09242 22.3475 9.06119 22.2721 9.06119 22.1935V21.7346H0.615026Z" fill="currentColor"/>
<path d="M21.0618 18.7143H21.0502C20.9717 18.7113 20.8976 18.6772 20.8442 18.6196C20.7907 18.562 20.7624 18.4855 20.7654 18.4069C20.7669 18.366 20.8934 14.3211 18.7585 13.2496L14.0511 11.077C13.9797 11.0441 13.9243 10.9841 13.8971 10.9104C13.8699 10.8366 13.8732 10.7551 13.9061 10.6837C13.9391 10.6123 13.999 10.5569 14.0728 10.5298C14.1465 10.5026 14.2281 10.5058 14.2994 10.5387L19.0122 12.7134L19.0205 12.7176C19.6427 13.0458 20.1495 13.5567 20.4728 14.1815C20.7896 14.7767 21.0151 15.4162 21.1418 16.0784C21.2997 16.8519 21.3723 17.6404 21.3582 18.4298C21.3551 18.5063 21.3225 18.5787 21.2673 18.6317C21.212 18.6848 21.1384 18.7144 21.0618 18.7143Z" fill="currentColor"/>
<path d="M2.94174 18.714C2.86509 18.714 2.7914 18.6844 2.73614 18.6313C2.68087 18.5782 2.64833 18.5057 2.64534 18.4292C2.63122 17.6398 2.70378 16.8513 2.86171 16.0778C2.98839 15.4156 3.2139 14.7761 3.53068 14.1809C3.85401 13.5561 4.36083 13.0452 4.98304 12.717L4.99134 12.7128L9.70407 10.5381C9.77545 10.5052 9.85698 10.502 9.93074 10.5291C10.0045 10.5563 10.0644 10.6117 10.0974 10.6831C10.1303 10.7545 10.1336 10.836 10.1064 10.9098C10.0792 10.9835 10.0238 11.0435 9.95245 11.0764L5.24505 13.249C3.11098 14.3217 3.23636 18.3666 3.23814 18.4063C3.2411 18.4849 3.21276 18.5613 3.15935 18.619C3.10594 18.6766 3.03182 18.7107 2.9533 18.7137L2.94174 18.714Z" fill="currentColor"/>
<path d="M15.9871 14.7274C15.963 14.7273 15.9389 14.7244 15.9154 14.7185C14.9391 14.4804 14.0351 14.0089 13.281 13.3447C12.9668 13.0719 12.6933 12.7555 12.4689 12.4051C12.4334 12.3373 12.4256 12.2585 12.4469 12.1851C12.4682 12.1117 12.517 12.0493 12.5832 12.0111C12.6494 11.9728 12.7278 11.9616 12.802 11.9798C12.8763 11.998 12.9406 12.0442 12.9817 12.1087C13.1809 12.412 13.4217 12.686 13.6969 12.9226C14.2616 13.4183 14.9221 13.7929 15.6374 14.0231L15.3306 11.5695C15.3209 11.4915 15.3425 11.4128 15.3908 11.3508C15.4391 11.2887 15.51 11.2484 15.588 11.2386C15.6661 11.2289 15.7447 11.2505 15.8068 11.2988C15.8689 11.3471 15.9092 11.418 15.919 11.496L16.2815 14.3957C16.2867 14.4374 16.283 14.4797 16.2706 14.5199C16.2582 14.56 16.2374 14.5971 16.2096 14.6286C16.1818 14.6601 16.1476 14.6853 16.1093 14.7026C16.071 14.7199 16.0294 14.7288 15.9874 14.7289L15.9871 14.7274Z" fill="currentColor"/>
<path d="M8.01342 14.7274C7.9714 14.7274 7.92986 14.7184 7.89156 14.7011C7.85326 14.6839 7.81908 14.6586 7.79127 14.6271C7.76347 14.5956 7.74268 14.5586 7.73029 14.5184C7.7179 14.4783 7.71418 14.4359 7.71939 14.3942L8.08189 11.4946C8.08671 11.4559 8.0991 11.4186 8.11834 11.3848C8.13759 11.3509 8.16331 11.3212 8.19404 11.2973C8.22476 11.2734 8.2599 11.2558 8.29744 11.2455C8.33498 11.2352 8.37418 11.2323 8.41282 11.2372C8.45145 11.242 8.48875 11.2544 8.52259 11.2736C8.55643 11.2929 8.58616 11.3186 8.61006 11.3493C8.63397 11.38 8.65158 11.4152 8.66191 11.4527C8.67223 11.4902 8.67506 11.5294 8.67024 11.5681L8.36346 14.0214C9.07851 13.7908 9.73888 13.4165 10.304 12.9214C10.5795 12.6847 10.8204 12.4105 11.0198 12.1069C11.0594 12.039 11.1243 11.9896 11.2003 11.9696C11.2763 11.9495 11.3572 11.9605 11.4251 12.0001C11.493 12.0397 11.5424 12.1046 11.5625 12.1806C11.5825 12.2566 11.5715 12.3375 11.532 12.4054C11.3076 12.7558 11.0341 13.0722 10.7198 13.345C9.96701 14.0111 9.06255 14.4828 8.08544 14.7188C8.06188 14.7246 8.03769 14.7275 8.01342 14.7274Z" fill="currentColor"/>
<path d="M13.4502 18.7143C13.3716 18.7143 13.2962 18.6831 13.2407 18.6275C13.1851 18.5719 13.1539 18.4965 13.1539 18.4179C13.1539 17.2999 12.4455 14.5327 12.4383 14.5055C12.4255 14.4556 12.4259 14.4032 12.4395 14.3535C12.453 14.3038 12.4793 14.2585 12.5157 14.2221C12.6575 14.0743 12.756 13.8903 12.8002 13.6903C12.8445 13.4903 12.8329 13.2819 12.7668 13.0881C12.7051 12.8532 12.6083 12.6289 12.4795 12.423C12.4355 12.3578 12.4192 12.2779 12.4341 12.2007C12.449 12.1235 12.494 12.0554 12.5591 12.0114C12.6243 11.9674 12.7042 11.951 12.7814 11.966C12.8586 11.9809 12.9267 12.0259 12.9707 12.091C13.1382 12.3535 13.2634 12.6408 13.3418 12.9422C13.4245 13.208 13.4412 13.4899 13.3907 13.7635C13.3401 14.0372 13.2238 14.2945 13.0516 14.5132C13.2051 15.1282 13.7466 17.3731 13.7466 18.4191C13.7463 18.4975 13.715 18.5726 13.6594 18.6279C13.6039 18.6832 13.5287 18.7143 13.4502 18.7143Z" fill="currentColor"/>
<path d="M10.5506 18.7144C10.472 18.7144 10.3966 18.6831 10.341 18.6276C10.2854 18.572 10.2542 18.4966 10.2542 18.418C10.2542 17.372 10.796 15.128 10.9493 14.512C10.7771 14.2934 10.6607 14.0361 10.6102 13.7624C10.5596 13.4887 10.5764 13.2069 10.6591 12.9411C10.7373 12.6395 10.8624 12.352 11.0299 12.0893C11.0739 12.0242 11.142 11.9792 11.2192 11.9643C11.2964 11.9493 11.3763 11.9657 11.4414 12.0097C11.5066 12.0537 11.5515 12.1218 11.5665 12.199C11.5814 12.2762 11.565 12.3561 11.521 12.4212C11.3896 12.6313 11.2915 12.8605 11.2303 13.1006C11.1668 13.2927 11.157 13.4986 11.2018 13.6959C11.2467 13.8932 11.3446 14.0746 11.4849 14.2204C11.5213 14.2568 11.5475 14.3021 11.5611 14.3518C11.5747 14.4015 11.5751 14.4539 11.5622 14.5037C11.5551 14.5316 10.8467 17.2988 10.8467 18.4162C10.8469 18.4552 10.8395 18.494 10.8247 18.5301C10.8099 18.5663 10.7881 18.5991 10.7606 18.6268C10.7331 18.6545 10.7004 18.6765 10.6644 18.6916C10.6283 18.7066 10.5897 18.7143 10.5506 18.7144Z" fill="currentColor"/>
<path d="M13.4503 10.0156C13.382 10.0155 13.3159 9.99196 13.263 9.94882C13.2101 9.90568 13.1737 9.84561 13.16 9.77876C13.1463 9.71191 13.156 9.64237 13.1876 9.58188C13.2193 9.52139 13.2708 9.47367 13.3335 9.44676C15.2198 8.63819 15.4281 6.9416 15.6484 5.14543V5.13742C15.7574 4.24556 15.809 3.21943 15.3635 2.37173C14.9415 1.62732 14.2495 1.07353 13.4307 0.824828C12.5018 0.514394 11.4972 0.514394 10.5684 0.824828C9.74958 1.07353 9.05764 1.62732 8.63557 2.37173C8.19098 3.21943 8.24166 4.24556 8.35074 5.13742V5.14513C8.57126 6.94131 8.77933 8.63789 10.6656 9.44646C10.7019 9.46142 10.7349 9.48346 10.7626 9.51128C10.7904 9.5391 10.8123 9.57215 10.8271 9.60852C10.842 9.64489 10.8494 9.68384 10.8491 9.72311C10.8487 9.76239 10.8406 9.80121 10.8251 9.83731C10.8096 9.87341 10.7871 9.90608 10.7589 9.93341C10.7307 9.96074 10.6974 9.98219 10.6608 9.99651C10.6242 10.0108 10.5852 10.0177 10.5459 10.0168C10.5066 10.0159 10.4679 10.0072 10.432 9.99125C9.96371 9.80257 9.53795 9.52194 9.17991 9.16594C8.82187 8.80993 8.53881 8.38578 8.34748 7.91853C8.02865 7.04941 7.83175 6.14031 7.76239 5.21716V5.20915C7.64205 4.2263 7.58958 3.08753 8.11095 2.09697C8.60337 1.2174 9.41541 0.56106 10.3787 0.264042C11.4307 -0.0880141 12.5687 -0.0880141 13.6207 0.264042C14.5839 0.560988 15.396 1.21721 15.8884 2.09667C16.4098 3.08872 16.3573 4.22718 16.237 5.20886V5.21686C16.1676 6.14002 15.9707 7.04911 15.6519 7.91824C15.4606 8.38548 15.1775 8.80964 14.8195 9.16565C14.4614 9.52165 14.0357 9.80228 13.5673 9.99095C13.5304 10.007 13.4906 10.0154 13.4503 10.0156Z" fill="currentColor"/>
<path d="M12.091 12.2961H11.9099C11.2547 12.2954 10.6265 12.0348 10.1632 11.5714C9.69994 11.1081 9.43941 10.4799 9.43878 9.82471V9.3567C9.43878 9.27809 9.47001 9.2027 9.52559 9.14712C9.58118 9.09153 9.65657 9.0603 9.73518 9.0603C9.81379 9.0603 9.88918 9.09153 9.94477 9.14712C10.0004 9.2027 10.0316 9.27809 10.0316 9.3567V9.82471C10.0333 10.3223 10.2317 10.7991 10.5836 11.151C10.9355 11.5028 11.4122 11.7013 11.9099 11.703H12.091C12.5886 11.7013 13.0653 11.5028 13.4172 11.151C13.7691 10.7991 13.9675 10.3223 13.9692 9.82471V9.3567C13.9692 9.27809 14.0005 9.2027 14.056 9.14712C14.1116 9.09153 14.187 9.0603 14.2656 9.0603C14.3442 9.0603 14.4196 9.09153 14.4752 9.14712C14.5308 9.2027 14.562 9.27809 14.562 9.3567V9.82471C14.5614 10.4799 14.3009 11.1081 13.8376 11.5714C13.3743 12.0348 12.7462 12.2954 12.091 12.2961Z" fill="currentColor"/>
</svg>
