<svg width="24" height="24" viewBox="0 0 24 24" fill="none" xmlns="http://www.w3.org/2000/svg">
<path d="M18.7162 11.5425H15.2959C15.1642 11.5424 15.033 11.528 14.9044 11.4996L11.7004 10.7883H9.84559C9.767 10.7883 9.69163 10.7571 9.63606 10.7015C9.58048 10.646 9.54926 10.5706 9.54926 10.492C9.54926 10.4134 9.58048 10.338 9.63606 10.2825C9.69163 10.2269 9.767 10.1957 9.84559 10.1957H11.733C11.7546 10.1957 11.7762 10.1981 11.7973 10.2028L15.0327 10.922C15.1192 10.9414 15.2075 10.9513 15.2962 10.9516H18.7165C18.8882 10.9516 19.0529 10.8834 19.1743 10.762C19.2957 10.6406 19.3639 10.476 19.3639 10.3043C19.3639 10.1326 19.2957 9.96794 19.1743 9.84654C19.0529 9.72513 18.8882 9.65693 18.7165 9.65693C18.6379 9.65693 18.5625 9.6257 18.507 9.57013C18.4514 9.51455 18.4202 9.43918 18.4202 9.36059C18.4202 9.28199 18.4514 9.20662 18.507 9.15104C18.5625 9.09547 18.6379 9.06425 18.7165 9.06425H19.4716C19.6433 9.06425 19.8079 8.99604 19.9293 8.87464C20.0507 8.75324 20.1189 8.58858 20.1189 8.41689C20.1189 8.24521 20.0507 8.08055 19.9293 7.95915C19.8079 7.83774 19.6433 7.76954 19.4716 7.76954H18.9053C18.8267 7.76954 18.7513 7.73832 18.6957 7.68275C18.6402 7.62717 18.6089 7.55179 18.6089 7.4732C18.6089 7.39461 18.6402 7.31923 18.6957 7.26366C18.7513 7.20809 18.8267 7.17686 18.9053 7.17686H19.8488C20.0205 7.17686 20.1852 7.10866 20.3066 6.98726C20.428 6.86586 20.4962 6.7012 20.4962 6.52951C20.4962 6.35783 20.428 6.19317 20.3066 6.07177C20.1852 5.95036 20.0205 5.88216 19.8488 5.88216H19.0937C19.0152 5.88216 18.9398 5.85093 18.8842 5.79536C18.8286 5.73978 18.7974 5.66441 18.7974 5.58582C18.7974 5.50723 18.8286 5.43185 18.8842 5.37628C18.9398 5.32071 19.0152 5.28948 19.0937 5.28948H19.4713C19.643 5.28948 19.8076 5.22128 19.929 5.09987C20.0504 4.97847 20.1186 4.81381 20.1186 4.64212C20.1186 4.47044 20.0504 4.30578 19.929 4.18438C19.8076 4.06297 19.643 3.99478 19.4713 3.99478H15.1302C15.0516 3.99478 14.9762 3.96355 14.9207 3.90798C14.8651 3.8524 14.8339 3.77703 14.8339 3.69844C14.8339 3.61984 14.8651 3.54447 14.9207 3.48889C14.9762 3.43332 15.0516 3.4021 15.1302 3.4021H19.4713C19.7066 3.40196 19.9371 3.46883 20.1359 3.5949C20.3346 3.72096 20.4933 3.90101 20.5935 4.11397C20.6936 4.32693 20.7311 4.56401 20.7014 4.79747C20.6718 5.03094 20.5763 5.25114 20.4261 5.43231C20.6257 5.53757 20.7928 5.69531 20.9093 5.88853C21.0258 6.08175 21.0874 6.30313 21.0874 6.52877C21.0874 6.75442 21.0258 6.97578 20.9093 7.169C20.7928 7.36222 20.6257 7.51996 20.4261 7.62522C20.561 7.78785 20.652 7.98226 20.6906 8.18998C20.7292 8.3977 20.714 8.61184 20.6466 8.81205C20.5791 9.01227 20.4616 9.19192 20.3052 9.33393C20.1487 9.47594 19.9586 9.5756 19.7528 9.62344C19.8755 9.81044 19.9454 10.0272 19.9549 10.2506C19.9644 10.4741 19.9134 10.696 19.807 10.8928C19.7007 11.0896 19.5431 11.2539 19.351 11.3684C19.1588 11.4829 18.9393 11.5433 18.7156 11.5431L18.7162 11.5425Z" fill="currentColor"/>
<path d="M10.2883 4.748H9.46834C9.38974 4.748 9.31437 4.71678 9.2588 4.66121C9.20322 4.60563 9.172 4.53025 9.172 4.45166C9.172 4.37307 9.20322 4.29769 9.2588 4.24212C9.31437 4.18655 9.38974 4.15532 9.46834 4.15532H10.2883C10.4099 4.1549 10.5264 4.10657 10.6125 4.02079L12.333 2.30024C12.585 2.04776 12.9063 1.87582 13.2561 1.80624L14.6952 1.5185C14.7717 1.50433 14.8508 1.52086 14.9153 1.56451C14.9797 1.60817 15.0244 1.67545 15.0397 1.7518C15.055 1.82815 15.0396 1.90744 14.9968 1.97252C14.9541 2.03761 14.8875 2.08327 14.8113 2.09962L13.3723 2.38736C13.1374 2.43416 12.9216 2.54969 12.7524 2.71927L11.0318 4.43981C10.8342 4.63643 10.5671 4.74717 10.2883 4.748Z" fill="currentColor"/>
<path d="M9.46775 11.9197H5.69357C5.61497 11.9197 5.5396 11.8885 5.48403 11.8329C5.42845 11.7773 5.39723 11.702 5.39723 11.6234C5.39723 11.5448 5.42845 11.4694 5.48403 11.4138C5.5396 11.3582 5.61497 11.327 5.69357 11.327H9.17141V3.61538H2.29634C2.21775 3.61538 2.14237 3.58416 2.0868 3.52858C2.03123 3.47301 2 3.39764 2 3.31904C2 3.24045 2.03123 3.16508 2.0868 3.10951C2.14237 3.05393 2.21775 3.02271 2.29634 3.02271H9.46775C9.54634 3.02271 9.62172 3.05393 9.67729 3.10951C9.73286 3.16508 9.76409 3.24045 9.76409 3.31904V11.6234C9.76409 11.702 9.73286 11.7773 9.67729 11.8329C9.62172 11.8885 9.54634 11.9197 9.46775 11.9197Z" fill="currentColor"/>
<path d="M7.39221 10.2617C7.2509 10.2617 7.11277 10.2198 6.99527 10.1413C6.87778 10.0628 6.7862 9.95121 6.73212 9.82065C6.67805 9.6901 6.66389 9.54645 6.69146 9.40785C6.71903 9.26926 6.78708 9.14195 6.887 9.04203C6.98692 8.94211 7.11423 8.87406 7.25282 8.84649C7.39142 8.81892 7.53507 8.83307 7.66563 8.88715C7.79618 8.94123 7.90777 9.03281 7.98627 9.1503C8.06478 9.2678 8.10668 9.40593 8.10668 9.54724C8.10652 9.73668 8.0312 9.91832 7.89724 10.0523C7.76328 10.1862 7.58165 10.2616 7.39221 10.2617ZM7.39221 9.1294C7.30951 9.1294 7.22866 9.15392 7.1599 9.19987C7.09114 9.24581 7.03755 9.31112 7.0059 9.38752C6.97425 9.46393 6.96597 9.548 6.9821 9.62911C6.99824 9.71022 7.03806 9.78472 7.09654 9.8432C7.15502 9.90168 7.22953 9.9415 7.31064 9.95764C7.39175 9.97377 7.47581 9.96549 7.55222 9.93384C7.62862 9.9022 7.69393 9.8486 7.73987 9.77984C7.78582 9.71108 7.81034 9.63024 7.81034 9.54754C7.81026 9.43667 7.76619 9.33036 7.68779 9.25196C7.60939 9.17356 7.50308 9.12948 7.39221 9.1294Z" fill="currentColor"/>
<path d="M17.7726 3.99299H15.5077C15.4403 3.99297 15.3749 3.96998 15.3223 3.9278C15.2698 3.88562 15.2331 3.82676 15.2185 3.76096L14.4634 0.363727C14.4538 0.320387 14.454 0.27543 14.4641 0.232189C14.4742 0.188948 14.4938 0.148521 14.5216 0.113899C14.5494 0.079277 14.5846 0.0513457 14.6247 0.0321634C14.6647 0.0129812 14.7085 0.00304258 14.7529 0.00307936H16.6403C16.6989 0.00306623 16.7561 0.0203895 16.8048 0.0528641C17.0465 0.228117 17.3348 0.327551 17.6331 0.338532C17.8843 0.340512 18.1279 0.251821 18.3191 0.0887218C18.3637 0.0428051 18.4222 0.0127873 18.4855 0.00326023C18.5488 -0.00626687 18.6135 0.00521937 18.6697 0.0359708C18.7268 0.0667784 18.7723 0.11551 18.7991 0.174672C18.8258 0.233833 18.8324 0.300153 18.8178 0.363429L18.0628 3.76066C18.0482 3.82667 18.0114 3.8857 17.9586 3.92796C17.9059 3.97022 17.8402 3.99316 17.7726 3.99299ZM15.7457 3.40031H17.535L18.098 0.864541C17.9468 0.908894 17.79 0.93134 17.6325 0.93121C17.2483 0.923268 16.8742 0.806989 16.5532 0.595758H15.1225L15.7457 3.40031Z" fill="currentColor"/>
<path d="M16.2625 23.9989C15.2645 24.0142 14.2705 23.8688 13.3187 23.5681C12.5341 23.3168 11.8139 22.897 11.2088 22.338C10.6512 21.8084 10.2224 21.1582 9.95524 20.4372C9.67638 19.6694 9.53884 18.8573 9.54926 18.0404C9.54926 16.8575 10.0916 15.5414 11.1613 14.1288C12.0556 12.9882 13.0689 11.9461 14.184 11.0202C14.2438 10.9691 14.3215 10.9439 14.3999 10.95C14.4783 10.9562 14.551 10.9933 14.6021 11.0531C14.6532 11.1129 14.6785 11.1905 14.6723 11.2689C14.6661 11.3474 14.6291 11.4201 14.5692 11.4712C12.5485 13.1938 10.1419 15.7317 10.1419 18.0404C10.1316 18.7858 10.2562 19.5268 10.5097 20.2277C10.7452 20.8646 11.1235 21.4391 11.6156 21.9071C12.1584 22.4068 12.8039 22.7819 13.5069 23.0059C15.3054 23.5398 17.2203 23.5398 19.0188 23.0059C19.7217 22.7819 20.3672 22.4068 20.91 21.9071C21.4021 21.4391 21.7804 20.8646 22.0159 20.2277C22.2694 19.5268 22.394 18.7858 22.3837 18.0404C22.3711 17.441 22.2472 16.8491 22.0183 16.295C21.7652 15.669 21.4439 15.0727 21.0603 14.517C20.2798 13.3923 19.3635 12.3683 18.3322 11.4682C18.3014 11.443 18.276 11.4118 18.2575 11.3766C18.2391 11.3413 18.2279 11.3027 18.2247 11.2631C18.2215 11.2234 18.2263 11.1835 18.2388 11.1457C18.2513 11.1079 18.2714 11.0731 18.2977 11.0432C18.324 11.0134 18.356 10.9891 18.3919 10.9719C18.4278 10.9547 18.4667 10.9449 18.5065 10.9431C18.5463 10.9412 18.586 10.9474 18.6233 10.9613C18.6606 10.9752 18.6947 10.9964 18.7236 11.0237C19.7927 11.9572 20.7425 13.0191 21.5513 14.1854C22.4969 15.5844 22.9764 16.8821 22.9764 18.0407C22.9867 18.8576 22.8491 19.6697 22.5701 20.4375C22.3029 21.1585 21.8741 21.8087 21.3166 22.3383C20.7114 22.8973 19.9913 23.3171 19.2067 23.5684C18.2547 23.869 17.2606 24.0144 16.2625 23.9989Z" fill="currentColor"/>
<path d="M16.6403 19.8466H15.8853C15.5912 19.8335 15.3061 19.7412 15.0602 19.5795C14.8142 19.4178 14.6164 19.1927 14.4877 18.9279C14.4533 18.8577 14.4481 18.7767 14.4731 18.7027C14.4981 18.6286 14.5514 18.5674 14.6214 18.5325C14.6913 18.4975 14.7723 18.4916 14.8465 18.5161C14.9208 18.5405 14.9824 18.5933 15.0179 18.663C15.0975 18.8296 15.2199 18.9722 15.3726 19.0761C15.5253 19.1799 15.7028 19.2414 15.887 19.2542H16.6401C16.8618 19.2542 17.0745 19.1661 17.2313 19.0093C17.3881 18.8525 17.4762 18.6398 17.4762 18.4181C17.4762 18.1963 17.3881 17.9837 17.2313 17.8269C17.0745 17.6701 16.8618 17.582 16.6401 17.582H15.885C15.506 17.582 15.1426 17.4314 14.8747 17.1635C14.6067 16.8955 14.4562 16.5321 14.4562 16.1532C14.4562 15.7742 14.6067 15.4108 14.8747 15.1428C15.1426 14.8749 15.506 14.7244 15.885 14.7244H16.6401C16.9341 14.7375 17.2192 14.8298 17.4652 14.9915C17.7112 15.1532 17.9089 15.3783 18.0376 15.643C18.0553 15.6779 18.066 15.7159 18.069 15.7549C18.072 15.7939 18.0672 15.8331 18.055 15.8702C18.0428 15.9074 18.0233 15.9417 17.9977 15.9713C17.9722 16.0009 17.941 16.0251 17.906 16.0426C17.871 16.0601 17.8329 16.0705 17.7939 16.0732C17.7549 16.0759 17.7157 16.0708 17.6787 16.0583C17.6416 16.0458 17.6074 16.026 17.578 16.0002C17.5486 15.9744 17.5246 15.9431 17.5074 15.9079C17.4285 15.7412 17.3065 15.5986 17.1541 15.4948C17.0017 15.3909 16.8244 15.3295 16.6403 15.317H15.8853C15.6635 15.317 15.4508 15.4051 15.294 15.5619C15.1372 15.7187 15.0492 15.9314 15.0492 16.1532C15.0492 16.3749 15.1372 16.5876 15.294 16.7444C15.4508 16.9012 15.6635 16.9893 15.8853 16.9893H16.6403C17.0193 16.9893 17.3827 17.1398 17.6507 17.4078C17.9186 17.6757 18.0691 18.0391 18.0691 18.4181C18.0691 18.797 17.9186 19.1604 17.6507 19.4284C17.3827 19.6963 17.0193 19.8469 16.6403 19.8469V19.8466Z" fill="currentColor"/>
<path d="M16.2628 15.317C16.1842 15.317 16.1089 15.2858 16.0533 15.2302C15.9977 15.1746 15.9665 15.0992 15.9665 15.0206V14.2656C15.9665 14.187 15.9977 14.1116 16.0533 14.056C16.1089 14.0005 16.1842 13.9692 16.2628 13.9692C16.3414 13.9692 16.4168 14.0005 16.4724 14.056C16.5279 14.1116 16.5592 14.187 16.5592 14.2656V15.0206C16.5592 15.0992 16.5279 15.1746 16.4724 15.2302C16.4168 15.2858 16.3414 15.317 16.2628 15.317Z" fill="currentColor"/>
<path d="M16.2628 20.6015C16.1842 20.6015 16.1089 20.5703 16.0533 20.5147C15.9977 20.4592 15.9665 20.3838 15.9665 20.3052V19.5501C15.9665 19.4715 15.9977 19.3962 16.0533 19.3406C16.1089 19.285 16.1842 19.2538 16.2628 19.2538C16.3414 19.2538 16.4168 19.285 16.4724 19.3406C16.5279 19.3962 16.5592 19.4715 16.5592 19.5501V20.3052C16.5592 20.3838 16.5279 20.4592 16.4724 20.5147C16.4168 20.5703 16.3414 20.6015 16.2628 20.6015Z" fill="currentColor"/>
</svg>
