<svg width="48" height="48" viewBox="0 0 48 48" fill="none" xmlns="http://www.w3.org/2000/svg">
<mask id="mask0_150_1226" style="mask-type:luminance" maskUnits="userSpaceOnUse" x="0" y="3" width="48" height="43">
<path d="M48 3H0V45.1813H48V3Z" fill="white"/>
</mask>
<g mask="url(#mask0_150_1226)">
<path d="M13.873 3.70462C12.4845 3.71208 11.1055 3.93285 9.78417 4.35921C8.34471 4.80798 6.99571 5.50716 5.79917 6.42461C4.60804 7.35503 3.58425 8.48172 2.77182 9.75625C1.88693 11.1052 1.26566 12.6095 0.940882 14.1898C0.63536 15.7749 0.627608 17.403 0.918023 18.9909C1.15691 20.3558 1.60682 21.6753 2.2516 22.9018C2.74813 23.838 3.3415 24.7195 4.02199 25.5319C4.26274 24.6361 4.74727 23.8247 5.42168 23.1878C7.62825 20.9976 9.86356 18.7614 12.0253 16.599C13.1943 15.4298 14.4018 14.2204 15.5933 13.0326L12.2848 9.75038L12.7046 9.31203L13.3086 8.68092L13.9628 7.99822L14.4092 8.44398L16.0227 10.0556C17.0643 11.096 18.1412 12.1716 19.198 13.2284C19.9273 13.9577 20.6561 14.6872 21.3845 15.4171C22.2516 16.2855 23.1484 17.1835 24.031 18.0657C24.4173 18.4552 24.9128 18.7181 25.452 18.8195C25.6526 18.8583 25.8565 18.8779 26.0608 18.8779C26.6981 18.875 27.3218 18.6931 27.8606 18.3527C28.4296 17.9948 28.8909 17.4893 29.1954 16.89C29.5055 16.3025 29.6282 15.6341 29.5469 14.9747C29.4411 14.249 29.087 13.5824 28.5448 13.0885C26.7985 11.4117 25.1057 9.70219 23.1008 7.65162C22.1633 6.65782 21.0673 5.82656 19.8575 5.19173C18.9127 4.70931 17.9166 4.33481 16.888 4.07532C15.9017 3.82994 14.8893 3.70546 13.873 3.70462ZM34.0142 3.71914C31.5243 3.72157 29.091 4.46203 27.0219 5.84694C26.5999 6.12311 26.1977 6.43758 25.7717 6.77028L25.7254 6.80643L26.9514 8.03436C27.9455 9.02999 28.9733 10.0596 29.9868 11.0688L30.0304 11.1121C30.6747 11.6772 31.1998 12.3652 31.575 13.1358C31.822 13.7172 31.9708 14.3356 32.0152 14.9658C32.1029 16.2124 31.79 17.4543 31.1221 18.5106C30.7813 19.0495 30.3533 19.5281 29.8555 19.9266C29.0549 20.6414 28.0664 21.112 27.0069 21.283C25.9473 21.4539 24.861 21.318 23.8762 20.8914C23.3322 20.6621 22.8347 20.3354 22.4079 19.9276L21.3048 21.0307C18.2546 24.0806 15.1003 27.2343 12.0025 30.3389C11.6928 30.6559 11.5035 31.0711 11.4674 31.5128C11.4169 31.9913 11.5192 32.4736 11.7597 32.8905C11.9985 33.3137 12.3629 33.6523 12.8026 33.8593C13.2198 34.0645 13.6923 34.1286 14.1492 34.0421C14.606 33.9556 15.0224 33.7231 15.3357 33.3795L15.6328 33.0824C19.1288 29.5867 22.744 25.9721 26.2972 22.414C26.3142 22.3889 26.3299 22.3629 26.3441 22.3362C26.3608 22.3053 26.3778 22.2744 26.3994 22.2435L26.8152 21.6118L27.8019 22.5932L28.6338 23.4204L29.1435 23.9274L28.5658 24.3552C28.538 24.3759 28.5105 24.3941 28.4861 24.4105C28.4617 24.4269 28.4308 24.4476 28.4194 24.4578C24.1113 28.7668 20.5989 32.2841 17.3606 35.5271C17.159 35.7268 16.9989 35.9644 16.8895 36.2263C16.7801 36.4881 16.7236 36.769 16.7233 37.0528C16.726 37.6362 16.9558 38.1957 17.364 38.6125C17.578 38.8437 17.8369 39.0289 18.1248 39.1568C18.4127 39.2847 18.7236 39.3527 19.0386 39.3567C19.5677 39.3594 20.0763 39.1526 20.4534 38.7815C21.5087 37.7621 22.5621 36.7019 23.5809 35.676C24.0134 35.2407 24.4597 34.791 24.9015 34.3495L26.1245 33.1275C27.493 31.7599 28.9087 30.3454 30.2988 28.9528C30.6448 28.6065 30.9914 28.2534 31.3269 27.9117C31.4861 27.7497 31.6441 27.589 31.8008 27.4298L32.2388 26.9853L32.6787 27.4277L33.173 27.9263L33.7763 28.5333L34.2721 29.0319L33.7136 29.4594C33.6808 29.4844 33.6493 29.5067 33.6184 29.5286C33.5802 29.554 33.5437 29.5819 33.5091 29.612C31.9336 31.1875 30.3322 32.787 28.7827 34.3356C26.7303 36.3877 24.6077 38.51 22.5188 40.5958C22.2887 40.8044 22.1093 41.0629 21.9943 41.3515C21.8792 41.64 21.8316 41.951 21.855 42.2608C21.8759 42.7147 22.0241 43.1536 22.2825 43.5274C22.5528 43.8828 22.9208 44.1518 23.3415 44.3015C23.6182 44.4131 23.9131 44.4727 24.2114 44.4773C24.4888 44.4722 24.7623 44.4107 25.0152 44.2966C25.2681 44.1825 25.4951 44.0181 25.6824 43.8134L25.8947 43.6046C26.2221 43.2821 26.5607 42.9488 26.8924 42.6201C27.5809 41.9376 28.2696 41.2552 28.9585 40.5729C30.6306 38.9165 32.3593 37.2036 34.0555 35.5157L35.4583 34.1206C37.9479 31.645 40.5224 29.0853 43.04 26.5544C44.0901 25.5117 44.9824 24.3215 45.6889 23.0213C46.3852 21.7222 46.8632 20.3175 47.1038 18.8633C47.3826 17.2623 47.3591 15.6231 47.0343 14.0307C46.6911 12.4453 46.041 10.9424 45.1205 9.60673C44.0042 7.87387 42.4861 6.43606 40.6952 5.41541C38.9043 4.39476 36.8936 3.82145 34.8337 3.74416C34.5612 3.72748 34.2863 3.71883 34.0172 3.71883M17.2667 14.8363C14.1534 17.9496 10.5132 21.5907 6.92208 25.1825C6.86362 25.2393 6.80903 25.3 6.75866 25.3641C6.42902 25.7982 6.28123 26.3435 6.34657 26.8846C6.41567 27.453 6.69037 27.9765 7.11886 28.3563C7.5363 28.7409 8.08134 28.9573 8.64891 28.9639C9.18685 28.9641 9.70324 28.7525 10.0863 28.3748C11.1582 27.3264 12.2366 26.2458 13.2795 25.201C13.6502 24.8303 14.0348 24.4442 14.4132 24.0664C15.2393 23.2416 16.0783 22.4023 16.8898 21.5904C17.7013 20.7786 18.5406 19.939 19.367 19.1136C19.7235 18.7574 20.084 18.4031 20.4327 18.058L20.4494 18.0416L19.2706 16.8529L17.2676 14.8363M13.873 3.08679C16.0543 3.09987 18.2011 3.63241 20.1356 4.64032C21.4067 5.30481 22.5587 6.17562 23.5447 7.21728C25.333 9.04667 27.1297 10.8693 28.9748 12.6409C29.5916 13.2007 30.0029 13.9511 30.1429 14.7722C30.2829 15.5933 30.1436 16.4376 29.7471 17.1702C29.3543 17.9723 28.7123 18.6255 27.9171 19.0321C27.1218 19.4386 26.2163 19.5766 25.3361 19.4253C24.6756 19.3012 24.0684 18.979 23.5954 18.5016C21.9833 16.8901 20.3722 15.2776 18.7621 13.664C17.1715 12.0734 15.5803 10.484 13.974 8.87986L13.151 9.73926L16.4385 13.0008L16.4827 13.1457C16.3505 13.214 16.2258 13.2958 16.1104 13.3897C12.6918 16.8011 9.27394 20.2134 5.85694 23.6265C5.39481 24.0462 5.03324 24.5647 4.79909 25.1435C4.56495 25.7222 4.46426 26.3463 4.50452 26.9692C4.3862 26.855 4.30403 26.7824 4.22958 26.7027C2.19939 24.6112 0.835051 21.9647 0.309153 19.0978C-0.329555 15.7418 0.367663 12.269 2.25222 9.41953C3.94703 6.71925 6.55277 4.71513 9.59758 3.77011C10.979 3.32368 12.4212 3.09319 13.873 3.08679ZM34.0142 3.10131C34.2969 3.10131 34.5817 3.11006 34.8686 3.12757C39.4405 3.40868 43.0548 5.47099 45.629 9.25951C46.5974 10.6608 47.2799 12.2393 47.6373 13.9047C47.9948 15.5702 48.0201 17.2897 47.712 18.965C47.1903 22.0216 45.7085 24.8326 43.4814 26.9903C40.4975 29.9898 37.502 32.9776 34.4948 35.9537C32.1104 38.3258 29.7223 40.6941 27.3305 43.0587C26.9277 43.4581 26.5239 43.8563 26.1192 44.2536C25.7461 44.6554 25.2573 44.9314 24.7204 45.0431C24.1836 45.1549 23.6253 45.0971 23.1228 44.8776C22.586 44.6903 22.1188 44.3443 21.7832 43.8855C21.4475 43.4266 21.2591 42.8767 21.243 42.3084C21.2123 41.9098 21.2722 41.5095 21.4183 41.1374C21.5643 40.7653 21.7927 40.4311 22.0864 40.1599C25.7521 36.5003 29.4151 32.8391 33.0754 29.1764C33.159 29.1017 33.2476 29.0329 33.3407 28.9704L32.2416 27.8648C31.752 28.3615 31.2478 28.8793 30.7369 29.3905C28.9384 31.1909 27.1388 32.99 25.338 34.7879C23.8552 36.2707 22.3906 37.771 20.8825 39.227C19.7652 40.3057 18.0297 40.1966 16.9188 39.0416C16.3967 38.5164 16.104 37.8057 16.1047 37.0651C16.1055 36.3245 16.3997 35.6144 16.9229 35.0903C20.6092 31.3988 24.2956 27.7085 27.982 24.0194C28.049 23.96 28.1207 23.9061 28.1964 23.8582L26.9141 22.5827C26.8652 22.6777 26.8053 22.7665 26.7355 22.8474C23.0837 26.5058 19.4295 30.1621 15.7728 33.8163C15.369 34.2491 14.8372 34.541 14.2553 34.6494C13.6734 34.7577 13.0722 34.6768 12.5397 34.4184C11.986 34.1576 11.5266 33.7318 11.2247 33.1994C10.9227 32.667 10.793 32.0542 10.8533 31.4451C10.9032 30.8632 11.1544 30.317 11.5638 29.9005C15.1596 26.2996 18.7576 22.7007 22.3579 19.1037C22.3791 19.0901 22.4022 19.0797 22.4265 19.0728C22.8888 19.6073 23.4635 20.033 24.1094 20.3196C26.0726 21.1227 27.8556 20.7363 29.4691 19.4444C30.3482 18.7363 30.9734 17.7618 31.2506 16.6675C31.5279 15.5733 31.4421 14.4186 31.0063 13.3773C30.6859 12.6242 30.1166 12.0694 29.5513 11.5066C28.0429 10.005 26.5381 8.5 25.0368 6.99147C24.975 6.92968 24.9055 6.87099 24.7795 6.75607C25.4334 6.26181 26.0324 5.75643 26.6836 5.33013C28.8529 3.87731 31.4048 3.10147 34.0157 3.101L34.0142 3.10131ZM17.2735 13.9667L21.3249 18.0444C20.8306 18.5322 20.3157 19.0382 19.8038 19.5491C18.1509 21.2002 16.4998 22.8516 14.8504 24.5035C13.4087 25.9433 11.9753 27.3918 10.5185 28.8166C10.0055 29.308 9.32252 29.5823 8.61215 29.5823C7.90177 29.5823 7.21883 29.308 6.70584 28.8166C6.1634 28.3515 5.81679 27.6986 5.73549 26.9887C5.6542 26.2788 5.84423 25.5645 6.26749 24.9888C6.33475 24.9026 6.40771 24.8209 6.48589 24.7445C10.0046 21.2241 13.5248 17.704 17.0464 14.1842C17.1209 14.1085 17.2009 14.0363 17.2735 13.9667Z" fill="currentColor"/>
<path d="M34.0158 3.71878C31.5252 3.72101 29.0913 4.4617 27.0216 5.8472C26.5991 6.12368 26.1962 6.43846 25.7699 6.77178L25.7251 6.80669L26.8953 7.9784C27.9076 8.99256 28.9545 10.041 29.9869 11.0675L30.0311 11.1114C30.6753 11.6762 31.2004 12.3639 31.5757 13.1342C31.8226 13.7161 31.971 14.3351 32.0149 14.9657C32.1027 16.2124 31.7898 17.4545 31.1219 18.5108C30.7811 19.0499 30.3531 19.5285 29.8553 19.9272C29.0547 20.642 28.0661 21.1127 27.0065 21.2836C25.9469 21.4546 24.8605 21.3187 23.8757 20.8919C23.3318 20.6626 22.8344 20.336 22.4077 19.9281L21.4439 20.891C18.3483 23.9863 15.1482 27.1873 12.0019 30.3388C11.6923 30.6559 11.5031 31.071 11.4669 31.5127C11.4164 31.9914 11.5188 32.4738 11.7594 32.8908C11.9982 33.314 12.3627 33.6525 12.8023 33.8595C13.2195 34.0647 13.6921 34.1289 14.1489 34.0424C14.6058 33.9558 15.0221 33.7233 15.3354 33.3798L15.6619 33.0533C19.1484 29.5669 22.7537 25.9621 26.2966 22.4133C26.3137 22.3883 26.3294 22.3623 26.3436 22.3355C26.3603 22.3046 26.3776 22.2737 26.3992 22.2428L26.815 21.6117L27.3503 22.1446L28.4816 23.27L29.142 23.927L28.5647 24.3546C28.5369 24.3752 28.5097 24.3935 28.4853 24.4095C28.4609 24.4256 28.4303 24.4466 28.4186 24.4568C24.3081 28.5688 20.6904 32.1898 17.3594 35.5267C17.1581 35.7266 16.9982 35.9643 16.8891 36.2262C16.78 36.4881 16.7238 36.769 16.7237 37.0528C16.7264 37.6362 16.9562 38.1956 17.3644 38.6125C17.5784 38.8436 17.8372 39.0288 18.125 39.1567C18.4128 39.2847 18.7237 39.3527 19.0387 39.3567C19.5678 39.3593 20.0765 39.1524 20.4535 38.7811C21.5085 37.7617 22.5619 36.7018 23.5803 35.6763C24.0128 35.241 24.4595 34.7909 24.9013 34.3479L25.9896 33.2602C27.4028 31.8482 28.8625 30.3873 30.2995 28.9509C30.6489 28.6012 30.9992 28.2444 31.3378 27.9006C31.4935 27.742 31.6479 27.5849 31.8012 27.4292L32.2392 26.9846L33.0856 27.836L33.7785 28.5332L34.2728 29.0312L33.7167 29.4587C33.6834 29.4844 33.6512 29.5069 33.62 29.5289C33.5823 29.554 33.5461 29.5815 33.5119 29.6113C31.9606 31.1615 30.3836 32.7382 28.8584 34.263C26.7822 36.3389 24.6356 38.4852 22.5226 40.5957C22.2925 40.8043 22.113 41.0627 21.998 41.3512C21.8829 41.6397 21.8353 41.9507 21.8588 42.2604C21.8798 42.7144 22.0279 43.1532 22.2863 43.527C22.5566 43.8825 22.9245 44.1515 23.3453 44.3011C23.6218 44.4129 23.9166 44.4726 24.2149 44.4772C24.4922 44.4721 24.7657 44.4107 25.0186 44.2966C25.2715 44.1826 25.4985 44.0182 25.6859 43.8137L25.9052 43.5974C26.2302 43.2774 26.5663 42.9462 26.8956 42.62L28.8998 40.6343C30.5921 38.9578 32.3421 37.2242 34.0587 35.5159L35.4652 34.1172C37.9535 31.6428 40.5268 29.0843 43.0432 26.5549C44.0933 25.5123 44.9856 24.3221 45.6921 23.0219C46.3866 21.7227 46.8629 20.3182 47.102 18.8645C47.3808 17.2634 47.3573 15.6243 47.0325 14.0319C46.6894 12.4465 46.0392 10.9436 45.1188 9.60792C44.0024 7.87504 42.4844 6.43721 40.6935 5.41656C38.9026 4.39591 36.8918 3.82261 34.8319 3.74535C34.5595 3.72867 34.2848 3.72002 34.0158 3.72002M34.0158 3.10219C34.2985 3.10219 34.5831 3.11094 34.8696 3.12845C39.4415 3.40956 43.0558 5.47187 45.63 9.26039C46.5982 10.6617 47.2804 12.2401 47.6376 13.9054C47.9948 15.5708 48.02 17.2902 47.7118 18.9652C47.1901 22.0219 45.7082 24.8329 43.4812 26.9905C40.4973 29.9899 37.5018 32.9777 34.4946 35.954C32.1102 38.3262 29.7221 40.6946 27.3303 43.059C26.9274 43.4583 26.5238 43.8566 26.1193 44.2539C25.7462 44.6557 25.2574 44.9316 24.7205 45.0434C24.1837 45.1552 23.6254 45.0974 23.1228 44.8779C22.5861 44.6905 22.119 44.3445 21.7833 43.8857C21.4476 43.4269 21.2592 42.8769 21.2431 42.3086C21.2124 41.9101 21.2723 41.5098 21.4183 41.1377C21.5644 40.7656 21.7928 40.4314 22.0864 40.1601C25.7512 36.5007 29.4142 32.8396 33.0754 29.1767C33.1591 29.1021 33.2477 29.0334 33.3408 28.971L32.2417 27.8651C31.752 28.3618 31.2479 28.8795 30.7373 29.3908C28.9388 31.1911 27.1391 32.9902 25.3384 34.7881C23.8556 36.2709 22.391 37.7716 20.8829 39.2272C19.7656 40.3059 18.0301 40.1972 16.9192 39.0419C16.3976 38.5166 16.1052 37.8062 16.106 37.0659C16.1069 36.3256 16.401 35.6158 16.9239 35.0918C20.609 31.3999 24.2954 27.7095 27.983 24.0206C28.05 23.9611 28.1217 23.9072 28.1974 23.8594L26.9154 22.5839C26.8665 22.6789 26.8066 22.7679 26.7368 22.8489C23.0838 26.5062 19.4289 30.162 15.7722 33.8163C15.3684 34.2489 14.8366 34.5408 14.2548 34.649C13.673 34.7573 13.0719 34.6764 12.5394 34.418C11.9861 34.1571 11.5269 33.7315 11.225 33.1994C10.923 32.6673 10.793 32.0548 10.8528 31.446C10.9031 30.8639 11.1549 30.3177 11.5648 29.9014C15.1598 26.2999 18.7573 22.7006 22.3574 19.1036C22.3786 19.0901 22.4017 19.0797 22.4259 19.0727C22.8883 19.6072 23.463 20.0331 24.1089 20.3198C26.072 21.123 27.8551 20.7365 29.4686 19.4447C30.3477 18.7365 30.973 17.7619 31.2502 16.6676C31.5274 15.5733 31.4416 14.4186 31.0057 13.3773C30.6854 12.6242 30.116 12.0693 29.551 11.5065C28.0427 10.0046 26.5378 8.49953 25.0363 6.99142C24.9745 6.92963 24.905 6.87094 24.7792 6.75602C25.4332 6.26176 26.0322 5.75638 26.6834 5.33008C28.8528 3.87724 31.4048 3.1014 34.0158 3.10095V3.10219Z" fill="currentColor"/>
<path d="M13.8724 3.70462C12.484 3.71213 11.105 3.9329 9.78362 4.35921C8.34417 4.80798 6.99516 5.50716 5.79863 6.42461C4.60755 7.35509 3.58377 8.48177 2.77127 9.75625C1.88634 11.1053 1.26506 12.6097 0.940335 14.1901C0.634774 15.7753 0.627022 17.4035 0.917475 18.9915C1.15642 20.3563 1.60633 21.6755 2.25106 22.9018C2.74755 23.838 3.34093 24.7195 4.02144 25.5319C4.26218 24.6362 4.74672 23.8248 5.42113 23.1881C7.60979 21.0155 9.82718 18.7975 11.9701 16.6524C13.1582 15.4656 14.3843 14.2386 15.5943 13.0338L12.7168 10.1788L12.2843 9.75131L13.0059 8.99817L13.5267 8.45479L13.9632 7.99853L14.4096 8.44429L15.8269 9.86004C16.9328 10.9641 18.0767 12.1071 19.1984 13.2288C19.9466 13.9773 20.7068 14.7384 21.442 15.4749C22.2906 16.3244 23.1679 17.2029 24.0314 18.0663C24.4177 18.4559 24.9132 18.7187 25.4524 18.8201C25.653 18.8589 25.8569 18.8785 26.0612 18.8785C26.6985 18.8757 27.3222 18.6937 27.861 18.3533C28.43 17.9953 28.8913 17.4897 29.1958 16.8903C29.5058 16.3028 29.6285 15.6344 29.5473 14.975C29.4416 14.2494 29.0876 13.5828 28.5455 13.0888C26.7986 11.408 25.1061 9.69755 23.1028 7.64945C22.1644 6.65628 21.0677 5.82575 19.8573 5.19173C18.9124 4.70931 17.9161 4.33482 16.8874 4.07532C15.9012 3.82995 14.8887 3.70547 13.8724 3.70462ZM13.8724 3.08679C16.0538 3.09995 18.2007 3.6326 20.1353 4.64063C21.4064 5.30516 22.5585 6.17597 23.5445 7.21759C25.3328 9.04698 27.1298 10.8696 28.9746 12.6415C29.5914 13.2013 30.0026 13.9518 30.1426 14.7728C30.2826 15.5939 30.1433 16.4382 29.7469 17.1708C29.3541 17.9729 28.7119 18.6262 27.9167 19.0327C27.1214 19.4393 26.2158 19.5772 25.3356 19.4259C24.6751 19.3016 24.0681 18.9792 23.5952 18.5016C21.983 16.8901 20.372 15.2776 18.7619 13.664C17.1698 12.0762 15.5788 10.4856 13.9728 8.88109L13.1505 9.73926L16.4379 13.0011L16.4818 13.146C16.3501 13.2142 16.2259 13.296 16.1111 13.39C12.6925 16.8014 9.27473 20.2137 5.85794 23.6268C5.39557 24.0464 5.03375 24.5649 4.79939 25.1436C4.56503 25.7223 4.46416 26.3465 4.50428 26.9696C4.38596 26.8553 4.30379 26.7827 4.22934 26.7027C2.19915 24.6112 0.834813 21.9647 0.308915 19.0978C-0.32995 15.7418 0.367161 12.269 2.25168 9.41953C3.94657 6.71932 6.55228 4.71523 9.59703 3.77011C10.9785 3.32374 12.4206 3.09326 13.8724 3.08679Z" fill="currentColor"/>
<path d="M17.2664 14.8364C14.0009 18.1019 10.4944 21.6078 6.92184 25.1825C6.86338 25.2394 6.80879 25.3001 6.75842 25.3642C6.42878 25.7982 6.28099 26.3435 6.34633 26.8847C6.41543 27.4531 6.69013 27.9765 7.11862 28.3563C7.53606 28.7409 8.0811 28.9574 8.64867 28.964C9.18661 28.9642 9.703 28.7526 10.086 28.3749C11.158 27.3264 12.2364 26.2461 13.279 25.2014C13.6497 24.8307 14.0346 24.4442 14.413 24.0664C15.2387 23.2419 16.0774 22.4026 16.8886 21.5911C17.6998 20.7796 18.5401 19.939 19.3668 19.1136C19.7232 18.7574 20.0837 18.4031 20.4325 18.0581L20.4492 18.0414L19.313 16.8984L17.2658 14.8373M17.2726 13.9677L21.325 18.0466C20.8307 18.5344 20.3157 19.0404 19.8042 19.5513C18.1519 21.2009 16.5005 22.8515 14.8501 24.5029C13.4084 25.9428 11.9751 27.3913 10.5182 28.816C10.0052 29.3074 9.32228 29.5817 8.61191 29.5817C7.90153 29.5817 7.21859 29.3074 6.7056 28.816C6.16358 28.351 5.81725 27.6984 5.73596 26.9889C5.65468 26.2793 5.84444 25.5653 6.26725 24.9898C6.33451 24.9035 6.40747 24.8219 6.48565 24.7454C10.0048 21.2244 13.5241 17.7043 17.0434 14.1852C17.1206 14.1086 17.2 14.0363 17.2732 13.9668L17.2726 13.9677Z" fill="currentColor"/>
</g>
</svg>
