<svg width="24" height="24" viewBox="0 0 24 24" fill="none" xmlns="http://www.w3.org/2000/svg">
<path d="M4.4652 24C4.40018 24.0001 4.33692 23.9788 4.28513 23.9396C4.23335 23.9003 4.1959 23.8452 4.17853 23.7827C4.16117 23.7201 4.16484 23.6536 4.18899 23.5934C4.21313 23.5331 4.25642 23.4824 4.31221 23.4491L5.94274 22.4739L2.46247 16.916L0.435675 17.9261C0.400675 17.9445 0.362334 17.9558 0.322911 17.9593C0.283489 17.9627 0.243777 17.9582 0.206104 17.9461C0.168432 17.9341 0.133563 17.9146 0.103539 17.8888C0.0735156 17.8631 0.0489441 17.8317 0.0312704 17.7963C0.0135967 17.761 0.00317689 17.7225 0.00062049 17.683C-0.00193591 17.6436 0.00342392 17.6041 0.0163851 17.5668C0.0293463 17.5295 0.0496492 17.4951 0.0760985 17.4657C0.102548 17.4364 0.134609 17.4125 0.170405 17.3957L2.4387 16.2655C2.50482 16.2325 2.58087 16.2254 2.652 16.2454C2.72314 16.2654 2.78424 16.3111 2.82338 16.3737L6.60725 22.4164C6.62818 22.4498 6.64222 22.4871 6.64857 22.526C6.65491 22.5649 6.65342 22.6047 6.64418 22.643C6.63494 22.6813 6.61814 22.7174 6.59476 22.7491C6.57139 22.7809 6.5419 22.8077 6.50803 22.8279L4.61788 23.9582C4.57171 23.9856 4.51895 24.0001 4.4652 24Z" fill="currentColor"/>
<path d="M10.1419 17.5798C10.0631 17.5798 9.98752 17.5485 9.93181 17.4929C9.8761 17.4373 9.8448 17.3619 9.8448 17.2833C9.8448 17.2047 9.8761 17.1292 9.93181 17.0736C9.98752 17.018 10.0631 16.9868 10.1419 16.9868L14.6773 16.9841C14.8384 16.9867 14.9985 16.9571 15.1481 16.8973C15.2977 16.8375 15.434 16.7486 15.5488 16.6357C15.6637 16.5228 15.7549 16.3883 15.8172 16.2399C15.8794 16.0915 15.9115 15.9322 15.9115 15.7714C15.9115 15.6105 15.8794 15.4512 15.8172 15.3028C15.7549 15.1544 15.6637 15.0199 15.5488 14.907C15.434 14.7941 15.2977 14.7052 15.1481 14.6454C14.9985 14.5856 14.8384 14.5561 14.6773 14.5586L8.89304 14.5612C8.27613 14.5618 7.67038 14.7254 7.13746 15.0356L3.48371 17.1629C3.41564 17.2026 3.33459 17.2136 3.25838 17.1936C3.18217 17.1735 3.11705 17.1241 3.07734 17.0562C3.03764 16.9883 3.02659 16.9073 3.04665 16.8313C3.0667 16.7552 3.11621 16.6902 3.18428 16.6506L6.83803 14.5233C7.46182 14.1605 8.17079 13.9692 8.89275 13.9689L14.677 13.9656C14.9165 13.9625 15.1543 14.007 15.3765 14.0964C15.5986 14.1857 15.8008 14.3183 15.9713 14.4862C16.1418 14.6542 16.2772 14.8543 16.3695 15.0749C16.4619 15.2955 16.5095 15.5323 16.5095 15.7714C16.5095 16.0105 16.4619 16.2472 16.3695 16.4678C16.2772 16.6884 16.1418 16.8885 15.9713 17.0565C15.8008 17.2245 15.5986 17.357 15.3765 17.4464C15.1543 17.5357 14.9165 17.5802 14.677 17.5771L10.1419 17.5798Z" fill="currentColor"/>
<path d="M6.20657 22.1113C6.14152 22.1115 6.07822 22.0903 6.02638 22.0511C5.97455 22.0119 5.93705 21.9567 5.91965 21.8942C5.90224 21.8316 5.90589 21.7651 5.93003 21.7048C5.95417 21.6445 5.99748 21.5938 6.05329 21.5605L7.40488 20.7508C7.80343 20.5117 8.25968 20.3854 8.72468 20.3855H14.6657C15.1308 20.3859 15.5913 20.293 16.0197 20.1124L22.6995 16.9103L22.7144 16.9038C22.9968 16.7705 23.2171 16.534 23.3298 16.2431C23.4424 15.9522 23.4387 15.6293 23.3195 15.3411C23.2003 15.0528 22.9746 14.8213 22.6892 14.6945C22.4038 14.5676 22.0805 14.5551 21.7861 14.6594L15.1776 17.5552C15.1061 17.5828 15.0268 17.5817 14.9562 17.5523C14.8855 17.5229 14.8289 17.4674 14.7983 17.3974C14.7676 17.3273 14.7652 17.2482 14.7916 17.1765C14.818 17.1047 14.8711 17.0459 14.9399 17.0123L21.5541 14.1157L21.5597 14.1133C21.9985 13.9514 22.4829 13.9652 22.9117 14.1516C23.3405 14.3381 23.6805 14.6828 23.8605 15.1137C24.0405 15.5446 24.0466 16.0282 23.8775 16.4635C23.7084 16.8988 23.3772 17.2519 22.9532 17.4491L16.274 20.6511L16.2612 20.6571C15.7577 20.8704 15.2163 20.9801 14.6693 20.9796H8.72824C8.37105 20.9795 8.02057 21.0765 7.7144 21.2601L6.36252 22.0698C6.31537 22.0978 6.26139 22.1121 6.20657 22.1113Z" fill="currentColor"/>
<path d="M6.0467 13.4261C5.98979 13.4261 5.93406 13.4099 5.88614 13.3792C5.83821 13.3486 5.80013 13.3048 5.77639 13.2532C5.13041 11.8437 4.84526 10.2961 4.94654 8.74938C5.04783 7.20268 5.53237 5.70529 6.35667 4.39167C7.18098 3.07804 8.31923 1.9893 9.66924 1.2232C11.0192 0.457096 12.5387 0.0376108 14.0913 0.00241385C15.6438 -0.0327831 17.1809 0.317411 18.5643 1.02154C19.9478 1.72568 21.1344 2.76171 22.0176 4.03663C22.9008 5.31154 23.453 6.78542 23.6245 8.32593C23.7961 9.86645 23.5816 11.4254 23.0004 12.8627C22.986 12.8991 22.9645 12.9322 22.9371 12.9602C22.9098 12.9883 22.8772 13.0106 22.8412 13.026C22.8051 13.0414 22.7664 13.0495 22.7272 13.0499C22.6881 13.0503 22.6492 13.0429 22.6129 13.0283C22.5766 13.0136 22.5435 12.9919 22.5156 12.9644C22.4877 12.937 22.4656 12.9043 22.4504 12.8682C22.4352 12.8322 22.4274 12.7935 22.4272 12.7544C22.4271 12.7153 22.4347 12.6765 22.4497 12.6404C22.9944 11.2939 23.1955 9.8335 23.0351 8.39028C22.8746 6.94707 22.3574 5.56623 21.5302 4.37178C20.7029 3.17732 19.5913 2.20665 18.2952 1.54693C16.9992 0.887209 15.5593 0.559093 14.1048 0.59205C12.6504 0.625008 11.2269 1.01801 9.96217 1.73576C8.69747 2.4535 7.63118 3.47353 6.85905 4.70422C6.08691 5.93492 5.63312 7.33775 5.53841 8.78675C5.4437 10.2358 5.71104 11.6855 6.31643 13.0059C6.33719 13.0511 6.34624 13.1007 6.34277 13.1503C6.33929 13.1998 6.32339 13.2477 6.29654 13.2895C6.26969 13.3314 6.23275 13.3658 6.18909 13.3896C6.14544 13.4135 6.09647 13.426 6.0467 13.4261Z" fill="currentColor"/>
<path d="M14.2938 5.34851C12.515 5.3626 10.738 5.23311 8.98011 4.9613C8.94114 4.9556 8.9037 4.94222 8.86995 4.92194C8.83621 4.90166 8.80684 4.87488 8.78356 4.84317C8.76028 4.81145 8.74355 4.77544 8.73435 4.73721C8.72515 4.69899 8.72366 4.65931 8.72996 4.6205C8.73627 4.5817 8.75024 4.54452 8.77107 4.51116C8.7919 4.47779 8.81917 4.44889 8.85129 4.42614C8.88342 4.40339 8.91976 4.38725 8.95819 4.37865C8.99663 4.37005 9.03639 4.36915 9.07517 4.37603C10.8015 4.64266 12.5467 4.76958 14.2935 4.75554H14.3036C16.0537 4.76978 17.8021 4.64287 19.5317 4.37603C19.6089 4.36474 19.6874 4.38421 19.7504 4.43022C19.8133 4.47623 19.8556 4.54509 19.868 4.62194C19.8805 4.69879 19.8622 4.77747 19.8171 4.84096C19.7719 4.90445 19.7036 4.94767 19.6268 4.9613C17.8655 5.23332 16.0852 5.36281 14.303 5.34851H14.2938Z" fill="currentColor"/>
<path d="M14.3039 12.67C14.2251 12.67 14.1495 12.6387 14.0938 12.5831C14.0381 12.5275 14.0068 12.4521 14.0068 12.3735V2.55442C14.0068 2.47579 14.0381 2.40038 14.0938 2.34477C14.1495 2.28917 14.2251 2.25793 14.3039 2.25793C14.3827 2.25793 14.4582 2.28917 14.5139 2.34477C14.5696 2.40038 14.6009 2.47579 14.6009 2.55442V12.3735C14.6009 12.4521 14.5696 12.5275 14.5139 12.5831C14.4582 12.6387 14.3827 12.67 14.3039 12.67Z" fill="currentColor"/>
<path d="M21.492 10.0266H7.11462C7.03584 10.0266 6.96028 9.99533 6.90457 9.93973C6.84886 9.88413 6.81757 9.80871 6.81757 9.73008C6.81757 9.65145 6.84886 9.57604 6.90457 9.52043C6.96028 9.46483 7.03584 9.43359 7.11462 9.43359H21.492C21.5708 9.43359 21.6463 9.46483 21.702 9.52043C21.7577 9.57604 21.789 9.65145 21.789 9.73008C21.789 9.80871 21.7577 9.88413 21.702 9.93973C21.6463 9.99533 21.5708 10.0266 21.492 10.0266Z" fill="currentColor"/>
<path d="M9.61963 12.6706C9.55244 12.6706 9.48725 12.6478 9.4347 12.606C9.38215 12.5642 9.34534 12.5059 9.33029 12.4405C9.12699 11.5514 9.02515 10.6421 9.02671 9.73006C9.02134 8.44586 9.22644 7.16944 9.63388 5.95132C10.0232 4.78977 10.6147 3.70582 11.3812 2.74925C11.4052 2.71791 11.4353 2.69169 11.4697 2.67213C11.5041 2.65256 11.542 2.64004 11.5813 2.63531C11.6206 2.63058 11.6604 2.63374 11.6985 2.64459C11.7365 2.65544 11.772 2.67377 11.8029 2.6985C11.8337 2.72323 11.8593 2.75386 11.8782 2.7886C11.897 2.82334 11.9087 2.86148 11.9125 2.90079C11.9164 2.9401 11.9123 2.97978 11.9006 3.0175C11.8889 3.05522 11.8697 3.09023 11.8443 3.12046C11.1214 4.02304 10.5638 5.04577 10.1968 6.14167C9.81015 7.29867 9.61569 8.51099 9.62111 9.73064C9.61955 10.5979 9.71631 11.4625 9.90955 12.308C9.91961 12.3515 9.9197 12.3967 9.90983 12.4402C9.89996 12.4837 9.88038 12.5245 9.85254 12.5594C9.8247 12.5943 9.78932 12.6225 9.74904 12.6418C9.70876 12.6612 9.66463 12.6712 9.61992 12.6712L9.61963 12.6706Z" fill="currentColor"/>
<path d="M18.9881 12.6701C18.9434 12.6701 18.8993 12.66 18.859 12.6407C18.8188 12.6213 18.7834 12.5931 18.7555 12.5582C18.7277 12.5233 18.7081 12.4826 18.6982 12.439C18.6884 12.3955 18.6885 12.3503 18.6985 12.3069C18.8918 11.4615 18.9885 10.5969 18.9867 9.72979C18.9921 8.51014 18.7976 7.29782 18.411 6.14082C18.044 5.04492 17.4863 4.02219 16.7635 3.11961C16.7381 3.08937 16.7189 3.05437 16.7072 3.01665C16.6955 2.97893 16.6914 2.93924 16.6953 2.89994C16.6991 2.86063 16.7108 2.82248 16.7296 2.78774C16.7485 2.753 16.774 2.72237 16.8049 2.69764C16.8357 2.67291 16.8712 2.65458 16.9093 2.64373C16.9473 2.63288 16.9872 2.62973 17.0265 2.63446C17.0657 2.63919 17.1037 2.6517 17.1381 2.67126C17.1724 2.69083 17.2025 2.71706 17.2266 2.7484C17.9931 3.70496 18.5845 4.78891 18.9739 5.95046C19.3813 7.16858 19.5864 8.44501 19.5811 9.7292C19.5828 10.6411 19.481 11.5503 19.2775 12.4394C19.2625 12.5049 19.2258 12.5633 19.1732 12.6052C19.1207 12.6471 19.0554 12.67 18.9881 12.6701Z" fill="currentColor"/>
</svg>
