<svg width="24" height="24" viewBox="0 0 24 24" fill="none" xmlns="http://www.w3.org/2000/svg">
<path d="M19.37 20.8339C19.2085 20.8336 19.049 20.7977 18.9036 20.7289L10.1276 16.6035C10.0864 16.5841 10.0502 16.5557 10.0217 16.5206C9.99324 16.4855 9.97328 16.4446 9.96331 16.4008C9.95335 16.3571 9.95365 16.3117 9.96417 16.2681C9.9747 16.2245 9.99519 16.1838 10.0241 16.149L17.2197 7.49999L8.49156 13.3766C8.42539 13.4202 8.34433 13.4364 8.26599 13.4218C8.18765 13.4072 8.11836 13.3629 8.07318 13.2986C8.028 13.2342 8.01057 13.155 8.0247 13.0781C8.03883 13.0012 8.08335 12.9329 8.14861 12.888L18.6163 5.83985C18.6763 5.79933 18.7493 5.78138 18.8217 5.78931C18.8942 5.79723 18.9613 5.83051 19.0107 5.88301C19.0601 5.93551 19.0885 6.00372 19.0907 6.07509C19.0929 6.14646 19.0687 6.2162 19.0225 6.27149L10.736 16.2323L19.1654 20.195C19.231 20.2258 19.303 20.2414 19.3757 20.2405C19.4484 20.2396 19.5199 20.2223 19.5847 20.1899C19.6495 20.1575 19.7058 20.1109 19.7492 20.0538C19.7926 19.9966 19.8219 19.9304 19.835 19.8603L23.3922 0.691056C23.3949 0.675928 23.3934 0.660349 23.3876 0.646054C23.3819 0.631758 23.3722 0.619309 23.3596 0.610089C23.3471 0.60087 23.3321 0.595243 23.3165 0.593836C23.3009 0.59243 23.2852 0.595297 23.2711 0.602121L0.653956 11.3201C0.639477 11.3269 0.627254 11.3375 0.618696 11.3508C0.610139 11.3641 0.605598 11.3795 0.605598 11.3952C0.605598 11.411 0.610139 11.4264 0.618696 11.4397C0.627254 11.453 0.639477 11.4636 0.653956 11.4704L6.50983 14.1681C6.54581 14.1847 6.57809 14.2081 6.60485 14.2369C6.63161 14.2657 6.65231 14.2994 6.66577 14.336C6.67923 14.3726 6.6852 14.4115 6.68332 14.4504C6.68144 14.4893 6.67176 14.5275 6.65482 14.5627C6.63789 14.5979 6.61404 14.6295 6.58463 14.6558C6.55522 14.682 6.52083 14.7022 6.48341 14.7154C6.446 14.7286 6.4063 14.7344 6.36659 14.7326C6.32687 14.7308 6.28792 14.7213 6.25194 14.7047L0.396361 12.007C0.278405 11.9526 0.178581 11.8666 0.108439 11.759C0.038297 11.6513 0.000706523 11.5265 9.86172e-06 11.3988C-0.000686799 11.2711 0.0355404 11.1458 0.104504 11.0375C0.173467 10.9291 0.272345 10.8421 0.3897 10.7865L23.009 0.0676158C23.1237 0.0131915 23.2516 -0.00905539 23.3784 0.0033412C23.5052 0.0157378 23.6261 0.0622943 23.7275 0.137848C23.829 0.213402 23.9071 0.315001 23.9533 0.431381C23.9994 0.547762 24.0117 0.674376 23.9888 0.797187L20.4301 19.9658C20.3846 20.2089 20.2539 20.4287 20.0604 20.5872C19.8669 20.7457 19.6229 20.833 19.3706 20.8339H19.37Z" fill="currentColor"/>
<path d="M10.614 24C10.5644 23.9999 10.5156 23.9879 10.4718 23.965C10.4367 23.9467 10.4056 23.9218 10.3804 23.8917C10.3551 23.8616 10.3362 23.827 10.3246 23.7898C10.313 23.7525 10.309 23.7134 10.3129 23.6746C10.3167 23.6359 10.3284 23.5983 10.3471 23.5639L12.7686 19.1171C12.8064 19.0478 12.8708 18.996 12.9476 18.9731C13.0244 18.9503 13.1073 18.9582 13.1781 18.9953C13.2489 19.0323 13.3018 19.0954 13.3252 19.1706C13.3485 19.2458 13.3404 19.327 13.3026 19.3964L10.881 23.8432C10.8552 23.8905 10.8167 23.9301 10.7697 23.9578C10.7227 23.9854 10.6689 24 10.614 24Z" fill="currentColor"/>
<path d="M10.614 24C10.5338 24 10.4568 23.9688 10.4 23.9132C10.3432 23.8576 10.3113 23.7822 10.3113 23.7036V16.5887C10.3113 16.5101 10.3432 16.4347 10.4 16.3791C10.4568 16.3235 10.5338 16.2922 10.614 16.2922C10.6943 16.2922 10.7713 16.3235 10.8281 16.3791C10.8848 16.4347 10.9167 16.5101 10.9167 16.5887V23.7036C10.9167 23.7822 10.8848 23.8576 10.8281 23.9132C10.7713 23.9688 10.6943 24 10.614 24Z" fill="currentColor"/>
<path d="M10.6141 24.0001C10.5558 24.0001 10.4987 23.9836 10.4497 23.9526C10.4008 23.9217 10.362 23.8775 10.338 23.8254L6.10031 14.6354C6.08395 14.5999 6.07488 14.5616 6.07364 14.5227C6.07239 14.4838 6.07898 14.445 6.09303 14.4086C6.10709 14.3722 6.12833 14.3388 6.15554 14.3104C6.18276 14.2821 6.21542 14.2592 6.25165 14.2432C6.28789 14.2272 6.32699 14.2183 6.36672 14.2171C6.40645 14.2158 6.44605 14.2223 6.48323 14.2361C6.52042 14.2498 6.55447 14.2706 6.58345 14.2973C6.61243 14.3239 6.63576 14.3559 6.65212 14.3914L10.8898 23.5815C10.9107 23.6266 10.9196 23.6762 10.9159 23.7256C10.9121 23.775 10.8958 23.8227 10.8683 23.8643C10.8409 23.906 10.8033 23.9402 10.7589 23.9639C10.7144 23.9876 10.6646 24 10.6141 24.0001Z" fill="currentColor"/>
</svg>
