<svg width="24" height="24" viewBox="0 0 24 24" fill="none" xmlns="http://www.w3.org/2000/svg">
<path fill-rule="evenodd" clip-rule="evenodd" d="M8.26096 0C8.4307 0 8.5683 0.137898 8.5683 0.308004V1.13155H12.4009C12.5707 1.13155 12.7083 1.26945 12.7083 1.43956V4.07976C12.7083 4.24987 12.5707 4.38776 12.4009 4.38776H8.5683V5.85002L14.9324 13.1611L17.8176 9.90952C17.876 9.84363 17.9599 9.80601 18.0479 9.80618C18.1358 9.80635 18.2195 9.84429 18.2777 9.9104L23.9231 16.3221C24.0354 16.4497 24.0233 16.6443 23.896 16.7568C23.7687 16.8694 23.5745 16.8572 23.4622 16.7297L18.0464 10.5787L15.3397 13.629L23.923 23.4895C24.0346 23.6177 24.0214 23.8123 23.8934 23.9241C23.7655 24.0359 23.5714 24.0226 23.4598 23.8945L8.2715 6.44614L0.547641 16.1507C0.441798 16.2837 0.248417 16.3055 0.115713 16.1994C-0.01699 16.0934 -0.0387641 15.8996 0.0670796 15.7666L7.95361 5.85765V0.308004C7.95361 0.137898 8.09121 0 8.26096 0ZM8.5683 3.77176H12.0936V1.74756H8.5683V3.77176Z" fill="currentColor"/>
<path d="M8.50454 11.0563C8.60803 10.9215 8.58286 10.7281 8.44832 10.6244C8.31377 10.5207 8.1208 10.5459 8.01731 10.6808L5.39186 14.1013C5.22698 14.3162 5.1122 14.5655 5.05593 14.8307C4.99967 15.0959 5.00334 15.3704 5.06668 15.634C5.13002 15.8976 5.25143 16.1437 5.422 16.3542C5.59257 16.5647 5.80807 16.7343 6.05253 16.8505L10.4617 18.9449C10.7768 19.0947 11.0318 19.3475 11.1846 19.6618C11.3373 19.9761 11.3789 20.3331 11.3024 20.6741C11.2258 21.0152 11.0358 21.32 10.7635 21.5385C10.4912 21.757 10.1528 21.8761 9.80395 21.8763H0.357447C0.187703 21.8763 0.0500983 22.0142 0.0500983 22.1843C0.0500983 22.3544 0.187703 22.4923 0.357447 22.4923H9.80431C10.2927 22.492 10.7664 22.3252 11.1477 22.0194C11.5289 21.7135 11.7949 21.2867 11.9021 20.8092C12.0092 20.3318 11.9511 19.832 11.7372 19.392C11.5233 18.952 11.1663 18.598 10.725 18.3883L6.3159 16.2939C6.15431 16.2171 6.01192 16.105 5.89917 15.9658C5.78642 15.8267 5.70617 15.6641 5.6643 15.4898C5.62243 15.3155 5.62 15.1341 5.65719 14.9588C5.69439 14.7835 5.77026 14.6187 5.87925 14.4766L8.50454 11.0563Z" fill="currentColor"/>
</svg>
