<svg width="24" height="24" viewBox="0 0 24 24" fill="none" xmlns="http://www.w3.org/2000/svg">
<path d="M23.7044 24C23.6621 24 23.6203 23.9909 23.5819 23.9734C23.5434 23.9558 23.5091 23.9303 23.4814 23.8983L8.26765 6.42218L0.5271 16.1475C0.502883 16.178 0.472919 16.2033 0.438922 16.2221C0.404925 16.241 0.36756 16.2529 0.328959 16.2573C0.290357 16.2616 0.251275 16.2583 0.213946 16.2476C0.176617 16.2368 0.141771 16.2188 0.111398 16.1945C0.0810241 16.1702 0.0557169 16.1402 0.036923 16.1061C0.0181291 16.0721 0.00621642 16.0346 0.00186328 15.9959C-0.00248986 15.9573 0.000802445 15.9181 0.0115528 15.8807C0.0223032 15.8433 0.0403009 15.8084 0.0645181 15.7779L8.02512 5.77487C8.05213 5.74094 8.08625 5.71336 8.12507 5.6941C8.16389 5.67484 8.20646 5.66436 8.24977 5.6634C8.29307 5.66244 8.33606 5.67102 8.37569 5.68854C8.41532 5.70606 8.45063 5.73209 8.47912 5.76479L23.9256 23.5089C23.9629 23.5518 23.9871 23.6045 23.9953 23.6607C24.0035 23.717 23.9954 23.7745 23.9719 23.8262C23.9484 23.878 23.9106 23.9219 23.8629 23.9527C23.8152 23.9835 23.7596 23.9999 23.7029 24H23.7044Z" fill="currentColor"/>
<path d="M23.705 16.8268C23.663 16.8268 23.6216 16.8179 23.5833 16.8007C23.5451 16.7834 23.5109 16.7582 23.4832 16.7267L18.0529 10.5594L15.2608 13.7071C15.2087 13.7658 15.1354 13.8014 15.0571 13.806C14.9788 13.8107 14.9018 13.7839 14.8432 13.7317C14.7845 13.6794 14.749 13.606 14.7444 13.5275C14.7398 13.449 14.7665 13.3719 14.8186 13.3132L17.8325 9.91538C17.8602 9.88409 17.8943 9.85905 17.9323 9.84188C17.9704 9.82472 18.0117 9.81583 18.0534 9.8158C18.0953 9.81586 18.1367 9.82482 18.1748 9.84209C18.2129 9.85936 18.247 9.88455 18.2747 9.91598L23.9259 16.3339C23.9636 16.3767 23.9882 16.4294 23.9967 16.4858C24.0052 16.5422 23.9973 16.5999 23.9739 16.6519C23.9505 16.7039 23.9126 16.7481 23.8648 16.779C23.817 16.81 23.7613 16.8265 23.7044 16.8265L23.705 16.8268Z" fill="currentColor"/>
<path d="M9.80253 22.4899H0.345939C0.267496 22.4899 0.192266 22.4586 0.136799 22.403C0.0813319 22.3475 0.0501709 22.2721 0.0501709 22.1935C0.0501709 22.1149 0.0813319 22.0395 0.136799 21.9839C0.192266 21.9283 0.267496 21.8971 0.345939 21.8971H9.80253C10.1545 21.897 10.4959 21.7768 10.7707 21.5565C11.0455 21.3361 11.2372 21.0285 11.3144 20.6844C11.3916 20.3403 11.3497 19.9802 11.1955 19.6631C11.0413 19.3461 10.784 19.0911 10.4659 18.94L6.0519 16.8446C5.80864 16.7291 5.59427 16.5606 5.42452 16.3512C5.25476 16.1419 5.13394 15.8972 5.07091 15.635C5.00788 15.3727 5.00425 15.0997 5.06028 14.8359C5.11631 14.5721 5.23058 14.3242 5.3947 14.1104L8.02289 10.6865C8.07135 10.6261 8.14149 10.5871 8.2183 10.5779C8.2951 10.5687 8.37245 10.59 8.43376 10.6373C8.49508 10.6845 8.53548 10.754 8.54631 10.8307C8.55714 10.9075 8.53753 10.9854 8.49169 11.0478L5.86349 14.4717C5.75311 14.6153 5.67624 14.7819 5.63853 14.9593C5.60083 15.1366 5.60324 15.3201 5.6456 15.4964C5.68795 15.6726 5.76917 15.8371 5.8833 15.9778C5.99742 16.1185 6.14154 16.2318 6.30507 16.3093L10.7191 18.4048C11.1585 18.6135 11.5139 18.9658 11.7269 19.4039C11.9399 19.8419 11.9979 20.3395 11.8912 20.8149C11.7845 21.2903 11.5195 21.7152 11.1399 22.0196C10.7602 22.3241 10.2885 22.49 9.80224 22.4901L9.80253 22.4899Z" fill="currentColor"/>
<path d="M8.25762 6.25584C8.17918 6.25584 8.10395 6.22461 8.04848 6.16903C7.99301 6.11344 7.96185 6.03806 7.96185 5.95945V0.296387C7.96185 0.21778 7.99301 0.142393 8.04848 0.0868097C8.10395 0.0312264 8.17918 0 8.25762 0C8.33606 0 8.41129 0.0312264 8.46676 0.0868097C8.52223 0.142393 8.55339 0.21778 8.55339 0.296387V5.95945C8.55339 6.03806 8.52223 6.11344 8.46676 6.16903C8.41129 6.22461 8.33606 6.25584 8.25762 6.25584Z" fill="currentColor"/>
<path d="M8.25762 1.13281H12.4019C12.4804 1.13281 12.5556 1.16404 12.6111 1.21962C12.6665 1.27521 12.6977 1.35059 12.6977 1.4292V4.07178C12.6977 4.15039 12.6665 4.22578 12.6111 4.28136C12.5556 4.33694 12.4804 4.36817 12.4019 4.36817H8.25762C8.17918 4.36817 8.10395 4.33694 8.04848 4.28136C7.99301 4.22578 7.96185 4.15039 7.96185 4.07178V1.4292C7.96185 1.35059 7.99301 1.27521 8.04848 1.21962C8.10395 1.16404 8.17918 1.13281 8.25762 1.13281ZM12.1062 1.72559H8.55339V3.7754H12.1062V1.72559Z" fill="currentColor"/>
</svg>
