<svg width="24" height="24" viewBox="0 0 24 24" fill="none" xmlns="http://www.w3.org/2000/svg">
<path d="M19.1718 24H19.1603C19.0817 23.997 19.0076 23.9629 18.9542 23.9053C18.9008 23.8476 18.8725 23.7711 18.8754 23.6926C18.8769 23.6499 19.0091 19.4288 16.7779 18.3079L11.8742 16.0446C11.8028 16.0117 11.7474 15.9518 11.7202 15.878C11.6931 15.8042 11.6963 15.7227 11.7292 15.6513C11.7622 15.58 11.8221 15.5246 11.8959 15.4974C11.9696 15.4702 12.0512 15.4735 12.1225 15.5064L17.0304 17.7717L17.0387 17.7758C17.6848 18.1166 18.211 18.647 18.5467 19.2957C18.8762 19.9149 19.1107 20.5801 19.2424 21.2691C19.4067 22.0738 19.4823 22.8942 19.4676 23.7154C19.4646 23.7919 19.4321 23.8642 19.3769 23.9172C19.3218 23.9702 19.2483 23.9999 19.1718 24Z" fill="currentColor"/>
<path d="M0.2982 24C0.221556 24.0001 0.14787 23.9704 0.0926068 23.9173C0.0373441 23.8642 0.00480199 23.7918 0.00181288 23.7152C-0.01295 22.894 0.0624886 22.0736 0.226772 21.2688C0.35843 20.5799 0.592929 19.9147 0.922397 19.2955C1.25811 18.6468 1.78435 18.1164 2.43041 17.7756L2.43871 17.7714L7.34659 15.5062C7.41797 15.4732 7.4995 15.47 7.57326 15.4972C7.64702 15.5243 7.70696 15.5797 7.7399 15.6511C7.77283 15.7225 7.77607 15.804 7.74889 15.8778C7.72171 15.9515 7.66634 16.0115 7.59497 16.0444L2.69123 18.3076C0.460029 19.4285 0.592219 23.6497 0.593701 23.6924C0.596666 23.7709 0.56833 23.8474 0.514919 23.905C0.461508 23.9627 0.387394 23.9967 0.308873 23.9997L0.2982 24Z" fill="currentColor"/>
<path d="M13.8869 19.847C13.8628 19.847 13.8387 19.844 13.8152 19.8381C12.8003 19.5905 11.8606 19.1005 11.0766 18.4101C10.7502 18.1269 10.4661 17.7983 10.2331 17.4344C10.2112 17.4007 10.1964 17.3629 10.1896 17.3233C10.1828 17.2836 10.1841 17.2431 10.1935 17.204C10.2028 17.1649 10.2201 17.1281 10.2441 17.0959C10.2682 17.0636 10.2985 17.0366 10.3333 17.0165C10.3681 16.9964 10.4066 16.9835 10.4466 16.9788C10.4865 16.974 10.527 16.9774 10.5655 16.9888C10.6041 17.0002 10.6399 17.0192 10.6709 17.0449C10.7018 17.0706 10.7272 17.1023 10.7455 17.1381C10.9535 17.4548 11.2048 17.741 11.4921 17.9881C12.0868 18.5103 12.7831 18.9039 13.5372 19.144L13.2159 16.5672C13.2111 16.5286 13.2139 16.4894 13.2243 16.4518C13.2346 16.4143 13.2522 16.3792 13.2761 16.3484C13.3 16.3177 13.3297 16.292 13.3636 16.2728C13.3974 16.2535 13.4347 16.2411 13.4733 16.2363C13.512 16.2315 13.5512 16.2343 13.5887 16.2446C13.6263 16.2549 13.6614 16.2726 13.6921 16.2965C13.7228 16.3204 13.7486 16.3501 13.7678 16.3839C13.787 16.4178 13.7994 16.4551 13.8043 16.4937L14.1819 19.5139C14.1871 19.5556 14.1834 19.5979 14.171 19.6381C14.1586 19.6782 14.1378 19.7153 14.11 19.7468C14.0822 19.7783 14.048 19.8035 14.0097 19.8208C13.9714 19.8381 13.9299 19.847 13.8878 19.847H13.8869Z" fill="currentColor"/>
<path d="M5.58134 19.847C5.53932 19.847 5.49778 19.8381 5.45948 19.8208C5.42119 19.8035 5.38701 19.7783 5.3592 19.7468C5.3314 19.7153 5.31061 19.6782 5.29822 19.6381C5.28583 19.5979 5.28211 19.5556 5.28732 19.5139L5.66492 16.4937C5.66975 16.4551 5.68213 16.4178 5.70138 16.3839C5.72062 16.3501 5.74634 16.3204 5.77706 16.2965C5.80779 16.2726 5.84293 16.2549 5.88047 16.2446C5.918 16.2343 5.95721 16.2315 5.99584 16.2363C6.03447 16.2411 6.07176 16.2535 6.10561 16.2728C6.13945 16.292 6.16918 16.3177 6.19308 16.3484C6.21698 16.3792 6.23459 16.4143 6.24492 16.4518C6.25524 16.4894 6.25807 16.5286 6.25325 16.5672L5.93137 19.1425C7.06285 18.8107 8.04752 18.1033 8.72305 17.1369C8.76441 17.0731 8.82866 17.0277 8.90254 17.01C8.97641 16.9923 9.05428 17.0036 9.12004 17.0417C9.1858 17.0797 9.23445 17.1416 9.25593 17.2144C9.27742 17.2873 9.27011 17.3656 9.2355 17.4333C9.00244 17.7972 8.71837 18.1257 8.39198 18.409C7.60933 19.1013 6.6691 19.5916 5.65336 19.837C5.62986 19.8433 5.60567 19.8466 5.58134 19.847Z" fill="currentColor"/>
<path d="M11.2444 23.9997C11.1658 23.9997 11.0904 23.9685 11.0348 23.9129C10.9792 23.8573 10.948 23.7819 10.948 23.7033C10.948 22.5367 10.2097 19.6532 10.2023 19.6241C10.1895 19.5742 10.1899 19.5218 10.2035 19.4722C10.2171 19.4225 10.2435 19.3772 10.2799 19.3408C10.4293 19.1854 10.5329 18.9918 10.5796 18.7814C10.6263 18.571 10.6142 18.3518 10.5446 18.1478C10.48 17.9017 10.3786 17.6668 10.2438 17.451C10.1997 17.3859 10.1834 17.3059 10.1983 17.2288C10.2132 17.1516 10.2582 17.0835 10.3233 17.0395C10.3885 16.9955 10.4684 16.9791 10.5456 16.994C10.6228 17.009 10.6909 17.0539 10.7349 17.1191C10.9089 17.3915 11.0389 17.6897 11.1202 18.0026C11.2062 18.2785 11.2234 18.5712 11.1705 18.8553C11.1175 19.1394 10.996 19.4063 10.8164 19.6327C10.9741 20.2643 11.5416 22.6126 11.5416 23.7042C11.5415 23.7431 11.5337 23.7816 11.5187 23.8176C11.5037 23.8535 11.4818 23.8861 11.4542 23.9135C11.4266 23.941 11.3939 23.9627 11.3579 23.9775C11.3219 23.9923 11.2833 23.9998 11.2444 23.9997Z" fill="currentColor"/>
<path d="M8.22418 23.9997C8.14558 23.9997 8.07019 23.9684 8.01461 23.9128C7.95903 23.8573 7.9278 23.7819 7.9278 23.7033C7.9278 22.6117 8.49537 20.2631 8.65305 19.6315C8.47355 19.405 8.35208 19.1382 8.29918 18.8541C8.24629 18.57 8.26359 18.2773 8.34956 18.0014C8.43086 17.6885 8.56088 17.3903 8.73486 17.1178C8.77888 17.0527 8.84696 17.0077 8.92414 16.9928C9.00132 16.9779 9.08127 16.9942 9.1464 17.0383C9.21152 17.0823 9.25649 17.1504 9.27142 17.2275C9.28634 17.3047 9.26999 17.3847 9.22597 17.4498C9.08839 17.6698 8.9857 17.9097 8.92158 18.1611C8.85482 18.3634 8.84451 18.58 8.89178 18.7877C8.93905 18.9953 9.04209 19.1861 9.18981 19.3396C9.22621 19.376 9.2525 19.4213 9.26606 19.471C9.27963 19.5207 9.28001 19.573 9.26717 19.6229C9.25976 19.6525 8.52146 22.5358 8.52146 23.7021C8.52161 23.7412 8.51403 23.7799 8.49915 23.8161C8.48427 23.8522 8.46239 23.8851 8.43476 23.9127C8.40713 23.9404 8.37429 23.9623 8.33815 23.9772C8.30201 23.9922 8.26328 23.9998 8.22418 23.9997Z" fill="currentColor"/>
<path d="M8.22391 14.9395C8.18386 14.9394 8.14424 14.9313 8.10743 14.9155C7.62098 14.7196 7.17874 14.4282 6.80686 14.0584C6.43498 13.6887 6.14101 13.2481 5.94232 12.7628C5.6107 11.8583 5.40593 10.9123 5.33384 9.95159V9.94418C5.20847 8.92253 5.15364 7.73906 5.69573 6.70822C6.20687 5.79471 7.05031 5.11325 8.05082 4.80542C9.144 4.43937 10.3267 4.43937 11.4199 4.80542C12.4204 5.11332 13.2639 5.7949 13.775 6.70852C14.317 7.73906 14.2619 8.92253 14.1368 9.94418V9.95129C14.0647 10.912 13.86 11.858 13.5284 12.7625C13.3297 13.2479 13.0357 13.6885 12.6637 14.0583C12.2918 14.4281 11.8495 14.7196 11.363 14.9155C11.2909 14.9451 11.2102 14.9453 11.1381 14.9159C11.066 14.8864 11.0083 14.8298 10.9776 14.7582C10.947 14.6867 10.9457 14.6059 10.9741 14.5334C11.0025 14.4609 11.0583 14.4024 11.1294 14.3707C13.1013 13.5257 13.3182 11.7545 13.5482 9.87927V9.87216C13.6623 8.9415 13.7163 7.87036 13.25 6.98446C12.8094 6.20605 12.0861 5.62702 11.2302 5.36737C10.2599 5.04281 9.21044 5.04281 8.24021 5.36737C7.38424 5.62702 6.66099 6.20605 6.22033 6.98446C5.75411 7.87065 5.80805 8.94061 5.92216 9.87245V9.87986C6.15216 11.7551 6.36912 13.5254 8.34098 14.3713C8.4037 14.3982 8.45521 14.4459 8.48681 14.5064C8.51842 14.5669 8.52818 14.6365 8.51446 14.7033C8.50073 14.7702 8.46436 14.8302 8.41148 14.8734C8.3586 14.9165 8.29245 14.9401 8.2242 14.9401L8.22391 14.9395Z" fill="currentColor"/>
<path d="M9.73428 17.5817C9.05547 17.58 8.40494 17.3096 7.92491 16.8296C7.44488 16.3496 7.17441 15.6992 7.17261 15.0203V14.2651C7.17261 14.1865 7.20384 14.1111 7.25942 14.0556C7.315 14 7.39039 13.9688 7.46899 13.9688C7.5476 13.9688 7.62298 14 7.67857 14.0556C7.73415 14.1111 7.76538 14.1865 7.76538 14.2651V15.0203C7.77174 15.5383 7.98196 16.0329 8.35048 16.3969C8.719 16.7609 9.21613 16.9651 9.73413 16.9651C10.2521 16.9651 10.7493 16.7609 11.1178 16.3969C11.4863 16.0329 11.6965 15.5383 11.7029 15.0203V14.2651C11.7029 14.1865 11.7341 14.1111 11.7897 14.0556C11.8453 14 11.9207 13.9688 11.9993 13.9688C12.0779 13.9688 12.1533 14 12.2088 14.0556C12.2644 14.1111 12.2957 14.1865 12.2957 14.2651V15.0203C12.2939 15.6992 12.0235 16.3498 11.5435 16.8298C11.0634 17.3098 10.4129 17.5803 9.73399 17.582L9.73428 17.5817Z" fill="currentColor"/>
<path d="M15.3974 12.6738C15.3188 12.6738 15.2434 12.6426 15.1878 12.587C15.1322 12.5314 15.101 12.456 15.101 12.3774V10.5695H15.6938V11.7227L18.2226 9.51018C18.2766 9.46292 18.346 9.4369 18.4179 9.43697H22.9482C23.0694 9.43682 23.1856 9.38875 23.2715 9.30324C23.3574 9.21773 23.406 9.10173 23.4067 8.98054V1.05158C23.4066 0.929923 23.3582 0.813269 23.2722 0.727243C23.1862 0.641217 23.0695 0.592853 22.9478 0.592775H10.4895C10.3679 0.592853 10.2512 0.641217 10.1652 0.727243C10.0791 0.813269 10.0308 0.929923 10.0307 1.05158V3.61296H9.43793V1.05158C9.43824 0.772782 9.54913 0.50549 9.74627 0.308348C9.94341 0.111206 10.2107 0.000313788 10.4895 0L22.9482 0C23.227 0.000313788 23.4942 0.111206 23.6914 0.308348C23.8885 0.50549 23.9994 0.772782 23.9997 1.05158V8.98054C23.9994 9.25934 23.8885 9.52663 23.6914 9.72377C23.4942 9.92091 23.227 10.0318 22.9482 10.0321H18.529L15.5927 12.6015C15.5385 12.6484 15.4691 12.6741 15.3974 12.6738Z" fill="currentColor"/>
<path d="M14.4534 5.73008C14.312 5.73008 14.1739 5.68817 14.0564 5.60965C13.9388 5.53113 13.8473 5.41953 13.7932 5.28896C13.7391 5.15838 13.7249 5.0147 13.7525 4.87608C13.7801 4.73747 13.8481 4.61014 13.9481 4.5102C14.048 4.41027 14.1753 4.34221 14.314 4.31463C14.4526 4.28706 14.5962 4.30121 14.7268 4.3553C14.8574 4.40938 14.969 4.50098 15.0475 4.61849C15.126 4.736 15.1679 4.87416 15.1679 5.01549C15.1678 5.20497 15.0925 5.38663 14.9585 5.52061C14.8245 5.65459 14.6428 5.72993 14.4534 5.73008ZM14.4534 4.59759C14.3707 4.59759 14.2898 4.62211 14.221 4.66807C14.1522 4.71402 14.0986 4.77933 14.067 4.85575C14.0353 4.93217 14.0271 5.01625 14.0432 5.09738C14.0593 5.1785 14.0992 5.25302 14.1576 5.3115C14.2161 5.36999 14.2907 5.40982 14.3718 5.42596C14.4529 5.44209 14.537 5.43381 14.6134 5.40216C14.6898 5.37051 14.7551 5.3169 14.8011 5.24813C14.847 5.17936 14.8716 5.0985 14.8716 5.01579C14.8715 4.9049 14.8274 4.79857 14.749 4.72016C14.6706 4.64175 14.5643 4.59767 14.4534 4.59759Z" fill="currentColor"/>
<path d="M16.7186 5.73008C16.5773 5.73008 16.4391 5.68817 16.3216 5.60965C16.2041 5.53113 16.1125 5.41953 16.0584 5.28896C16.0043 5.15838 15.9902 5.0147 16.0178 4.87608C16.0453 4.73747 16.1134 4.61014 16.2133 4.5102C16.3133 4.41027 16.4406 4.34221 16.5792 4.31463C16.7178 4.28706 16.8615 4.30121 16.9921 4.3553C17.1227 4.40938 17.2343 4.50098 17.3128 4.61849C17.3913 4.736 17.4332 4.87416 17.4332 5.01549C17.433 5.20497 17.3577 5.38663 17.2237 5.52061C17.0898 5.65459 16.9081 5.72993 16.7186 5.73008ZM16.7186 4.59759C16.6359 4.59759 16.555 4.62211 16.4863 4.66807C16.4175 4.71402 16.3639 4.77933 16.3322 4.85575C16.3006 4.93217 16.2923 5.01625 16.3084 5.09738C16.3246 5.1785 16.3644 5.25302 16.4229 5.3115C16.4814 5.36999 16.5559 5.40982 16.637 5.42596C16.7182 5.44209 16.8022 5.43381 16.8787 5.40216C16.9551 5.37051 17.0204 5.3169 17.0663 5.24813C17.1123 5.17936 17.1368 5.0985 17.1368 5.01579C17.1367 4.9049 17.0927 4.79857 17.0142 4.72016C16.9358 4.64175 16.8295 4.59767 16.7186 4.59759Z" fill="currentColor"/>
<path d="M18.9839 5.73008C18.8426 5.73008 18.7045 5.68817 18.5869 5.60965C18.4694 5.53113 18.3778 5.41953 18.3237 5.28896C18.2697 5.15838 18.2555 5.0147 18.2831 4.87608C18.3107 4.73747 18.3787 4.61014 18.4787 4.5102C18.5786 4.41027 18.7059 4.34221 18.8445 4.31463C18.9831 4.28706 19.1268 4.30121 19.2574 4.3553C19.388 4.40938 19.4996 4.50098 19.5781 4.61849C19.6566 4.736 19.6985 4.87416 19.6985 5.01549C19.6984 5.20497 19.623 5.38663 19.4891 5.52061C19.3551 5.65459 19.1734 5.72993 18.9839 5.73008ZM18.9839 4.59759C18.9012 4.59759 18.8204 4.62211 18.7516 4.66807C18.6828 4.71402 18.6292 4.77933 18.5976 4.85575C18.5659 4.93217 18.5576 5.01625 18.5738 5.09738C18.5899 5.1785 18.6297 5.25302 18.6882 5.3115C18.7467 5.36999 18.8212 5.40982 18.9024 5.42596C18.9835 5.44209 19.0676 5.43381 19.144 5.40216C19.2204 5.37051 19.2857 5.3169 19.3317 5.24813C19.3776 5.17936 19.4021 5.0985 19.4021 5.01579C19.4021 4.9049 19.358 4.79857 19.2796 4.72016C19.2012 4.64175 19.0948 4.59767 18.9839 4.59759Z" fill="currentColor"/>
</svg>
