<svg width="24" height="24" viewBox="0 0 24 24" fill="none" xmlns="http://www.w3.org/2000/svg">
<path d="M19.1687 24H19.1572C19.1183 23.9985 19.08 23.9894 19.0447 23.9731C19.0093 23.9569 18.9775 23.9338 18.951 23.9052C18.9246 23.8767 18.904 23.8432 18.8905 23.8067C18.8771 23.7702 18.8709 23.7313 18.8724 23.6924C18.8742 23.6424 19.004 19.4285 16.7752 18.3089L11.8724 16.0461C11.837 16.0298 11.8053 16.0067 11.7789 15.9781C11.7524 15.9495 11.7319 15.916 11.7185 15.8795C11.705 15.843 11.6989 15.8042 11.7004 15.7653C11.702 15.7264 11.7112 15.6882 11.7275 15.6529C11.7438 15.6176 11.7669 15.5858 11.7955 15.5594C11.824 15.533 11.8576 15.5124 11.8941 15.499C11.9306 15.4855 11.9694 15.4794 12.0083 15.4809C12.0472 15.4825 12.0854 15.4917 12.1207 15.508L17.0277 17.7729L17.036 17.777C17.6819 18.1177 18.2081 18.648 18.5438 19.2966C18.8732 19.9157 19.1076 20.5808 19.2392 21.2696C19.4035 22.0742 19.4789 22.8945 19.4642 23.7156C19.4611 23.7919 19.4287 23.8642 19.3736 23.9172C19.3186 23.9702 19.2452 23.9999 19.1687 24Z" fill="currentColor"/>
<path d="M0.298124 24C0.221444 24.0001 0.147728 23.9704 0.0924675 23.9172C0.0372066 23.8641 0.00470297 23.7916 0.00178915 23.7149C-0.012876 22.8938 0.0626507 22.0736 0.227006 21.269C0.358641 20.5802 0.59309 19.9151 0.922499 19.296C1.25815 18.6474 1.78431 18.1171 2.43025 17.7764L2.43855 17.7723L7.34556 15.5074C7.41692 15.4744 7.49844 15.4712 7.57218 15.4984C7.64593 15.5256 7.70586 15.5809 7.73879 15.6523C7.77172 15.7236 7.77496 15.8052 7.74778 15.8789C7.7206 15.9527 7.66524 16.0126 7.59388 16.0455L2.69103 18.3083C0.456666 19.4308 0.592092 23.6495 0.59387 23.6918C0.595378 23.7307 0.589199 23.7695 0.575702 23.8061C0.562205 23.8426 0.541648 23.8761 0.515202 23.9046C0.488756 23.9332 0.456941 23.9563 0.421575 23.9725C0.386209 23.9888 0.347992 23.9979 0.309093 23.9994L0.298124 24Z" fill="currentColor"/>
<path d="M13.8848 19.8477C13.8606 19.8477 13.8365 19.8447 13.813 19.8388C12.7983 19.5913 11.8588 19.1014 11.0749 18.4111C10.7486 18.1279 10.4646 17.7994 10.2315 17.4356C10.2097 17.4019 10.1949 17.364 10.1881 17.3244C10.1812 17.2848 10.1826 17.2442 10.1919 17.2051C10.2013 17.166 10.2185 17.1293 10.2426 17.097C10.2666 17.0648 10.297 17.0378 10.3317 17.0177C10.3665 16.9976 10.4051 16.9847 10.445 16.98C10.4849 16.9752 10.5254 16.9786 10.5639 16.99C10.6025 17.0014 10.6383 17.0205 10.6693 17.0461C10.7002 17.0718 10.7256 17.1035 10.7439 17.1392C10.9519 17.456 11.2031 17.742 11.4904 17.9891C12.0849 18.5113 12.7811 18.9048 13.5351 19.1448L13.2139 16.5685C13.209 16.5299 13.2119 16.4907 13.2222 16.4531C13.2325 16.4156 13.2501 16.3805 13.274 16.3498C13.2979 16.319 13.3276 16.2933 13.3615 16.2741C13.3953 16.2548 13.4326 16.2425 13.4712 16.2376C13.5099 16.2328 13.5491 16.2356 13.5866 16.246C13.6241 16.2563 13.6592 16.2739 13.69 16.2978C13.7207 16.3217 13.7464 16.3514 13.7656 16.3853C13.7849 16.4191 13.7973 16.4564 13.8021 16.495L14.1796 19.5147C14.1848 19.5563 14.1811 19.5987 14.1687 19.6388C14.1563 19.6789 14.1356 19.716 14.1078 19.7475C14.08 19.779 14.0458 19.8042 14.0075 19.8215C13.9692 19.8388 13.9277 19.8477 13.8857 19.8477H13.8848Z" fill="currentColor"/>
<path d="M5.58031 19.8477C5.5383 19.8477 5.49677 19.8388 5.45848 19.8215C5.42019 19.8042 5.38601 19.779 5.35821 19.7475C5.33041 19.716 5.30963 19.6789 5.29724 19.6388C5.28485 19.5987 5.28113 19.5563 5.28634 19.5147L5.66388 16.495C5.67363 16.417 5.71395 16.3461 5.776 16.2978C5.83805 16.2495 5.91673 16.2279 5.99473 16.2376C6.07274 16.2474 6.14368 16.2877 6.19194 16.3498C6.24021 16.4118 6.26184 16.4905 6.2521 16.5685L5.93028 19.1433C7.06156 18.8116 8.04605 18.1043 8.72146 17.1381C8.73977 17.1023 8.76517 17.0706 8.79611 17.0449C8.82705 17.0193 8.86289 17.0002 8.90145 16.9888C8.94 16.9774 8.98047 16.974 9.02039 16.9788C9.0603 16.9836 9.09882 16.9964 9.13362 17.0165C9.16842 17.0366 9.19875 17.0636 9.22279 17.0959C9.24682 17.1281 9.26405 17.1649 9.27342 17.2039C9.2828 17.243 9.28412 17.2836 9.27731 17.3232C9.2705 17.3629 9.25571 17.4007 9.23382 17.4344C9.0008 17.7982 8.71678 18.1267 8.39045 18.4099C7.60794 19.1022 6.66787 19.5923 5.65232 19.8377C5.62882 19.844 5.60464 19.8473 5.58031 19.8477Z" fill="currentColor"/>
<path d="M11.2427 23.9997C11.1641 23.9997 11.0887 23.9684 11.0331 23.9129C10.9775 23.8573 10.9463 23.7819 10.9463 23.7033C10.9463 22.537 10.2082 19.6539 10.2007 19.6249C10.188 19.575 10.1884 19.5226 10.202 19.4729C10.2156 19.4233 10.2419 19.378 10.2784 19.3416C10.4277 19.1862 10.5313 18.9927 10.578 18.7823C10.6247 18.572 10.6126 18.3528 10.543 18.1488C10.4785 17.9028 10.377 17.6679 10.2422 17.4522C10.1982 17.387 10.1819 17.3071 10.1968 17.2299C10.2117 17.1528 10.2567 17.0847 10.3218 17.0407C10.3869 16.9967 10.4668 16.9803 10.544 16.9953C10.6212 17.0102 10.6892 17.0551 10.7333 17.1203C10.9072 17.3927 11.0372 17.6908 11.1185 18.0036C11.2045 18.2795 11.2217 18.5722 11.1688 18.8562C11.1158 19.1403 10.9943 19.4071 10.8148 19.6335C10.9724 20.265 11.5399 22.6128 11.5399 23.7042C11.5398 23.7431 11.532 23.7816 11.517 23.8176C11.502 23.8535 11.4801 23.8861 11.4525 23.9135C11.4249 23.9409 11.3921 23.9627 11.3561 23.9774C11.3201 23.9922 11.2816 23.9998 11.2427 23.9997Z" fill="currentColor"/>
<path d="M8.22273 23.9996C8.14413 23.9996 8.06876 23.9684 8.01319 23.9128C7.95762 23.8573 7.92639 23.7819 7.92639 23.7033C7.92639 22.6119 8.49387 20.2637 8.65152 19.6323C8.47205 19.4058 8.3506 19.139 8.29771 18.855C8.24483 18.5709 8.26212 18.2783 8.34808 18.0024C8.42937 17.6896 8.55937 17.3915 8.73331 17.119C8.77732 17.0539 8.8454 17.009 8.92256 16.994C8.99972 16.9791 9.07966 16.9955 9.14477 17.0395C9.20989 17.0835 9.25485 17.1516 9.26977 17.2287C9.28469 17.3059 9.26835 17.3858 9.22434 17.4509C9.08678 17.6709 8.98411 17.9108 8.92 18.1621C8.85325 18.3643 8.84294 18.5809 8.8902 18.7886C8.93746 18.9962 9.04049 19.187 9.18818 19.3404C9.22458 19.3768 9.25086 19.4221 9.26442 19.4718C9.27798 19.5214 9.27837 19.5738 9.26553 19.6237C9.25812 19.6533 8.51995 22.536 8.51995 23.7021C8.5201 23.7412 8.51252 23.7799 8.49765 23.8161C8.48277 23.8522 8.46089 23.8851 8.43327 23.9127C8.40564 23.9404 8.37281 23.9623 8.33667 23.9772C8.30054 23.9921 8.26182 23.9997 8.22273 23.9996Z" fill="currentColor"/>
<path d="M8.22241 14.9411C8.18236 14.9411 8.14274 14.9329 8.10594 14.9171C7.61956 14.7212 7.17738 14.4298 6.80557 14.0601C6.43375 13.6903 6.13984 13.2498 5.94122 12.7645C5.60966 11.8602 5.40492 10.9143 5.33285 9.9538V9.94639C5.2075 8.92492 5.15268 7.74166 5.69467 6.71101C6.20573 5.79766 7.04901 5.11632 8.04934 4.80854C9.14233 4.44256 10.3248 4.44256 11.4178 4.80854C12.4182 5.11639 13.2615 5.79784 13.7725 6.7113C14.3145 7.74166 14.2593 8.92492 14.1343 9.94639V9.9538C14.0622 10.9143 13.8575 11.8602 13.5259 12.7645C13.3273 13.2498 13.0334 13.6903 12.6616 14.0601C12.2897 14.4298 11.8476 14.7212 11.3612 14.9171C11.2892 14.9468 11.2084 14.9469 11.1363 14.9175C11.0642 14.8881 11.0066 14.8314 10.9759 14.7599C10.9453 14.6883 10.944 14.6076 10.9724 14.5351C11.0008 14.4626 11.0565 14.4041 11.1277 14.3724C13.0992 13.5276 13.3161 11.7567 13.5461 9.88179V9.87438C13.6601 8.94389 13.7141 7.87294 13.2479 6.98719C12.8074 6.20892 12.0842 5.63 11.2284 5.37039C10.2584 5.0459 9.20906 5.0459 8.239 5.37039C7.38319 5.63 6.66006 6.20892 6.21948 6.98719C5.75364 7.87323 5.80727 8.943 5.92136 9.87468V9.88209C6.15132 11.757 6.36824 13.527 8.33975 14.3727C8.40246 14.3996 8.45396 14.4474 8.48556 14.5078C8.51716 14.5683 8.52692 14.6378 8.5132 14.7047C8.49947 14.7715 8.46311 14.8316 8.41024 14.8747C8.35737 14.9178 8.29123 14.9414 8.22299 14.9414L8.22241 14.9411Z" fill="currentColor"/>
<path d="M9.73249 17.5829C9.05379 17.5812 8.40337 17.3108 7.92343 16.8309C7.44349 16.3511 7.17306 15.7007 7.17126 15.022V14.2669C7.17126 14.1883 7.20249 14.1129 7.25806 14.0574C7.31364 14.0018 7.38901 13.9706 7.4676 13.9706C7.54619 13.9706 7.62156 14.0018 7.67714 14.0574C7.73271 14.1129 7.76393 14.1883 7.76393 14.2669V15.022C7.77029 15.5398 7.98047 16.0343 8.34893 16.3983C8.71738 16.7623 9.21442 16.9664 9.73233 16.9664C10.2502 16.9664 10.7473 16.7623 11.1157 16.3983C11.4842 16.0343 11.6944 15.5398 11.7007 15.022V14.2669C11.7007 14.1883 11.732 14.1129 11.7875 14.0574C11.8431 14.0018 11.9185 13.9706 11.9971 13.9706C12.0757 13.9706 12.151 14.0018 12.2066 14.0574C12.2622 14.1129 12.2934 14.1883 12.2934 14.2669V15.022C12.2917 15.7007 12.0213 16.3512 11.5413 16.8311C11.0614 17.3111 10.4109 17.5815 9.73219 17.5832L9.73249 17.5829Z" fill="currentColor"/>
<path d="M16.9041 14.1857C16.3745 14.1858 15.8466 14.127 15.33 14.0103C15.2533 13.9929 15.1867 13.9458 15.1448 13.8793C15.1028 13.8128 15.089 13.7324 15.1064 13.6557C15.1238 13.579 15.1709 13.5124 15.2374 13.4705C15.3039 13.4285 15.3843 13.4147 15.461 13.4321C15.9346 13.539 16.4186 13.5929 16.9041 13.5927C18.4032 13.5917 19.8559 13.0726 21.016 12.1232C22.1762 11.1738 22.9725 9.85264 23.2701 8.3834C23.5678 6.91416 23.3484 5.38721 22.6492 4.06119C21.9499 2.73517 20.8138 1.69161 19.4333 1.10727C18.5673 0.742889 17.6327 0.570122 16.6937 0.600811C15.7546 0.631501 14.8333 0.864922 13.9929 1.28507C13.121 1.72466 12.3581 2.35336 11.76 3.12531C11.7116 3.18743 11.6405 3.22778 11.5624 3.23748C11.4842 3.24718 11.4054 3.22543 11.3433 3.17702C11.2811 3.1286 11.2408 3.05749 11.2311 2.97933C11.2214 2.90116 11.2431 2.82235 11.2915 2.76022C11.9441 1.91812 12.7764 1.23231 13.7277 0.752851C14.8089 0.210355 16.0109 -0.0464423 17.2194 0.00689547C18.4278 0.0602332 19.6025 0.421932 20.6317 1.05757C21.6609 1.69321 22.5103 2.58164 23.099 3.63832C23.6878 4.695 23.9964 5.88477 23.9954 7.09441C23.9962 8.02588 23.8134 8.94837 23.4573 9.8091C23.1012 10.6698 22.5789 11.4519 21.9203 12.1105C21.2616 12.7692 20.4795 13.2915 19.6188 13.6476C18.7581 14.0037 17.8356 14.1865 16.9041 14.1857Z" fill="currentColor"/>
<path d="M17.2819 4.74922C17.2033 4.74922 17.128 4.718 17.0724 4.66242C17.0168 4.60685 16.9856 4.53148 16.9856 4.45288V3.69782C16.9856 3.61923 17.0168 3.54386 17.0724 3.48828C17.128 3.43271 17.2033 3.40149 17.2819 3.40149C17.3605 3.40149 17.4359 3.43271 17.4915 3.48828C17.547 3.54386 17.5783 3.61923 17.5783 3.69782V4.45288C17.5783 4.53148 17.547 4.60685 17.4915 4.66242C17.4359 4.718 17.3605 4.74922 17.2819 4.74922Z" fill="currentColor"/>
<path d="M17.2819 10.7888C17.2033 10.7888 17.128 10.7575 17.0724 10.702C17.0168 10.6464 16.9856 10.571 16.9856 10.4924V9.73737C16.9856 9.65878 17.0168 9.58341 17.0724 9.52783C17.128 9.47226 17.2033 9.44104 17.2819 9.44104C17.3605 9.44104 17.4359 9.47226 17.4915 9.52783C17.547 9.58341 17.5783 9.65878 17.5783 9.73737V10.4924C17.5783 10.571 17.547 10.6464 17.4915 10.702C17.4359 10.7575 17.3605 10.7888 17.2819 10.7888Z" fill="currentColor"/>
<path d="M17.8482 10.0336H16.7159C16.287 10.0333 15.8758 9.86273 15.5726 9.55951C15.2693 9.25628 15.0987 8.84512 15.0982 8.41625C15.0982 8.33766 15.1294 8.26228 15.185 8.20671C15.2406 8.15114 15.3159 8.11992 15.3945 8.11992C15.4731 8.11992 15.5485 8.15114 15.6041 8.20671C15.6596 8.26228 15.6909 8.33766 15.6909 8.41625C15.6912 8.68793 15.7993 8.94839 15.9914 9.14049C16.1835 9.3326 16.4439 9.44066 16.7156 9.44098H17.8479C18.1197 9.44098 18.3803 9.33301 18.5725 9.14084C18.7647 8.94867 18.8726 8.68803 18.8726 8.41625C18.8726 8.14448 18.7647 7.88383 18.5725 7.69166C18.3803 7.49949 18.1197 7.39153 17.8479 7.39153H16.7156C16.5032 7.39153 16.2929 7.34969 16.0967 7.26841C15.9004 7.18713 15.7221 7.06799 15.5719 6.9178C15.4217 6.76761 15.3026 6.58931 15.2213 6.39308C15.14 6.19685 15.0982 5.98653 15.0982 5.77413C15.0982 5.56173 15.14 5.35141 15.2213 5.15518C15.3026 4.95895 15.4217 4.78065 15.5719 4.63046C15.7221 4.48027 15.9004 4.36114 16.0967 4.27986C16.2929 4.19857 16.5032 4.15674 16.7156 4.15674H17.8479C18.153 4.15838 18.4515 4.24563 18.7095 4.40856C18.9674 4.57148 19.1745 4.80355 19.307 5.07834C19.3361 5.14835 19.3373 5.22684 19.3102 5.29767C19.2832 5.3685 19.2301 5.42627 19.1617 5.45911C19.0934 5.49194 19.0151 5.49734 18.9429 5.4742C18.8707 5.45105 18.8101 5.40111 18.7736 5.33467C18.6898 5.16009 18.5586 5.01261 18.395 4.90907C18.2313 4.80553 18.0418 4.7501 17.8482 4.74911H16.7159C16.4441 4.74911 16.1835 4.85707 15.9913 5.04925C15.7991 5.24142 15.6912 5.50206 15.6912 5.77384C15.6912 6.04561 15.7991 6.30625 15.9913 6.49843C16.1835 6.6906 16.4441 6.79856 16.7159 6.79856H17.8482C18.2771 6.79856 18.6885 6.96896 18.9919 7.27228C19.2952 7.5756 19.4656 7.987 19.4656 8.41596C19.4656 8.84491 19.2952 9.2563 18.9919 9.55962C18.6885 9.86295 18.2771 10.0336 17.8482 10.0336Z" fill="currentColor"/>
</svg>
