<svg width="24" height="24" viewBox="0 0 24 24" fill="none" xmlns="http://www.w3.org/2000/svg">
<path d="M0.509549 10.3023L1.07925 10.3811C1.26087 8.91084 1.73548 7.49189 2.47501 6.2082C3.21453 4.9245 4.20396 3.80213 5.38477 2.90745C6.56559 2.01278 7.91381 1.36396 9.34973 0.999372C10.7856 0.634785 12.2801 0.56183 13.7447 0.784821C16.4997 1.17764 18.9962 2.62037 20.7121 4.81131C21.6229 5.93386 22.2966 7.22946 22.6925 8.61979H22.0603L23.3455 10.1957L23.4144 9.98645C23.6114 9.38821 23.8004 8.81419 24 8.20768L23.3644 8.51709C22.7802 6.50187 21.6706 4.67821 20.1495 3.23302C18.6399 1.7814 16.7628 0.769276 14.7204 0.30574C12.681 -0.170729 10.5508 -0.0890724 8.55385 0.542128C3.61044 2.08154 0.722824 6.61863 0.509549 10.3023Z" fill="currentColor"/>
<path fill-rule="evenodd" clip-rule="evenodd" d="M4.70203 11.8292C4.70203 11.4922 4.70282 11.1553 4.70361 10.8184C4.7057 9.92559 4.70778 9.03282 4.6952 8.14018C4.67496 7.9985 4.70713 7.85431 4.78566 7.73466C4.8642 7.61502 4.98371 7.52815 5.12175 7.49037C6.15931 7.08817 7.19521 6.68161 8.23112 6.27504C9.49527 5.77889 10.7595 5.28271 12.0267 4.7945C12.2399 4.72195 12.4715 4.72427 12.6833 4.80106C14.0608 5.34263 15.4351 5.89269 16.8093 6.44276C17.7291 6.81091 18.649 7.17912 19.5698 7.54474C19.7223 7.58325 19.8558 7.67541 19.9459 7.80436C20.036 7.9333 20.0765 8.09039 20.0602 8.24682C20.0415 10.6483 20.0455 13.0502 20.0578 15.4519C20.0749 15.5765 20.0455 15.703 19.9753 15.8072C19.9051 15.9115 19.799 15.9863 19.6772 16.0174C18.6073 16.4516 17.5395 16.8919 16.4717 17.332L16.4713 17.3322C15.2276 17.8449 13.9841 18.3576 12.7374 18.8607C12.4879 18.9515 12.2148 18.9536 11.9639 18.8667C10.7169 18.3879 9.47393 17.8988 8.2309 17.4097C7.21489 17.01 6.19885 16.6102 5.18058 16.216C5.02199 16.1748 4.88432 16.0762 4.79422 15.9393C4.70412 15.8025 4.66799 15.637 4.69284 15.4751C4.71181 14.5975 4.7083 13.7195 4.7048 12.8413C4.70345 12.504 4.7021 12.1665 4.70203 11.8292ZM12.0117 18.0383C11.9964 18.0924 11.975 18.1446 11.948 18.1938L11.3706 17.9678C10.7216 17.7137 10.0811 17.4629 9.44083 17.2112C9.16071 17.1009 8.88073 16.9905 8.60083 16.8801C7.63124 16.4979 6.66261 16.116 5.69223 15.7385C5.47843 15.6552 5.31532 15.5822 5.31532 15.2962C5.32227 13.7571 5.32222 12.218 5.32217 10.6791C5.32214 10.0075 5.32212 9.33598 5.32268 8.66444C5.33043 8.57612 5.34385 8.48838 5.36286 8.40178C5.48774 8.42777 5.61103 8.46083 5.73216 8.5008L6.26911 8.71235C8.07725 9.42466 9.88576 10.1371 11.6873 10.8665C11.7702 10.9049 11.8431 10.962 11.9002 11.0333C11.9574 11.1045 11.9972 11.1881 12.0167 11.2773C12.0293 13.209 12.0222 15.1408 12.0151 17.0726C12.014 17.3944 12.0128 17.7164 12.0117 18.0383ZM12.6649 18.168C12.7362 18.1628 12.807 18.1519 12.8766 18.1352C13.1658 18.0154 13.4551 17.8956 13.7443 17.7758C15.5513 17.0275 17.3584 16.2791 19.1577 15.5134C19.2336 15.4615 19.2966 15.3928 19.3417 15.3127C19.3869 15.2326 19.4131 15.1432 19.4183 15.0514C19.4342 13.192 19.4316 11.332 19.429 9.47247L19.4282 8.88874C19.4282 8.79566 19.4157 8.70245 19.4017 8.59846C19.3955 8.55193 19.3889 8.50322 19.3831 8.45143C19.325 8.47017 19.2738 8.48606 19.2273 8.5005C19.1383 8.52814 19.0666 8.5504 18.9967 8.57697C18.4586 8.78178 17.9207 8.98735 17.3828 9.19292C15.95 9.74055 14.5171 10.2882 13.0791 10.8214C12.9415 10.8548 12.8217 10.9391 12.7437 11.0573C12.6657 11.1755 12.6354 11.3189 12.6589 11.4585C12.6705 12.3722 12.6686 13.2859 12.6666 14.1996C12.6659 14.5446 12.6652 14.8897 12.6652 15.2347V18.167L12.6649 18.168ZM6.03027 7.82211C6.03675 7.85975 6.04331 7.8974 6.04997 7.93505C6.08648 7.95111 6.12259 7.96766 6.1586 7.98416C6.22619 8.01513 6.29347 8.04596 6.36253 8.0732C6.74533 8.22401 7.12804 8.37507 7.51075 8.52614C9.00842 9.1173 10.5061 9.70846 12.0096 10.284C12.2328 10.3586 12.4741 10.3592 12.6977 10.2858C13.3531 10.0622 14 9.81416 14.6469 9.56607C14.8224 9.49878 14.9979 9.43148 15.1735 9.36467C15.2795 9.31249 15.3817 9.25307 15.4795 9.18686C15.4052 9.15616 15.3397 9.12886 15.28 9.10397C15.1641 9.05563 15.0697 9.01627 14.9747 8.97883C14.5075 8.79403 14.0386 8.61299 13.5698 8.43196C12.4627 8.00449 11.3557 7.57704 10.2706 7.10007C9.43321 6.73236 8.68938 6.64095 7.85886 7.08851C7.26456 7.3694 6.65393 7.61437 6.03027 7.82211ZM18.6017 7.84864C18.6661 7.88736 18.7276 7.93084 18.7856 7.9787C18.5688 8.0615 18.3552 8.14332 18.1439 8.22422C17.3612 8.52395 16.6113 8.8111 15.858 9.08915C15.7461 9.111 15.6302 9.09569 15.5278 9.04555C13.5411 8.26529 11.5554 7.48276 9.57058 6.69795C9.47478 6.64959 9.38214 6.59519 9.29322 6.5351C9.54835 6.43475 9.79953 6.33556 10.0478 6.23752L10.0482 6.23739C10.7979 5.94132 11.5215 5.65563 12.2481 5.37943C12.3605 5.35892 12.4766 5.37609 12.5782 5.42828C14.5867 6.23305 16.5945 7.03984 18.6017 7.84864Z" fill="currentColor"/>
<path d="M23.7213 12.3581C23.6228 16.6394 20.5064 21.5374 15.0658 22.9465C13.5408 23.3685 11.9447 23.4684 10.379 23.2398C8.81327 23.0112 7.31233 22.459 5.9717 21.6185C3.15579 19.9068 1.4073 17.3864 0.62748 14.167L0 14.4126L0.73333 12.4874L1.99092 14.1946L1.30802 14.0788C1.66148 15.7762 2.43494 17.3579 3.55765 18.6792C5.28398 20.8026 7.75171 22.1918 10.4626 22.5664C11.9751 22.7887 13.5172 22.696 14.9922 22.2944C16.4673 21.8927 17.8434 21.1907 19.0345 20.2323C20.2255 19.274 21.2058 18.0799 21.9137 16.7249C22.6217 15.37 23.0422 13.8834 23.1487 12.3584L23.7213 12.3581Z" fill="currentColor"/>
</svg>
