<svg width="48" height="48" viewBox="0 0 48 48" fill="none" xmlns="http://www.w3.org/2000/svg">
<path d="M1.0191 20.6047L2.15849 20.7623C2.52175 17.8217 3.47097 14.9838 4.95002 12.4164C6.42907 9.849 8.40792 7.60426 10.7695 5.81491C13.1312 4.02555 15.8276 2.72792 18.6995 1.99874C21.5713 1.26957 24.5602 1.12366 27.4894 1.56964C32.9994 2.35528 37.9924 5.24073 41.4242 9.62261C43.2458 11.8677 44.5933 14.4589 45.385 17.2396H44.1206L46.6909 20.3914L46.8288 19.9729C47.2228 18.7764 47.6008 17.6284 48 16.4154L46.7288 17.0342C45.5603 13.0037 43.3413 9.35643 40.299 6.46604C37.2798 3.56279 33.5256 1.53855 29.4409 0.61148C25.362 -0.341458 21.1017 -0.178145 17.1077 1.08426C7.22088 4.16309 1.44565 13.2373 1.0191 20.6047Z" fill="currentColor"/>
<path fill-rule="evenodd" clip-rule="evenodd" d="M9.40406 23.6583C9.40406 22.9845 9.40563 22.3106 9.40721 21.6368C9.41139 19.8512 9.41557 18.0656 9.3904 16.2804C9.34992 15.997 9.41425 15.7086 9.57133 15.4693C9.7284 15.23 9.96742 15.0563 10.2435 14.9807C12.3186 14.1763 14.3904 13.3632 16.4622 12.5501C18.9905 11.5578 21.519 10.5654 24.0533 9.58899C24.4798 9.44391 24.9431 9.44854 25.3666 9.60212C28.1216 10.6853 30.8701 11.7854 33.6186 12.8855C35.4582 13.6218 37.298 14.3582 39.1396 15.0895C39.4446 15.1665 39.7117 15.3508 39.8918 15.6087C40.0719 15.8666 40.1531 16.1808 40.1204 16.4936C40.0831 21.2965 40.091 26.1005 40.1157 30.9039C40.1498 31.153 40.091 31.4059 39.9507 31.6145C39.8103 31.8231 39.5981 31.9727 39.3545 32.0349C37.2146 32.9033 35.079 33.7837 32.9435 34.6641L32.9425 34.6645C30.4552 35.6899 27.9681 36.7152 25.4748 37.7213C24.9758 37.9029 24.4295 37.9072 23.9278 37.7334C21.4338 36.7758 18.9479 35.7976 16.4618 34.8195C14.4298 34.0199 12.3977 33.2204 10.3612 32.432C10.044 32.3496 9.76863 32.1524 9.58843 31.8786C9.40824 31.6049 9.33599 31.274 9.38567 30.9501C9.42362 29.1949 9.41661 27.4389 9.40959 25.6827C9.4069 25.0079 9.4042 24.3331 9.40406 23.6583ZM24.0234 36.0766C23.9928 36.1848 23.9501 36.2891 23.8959 36.3877L22.7412 35.9355C21.4433 35.4274 20.1621 34.9258 18.8817 34.4224C18.3214 34.2018 17.7615 33.981 17.2017 33.7603C15.2625 32.9957 13.3252 32.2319 11.3845 31.477C10.9569 31.3105 10.6306 31.1644 10.6306 30.5924C10.6445 27.5141 10.6444 24.4361 10.6443 21.3582C10.6443 20.0151 10.6442 18.672 10.6454 17.3289C10.6609 17.1522 10.6877 16.9768 10.7257 16.8036C10.9755 16.8555 11.2221 16.9217 11.4643 17.0016L12.5382 17.4247C16.1545 18.8493 19.7715 20.2742 23.3746 21.7331C23.5404 21.8098 23.6862 21.924 23.8004 22.0665C23.9147 22.209 23.9945 22.3761 24.0334 22.5546C24.0586 26.418 24.0444 30.2817 24.0303 34.1451C24.0279 34.7888 24.0255 35.4329 24.0234 36.0766ZM25.3298 36.3361C25.4725 36.3257 25.6141 36.3037 25.7532 36.2704C26.3316 36.0307 26.9101 35.7912 27.4886 35.5516C31.1026 34.055 34.7168 32.5583 38.3154 31.0268C38.4672 30.9229 38.5931 30.7856 38.6835 30.6254C38.7738 30.4652 38.8262 30.2864 38.8365 30.1028C38.8684 26.384 38.8632 22.664 38.8581 18.9449L38.8565 17.7775C38.8565 17.5913 38.8314 17.4049 38.8034 17.1969C38.7909 17.1039 38.7778 17.0064 38.7661 16.9029C38.6499 16.9403 38.5475 16.9721 38.4546 17.001C38.2766 17.0563 38.1332 17.1008 37.9934 17.1539C36.9171 17.5636 35.8414 17.9747 34.7656 18.3858C31.8999 19.4811 29.0342 20.5763 26.1582 21.6427C25.883 21.7096 25.6433 21.8782 25.4874 22.1146C25.3314 22.3511 25.2708 22.6378 25.3177 22.9171C25.341 24.7444 25.3371 26.5717 25.3333 28.3992C25.3318 29.0893 25.3303 29.7794 25.3303 30.4695V36.334L25.3298 36.3361ZM12.0605 15.6442C12.0735 15.7195 12.0866 15.7948 12.0999 15.8701C12.173 15.9022 12.2452 15.9353 12.3172 15.9683C12.4524 16.0303 12.5869 16.0919 12.7251 16.1464C13.4907 16.448 14.2561 16.7501 15.0215 17.0523C18.0168 18.2346 21.0122 19.4169 24.0192 20.5679C24.4656 20.7171 24.9482 20.7184 25.3955 20.5716C26.7062 20.1245 28 19.6283 29.2938 19.1321C29.6448 18.9976 29.9957 18.863 30.347 18.7293C30.5589 18.625 30.7634 18.5061 30.959 18.3737C30.8104 18.3123 30.6794 18.2577 30.56 18.2079C30.3281 18.1113 30.1393 18.0325 29.9494 17.9577C29.015 17.5881 28.0772 17.226 27.1395 16.8639C24.9254 16.009 22.7113 15.1541 20.5411 14.2001C18.8664 13.4647 17.3788 13.2819 15.7177 14.177C14.5291 14.7388 13.3079 15.2287 12.0605 15.6442ZM37.2033 15.6973C37.3322 15.7747 37.4552 15.8617 37.5712 15.9574C37.1376 16.123 36.7103 16.2866 36.2878 16.4484C34.7224 17.0479 33.2226 17.6222 31.716 18.1783C31.4923 18.222 31.2604 18.1914 31.0557 18.0911C27.0822 16.5306 23.1107 14.9655 19.1412 13.3959C18.9496 13.2992 18.7643 13.1904 18.5864 13.0702C19.0967 12.8695 19.5991 12.6711 20.0957 12.475L20.0963 12.4748C21.5959 11.8826 23.0429 11.3113 24.4961 10.7589C24.721 10.7178 24.9531 10.7522 25.1565 10.8566C29.1733 12.4661 33.1889 14.0797 37.2033 15.6973Z" fill="currentColor"/>
<path d="M47.4426 24.7163C47.2457 33.2788 41.0129 43.0747 30.1317 45.893C27.0817 46.7371 23.8894 46.9368 20.758 46.4796C17.6265 46.0223 14.6247 44.918 11.9434 43.2371C6.31157 39.8136 2.8146 34.7728 1.25496 28.3341L0 28.8252L1.46666 24.9747L3.98183 28.3892L2.61603 28.1576C3.32296 31.5524 4.86988 34.7158 7.11529 37.3583C10.568 41.6051 15.5034 44.3836 20.9251 45.1329C23.9501 45.5773 27.0344 45.3921 29.9845 44.5888C32.9345 43.7855 35.6869 42.3815 38.069 40.4647C40.4511 38.5479 42.4115 36.1598 43.8275 33.4499C45.2434 30.74 46.0843 27.7669 46.2975 24.7168L47.4426 24.7163Z" fill="currentColor"/>
</svg>
