<svg width="53" height="48" viewBox="0 0 53 48" fill="none" xmlns="http://www.w3.org/2000/svg">
<mask id="mask0_150_1206" style="mask-type:luminance" maskUnits="userSpaceOnUse" x="2" y="2" width="48" height="45">
<path d="M50 2H2V46.085H50V2Z" fill="white"/>
</mask>
<g mask="url(#mask0_150_1206)">
<path d="M44.5534 46.1997C43.2729 46.1983 42.0385 45.7214 41.0898 44.8614C40.1411 44.0014 39.5455 42.8197 39.4188 41.5455C39.292 40.2713 39.643 38.9954 40.4037 37.9654C41.1644 36.9353 42.2806 36.2245 43.5357 35.9709C44.7909 35.7172 46.0955 35.9388 47.1965 36.5926C48.2975 37.2464 49.1164 38.2858 49.4944 39.5092C49.8724 40.7327 49.7825 42.0529 49.2422 43.2138C48.7019 44.3747 47.7496 45.2936 46.5702 45.7921C45.9322 46.0623 45.2462 46.2009 44.5534 46.1997ZM44.5534 36.4505C43.4965 36.4505 42.4724 36.817 41.6555 37.4875C40.8386 38.158 40.2794 39.091 40.0733 40.1276C39.8672 41.1641 40.0269 42.24 40.5251 43.1721C41.0234 44.1041 41.8294 44.8345 42.8058 45.2389C43.7822 45.6433 44.8686 45.6965 45.8799 45.3897C46.8912 45.0828 47.7649 44.4348 48.352 43.556C48.939 42.6773 49.2033 41.6221 49.0996 40.5704C48.9959 39.5186 48.5308 38.5354 47.7834 37.7881C47.3602 37.3626 46.8569 37.0252 46.3024 36.7955C45.748 36.5658 45.1535 36.4483 44.5534 36.4498V36.4505ZM20.1455 46.1997C18.8651 46.1982 17.6309 45.7212 16.6823 44.8613C15.7336 44.0013 15.1382 42.8196 15.0115 41.5455C14.8848 40.2714 15.2359 38.9956 15.9966 37.9657C16.7573 36.9357 17.8734 36.225 19.1284 35.9714C20.3835 35.7178 21.688 35.9394 22.7889 36.5932C23.8898 37.247 24.7086 38.2863 25.0866 39.5097C25.4646 40.733 25.3747 42.0531 24.8344 43.214C24.2941 44.3748 23.3419 45.2936 22.1626 45.7921C21.5245 46.0623 20.8384 46.201 20.1455 46.1997ZM20.1455 36.4505C19.0892 36.4508 18.0656 36.8173 17.2492 37.4876C16.4328 38.1579 15.8741 39.0906 15.6682 40.1267C15.4623 41.1627 15.622 42.2382 16.1201 43.1697C16.6182 44.1012 17.4238 44.8313 18.3998 45.2354C19.3758 45.6395 20.4617 45.6928 21.4725 45.3861C22.4833 45.0794 23.3566 44.4318 23.9434 43.5534C24.5303 42.6751 24.7945 41.6205 24.691 40.5692C24.5875 39.518 24.1227 38.5351 23.3758 37.7881C22.9526 37.3626 22.4491 37.0252 21.8947 36.7955C21.3402 36.5658 20.7457 36.4483 20.1455 36.4498V36.4505ZM15.9253 35.3126H15.9146C14.7444 35.3056 13.5984 34.9788 12.6006 34.3675C11.8414 33.8705 11.224 33.1852 10.8084 32.3786C10.2603 31.2571 9.96443 30.0292 9.94177 28.7811V28.7649C9.94721 27.8857 10.089 27.0126 10.3622 26.1769C10.573 25.5402 10.8699 24.9353 11.2448 24.3792C11.5564 23.9118 11.9303 23.4891 12.356 23.1227L6.53338 5.37902L3.7851 5.288L1.80264 1.88635H10.6957L12.182 6.02349L50.114 4.99717V19.9914L49.8688 20.0404C38.8181 22.2441 17.6604 26.5066 16.685 26.8679C16.0255 27.1131 15.3513 27.4784 15.3489 28.345C15.3412 28.5796 15.3849 28.813 15.4771 29.0288C15.5692 29.2447 15.7074 29.4377 15.8821 29.5945C16.0278 29.7162 16.1975 29.806 16.3801 29.858H49.8817V34.7H49.893L49.8817 34.9945C49.8788 35.0749 49.8445 35.1509 49.7861 35.2061C49.7276 35.2614 49.6498 35.2915 49.5694 35.2899H49.5005C49.4064 35.2899 49.2418 35.2918 49.0117 35.2924C48.2967 35.2951 47.0366 35.2976 45.2668 35.3C41.4288 35.3062 33.2228 35.312 15.925 35.312L15.9253 35.3126ZM10.5544 28.764C10.5751 29.9181 10.847 31.0539 11.3512 32.0924C12.2261 33.7472 13.7669 34.6231 15.9314 34.6991C42.5994 34.6991 48.1257 34.6856 49.2688 34.6798V30.4712H16.3157L16.2881 30.466C16.0061 30.4017 15.7427 30.273 15.5186 30.09C15.2663 29.8789 15.0649 29.6136 14.9292 29.3139C14.7935 29.0142 14.7272 28.6877 14.735 28.3588V28.3499C14.7238 27.9412 14.8499 27.5404 15.0933 27.2118C15.4545 26.7785 15.9335 26.4592 16.4723 26.2924C17.692 25.841 46.3054 20.1256 49.5023 19.4891V5.62694L11.7557 6.64835L10.2648 2.49926H2.86911L4.14396 4.68612L6.98111 4.78051L13.0762 23.3517L12.8883 23.4819C12.4363 23.8369 12.0467 24.2647 11.7355 24.7479C11.3966 25.2567 11.1286 25.8091 10.9387 26.3902C10.6901 27.1572 10.5605 27.9577 10.5544 28.764Z" fill="currentColor"/>
</g>
</svg>
