<svg width="24" height="24" viewBox="0 0 24 24" fill="none" xmlns="http://www.w3.org/2000/svg">
<path d="M12.2538 18.0304C11.2034 18.0304 10.1732 17.7429 9.27488 17.1991C8.37659 16.6553 7.64459 15.876 7.15841 14.9459C6.67222 14.0158 6.45042 12.9703 6.51709 11.9231C6.58376 10.876 6.93636 9.86702 7.53659 9.00592C7.58292 8.93962 7.65373 8.89442 7.73343 8.88027C7.81312 8.86612 7.89518 8.88417 7.96155 8.93047C8.02792 8.97676 8.07317 9.04749 8.08733 9.12711C8.1015 9.20673 8.08342 9.28871 8.03709 9.35501C7.31584 10.3913 7.00265 11.657 7.1575 12.9097C7.31235 14.1624 7.92435 15.3139 8.87629 16.1438C9.82822 16.9737 11.0532 17.4236 12.3165 17.4073C13.5798 17.3909 14.7927 16.9096 15.7228 16.0554C16.653 15.2012 17.235 14.0342 17.3574 12.778C17.4797 11.5217 17.1339 10.2645 16.3861 9.24718C15.6383 8.22984 14.541 7.52388 13.3046 7.26452C12.0681 7.00516 10.7793 7.21063 9.68507 7.84158C9.6152 7.87914 9.53343 7.88805 9.4571 7.8664C9.38077 7.84475 9.31588 7.79425 9.27619 7.72562C9.2365 7.65698 9.22513 7.5756 9.24449 7.49873C9.26385 7.42185 9.31241 7.35554 9.37989 7.31383C10.1436 6.8727 10.9986 6.61304 11.8788 6.55497C12.759 6.49689 13.6408 6.64196 14.4559 6.97893C15.271 7.3159 15.9976 7.83575 16.5793 8.49822C17.1611 9.16069 17.5824 9.94802 17.8108 10.7993C18.0391 11.6505 18.0683 12.5428 17.8961 13.4071C17.7238 14.2714 17.3548 15.0846 16.8176 15.7836C16.2804 16.4826 15.5894 17.0487 14.798 17.4381C14.0067 17.8275 13.1362 18.0298 12.2541 18.0292L12.2538 18.0304Z" fill="currentColor"/>
<path d="M4.24272 11.0397H0.305864C0.262482 11.0397 0.219596 11.0305 0.180067 11.0126C0.140538 10.9948 0.105271 10.9687 0.0766228 10.9362C0.0479742 10.9036 0.0265994 10.8654 0.0139248 10.8239C0.00125013 10.7825 -0.00243166 10.7388 0.00312118 10.6958C0.361742 7.92616 1.65076 5.36014 3.65925 3.41766C5.66773 1.47518 8.27673 0.271286 11.0593 0.0029935C11.1018 -0.00128084 11.1448 0.0034329 11.1855 0.0168289C11.2261 0.0302248 11.2634 0.0520037 11.2951 0.0807524C11.3267 0.109501 11.352 0.144577 11.3692 0.183705C11.3864 0.222833 11.3952 0.265138 11.395 0.307875V4.225C11.395 4.29836 11.3685 4.36927 11.3204 4.42471C11.2723 4.48015 11.2058 4.51641 11.1331 4.52683C9.5195 4.75797 8.01799 5.48549 6.83725 6.6083C5.6565 7.73111 4.85516 9.19346 4.54454 10.7921C4.53113 10.8622 4.4936 10.9252 4.43846 10.9705C4.38332 11.0157 4.31406 11.0402 4.24272 11.0397ZM0.658652 10.4299H3.9946C4.36213 8.80405 5.20261 7.32299 6.41036 6.17295C7.61811 5.02292 9.13922 4.25525 10.7825 3.96646V0.646599C8.26283 0.964015 5.91415 2.0891 4.0888 3.85306C2.26346 5.61701 1.05988 7.92472 0.658652 10.4299Z" fill="currentColor"/>
<path d="M0.306473 12.9602H4.24333C4.31426 12.9602 4.38297 12.9849 4.43767 13.03C4.49236 13.0751 4.52961 13.1379 4.54301 13.2075C4.69753 14.0084 4.97724 14.78 5.37189 15.4941C5.75886 16.1948 6.2508 16.8322 6.83066 17.3843C7.41105 17.9377 8.07283 18.3991 8.79299 18.7523C9.52978 19.1139 10.319 19.3573 11.1316 19.4734C11.2043 19.4838 11.2708 19.5201 11.3189 19.5755C11.367 19.631 11.3935 19.7019 11.3934 19.7752V23.6936C11.3937 23.7363 11.3849 23.7786 11.3677 23.8177C11.3505 23.8569 11.3252 23.8919 11.2936 23.9207C11.2619 23.9494 11.2245 23.9712 11.1839 23.9846C11.1433 23.998 11.1003 24.0027 11.0577 23.9984C9.65612 23.8648 8.28802 23.491 7.01347 22.8933C5.77251 22.3118 4.63716 21.5279 3.65402 20.5737C2.67036 19.6214 1.852 18.5124 1.2324 17.292C0.597097 16.0428 0.181098 14.6939 0.00251083 13.3041C-0.00304201 13.2611 0.000639777 13.2175 0.0133144 13.176C0.025989 13.1346 0.0473638 13.0963 0.0760124 13.0637C0.104661 13.0312 0.139928 13.0051 0.179457 12.9873C0.218986 12.9694 0.261867 12.9602 0.305249 12.9602H0.306473ZM3.9946 13.57H0.658652C0.849346 14.7697 1.22696 15.9322 1.77776 17.0151C2.36685 18.1749 3.14478 19.2288 4.07975 20.1338C5.01439 21.0409 6.09373 21.7861 7.27348 22.339C8.38267 22.8592 9.56712 23.2012 10.7831 23.3524V20.0344C9.99929 19.897 9.23894 19.6493 8.52473 19.2987C7.74879 18.918 7.03576 18.4209 6.41043 17.8246C5.78558 17.2297 5.25546 16.5429 4.83843 15.788C4.4533 15.0924 4.16918 14.3455 3.9946 13.57Z" fill="currentColor"/>
<path d="M23.6942 11.0398H19.7573C19.6864 11.0398 19.6177 11.0151 19.563 10.97C19.5083 10.9248 19.471 10.8621 19.4576 10.7925C19.1464 9.19412 18.3448 7.73215 17.1642 6.6095C15.9836 5.48684 14.4824 4.75918 12.869 4.5275C12.7963 4.51708 12.7298 4.48082 12.6817 4.42538C12.6336 4.36994 12.6072 4.29903 12.6072 4.22566V0.30641C12.607 0.263673 12.6157 0.221368 12.633 0.18224C12.6502 0.143112 12.6754 0.108036 12.7071 0.0792876C12.7387 0.0505389 12.7761 0.02876 12.8167 0.015364C12.8573 0.00196805 12.9003 -0.00274568 12.9429 0.00152865C15.7249 0.270895 18.3331 1.47518 20.3411 3.41749C22.3492 5.3598 23.6382 7.92523 23.9975 10.6943C24.0031 10.7373 23.9994 10.781 23.9867 10.8224C23.974 10.8639 23.9527 10.9022 23.924 10.9347C23.8954 10.9672 23.8601 10.9933 23.8206 11.0112C23.781 11.029 23.7381 11.0383 23.6948 11.0382L23.6942 11.0398ZM20.006 10.43H23.342C22.9415 7.92446 21.7382 5.61633 19.9127 3.85224C18.0872 2.08815 15.7381 0.963313 13.2182 0.646658V3.9656C14.8616 4.2539 16.383 5.02141 17.5908 6.17152C18.7987 7.32163 19.639 8.80297 20.006 10.4291V10.43Z" fill="currentColor"/>
<path d="M19.7579 12.9602H23.6948C23.7382 12.9602 23.781 12.9694 23.8206 12.9873C23.8601 13.0051 23.8954 13.0312 23.924 13.0637C23.9527 13.0963 23.974 13.1346 23.9867 13.176C23.9994 13.2175 24.0031 13.2611 23.9975 13.3041C23.8189 14.6939 23.4029 16.0428 22.7676 17.292C22.148 18.5118 21.3297 19.6203 20.3463 20.5722C19.3632 21.5263 18.2278 22.3102 16.9869 22.8917C15.7123 23.4894 14.3442 23.8633 12.9426 23.9969C12.9 24.0012 12.857 23.9965 12.8164 23.9831C12.7758 23.9697 12.7384 23.9479 12.7068 23.9192C12.6751 23.8904 12.6499 23.8553 12.6327 23.8162C12.6154 23.7771 12.6067 23.7348 12.6069 23.692V19.7752C12.6069 19.7019 12.6333 19.631 12.6814 19.5755C12.7295 19.5201 12.796 19.4838 12.8687 19.4734C13.6813 19.3573 14.4705 19.1139 15.2073 18.7523C15.9275 18.3991 16.5893 17.9377 17.1697 17.3843C17.7495 16.8322 18.2415 16.1948 18.6284 15.4941C19.0231 14.78 19.3028 14.0084 19.4573 13.2075C19.4707 13.1377 19.5081 13.0749 19.563 13.0297C19.6179 12.9846 19.6868 12.96 19.7579 12.9602ZM23.342 13.57H20.006C19.832 14.3454 19.5485 15.0923 19.164 15.788C18.7471 16.5427 18.2172 17.2293 17.5926 17.824C16.9673 18.4203 16.2543 18.9174 15.4783 19.2981C14.7641 19.6487 14.0038 19.8964 13.22 20.0338V23.3533C14.436 23.2022 15.6204 22.8601 16.7296 22.3399C17.9093 21.7871 18.9887 21.0418 19.9233 20.1347C20.8583 19.2297 21.6362 18.1758 22.2253 17.016C22.7754 15.9326 23.1522 14.7699 23.342 13.57Z" fill="currentColor"/>
<mask id="mask0_149_1107" style="mask-type:luminance" maskUnits="userSpaceOnUse" x="9" y="8" width="6" height="8">
<path d="M14.9751 8.23328H9.55902V15.8123H14.9751V8.23328Z" fill="white"/>
</mask>
<g mask="url(#mask0_149_1107)">
<path d="M14.4325 14.7254V14.8455C14.4325 15.1096 14.4325 15.3733 14.4325 15.6382C14.4325 15.7654 14.3873 15.8132 14.2634 15.8132C12.753 15.8132 11.2426 15.8132 9.73239 15.8132C9.60574 15.8132 9.56088 15.7675 9.56088 15.641C9.56088 14.5279 9.56088 13.4149 9.56088 12.3019C9.56088 12.0885 9.55875 11.8751 9.55905 11.6617C9.55905 11.5318 9.59842 11.4918 9.72843 11.4894C9.8505 11.4873 9.97074 11.4894 10.1041 11.4894V11.3552C10.1041 10.9491 10.1026 10.5433 10.1041 10.1372C10.1135 9.64882 10.3118 9.18299 10.6574 8.83742C11.003 8.49184 11.4691 8.29336 11.958 8.28358C12.4469 8.2738 12.9206 8.45349 13.2798 8.78497C13.639 9.11645 13.8558 9.57398 13.8847 10.0616C13.8933 10.4912 13.8878 10.9208 13.8887 11.3504C13.8887 11.3903 13.8887 11.4302 13.8887 11.4894C14.0107 11.4894 14.1261 11.4894 14.2402 11.4894C14.398 11.4894 14.4322 11.5235 14.4328 11.6784C14.4328 11.8809 14.4328 12.0833 14.4328 12.297C14.5512 12.297 14.6623 12.297 14.7731 12.297C14.9385 12.297 14.9709 12.3235 14.9721 12.4909C14.9757 12.9815 14.9739 13.472 14.9739 13.9626C14.9739 14.1623 14.9739 14.362 14.9739 14.5614C14.9739 14.6833 14.9309 14.7251 14.8082 14.7263C14.6855 14.7275 14.5662 14.7263 14.4322 14.7263M14.163 14.7263H14.0483C13.8688 14.7263 13.6894 14.7263 13.5099 14.7263C13.4031 14.7263 13.3574 14.6842 13.3574 14.5815C13.3561 13.8701 13.3561 13.1596 13.3574 12.4501C13.3574 12.3473 13.4028 12.3028 13.5075 12.3007C13.6699 12.2976 13.8325 12.3007 13.9958 12.2992H14.164V11.7565H9.82914V15.5407H14.1627L14.163 14.7263ZM13.0766 11.4827C13.0797 11.4645 13.0818 11.4462 13.083 11.4278C13.083 10.9781 13.0928 10.5278 13.0775 10.0787C13.0676 9.79744 12.9484 9.53112 12.745 9.33632C12.5417 9.14152 12.2704 9.03361 11.9887 9.03551C11.707 9.03742 11.4371 9.14899 11.2364 9.34652C11.0358 9.54405 10.9201 9.81197 10.9141 10.0933C10.9034 10.5327 10.9104 10.9726 10.9104 11.4123C10.9121 11.4359 10.9155 11.4595 10.9205 11.4827H13.0766ZM14.702 13.1086H13.6274V13.3763H14.702V13.1086ZM13.6244 13.915H14.7032V13.6513H13.6244V13.915ZM14.7002 12.5702H13.6271V12.833H14.7002V12.5702ZM13.6281 14.4568H14.7002V14.191H13.6281V14.4568Z" fill="currentColor"/>
</g>
</svg>
