<svg width="24" height="24" viewBox="0 0 24 24" fill="none" xmlns="http://www.w3.org/2000/svg">
<path fill-rule="evenodd" clip-rule="evenodd" d="M13.3089 7.26363C12.0705 7.00418 10.7798 7.21035 9.68416 7.84267C9.5382 7.9269 9.35153 7.87697 9.26722 7.73115C9.18291 7.58532 9.23289 7.39882 9.37884 7.31459C10.6047 6.60716 12.0487 6.37649 13.4342 6.66677C14.8197 6.95705 16.0493 7.74787 16.8874 8.88772C17.7255 10.0276 18.1131 11.4363 17.9761 12.844C17.8391 14.2517 17.187 15.5594 16.1448 16.5166C15.1026 17.4737 13.7435 18.013 12.328 18.0311C10.9124 18.0493 9.53998 17.5449 8.47355 16.6148C7.40712 15.6846 6.7217 14.394 6.54862 12.9903C6.37553 11.5866 6.72694 10.1684 7.53552 9.00745C7.6318 8.86922 7.82201 8.83514 7.96037 8.93133C8.09873 9.02752 8.13284 9.21755 8.03656 9.35578C7.31383 10.3935 6.99973 11.6611 7.15444 12.9157C7.30915 14.1704 7.92179 15.324 8.87499 16.1554C9.82819 16.9868 11.0549 17.4375 12.3201 17.4213C13.5854 17.4051 14.8001 16.9231 15.7317 16.0676C16.6632 15.2121 17.2461 14.0432 17.3686 12.785C17.4911 11.5267 17.1445 10.2676 16.3954 9.24877C15.6463 8.22995 14.5473 7.52309 13.3089 7.26363Z" fill="currentColor"/>
<path fill-rule="evenodd" clip-rule="evenodd" d="M11.2922 0.0790833C11.356 0.136881 11.3923 0.218901 11.3923 0.304922V4.22412C11.3923 4.3757 11.2809 4.50427 11.1307 4.52592C9.51735 4.75845 8.01636 5.48666 6.83579 6.60962C5.65522 7.73257 4.85355 9.19464 4.5419 10.7932C4.51397 10.9364 4.38839 11.0398 4.24232 11.0398H0.305198C0.217382 11.0398 0.13382 11.002 0.0758732 10.9361C0.017926 10.8702 -0.0087913 10.7825 0.00255027 10.6955C0.363487 7.92674 1.65307 5.36196 3.66084 3.41973C5.66861 1.47751 8.27601 0.272524 11.0575 0.00143799C11.1432 -0.00691377 11.2284 0.0212853 11.2922 0.0790833ZM10.7819 0.645886C8.26385 0.964328 5.91326 2.08972 4.08544 3.85786C2.26034 5.62338 1.05953 7.93005 0.657931 10.4299H3.99466C4.36236 8.80365 5.20355 7.32015 6.41489 6.16793C7.62315 5.01864 9.14284 4.25301 10.7819 3.96421V0.645886Z" fill="currentColor"/>
<path fill-rule="evenodd" clip-rule="evenodd" d="M0.0758732 13.0643C0.13382 12.9983 0.217382 12.9606 0.305198 12.9606H4.24232C4.38839 12.9606 4.51398 13.064 4.5419 13.2072C4.8535 14.8058 5.65514 16.2679 6.83572 17.3909C8.0163 18.5139 9.51731 19.2422 11.1307 19.4747C11.2809 19.4964 11.3923 19.6249 11.3923 19.7765V23.6954C11.3923 23.7814 11.356 23.8635 11.2922 23.9213C11.2284 23.9791 11.1432 24.0073 11.0575 23.9989C8.27601 23.7278 5.66861 22.5228 3.66084 20.5806C1.65307 18.6384 0.363487 16.0736 0.00255027 13.3049C-0.0087913 13.2179 0.017926 13.1302 0.0758732 13.0643ZM0.657931 13.5704C1.05953 16.0703 2.26034 18.377 4.08544 20.1425C5.91326 21.9106 8.26385 23.036 10.7819 23.3545V20.0364C9.1428 19.7476 7.62308 18.9819 6.41481 17.8326C5.20347 16.6803 4.3623 15.1967 3.99465 13.5704H0.657931Z" fill="currentColor"/>
<path fill-rule="evenodd" clip-rule="evenodd" d="M12.7075 0.0790833C12.7713 0.0212853 12.8565 -0.00691377 12.9422 0.00143799C15.7237 0.272524 18.3311 1.47751 20.3388 3.41973C22.3466 5.36196 23.6362 7.92674 23.9971 10.6955C24.0085 10.7825 23.9817 10.8702 23.9238 10.9361C23.8659 11.002 23.7823 11.0398 23.6945 11.0398H19.7573C19.6113 11.0398 19.4857 10.9364 19.4578 10.7932C19.1461 9.19464 18.3445 7.73257 17.1639 6.60962C15.9833 5.48666 14.4823 4.75845 12.869 4.52592C12.7188 4.50427 12.6073 4.3757 12.6073 4.22412V0.304922C12.6073 0.218901 12.6437 0.136881 12.7075 0.0790833ZM13.2178 0.645887V3.96421C14.8568 4.25301 16.3765 5.01864 17.5848 6.16793C18.7961 7.32015 19.6373 8.80365 20.005 10.4299H23.3417C22.9401 7.93005 21.7393 5.62338 19.9142 3.85786C18.0864 2.08972 15.7358 0.964328 13.2178 0.645887Z" fill="currentColor"/>
<path fill-rule="evenodd" clip-rule="evenodd" d="M19.4578 13.2072C19.4857 13.064 19.6113 12.9606 19.7573 12.9606H23.6945C23.7823 12.9606 23.8659 12.9983 23.9238 13.0643C23.9817 13.1302 24.0085 13.2179 23.9971 13.3049C23.6362 16.0736 22.3466 18.6384 20.3388 20.5806C18.3311 22.5228 15.7237 23.7278 12.9422 23.9989C12.8565 24.0073 12.7713 23.9791 12.7075 23.9213C12.6437 23.8635 12.6073 23.7814 12.6073 23.6954V19.7765C12.6073 19.6249 12.7188 19.4964 12.869 19.4747C14.4824 19.2422 15.9834 18.5139 17.164 17.3909C18.3445 16.2679 19.1462 14.8058 19.4578 13.2072ZM20.005 13.5704C19.6374 15.1967 18.7962 16.6803 17.5849 17.8326C16.3766 18.9819 14.8569 19.7476 13.2178 20.0364V23.3545C15.7358 23.036 18.0864 21.9106 19.9142 20.1425C21.7393 18.377 22.9401 16.0703 23.3417 13.5704H20.005Z" fill="currentColor"/>
<path d="M14.4322 14.726V14.8462C14.4322 15.1102 14.4322 15.374 14.4322 15.639C14.4322 15.7661 14.387 15.814 14.2631 15.814C12.7525 15.814 11.2421 15.814 9.73172 15.814C9.60506 15.814 9.56019 15.7683 9.56019 15.6417C9.56019 14.5285 9.56019 13.4154 9.56019 12.3022C9.56019 12.0887 9.55806 11.8753 9.55836 11.6618C9.55836 11.5319 9.59773 11.492 9.72775 11.4896C9.84983 11.4874 9.97008 11.4896 10.1035 11.4896V11.3554C10.1035 10.9492 10.1019 10.5434 10.1035 10.1372C10.1128 9.64873 10.3111 9.18283 10.6568 8.83721C11.0024 8.49158 11.4686 8.29307 11.9575 8.28329C12.4464 8.27351 12.9202 8.45323 13.2794 8.78475C13.6386 9.11628 13.8554 9.57387 13.8843 10.0616C13.8929 10.4912 13.8874 10.9209 13.8883 11.3505C13.8883 11.3905 13.8883 11.4304 13.8883 11.4896C14.0104 11.4896 14.1257 11.4896 14.2399 11.4896C14.3977 11.4896 14.4319 11.5237 14.4325 11.6786C14.4325 11.8811 14.4325 12.0835 14.4325 12.2973C14.5509 12.2973 14.662 12.2973 14.7728 12.2973C14.9382 12.2973 14.9705 12.3238 14.9718 12.4912C14.9754 12.9819 14.9736 13.4725 14.9736 13.9631C14.9736 14.1628 14.9736 14.3626 14.9736 14.562C14.9736 14.6839 14.9306 14.7257 14.8079 14.7269C14.6852 14.7282 14.5658 14.7269 14.4319 14.7269M14.1627 14.7269H14.0479C13.8685 14.7269 13.689 14.7269 13.5095 14.7269C13.4027 14.7269 13.3569 14.6849 13.3569 14.5821C13.3557 13.8706 13.3557 13.16 13.3569 12.4504C13.3569 12.3476 13.4024 12.3031 13.5071 12.301C13.6695 12.2979 13.8321 12.301 13.9954 12.2994H14.1636V11.7567H9.82847V15.5414H14.1624L14.1627 14.7269ZM13.0761 11.4828C13.0793 11.4647 13.0814 11.4464 13.0826 11.428C13.0826 10.9782 13.0923 10.5278 13.0771 10.0787C13.0672 9.79737 12.9479 9.531 12.7446 9.33618C12.5412 9.14135 12.2699 9.03343 11.9881 9.03533C11.7064 9.03724 11.4365 9.14883 11.2359 9.34638C11.0352 9.54394 10.9195 9.8119 10.9135 10.0933C10.9028 10.5327 10.9098 10.9727 10.9098 11.4124C10.9115 11.4361 10.9149 11.4596 10.9199 11.4828H13.0761ZM14.7017 13.109H13.627V13.3767H14.7017V13.109ZM13.624 13.9155H14.7029V13.6518H13.624V13.9155ZM14.6998 12.5705H13.6267V12.8334H14.6998V12.5705ZM13.6276 14.4574H14.6998V14.1915H13.6276V14.4574Z" fill="currentColor"/>
</svg>
