<svg width="24" height="24" viewBox="0 0 24 24" fill="none" xmlns="http://www.w3.org/2000/svg">
<path d="M8.38883 1.62145e-05H15.6105C16.0079 -0.00151644 16.3982 0.105632 16.7392 0.309876C17.0801 0.514121 17.3587 0.807685 17.5449 1.15883C17.731 1.50997 17.8177 1.90532 17.7954 2.30213C17.7731 2.69895 17.6428 3.08211 17.4184 3.4102L13.4949 9.19205C13.3293 9.43607 13.1065 9.63584 12.846 9.77392C12.5854 9.912 12.295 9.98419 12.0001 9.98419C11.7052 9.98419 11.4148 9.912 11.1542 9.77392C10.8937 9.63584 10.6709 9.43607 10.5053 9.19205L6.58178 3.4102C6.35752 3.08218 6.22718 2.69909 6.20486 2.30236C6.18254 1.90563 6.26908 1.51034 6.45513 1.15922C6.64119 0.808112 6.91967 0.514534 7.26049 0.310225C7.6013 0.105915 7.99147 -0.00135367 8.38883 1.62145e-05ZM12 9.39151C12.1985 9.39288 12.3943 9.34484 12.5696 9.25171C12.745 9.15858 12.8944 9.02329 13.0044 8.85802L16.9276 3.07618C17.0896 2.83692 17.1834 2.55807 17.1989 2.26955C17.2144 1.98103 17.1511 1.69373 17.0157 1.43847C16.8804 1.18321 16.678 0.969629 16.4305 0.820642C16.1829 0.671655 15.8994 0.592885 15.6105 0.592783H8.38883C8.09971 0.592746 7.81605 0.671493 7.56832 0.820561C7.3206 0.969628 7.11817 1.18338 6.98281 1.43885C6.84744 1.69432 6.78424 1.98185 6.80001 2.27054C6.81577 2.55922 6.90991 2.83816 7.0723 3.07736L10.9952 8.85921C11.1054 9.0243 11.255 9.15938 11.4303 9.2523C11.6057 9.34523 11.8015 9.39306 12 9.39151Z" fill="currentColor"/>
<path d="M15.2703 3.65526C15.2257 3.65528 15.1818 3.64527 15.1417 3.62598C15.1015 3.60669 15.0663 3.5786 15.0385 3.54381C14.8575 3.32629 14.6304 3.15185 14.3735 3.03321C14.1166 2.91457 13.8365 2.85471 13.5536 2.85798H10.4466C10.1637 2.85471 9.88368 2.91458 9.62686 3.03322C9.37004 3.15186 9.14292 3.32629 8.96203 3.54381C8.93811 3.57522 8.90815 3.60153 8.87392 3.62121C8.83969 3.64088 8.80187 3.65351 8.76268 3.65836C8.7235 3.66322 8.68374 3.66019 8.64575 3.64947C8.60775 3.63874 8.57228 3.62053 8.54141 3.59591C8.51055 3.57129 8.48492 3.54074 8.46602 3.50608C8.44712 3.47141 8.43534 3.43332 8.43137 3.39404C8.4274 3.35476 8.43132 3.31507 8.4429 3.27733C8.45447 3.23958 8.47347 3.20453 8.49879 3.17422C8.73539 2.88735 9.03302 2.65689 9.36999 2.49963C9.70696 2.34238 10.0748 2.26229 10.4466 2.26522H13.5536C13.9255 2.26225 14.2935 2.34231 14.6305 2.49957C14.9676 2.65682 15.2653 2.88731 15.502 3.17422C15.5368 3.21782 15.5586 3.27037 15.5649 3.32581C15.5712 3.38125 15.5617 3.43734 15.5375 3.48762C15.5133 3.5379 15.4755 3.58034 15.4282 3.61005C15.381 3.63976 15.3263 3.65553 15.2706 3.65555L15.2703 3.65526Z" fill="currentColor"/>
<path d="M5.9594 12.2963C5.91946 12.2964 5.87993 12.2883 5.84317 12.2727C5.80642 12.2571 5.7732 12.2342 5.74552 12.2054C5.71784 12.1766 5.69626 12.1425 5.68208 12.1052C5.66791 12.0678 5.66142 12.028 5.66302 11.9881L6.04061 2.54978C6.04375 2.47118 6.078 2.39704 6.1358 2.34368C6.19361 2.29032 6.27024 2.26211 6.34885 2.26525C6.42745 2.2684 6.50159 2.30264 6.55495 2.36044C6.60831 2.41825 6.63652 2.49488 6.63338 2.57349L6.27149 11.6239L10.8011 10.5785C10.8777 10.5608 10.9582 10.5743 11.0249 10.6159C11.0916 10.6576 11.1389 10.724 11.1566 10.8006C11.1743 10.8772 11.1609 10.9577 11.1192 11.0244C11.0775 11.0911 11.0111 11.1385 10.9345 11.1562L6.02668 12.2886C6.00462 12.2938 5.98205 12.2964 5.9594 12.2963Z" fill="currentColor"/>
<path d="M18.0403 12.2963C18.0178 12.2963 17.9955 12.2937 17.9736 12.2886L13.0658 11.1568C12.9892 11.1391 12.9228 11.0917 12.8811 11.025C12.8394 10.9583 12.826 10.8778 12.8437 10.8012C12.8613 10.7246 12.9087 10.6582 12.9754 10.6165C13.0421 10.5749 13.1226 10.5614 13.1992 10.5791L17.7288 11.6244L17.3666 2.57349C17.3635 2.49488 17.3917 2.41825 17.445 2.36044C17.4984 2.30264 17.5725 2.2684 17.6511 2.26525C17.7298 2.26211 17.8064 2.29032 17.8642 2.34368C17.922 2.39704 17.9562 2.47118 17.9594 2.54978L18.3364 11.9866C18.338 12.0265 18.3315 12.0664 18.3173 12.1037C18.3031 12.141 18.2816 12.1751 18.2539 12.2039C18.2262 12.2327 18.193 12.2556 18.1562 12.2712C18.1195 12.2869 18.0799 12.2949 18.04 12.2949L18.0403 12.2963Z" fill="currentColor"/>
<path d="M7.76525 23.2444H1.05157C0.772824 23.2441 0.50558 23.1332 0.308449 22.9361C0.111318 22.7391 0.000393195 22.4719 9.93154e-07 22.1931V4.87306C-0.0004217 4.47004 0.134092 4.07848 0.382099 3.7608C0.630105 3.44313 0.977325 3.21763 1.3684 3.12025L6.55274 1.82446L6.69649 2.39945L1.51156 3.69553C1.24895 3.7611 1.01584 3.91264 0.849333 4.12603C0.682829 4.33943 0.592513 4.6024 0.592768 4.87306V22.1928C0.592846 22.3145 0.641209 22.4311 0.727234 22.5172C0.813259 22.6032 0.929912 22.6515 1.05157 22.6516H7.76525V23.2444Z" fill="currentColor"/>
<path d="M22.9481 23.2443H14.3461V22.6516H22.9481C23.0697 22.6515 23.1864 22.6031 23.2724 22.5171C23.3584 22.4311 23.4068 22.3144 23.4069 22.1928V4.87301C23.4071 4.60235 23.3168 4.33938 23.1503 4.12598C22.9838 3.91259 22.7507 3.76105 22.4881 3.69548L17.304 2.39969L17.4478 1.82471L22.6318 3.1205C23.0229 3.21792 23.3701 3.44344 23.6181 3.7611C23.8661 4.07877 24.0006 4.4703 24.0002 4.87331V22.1931C23.9998 22.4719 23.8888 22.7392 23.6916 22.9363C23.4943 23.1334 23.2269 23.2442 22.9481 23.2443Z" fill="currentColor"/>
<path d="M13.51 14.1837H12.3776C12.299 14.1837 12.2236 14.1525 12.168 14.0969C12.1124 14.0413 12.0812 13.9659 12.0812 13.8873C12.0812 13.8087 12.1124 13.7333 12.168 13.6778C12.2236 13.6222 12.299 13.5909 12.3776 13.5909H13.51C13.5886 13.5909 13.664 13.6222 13.7196 13.6778C13.7752 13.7333 13.8064 13.8087 13.8064 13.8873C13.8064 13.9659 13.7752 14.0413 13.7196 14.0969C13.664 14.1525 13.5886 14.1837 13.51 14.1837Z" fill="currentColor"/>
<path d="M14.2649 23.9997H9.7347C9.69378 23.9998 9.65328 23.9915 9.61575 23.9752C9.57822 23.9589 9.54447 23.935 9.51663 23.905C9.48879 23.875 9.46745 23.8396 9.45398 23.801C9.4405 23.7623 9.43517 23.7213 9.43832 23.6805L10.1894 13.9177L9.4484 11.3261C9.42797 11.2509 9.438 11.1706 9.4763 11.1027C9.51461 11.0349 9.57811 10.9848 9.65306 10.9634C9.728 10.942 9.80836 10.951 9.87673 10.9884C9.9451 11.0259 9.99598 11.0887 10.0183 11.1634L10.7735 13.8059C10.7832 13.8397 10.7868 13.8749 10.7842 13.9099L10.0548 23.407H13.9451L13.2145 13.9102C13.2119 13.8752 13.2155 13.84 13.2252 13.8062L13.9804 11.1637C14.0028 11.089 14.0536 11.0261 14.122 10.9887C14.1904 10.9513 14.2707 10.9423 14.3457 10.9637C14.4206 10.9851 14.4841 11.0352 14.5224 11.103C14.5607 11.1709 14.5708 11.2512 14.5503 11.3264L13.8094 13.9179L14.5604 23.6808C14.5636 23.7216 14.5582 23.7626 14.5448 23.8013C14.5313 23.8399 14.5099 23.8753 14.4821 23.9053C14.4543 23.9353 14.4205 23.9592 14.383 23.9755C14.3455 23.9918 14.305 24.0001 14.264 24L14.2649 23.9997Z" fill="currentColor"/>
</svg>
