<svg width="24" height="24" viewBox="0 0 24 24" fill="none" xmlns="http://www.w3.org/2000/svg">
<path d="M0.592775 0H15.8567C16.014 0 16.1647 0.0624529 16.2759 0.17362C16.3871 0.284787 16.4495 0.435562 16.4495 0.592775V2.26529C16.4495 2.34314 16.4342 2.42022 16.4044 2.49214C16.3746 2.56406 16.3309 2.6294 16.2759 2.68445C16.2209 2.73949 16.1555 2.78315 16.0836 2.81294C16.0117 2.84273 15.9346 2.85807 15.8567 2.85807H0.592775C0.435562 2.85807 0.284787 2.79561 0.17362 2.68445C0.0624529 2.57328 0 2.4225 0 2.26529V0.592775C0 0.435562 0.0624529 0.284787 0.17362 0.17362C0.284787 0.0624529 0.435562 0 0.592775 0ZM15.8567 2.26529V0.592775H0.592775V2.26529H15.8567Z" fill="currentColor"/>
<path d="M1.05153 21.7347C0.97292 21.7347 0.897533 21.7035 0.841949 21.6479C0.786366 21.5923 0.75514 21.5169 0.75514 21.4383V19.9285C0.753586 19.0615 0.895599 18.2002 1.17542 17.3796C1.44204 16.5965 1.83511 15.8625 2.33904 15.2065C2.83032 14.565 3.42597 14.0108 4.10106 13.5669C4.77689 13.1218 5.52707 12.8016 6.31596 12.6214C6.40944 12.5946 6.49682 12.5499 6.57323 12.4898C6.64425 12.4275 6.7009 12.3506 6.73928 12.2643C6.77765 12.1781 6.79682 12.0845 6.79546 11.99C6.79411 11.8956 6.77226 11.8026 6.73144 11.7175C6.69061 11.6323 6.63178 11.5571 6.559 11.4969C6.48656 11.4432 6.40504 11.4031 6.31834 11.3783H6.31626C5.52725 11.1981 4.77696 10.8777 4.10106 10.4326C3.42596 9.98865 2.83032 9.43438 2.33904 8.79294C1.83511 8.13696 1.44204 7.40287 1.17542 6.61982C0.895695 5.79948 0.753684 4.9385 0.75514 4.07178C0.75514 3.99317 0.786366 3.91778 0.841949 3.8622C0.897533 3.80662 0.97292 3.77539 1.05153 3.77539C1.13013 3.77539 1.20552 3.80662 1.26111 3.8622C1.31669 3.91778 1.34791 3.99317 1.34791 4.07178C1.34652 4.87305 1.47771 5.66903 1.73618 6.42747C1.98196 7.14931 2.3443 7.82603 2.80881 8.43075C3.70993 9.6189 4.9964 10.4565 6.44756 10.7998C6.61676 10.843 6.77572 10.9194 6.91526 11.0244C7.06276 11.1407 7.18198 11.2889 7.26395 11.4579C7.34592 11.6269 7.3885 11.8123 7.3885 12.0001C7.3885 12.188 7.34592 12.3734 7.26395 12.5424C7.18198 12.7114 7.06276 12.8596 6.91526 12.9759C6.77572 13.0809 6.61676 13.1572 6.44756 13.2005C4.99645 13.5438 3.70998 14.3812 2.80881 15.5692C2.3443 16.174 1.98196 16.8507 1.73618 17.5725C1.47768 18.3311 1.34649 19.1271 1.34791 19.9285V21.4401C1.34745 21.5184 1.31601 21.5933 1.26048 21.6485C1.20495 21.7037 1.12983 21.7347 1.05153 21.7347Z" fill="currentColor"/>
<path d="M0.592775 21.142H15.8567C16.014 21.142 16.1647 21.2044 16.2759 21.3156C16.3871 21.4268 16.4495 21.5775 16.4495 21.7347V23.4073C16.4495 23.4851 16.4342 23.5622 16.4044 23.6341C16.3746 23.706 16.3309 23.7714 16.2759 23.8264C16.2209 23.8815 16.1555 23.9251 16.0836 23.9549C16.0117 23.9847 15.9346 24 15.8567 24H0.592775C0.435562 24 0.284787 23.9376 0.17362 23.8264C0.0624529 23.7152 0 23.5645 0 23.4073V21.7347C0 21.5775 0.0624529 21.4268 0.17362 21.3156C0.284787 21.2044 0.435562 21.142 0.592775 21.142ZM15.8567 23.4073V21.7347H0.592775V23.4073H15.8567Z" fill="currentColor"/>
<path d="M15.3979 21.7347C15.3193 21.7347 15.244 21.7034 15.1884 21.6479C15.1328 21.5923 15.1016 21.5169 15.1016 21.4383V19.9267C15.103 19.1254 14.9718 18.3295 14.7133 17.571C14.4675 16.8492 14.1052 16.1725 13.6407 15.5677C12.7391 14.3808 11.4528 13.5445 10.0022 13.202C9.83289 13.1588 9.67383 13.0824 9.53421 12.9773C9.38671 12.861 9.2675 12.7128 9.18553 12.5438C9.10356 12.3748 9.06097 12.1894 9.06097 12.0016C9.06097 11.8138 9.10356 11.6284 9.18553 11.4594C9.2675 11.2904 9.38671 11.1422 9.53421 11.0259C9.67383 10.9208 9.83289 10.8444 10.0022 10.8012C11.4534 10.4572 12.7397 9.61893 13.6404 8.43012C14.1049 7.8254 14.4672 7.14868 14.713 6.42684C14.9715 5.6684 15.1027 4.87242 15.1013 4.07115V2.56165C15.1013 2.48304 15.1325 2.40765 15.1881 2.35207C15.2437 2.29649 15.319 2.26526 15.3977 2.26526C15.4763 2.26526 15.5516 2.29649 15.6072 2.35207C15.6628 2.40765 15.694 2.48304 15.694 2.56165V4.07322C15.6956 4.94024 15.5536 5.80153 15.2738 6.62216C15.0071 7.4052 14.6141 8.13929 14.1101 8.79527C13.6189 9.43672 13.0232 9.99098 12.3481 10.4349C11.6723 10.8799 10.9221 11.2002 10.1332 11.3804C10.0397 11.4071 9.95236 11.4518 9.87595 11.512C9.80493 11.5742 9.74828 11.6511 9.70991 11.7374C9.67153 11.8237 9.65236 11.9173 9.65372 12.0117C9.65507 12.1061 9.67692 12.1991 9.71774 12.2843C9.75857 12.3694 9.8174 12.4447 9.89018 12.5049C9.96262 12.5585 10.0441 12.5987 10.1308 12.6234H10.1329C10.9219 12.8037 11.6722 13.124 12.3481 13.5692C13.0232 14.0131 13.6189 14.5674 14.1101 15.2088C14.6141 15.8645 15.0073 16.5983 15.2741 17.381C15.5539 18.2017 15.6959 19.0629 15.6943 19.93V21.4415C15.6935 21.5196 15.6619 21.5941 15.6064 21.649C15.5509 21.7039 15.476 21.7347 15.3979 21.7347Z" fill="currentColor"/>
<path d="M13.1324 21.7348C13.0537 21.7348 12.9784 21.7036 12.9228 21.648C12.8672 21.5924 12.836 21.517 12.836 21.4384C12.8359 21.165 12.753 20.8979 12.5982 20.6725C12.4434 20.4472 12.2239 20.274 11.9687 20.1758L8.22418 18.7356L4.48021 20.1758C4.225 20.274 4.00553 20.4472 3.85072 20.6725C3.6959 20.8979 3.61302 21.165 3.61298 21.4384C3.61298 21.517 3.58175 21.5924 3.52617 21.648C3.47058 21.7036 3.3952 21.7348 3.31659 21.7348C3.23798 21.7348 3.1626 21.7036 3.10701 21.648C3.05143 21.5924 3.0202 21.517 3.0202 21.4384C3.02022 21.0451 3.13941 20.6611 3.36205 20.3369C3.5847 20.0127 3.90035 19.7636 4.2674 19.6224L8.11837 18.1405C8.18686 18.1141 8.26269 18.1141 8.33118 18.1405L12.1821 19.6224C12.5492 19.7636 12.8648 20.0127 13.0875 20.3369C13.3101 20.6611 13.4293 21.0451 13.4293 21.4384C13.4293 21.4774 13.4217 21.516 13.4067 21.552C13.3918 21.5879 13.3699 21.6206 13.3423 21.6482C13.3147 21.6757 13.282 21.6975 13.246 21.7124C13.2099 21.7272 13.1713 21.7349 13.1324 21.7348Z" fill="currentColor"/>
<path d="M3.69414 4.90821C3.70402 4.90821 3.7139 4.90821 3.72378 4.90821C3.76142 4.91206 7.49294 5.28433 8.22472 5.28433C8.9565 5.28433 12.6877 4.91354 12.7254 4.90821C12.7692 4.90383 12.8134 4.90926 12.8549 4.92412C12.8963 4.93899 12.934 4.9629 12.965 4.99412C12.9961 5.02535 13.0198 5.0631 13.0344 5.10463C13.049 5.14617 13.0542 5.19044 13.0496 5.23424C12.9669 5.83254 12.78 6.41174 12.4974 6.94558C12.2194 7.5036 11.8119 7.987 11.3089 8.3554C10.8059 8.7238 10.2221 8.96652 9.60619 9.06327C9.37306 9.11358 9.15254 9.21062 8.95794 9.34851C8.76335 9.48641 8.59872 9.66231 8.47398 9.86559C8.4472 9.90757 8.41026 9.94213 8.36659 9.96606C8.32292 9.99 8.27393 10.0025 8.22413 10.0025C8.17433 10.0025 8.12533 9.99 8.08166 9.96606C8.038 9.94213 8.00106 9.90757 7.97427 9.86559C7.84954 9.66231 7.68491 9.48641 7.49031 9.34851C7.29572 9.21062 7.07521 9.11358 6.84207 9.06327C6.22617 8.96652 5.64234 8.7238 5.13937 8.3554C4.63639 7.987 4.22886 7.5036 3.95081 6.94558C3.66827 6.41174 3.48139 5.83254 3.39864 5.23424C3.39449 5.19297 3.39905 5.1513 3.41202 5.1119C3.42499 5.07251 3.44609 5.03628 3.47394 5.00555C3.50179 4.97482 3.53578 4.95028 3.57371 4.93352C3.61164 4.91675 3.65267 4.90813 3.69414 4.90821ZM8.22443 9.21858C8.55743 8.83511 9.00979 8.57484 9.50867 8.47968C10.0859 8.39099 10.6292 8.15063 11.0831 7.78317C11.4506 7.475 11.7529 7.09652 11.9722 6.66994C12.1595 6.31212 12.3005 5.93198 12.3919 5.53863C11.4002 5.63555 8.84625 5.87918 8.22324 5.87918C7.60024 5.87918 5.04745 5.63584 4.05514 5.53892C4.14845 5.93831 4.29279 6.32401 4.48461 6.68654C4.7195 7.16087 5.06537 7.57153 5.49286 7.88364C5.92035 8.19576 6.41684 8.40012 6.94018 8.47938C7.4391 8.57463 7.89146 8.835 8.22443 9.21858Z" fill="currentColor"/>
<path d="M8.22473 16.8284C8.14613 16.8284 8.07074 16.7971 8.01515 16.7415C7.95957 16.686 7.92834 16.6106 7.92834 16.532V15.0204C7.92834 14.9418 7.95957 14.8664 8.01515 14.8108C8.07074 14.7552 8.14613 14.724 8.22473 14.724C8.30334 14.724 8.37873 14.7552 8.43431 14.8108C8.48989 14.8664 8.52112 14.9418 8.52112 15.0204V16.532C8.52112 16.6106 8.48989 16.686 8.43431 16.7415C8.37873 16.7971 8.30334 16.8284 8.22473 16.8284Z" fill="currentColor"/>
<path d="M16.908 19.0921C16.8294 19.0921 16.754 19.0609 16.6984 19.0053C16.6429 18.9497 16.6116 18.8744 16.6116 18.7957C16.6116 18.7171 16.6429 18.6417 16.6984 18.5862C16.754 18.5306 16.8294 18.4994 16.908 18.4994C18.6317 18.4994 20.2848 17.8146 21.5036 16.5958C22.7225 15.377 23.4072 13.7239 23.4072 12.0002C23.4072 10.2765 22.7225 8.62338 21.5036 7.40455C20.2848 6.18571 18.6317 5.50098 16.908 5.50098C16.8294 5.50098 16.754 5.46975 16.6984 5.41417C16.6429 5.35859 16.6116 5.2832 16.6116 5.20459C16.6116 5.12598 16.6429 5.0506 16.6984 4.99501C16.754 4.93943 16.8294 4.9082 16.908 4.9082C17.8394 4.9082 18.7616 5.09164 19.622 5.44805C20.4824 5.80445 21.2642 6.32684 21.9228 6.98539C22.5813 7.64394 23.1037 8.42575 23.4601 9.28619C23.8165 10.1466 24 11.0688 24 12.0002C24 12.9315 23.8165 13.8537 23.4601 14.7141C23.1037 15.5746 22.5813 16.3564 21.9228 17.0149C21.2642 17.6735 20.4824 18.1959 19.622 18.5523C18.7616 18.9087 17.8394 19.0921 16.908 19.0921Z" fill="currentColor"/>
<path d="M17.2853 9.654C17.2067 9.654 17.1313 9.62277 17.0758 9.56719C17.0202 9.51161 16.989 9.43622 16.989 9.35761V8.60242C16.989 8.52381 17.0202 8.44842 17.0758 8.39284C17.1313 8.33726 17.2067 8.30603 17.2853 8.30603C17.3639 8.30603 17.4393 8.33726 17.4949 8.39284C17.5505 8.44842 17.5817 8.52381 17.5817 8.60242V9.35761C17.5817 9.43622 17.5505 9.51161 17.4949 9.56719C17.4393 9.62277 17.3639 9.654 17.2853 9.654Z" fill="currentColor"/>
<path d="M17.2853 15.6943C17.2067 15.6943 17.1313 15.6631 17.0758 15.6075C17.0202 15.5519 16.989 15.4765 16.989 15.3979V14.6427C16.989 14.5641 17.0202 14.4887 17.0758 14.4331C17.1313 14.3775 17.2067 14.3463 17.2853 14.3463C17.3639 14.3463 17.4393 14.3775 17.4949 14.4331C17.5505 14.4887 17.5817 14.5641 17.5817 14.6427V15.3979C17.5817 15.4765 17.5505 15.5519 17.4949 15.6075C17.4393 15.6631 17.3639 15.6943 17.2853 15.6943Z" fill="currentColor"/>
<path d="M17.852 14.9391H16.7195C16.2905 14.9387 15.8793 14.7682 15.5759 14.4649C15.2726 14.1616 15.102 13.7504 15.1015 13.3214C15.1015 13.2428 15.1327 13.1674 15.1883 13.1119C15.2439 13.0563 15.3193 13.025 15.3979 13.025C15.4765 13.025 15.5519 13.0563 15.6075 13.1119C15.6631 13.1674 15.6943 13.2428 15.6943 13.3214C15.6946 13.5932 15.8027 13.8537 15.9948 14.0458C16.187 14.2379 16.4475 14.346 16.7192 14.3463H17.8517C18.1235 14.3463 18.3842 14.2384 18.5764 14.0462C18.7686 13.8539 18.8766 13.5933 18.8766 13.3214C18.8766 13.0496 18.7686 12.7889 18.5764 12.5967C18.3842 12.4045 18.1235 12.2965 17.8517 12.2965H16.7192C16.2901 12.2965 15.8787 12.1261 15.5753 11.8227C15.2719 11.5193 15.1015 11.1079 15.1015 10.6788C15.1015 10.2498 15.2719 9.83834 15.5753 9.53497C15.8787 9.23159 16.2901 9.06116 16.7192 9.06116H17.8517C18.1568 9.0628 18.4554 9.15006 18.7134 9.31302C18.9714 9.47598 19.1785 9.70808 19.3111 9.98292C19.3402 10.0529 19.3413 10.1315 19.3143 10.2023C19.2873 10.2731 19.2341 10.3309 19.1658 10.3638C19.0974 10.3966 19.0191 10.402 18.9469 10.3789C18.8747 10.3557 18.8141 10.3058 18.7776 10.2393C18.6937 10.0647 18.5625 9.91723 18.3988 9.81367C18.2351 9.71011 18.0457 9.65466 17.852 9.65364H16.7195C16.4477 9.65364 16.187 9.76162 15.9948 9.95383C15.8026 10.146 15.6946 10.4067 15.6946 10.6785C15.6946 10.9504 15.8026 11.2111 15.9948 11.4033C16.187 11.5955 16.4477 11.7035 16.7195 11.7035H17.852C18.281 11.7035 18.6925 11.8739 18.9959 12.1773C19.2992 12.4806 19.4697 12.8921 19.4697 13.3211C19.4697 13.7502 19.2992 14.1616 18.9959 14.465C18.6925 14.7684 18.281 14.9391 17.852 14.9391Z" fill="currentColor"/>
</svg>
