<svg width="200" height="136" viewBox="0 0 200 136" fill="none" xmlns="http://www.w3.org/2000/svg">
<path d="M24.4964 110.332C10.7108 110.332 0.392517 100.052 0.392517 86.2285C0.392517 72.4054 10.6734 62.2554 24.4964 62.2554C36.9456 62.2554 45.404 70.5922 47.1424 82.3498H38.3382C36.768 74.9382 32.0202 69.7791 24.4964 69.7791C15.6923 69.7791 9.08451 76.8448 9.08451 86.2285C9.08451 95.6121 15.6923 102.799 24.4964 102.799C32.1977 102.799 37.0578 97.3505 38.4504 89.6492H47.1984C45.6937 101.696 37.1232 110.323 24.4964 110.323" fill="white"/>
<path d="M53.5632 62.8909H70.8818C84.546 62.9469 94.7988 72.5642 94.7988 86.2564C94.7988 99.9487 84.546 109.211 70.8818 109.211H53.5632V62.8909ZM70.6762 101.734C79.4803 101.734 86.0881 95.7148 86.0881 86.2658C86.0881 76.8167 79.4803 70.452 70.6762 70.452H61.9281V101.734H70.6762Z" fill="white"/>
<path d="M113.669 62.8909L127.866 99.8646L142.175 62.8909H154.633V109.211H146.222V73.6951L132.034 109.211H123.623L109.547 73.8166V109.211H101.136V62.8909H113.669Z" fill="white"/>
<path d="M0 115.753H7.18725C12.8604 115.753 17.1223 119.763 17.1223 125.436C17.1223 131.109 12.8604 134.969 7.18725 134.988H0V115.753ZM7.12183 131.903C7.97566 131.944 8.82845 131.805 9.62532 131.496C10.4222 131.186 11.1454 130.714 11.7485 130.108C12.3516 129.502 12.8212 128.777 13.127 127.979C13.4328 127.18 13.568 126.327 13.524 125.473C13.5641 124.615 13.427 123.758 13.1212 122.956C12.8155 122.153 12.3478 121.422 11.7471 120.808C11.1464 120.195 10.4257 119.711 9.62994 119.388C8.83418 119.065 7.98039 118.909 7.12183 118.931H3.4768V131.922L7.12183 131.903Z" fill="white"/>
<path d="M23.2535 115.791H19.7673V135.034H23.2535V115.791Z" fill="white"/>
<path d="M35.4876 115.753C39.0766 115.753 41.7403 118.239 41.7403 121.529C41.7344 122.939 41.2087 124.298 40.2637 125.345C39.3187 126.391 38.0208 127.053 36.6185 127.202L42.731 134.997H38.6186L32.581 127.305H30.5809V134.997H27.0947V115.753H35.4876ZM35.4876 124.165C35.835 124.165 36.1789 124.096 36.4998 123.963C36.8207 123.831 37.1123 123.636 37.3579 123.39C37.6035 123.144 37.7984 122.853 37.9313 122.532C38.0642 122.211 38.1326 121.867 38.1326 121.52C38.1326 121.172 38.0642 120.829 37.9313 120.508C37.7984 120.187 37.6035 119.895 37.3579 119.65C37.1123 119.404 36.8207 119.209 36.4998 119.076C36.1789 118.943 35.835 118.875 35.4876 118.875H30.5809V124.165H35.4876Z" fill="white"/>
<path d="M44.89 115.753H58.2831V118.884H48.3761V123.454H56.8438V126.576H48.3761V131.866H58.2831V134.997H44.89V115.753Z" fill="white"/>
<path d="M69.9659 135.483C67.3186 135.483 64.7797 134.431 62.9077 132.559C61.0358 130.688 59.9841 128.149 59.9841 125.501C59.9841 122.854 61.0358 120.315 62.9077 118.443C64.7797 116.571 67.3186 115.52 69.9659 115.52C75.1437 115.52 78.6486 118.987 79.3776 123.866H75.7138C75.0689 120.791 73.0969 118.651 69.9659 118.651C66.3115 118.651 63.5731 121.585 63.5731 125.473C63.5731 129.361 66.3115 132.352 69.9659 132.352C73.1717 132.352 75.1905 130.1 75.7606 126.894H79.3963C78.7701 131.903 75.2091 135.483 69.9659 135.483Z" fill="white"/>
<path d="M85.4245 118.819H79.8729V115.753H94.3969V118.781H88.92V134.988H85.4245V118.819Z" fill="white"/>
<path d="M154.633 124.202H101.173V128.09H154.633V124.202Z" fill="white"/>
<path d="M181.326 12.1034H129.922C129.294 12.1022 128.672 12.2248 128.091 12.4643C127.511 12.7037 126.983 13.0553 126.539 13.4989C126.094 13.9426 125.742 14.4695 125.501 15.0495C125.261 15.6296 125.137 16.2514 125.137 16.8793V70.2463C125.137 70.5636 125.263 70.8679 125.487 71.0922C125.711 71.3166 126.016 71.4426 126.333 71.4426C126.491 71.4442 126.649 71.4135 126.795 71.3525C126.941 71.2914 127.073 71.2013 127.184 71.0875L140.773 57.5261H181.354C182.623 57.5261 183.841 57.0219 184.738 56.1245C185.635 55.2271 186.14 54.01 186.14 52.7408V16.8793C186.14 16.249 186.015 15.6249 185.772 15.043C185.53 14.4611 185.175 13.9329 184.728 13.489C184.28 13.045 183.749 12.694 183.165 12.4562C182.582 12.2184 181.957 12.0985 181.326 12.1034Z" fill="#384EA2"/>
<path d="M148.25 5.05636V35.4783C148.25 36.011 148.355 36.5385 148.559 37.0306C148.763 37.5227 149.061 37.9699 149.438 38.3466C149.815 38.7232 150.262 39.022 150.754 39.2258C151.246 39.4297 151.774 39.5346 152.306 39.5346H186.738L198.234 51.0492C198.427 51.2362 198.684 51.343 198.953 51.3482C199.089 51.3507 199.224 51.3263 199.35 51.2763C199.477 51.2263 199.592 51.1518 199.689 51.0571C199.786 50.9624 199.864 50.8493 199.917 50.7244C199.971 50.5995 199.999 50.4653 200 50.3295V5.05636C200 4.52132 199.894 3.99156 199.689 3.49759C199.483 3.00363 199.182 2.55522 198.802 2.17819C198.422 1.80116 197.972 1.50297 197.477 1.30078C196.981 1.09859 196.451 0.996398 195.916 1.0001H152.334C151.799 0.996398 151.269 1.09859 150.773 1.30078C150.278 1.50297 149.828 1.80116 149.448 2.17819C149.068 2.55522 148.767 3.00363 148.561 3.49759C148.356 3.99156 148.25 4.52132 148.25 5.05636Z" fill="#FFCF01"/>
<path d="M182.139 12.1033H148.25V35.5623C148.25 36.6158 148.668 37.6261 149.413 38.371C150.158 39.116 151.169 39.5345 152.222 39.5345H186.083V16.0754C186.084 15.0268 185.669 14.0207 184.93 13.2766C184.191 12.5324 183.188 12.1107 182.139 12.1033Z" fill="#2BB673"/>
</svg>
