<svg id="Group_2191" data-name="Group 2191" xmlns="http://www.w3.org/2000/svg" xmlns:xlink="http://www.w3.org/1999/xlink" width="566.771" height="243.824" viewBox="0 0 566.771 243.824">
  <defs>
    <clipPath id="clip-path">
      <rect id="Rectangle_1050" data-name="Rectangle 1050" width="316.971" height="243.81" fill="none"/>
    </clipPath>
    <clipPath id="clip-path-2">
      <rect id="Rectangle_1053" data-name="Rectangle 1053" width="566.771" height="243.824" fill="none"/>
    </clipPath>
  </defs>
  <g id="Group_2188" data-name="Group 2188" transform="translate(249.799 0.015)">
    <g id="Group_2187" data-name="Group 2187" clip-path="url(#clip-path)">
      <path id="Path_1502" data-name="Path 1502" d="M347.191,199.15a14.438,14.438,0,0,1-1.728,1.3c-3.775,2.054-7.553,4.1-11.37,6.077-1.905.983-3.944,1.712-5.836,2.723-2.938,1.571-5.966,2.96-8.914,4.51-3.013,1.588-6.075,3.086-9.112,4.629q-4.637,2.348-9.268,4.706c-3.253,1.65-6.528,3.263-9.753,4.964a3.818,3.818,0,0,1-3.39.228c-6.171-2.294-12.376-4.512-18.566-6.76q-40.4-14.672-80.82-29.315c-1.744-.631-2.365-1.476-2.219-3.347.758-9.731,1.409-19.469,2.071-29.207.624-9.118,1.207-18.236,1.83-27.353.7-10.308,1.431-20.612,2.116-30.921a3.125,3.125,0,0,1,1.972-2.868q20.75-10.289,41.456-20.665,32.448-16.2,64.884-32.413c1.74-.872,3.287-1.245,5.036-.11a23,23,0,0,0,2.918,1.381q.064.2.133.4-.8,1.57-1.609,3.139a2.41,2.41,0,0,0,.733,3.287c1.639,1.393,3.161,2.922,4.744,4.383,3.99,3.684,8.005,7.344,11.975,11.049,4.214,3.935,8.389,7.915,12.58,11.873a4.026,4.026,0,0,1-1.407.347c-1.543-.209-2.275.491-3,1.825-2.357,4.323-4.871,8.561-7.4,12.788-1.792,3-3.781,5.878-5.542,8.891-3.7,6.327-7.271,12.729-10.96,19.062-3.591,6.165-7.288,12.269-10.852,18.447a2.276,2.276,0,0,0,.156,2.085c3.9,4.486,7.9,8.881,11.856,13.311q4.244,4.747,8.46,9.519,7.414,8.4,14.809,16.809,6.234,7.064,12.509,14.087a5.373,5.373,0,0,0,1.554.843c-.012.1-.023.2-.034.294" transform="translate(-186.194 15.228)" fill="#2e6ae8" fill-rule="evenodd"/>
      <path id="Path_1503" data-name="Path 1503" d="M306.2,187.51c.011-.1.023-.2.034-.294a13.772,13.772,0,0,0,2.407-.723c6.421-3.278,12.812-6.609,19.223-9.909q14.006-7.212,28.029-14.4a3.072,3.072,0,0,0,1.956-2.709c.471-6.271,1.041-12.535,1.554-18.8.384-4.686.722-9.376,1.1-14.064q.8-9.821,1.641-19.64c.412-4.851.891-9.7,1.241-14.556.145-2.006.034-4.025.039-6.043,7.081-.148,14.163-.358,21.246-.4,1.821-.009,2.941-.453,3.654-2.212s1.737-3.377,2.626-5.059a5.994,5.994,0,0,1,1.733.864c1.372,1.409,2.636,2.921,3.943,4.394.011.117.02.235.03.352-1.295,1.187-2.585,2.379-3.891,3.555a1.884,1.884,0,0,0-.424,2.631.529.529,0,0,0,.039.052c4.824,8.411,9.572,16.864,14.422,25.26a3.975,3.975,0,0,0,2.143,1.7c3.323.926,6.7,1.677,10.062,2.448,3.524.809,7.058,1.572,10.588,2.356l2,.939c.868,1.16,1.653,2.4,2.616,3.468q7.182,7.965,14.461,15.842a1.582,1.582,0,0,1,.192,2.227c-2.9,5.075-5.751,10.181-8.605,15.284-3.954,7.069-7.855,14.169-11.856,21.211-3.779,6.656-7.675,13.244-11.471,19.891a18.519,18.519,0,0,0-1.077,2.906l.4.127a9.775,9.775,0,0,1-1.606.785,9.384,9.384,0,0,1-2.736.537c-3.962-.09-7.926-.228-11.883-.47-3.757-.224-7.5-.606-11.256-.9q-4.152-.322-8.309-.585-13.658-.857-27.318-1.688c-6.679-.394-13.361-.715-20.04-1.1-5.376-.311-10.752-.64-16.121-1.05a3.113,3.113,0,0,1-1.838-1.034q-3.97-4.441-7.8-9.01a11.479,11.479,0,0,1-1.156-2.192" transform="translate(-145.202 26.871)" fill="#dd4425" fill-rule="evenodd"/>
      <path id="Path_1504" data-name="Path 1504" d="M277.487,57.987l-.134-.4q3.846-8.343,7.691-16.69,2.242-4.868,4.481-9.739l1.218-.939c3.441-.16,6.885-.282,10.322-.518a2.945,2.945,0,0,0,1.705-.885q3.876-3.936,7.647-7.977c2.045-2.183,4.032-4.418,6.044-6.63l1.507-.881c7.665-.052,15.328-.085,22.991-.162q14.133-.143,28.266-.374a5.077,5.077,0,0,1,3.912,1.58Q388.36,29,403.678,43.538c5.3,5.052,10.572,10.129,15.914,15.135a1.883,1.883,0,0,1,.44,2.636c-5.523,11.259-10.988,22.547-16.51,33.808a18.944,18.944,0,0,1-1.878,2.612c-.621.042-1.244.127-1.863.118-6.46-.1-12.92-.189-19.379-.322-2.037-.043-4.069-.2-6.1-.307.031-.907,0-1.823.109-2.719.212-1.751-.48-2.65-2.2-3.22-4.952-1.641-9.841-3.467-14.752-5.227Q318.61,72.118,279.76,58.207a9.314,9.314,0,0,0-2.273-.22" transform="translate(-155.054 4.352)" fill="#fccc01" fill-rule="evenodd"/>
      <path id="Path_1505" data-name="Path 1505" d="M373.63,86.733c-.011-.117-.022-.235-.03-.35,3.763-4.1,7.513-8.221,11.3-12.3a14.808,14.808,0,0,1,2.536-2.212,2.363,2.363,0,0,1,1.694-.18q16.578,4.1,33.13,8.3a2.893,2.893,0,0,1,1.591,1.262c4.186,7.218,8.315,14.468,12.455,21.71.809,1.418,1.633,2.827,2.407,4.264a2.73,2.73,0,0,1-.5,3.528c-5.584,5.723-11.058,11.557-16.794,17.119-.762.738-2.868.411-4.256.119-2.9-.61-5.737-1.525-8.6-2.316l-2-.934c.429-1.78-1.1-2.459-1.994-3.465-5.543-6.252-11.119-12.473-16.665-18.719-2.173-2.448-4.258-4.972-6.452-7.4-2.571-2.844-5.217-5.621-7.831-8.427" transform="translate(-122.175 24.447)" fill="#97c355" fill-rule="evenodd"/>
      <path id="Path_1506" data-name="Path 1506" d="M318.6,17.693l-1.505.881a6.939,6.939,0,0,0-1.851-.447c-4.256.164-8.508.4-12.763.6a15.516,15.516,0,0,0-2.368.068,2.238,2.238,0,0,0-1.445.908c-1.61,3.319-3.086,6.7-4.673,10.033-.79,1.654-1.74,3.233-2.616,4.847l-1.218.939c-2.725-.015-5.45-.067-8.176-.02-1,.017-1.512-.22-1.811-1.28-.37-1.313-1.217-2.5-1.568-3.814-1.114-4.182-2.1-8.4-3.1-12.61a1.153,1.153,0,0,1,.365-.813c4.561-4.846,9.211-9.611,13.674-14.548a6.715,6.715,0,0,1,5.75-2.415c5.438.186,10.886.06,16.329.067,2.482,0,2.848.3,3.479,2.773,1.134,4.445,2.281,8.885,3.4,13.334a8.025,8.025,0,0,1,.1,1.5" transform="translate(-155.686 -0.014)" fill="#44b9eb" fill-rule="evenodd"/>
      <path id="Path_1507" data-name="Path 1507" d="M349.925,75.72c2.034.106,4.068.268,6.1.307,6.46.134,12.92.227,19.379.322.62.011,1.242-.075,1.863-.117q-.419,1.743-.839,3.488a56.556,56.556,0,0,0-2.626,5.057c-.715,1.76-1.835,2.206-3.655,2.212-7.084.036-14.165.248-21.247.394a.778.778,0,0,0-.209-.129q.34-5.415.676-10.836l.551-.706" transform="translate(-130.682 25.849)" fill="#a18039" fill-rule="evenodd"/>
      <path id="Path_1508" data-name="Path 1508" d="M376.026,88.786c-.005,2.012.106,4.038-.039,6.044-.35,4.855-.829,9.7-1.24,14.556q-.835,9.819-1.642,19.64c-.382,4.688-.72,9.378-1.1,14.065-.513,6.268-1.081,12.532-1.554,18.8a3.073,3.073,0,0,1-1.956,2.707q-14.027,7.176-28.03,14.4c-6.407,3.3-12.8,6.632-19.223,9.909a13.79,13.79,0,0,1-2.405.723,5.374,5.374,0,0,1-1.554-.843q-6.293-7.009-12.509-14.087-7.412-8.4-14.809-16.808-4.214-4.773-8.46-9.519c-3.958-4.427-7.958-8.826-11.856-13.311a2.281,2.281,0,0,1-.157-2.085c3.565-6.181,7.262-12.284,10.852-18.447,3.689-6.334,7.262-12.735,10.96-19.062,1.763-3.013,3.751-5.9,5.544-8.891,2.526-4.226,5.04-8.466,7.4-12.788.727-1.334,1.458-2.034,3-1.825a4.034,4.034,0,0,0,1.409-.347l2.624,1.476c4.763,4.615,9.575,9.179,14.257,13.875a6.212,6.212,0,0,0,5.342,1.8c1.523-.119,3.063-.03,4.595-.032l40.341-.075a.755.755,0,0,1,.212.127" transform="translate(-157.802 24.452)" fill="#1a59a3" fill-rule="evenodd"/>
      <path id="Path_1509" data-name="Path 1509" d="M309,81.684l-2.624-1.476c-4.19-3.956-8.365-7.937-12.58-11.872-3.97-3.707-7.983-7.365-11.975-11.049-1.583-1.461-3.1-2.99-4.744-4.383a2.412,2.412,0,0,1-.732-3.288q.8-1.57,1.609-3.138a9.188,9.188,0,0,1,2.274.22Q319.082,60.59,357.918,74.54c4.912,1.762,9.8,3.587,14.752,5.228,1.721.569,2.415,1.466,2.2,3.219-.109.9-.076,1.813-.109,2.719l-.551.706a7.773,7.773,0,0,0-1.858-.671c-3.09-.28-6.186-.476-9.281-.7-6.306-.456-12.6-.935-18.909-1.363-5.576-.377-11.157-.691-16.734-1.045-1.69-.106-3.377-.254-5.065-.39-3.99-.319-7.983-.657-11.972-.938a4.442,4.442,0,0,0-1.4.384" transform="translate(-155.522 15.861)" fill="#068f4d" fill-rule="evenodd"/>
      <path id="Path_1510" data-name="Path 1510" d="M374.814,82.882c2.616,2.807,5.26,5.584,7.831,8.428,2.194,2.427,4.28,4.951,6.452,7.4,5.546,6.248,11.122,12.469,16.665,18.721.891,1.006,2.423,1.684,1.994,3.464-3.53-.783-7.065-1.547-10.588-2.357-3.365-.774-6.739-1.521-10.062-2.448a3.963,3.963,0,0,1-2.147-1.7c-4.849-8.4-9.6-16.849-14.422-25.26a1.884,1.884,0,0,1,.331-2.643l.054-.04c1.3-1.179,2.593-2.372,3.891-3.555" transform="translate(-123.357 28.298)" fill="#a74336" fill-rule="evenodd"/>
      <path id="Path_1511" data-name="Path 1511" d="M287.336,29.97c.877-1.61,1.826-3.193,2.616-4.847,1.59-3.329,3.063-6.713,4.673-10.031a2.238,2.238,0,0,1,1.444-.912,15.528,15.528,0,0,1,2.369-.067c4.254-.2,8.507-.44,12.763-.6a7,7,0,0,1,1.85.449c-2.012,2.214-4,4.447-6.045,6.63q-3.775,4.033-7.647,7.977a2.95,2.95,0,0,1-1.705.887c-3.437.236-6.881.357-10.322.517" transform="translate(-151.645 4.6)" fill="#46a39b" fill-rule="evenodd"/>
      <path id="Path_1512" data-name="Path 1512" d="M300.591,72.816a4.473,4.473,0,0,1,1.4-.382c3.991.282,7.981.621,11.971.938,1.688.135,3.374.283,5.065.39,5.577.354,11.158.671,16.734,1.045,6.306.427,12.607.907,18.909,1.362,3.1.224,6.191.421,9.281.7a7.62,7.62,0,0,1,1.858.671q-.336,5.417-.678,10.836l-40.342.075c-1.532,0-3.072-.087-4.6.031a6.21,6.21,0,0,1-5.344-1.8c-4.681-4.7-9.495-9.257-14.257-13.876" transform="translate(-147.116 24.729)" fill="#006e45" fill-rule="evenodd"/>
    </g>
  </g>
  <g id="Group_2190" data-name="Group 2190">
    <g id="Group_2189" data-name="Group 2189" clip-path="url(#clip-path-2)">
      <path id="Path_1513" data-name="Path 1513" d="M51.326,152.877C21.962,152.877,0,130.917,0,101.551,0,72.312,21.962,50.472,51.326,50.472c26.525,0,44.54,17.768,48.241,42.812H80.813c-3.334-15.791-13.448-26.77-29.487-26.77-18.754,0-32.818,15.051-32.818,35.037,0,20.111,14.064,35.286,32.818,35.286,16.406,0,26.772-11.6,29.733-28.006H99.691c-3.209,25.661-21.466,44.045-48.365,44.045" transform="translate(0 17.241)"/>
      <path id="Path_1514" data-name="Path 1514" d="M84.409,51.484H121.3c29.118.123,50.954,20.6,50.954,49.723,0,29.238-21.839,48.856-50.957,48.981H84.409Zm36.52,82.663c18.753,0,32.816-12.831,32.816-32.94,0-19.991-14.064-33.685-32.816-33.685H102.3v66.625Z" transform="translate(28.834 17.587)"/>
      <path id="Path_1515" data-name="Path 1515" d="M186.515,51.484,216.869,130.2l30.473-78.716H273.87v98.7H255.977V74.556l-30.228,75.632H207.86L177.88,74.8v75.383H159.987v-98.7Z" transform="translate(54.652 17.587)"/>
      <path id="Path_1516" data-name="Path 1516" d="M0,135.468H15.32c12.084.051,21.154,8.554,21.154,20.642,0,12.142-9.068,20.289-21.154,20.34H0ZM15.163,169.79c7.787,0,13.629-5.329,13.629-13.68,0-8.3-5.843-13.981-13.629-13.981H7.422V169.79Z" transform="translate(0 46.276)"/>
      <rect id="Rectangle_1051" data-name="Rectangle 1051" width="7.427" height="40.986" transform="translate(42.101 181.74)"/>
      <path id="Path_1517" data-name="Path 1517" d="M60.9,135.465c7.635,0,13.321,5.281,13.321,12.3,0,6.248-4.512,11.117-10.914,12.091l13.011,16.6H67.567l-12.862-16.4H50.452v16.4H43.024V135.465Zm0,17.929a5.634,5.634,0,1,0,0-11.268H50.452v11.268Z" transform="translate(14.697 46.275)"/>
      <path id="Path_1518" data-name="Path 1518" d="M71.274,135.466H99.809v6.661H78.7v9.729H96.742v6.661H78.7v11.265H99.809v6.661H71.274Z" transform="translate(24.348 46.276)"/>
      <path id="Path_1519" data-name="Path 1519" d="M116.52,177.568c-12.194,0-21.314-9.118-21.314-21.314,0-12.143,9.118-21.209,21.314-21.209,11.016,0,18.5,7.376,20.031,17.778h-7.788c-1.381-6.559-5.584-11.118-12.243-11.118-7.787,0-13.625,6.249-13.625,14.548,0,8.352,5.839,14.654,13.625,14.654,6.813,0,11.118-4.818,12.345-11.63H136.6c-1.331,10.658-8.914,18.29-20.081,18.29" transform="translate(32.523 46.132)"/>
      <path id="Path_1520" data-name="Path 1520" d="M138.652,141.92H126.819v-6.452h30.944v6.453H146.079V176.45H138.65Z" transform="translate(43.322 46.277)"/>
      <rect id="Rectangle_1052" data-name="Rectangle 1052" width="114.625" height="8.762" transform="translate(214.641 196.662)"/>
    </g>
  </g>
</svg>
